<svg xmlns="http://www.w3.org/2000/svg" xmlns:ev="http://www.w3.org/2001/xml-events" viewBox="0 0 2255 1597" width="2255" xmlns:xlink="http://www.w3.org/1999/xlink" height="1597"><defs/><g transform="translate(5.5,5.5)" id="page1"><rect width="2245" height="1587" x="0" y="0" fill="none"/><path stroke="#323232" stroke-width="1" d="M899.0,1511.7L899.0,.0L.0,.0L.0,1511.7L899.0,1511.7z" fill-rule="nonzero" transform="translate(111.488000,45.049000)" fill="#d0d9f1" id="shape1"/><g transform="translate(1176.559055,290.516000)" id="table2"><g><path stroke="#a0a0a4" stroke-width="1" d="M.0,.0L751.0,.0L751.0,66.6L.0,66.6L.0,.0z" fill="#daedd1"/><text xml:space="preserve" style="fill:#191919;font-family:宋体,PingFang SC,Mircrosoft YaHei,Arial;font-size:12.50pt"><tspan style="font-size:10.00pt" x="340.5" y="38.8">waitStatus</tspan></text></g><g><path stroke="#a0a0a4" stroke-width="1" d="M.0,66.6L148.3,66.6L148.3,133.2L.0,133.2L.0,66.6z" fill="#daedd1"/><text xml:space="preserve" style="fill:#191919;font-family:微软雅黑,PingFang SC,Mircrosoft YaHei,Arial;font-size:12.50pt"><tspan style="font-size:10.00pt" x="9.0" y="105.4">SIGNAL</tspan></text></g><g><path stroke="#a0a0a4" stroke-width="1" d="M148.3,66.6L249.9,66.6L249.9,133.2L148.3,133.2L148.3,66.6z" fill="#daedd1"/><text xml:space="preserve" style="fill:#191919;font-family:微软雅黑,PingFang SC,Mircrosoft YaHei,Arial;font-size:12.50pt"><tspan style="font-size:10.00pt" x="157.3" y="105.4">1</tspan></text></g><g><path stroke="#a0a0a4" stroke-width="1" d="M249.9,66.6L751.0,66.6L751.0,133.2L249.9,133.2L249.9,66.6z" fill="#daedd1"/><text xml:space="preserve" style="fill:#191919;font-family:微软雅黑,PingFang SC,Mircrosoft YaHei,Arial;font-size:12.50pt"><tspan style="font-size:10.00pt" x="258.9" y="105.4">后续线程需要被唤醒</tspan></text></g><g><path stroke="#a0a0a4" stroke-width="1" d="M.0,133.2L148.3,133.2L148.3,199.8L.0,199.8L.0,133.2z" fill="#daedd1"/><text xml:space="preserve" style="fill:#191919;font-family:微软雅黑,PingFang SC,Mircrosoft YaHei,Arial;font-size:12.50pt"><tspan style="font-size:10.00pt" x="9.0" y="172.0">CANCELLED</tspan></text></g><g><path stroke="#a0a0a4" stroke-width="1" d="M148.3,133.2L249.9,133.2L249.9,199.8L148.3,199.8L148.3,133.2z" fill="#daedd1"/><text xml:space="preserve" style="fill:#191919;font-family:微软雅黑,PingFang SC,Mircrosoft YaHei,Arial;font-size:12.50pt"><tspan style="font-size:10.00pt" x="157.3" y="172.0">-1</tspan></text></g><g><path stroke="#a0a0a4" stroke-width="1" d="M249.9,133.2L751.0,133.2L751.0,199.8L249.9,199.8L249.9,133.2z" fill="#daedd1"/><text xml:space="preserve" style="fill:#191919;font-family:微软雅黑,PingFang SC,Mircrosoft YaHei,Arial;font-size:12.50pt"><tspan style="font-size:10.00pt" x="258.9" y="172.0">线程被取消了</tspan></text></g><g><path stroke="#a0a0a4" stroke-width="1" d="M.0,199.8L148.3,199.8L148.3,266.5L.0,266.5L.0,199.8z" fill="#daedd1"/><text xml:space="preserve" style="fill:#191919;font-family:微软雅黑,PingFang SC,Mircrosoft YaHei,Arial;font-size:12.50pt"><tspan style="font-size:10.00pt" x="9.0" y="238.7">CONDITION</tspan></text></g><g><path stroke="#a0a0a4" stroke-width="1" d="M148.3,199.8L249.9,199.8L249.9,266.5L148.3,266.5L148.3,199.8z" fill="#daedd1"/><text xml:space="preserve" style="fill:#191919;font-family:微软雅黑,PingFang SC,Mircrosoft YaHei,Arial;font-size:12.50pt"><tspan style="font-size:10.00pt" x="157.3" y="238.7">-2</tspan></text></g><g><path stroke="#a0a0a4" stroke-width="1" d="M249.9,199.8L751.0,199.8L751.0,266.5L249.9,266.5L249.9,199.8z" fill="#daedd1"/><text xml:space="preserve" style="fill:#191919;font-family:微软雅黑,PingFang SC,Mircrosoft YaHei,Arial;font-size:12.50pt"><tspan style="font-size:10.00pt" x="258.9" y="238.7">线程正在等待某种条件触发</tspan></text></g><g><path stroke="#a0a0a4" stroke-width="1" d="M.0,266.5L148.3,266.5L148.3,333.1L.0,333.1L.0,266.5z" fill="#daedd1"/><text xml:space="preserve" style="fill:#191919;font-family:微软雅黑,PingFang SC,Mircrosoft YaHei,Arial;font-size:12.50pt"><tspan style="font-size:10.00pt" x="9.0" y="305.3">PROPAGATE</tspan></text></g><g><path stroke="#a0a0a4" stroke-width="1" d="M148.3,266.5L249.9,266.5L249.9,333.1L148.3,333.1L148.3,266.5z" fill="#daedd1"/><text xml:space="preserve" style="fill:#191919;font-family:微软雅黑,PingFang SC,Mircrosoft YaHei,Arial;font-size:12.50pt"><tspan style="font-size:10.00pt" x="157.3" y="305.3">-3</tspan></text></g><g><path stroke="#a0a0a4" stroke-width="1" d="M249.9,266.5L751.0,266.5L751.0,333.1L249.9,333.1L249.9,266.5z" fill="#daedd1"/><text xml:space="preserve" style="fill:#191919;font-family:微软雅黑,PingFang SC,Mircrosoft YaHei,Arial;font-size:12.50pt"/></g><g><path stroke="#a0a0a4" stroke-width="1" d="M.0,333.1L148.3,333.1L148.3,399.7L.0,399.7L.0,333.1z" fill="#daedd1"/><text xml:space="preserve" style="fill:#191919;font-family:微软雅黑,PingFang SC,Mircrosoft YaHei,Arial;font-size:12.50pt"><tspan style="font-size:10.00pt" x="9.0" y="371.9">0</tspan></text></g><g><path stroke="#a0a0a4" stroke-width="1" d="M148.3,333.1L249.9,333.1L249.9,399.7L148.3,399.7L148.3,333.1z" fill="#daedd1"/><text xml:space="preserve" style="fill:#191919;font-family:微软雅黑,PingFang SC,Mircrosoft YaHei,Arial;font-size:12.50pt"/></g><g><path stroke="#a0a0a4" stroke-width="1" d="M249.9,333.1L751.0,333.1L751.0,399.7L249.9,399.7L249.9,333.1z" fill="#daedd1"/><text xml:space="preserve" style="fill:#191919;font-family:微软雅黑,PingFang SC,Mircrosoft YaHei,Arial;font-size:12.50pt"/></g></g><g transform="translate(192.512000,1029.495500)" id="shape3"><path stroke="#323232" stroke-width="1" d="M270.0,125.2L270.0,.0L.0,.0L.0,125.2L270.0,125.2z" fill-rule="nonzero" fill="#cfe9d8"/><text xml:space="preserve" style="fill:#191919;font-family:微软雅黑,PingFang SC,Mircrosoft YaHei,Arial;font-size:12.50pt"><tspan style="font-size:10.00pt" x="81.0" y="19.0">CountDownLatch</tspan></text></g><g transform="translate(246.012000,1086.340000)" id="shape4"><path stroke="#323232" stroke-width="1" d="M163.0,34.5L163.0,7.0C163.0,3.1,159.9,.0,156.0,.0L7.0,.0C3.1,.0,.0,3.1,.0,7.0L.0,34.5C.0,38.4,3.1,41.5,7.0,41.5L156.0,41.5C159.9,41.5,163.0,38.4,163.0,34.5z" fill-rule="nonzero" fill="#aad3f5"/><text xml:space="preserve" style="fill:#191919;font-family:微软雅黑,PingFang SC,Mircrosoft YaHei,Arial;font-size:12.50pt"><tspan style="font-size:10.00pt" x="50.5" y="26.3">Sync sync</tspan></text></g><g transform="translate(192.512000,1228.090000)" id="shape5"><path stroke="#323232" stroke-width="1" d="M270.0,283.0L270.0,.0L.0,.0L.0,283.0L270.0,283.0z" fill-rule="nonzero" fill="#aad3f5"/><text xml:space="preserve" style="fill:#191919;font-family:微软雅黑,PingFang SC,Mircrosoft YaHei,Arial;font-size:12.50pt"><tspan style="font-size:10.00pt" x="44.5" y="19.0">AbstractQueuedSynchronizer</tspan></text></g><g transform="translate(246.012000,1283.340000)" id="shape6"><path stroke="#323232" stroke-width="1" d="M163.0,34.5L163.0,7.0C163.0,3.1,159.9,.0,156.0,.0L7.0,.0C3.1,.0,.0,3.1,.0,7.0L.0,34.5C.0,38.4,3.1,41.5,7.0,41.5L156.0,41.5C159.9,41.5,163.0,38.4,163.0,34.5z" fill-rule="nonzero" fill="#ffdcac"/><text xml:space="preserve" style="fill:#191919;font-family:微软雅黑,PingFang SC,Mircrosoft YaHei,Arial;font-size:12.50pt"><tspan style="font-size:10.00pt" x="47.5" y="26.5">Node head</tspan></text></g><g transform="translate(246.012000,1348.840000)" id="shape7"><path stroke="#323232" stroke-width="1" d="M163.0,34.5L163.0,7.0C163.0,3.1,159.9,.0,156.0,.0L7.0,.0C3.1,.0,.0,3.1,.0,7.0L.0,34.5C.0,38.4,3.1,41.5,7.0,41.5L156.0,41.5C159.9,41.5,163.0,38.4,163.0,34.5z" fill-rule="nonzero" fill="#ffdcac"/><text xml:space="preserve" style="fill:#191919;font-family:微软雅黑,PingFang SC,Mircrosoft YaHei,Arial;font-size:12.50pt"><tspan style="font-size:10.00pt" x="53.5" y="26.5">Node tail</tspan></text></g><g transform="translate(246.012000,1413.590000)" id="shape8"><path stroke="#323232" stroke-width="1" d="M163.0,34.5L163.0,7.0C163.0,3.1,159.9,.0,156.0,.0L7.0,.0C3.1,.0,.0,3.1,.0,7.0L.0,34.5C.0,38.4,3.1,41.5,7.0,41.5L156.0,41.5C159.9,41.5,163.0,38.4,163.0,34.5z" fill-rule="nonzero" fill="#ffffff"/><text xml:space="preserve" style="fill:#191919;font-family:微软雅黑,PingFang SC,Mircrosoft YaHei,Arial;font-size:12.50pt"><tspan style="font-size:10.00pt" x="56.5" y="26.5">int state</tspan></text></g><g transform="translate(594.513000,1047.290000)" id="shape9"><path stroke="#323232" stroke-width="1" d="M270.0,491.0L270.0,.0L.0,.0L.0,491.0L270.0,491.0z" fill-rule="nonzero" fill="#ffdcac"/><text xml:space="preserve" style="fill:#191919;font-family:微软雅黑,PingFang SC,Mircrosoft YaHei,Arial;font-size:12.50pt"><tspan style="font-size:10.00pt" x="118.0" y="19.0">Node</tspan></text></g><g transform="translate(327.512000,1127.840000)" id="shape10"><path stroke="#323232" stroke-width="1" d="M.0,.0L.0,95.9" fill="none"/><path stroke="#323232" stroke-width="1" stroke-linecap="round" d="M.0,100.2L3.0,95.1C2.1,95.6,1.1,95.9,.0,95.9C-1.1,95.9,-2.1,95.6,-3.0,95.1L.0,100.2" fill="#323232"/></g><g transform="translate(648.013000,1097.790000)" id="shape11"><path stroke="#323232" stroke-width="1" d="M163.0,45.5L163.0,7.0C163.0,3.1,159.9,.0,156.0,.0L7.0,.0C3.1,.0,.0,3.1,.0,7.0L.0,45.5C.0,49.4,3.1,52.5,7.0,52.5L156.0,52.5C159.9,52.5,163.0,49.4,163.0,45.5z" fill-rule="nonzero" fill="#ffffff"/><text xml:space="preserve" style="fill:#191919;font-family:微软雅黑,PingFang SC,Mircrosoft YaHei,Arial;font-size:12.50pt"><tspan style="font-size:10.00pt" x="36.5" y="22.3">Node SHARED</tspan><tspan style="font-size:10.00pt" x="39.0" y="41.3">= new Node()</tspan></text></g><g transform="translate(648.013000,1168.040000)" id="shape12"><path stroke="#323232" stroke-width="1" d="M163.0,45.5L163.0,7.0C163.0,3.1,159.9,.0,156.0,.0L7.0,.0C3.1,.0,.0,3.1,.0,7.0L.0,45.5C.0,49.4,3.1,52.5,7.0,52.5L156.0,52.5C159.9,52.5,163.0,49.4,163.0,45.5z" fill-rule="nonzero" fill="#ffffff"/><text xml:space="preserve" style="fill:#191919;font-family:微软雅黑,PingFang SC,Mircrosoft YaHei,Arial;font-size:12.50pt"><tspan style="font-size:10.00pt" x="8.0" y="32.0">Node EXCLUSIVE = null</tspan></text></g><g transform="translate(648.013000,1249.540000)" id="shape13"><path stroke="#323232" stroke-width="1" d="M163.0,34.5L163.0,7.0C163.0,3.1,159.9,.0,156.0,.0L7.0,.0C3.1,.0,.0,3.1,.0,7.0L.0,34.5C.0,38.4,3.1,41.5,7.0,41.5L156.0,41.5C159.9,41.5,163.0,38.4,163.0,34.5z" fill-rule="nonzero" fill="#ffffff"/><text xml:space="preserve" style="fill:#191919;font-family:微软雅黑,PingFang SC,Mircrosoft YaHei,Arial;font-size:12.50pt"><tspan style="font-size:10.00pt" x="39.5" y="26.5">int waitStatus</tspan></text></g><g transform="translate(648.013000,1312.290000)" id="shape14"><path stroke="#323232" stroke-width="1" d="M163.0,34.5L163.0,7.0C163.0,3.1,159.9,.0,156.0,.0L7.0,.0C3.1,.0,.0,3.1,.0,7.0L.0,34.5C.0,38.4,3.1,41.5,7.0,41.5L156.0,41.5C159.9,41.5,163.0,38.4,163.0,34.5z" fill-rule="nonzero" fill="#ffffff"/><text xml:space="preserve" style="fill:#191919;font-family:微软雅黑,PingFang SC,Mircrosoft YaHei,Arial;font-size:12.50pt"><tspan style="font-size:10.00pt" x="49.0" y="26.5">Node prev</tspan></text></g><g transform="translate(648.013000,1366.540000)" id="shape15"><path stroke="#323232" stroke-width="1" d="M163.0,34.5L163.0,7.0C163.0,3.1,159.9,.0,156.0,.0L7.0,.0C3.1,.0,.0,3.1,.0,7.0L.0,34.5C.0,38.4,3.1,41.5,7.0,41.5L156.0,41.5C159.9,41.5,163.0,38.4,163.0,34.5z" fill-rule="nonzero" fill="#ffffff"/><text xml:space="preserve" style="fill:#191919;font-family:微软雅黑,PingFang SC,Mircrosoft YaHei,Arial;font-size:12.50pt"><tspan style="font-size:10.00pt" x="49.0" y="26.5">Node next</tspan></text></g><g transform="translate(648.013000,1421.790000)" id="shape16"><path stroke="#323232" stroke-width="1" d="M163.0,34.5L163.0,7.0C163.0,3.1,159.9,.0,156.0,.0L7.0,.0C3.1,.0,.0,3.1,.0,7.0L.0,34.5C.0,38.4,3.1,41.5,7.0,41.5L156.0,41.5C159.9,41.5,163.0,38.4,163.0,34.5z" fill-rule="nonzero" fill="#ffffff"/><text xml:space="preserve" style="fill:#191919;font-family:微软雅黑,PingFang SC,Mircrosoft YaHei,Arial;font-size:12.50pt"><tspan style="font-size:10.00pt" x="38.5" y="26.5">Thread thread</tspan></text></g><g transform="translate(648.013000,1480.540000)" id="shape17"><path stroke="#323232" stroke-width="1" d="M163.0,34.5L163.0,7.0C163.0,3.1,159.9,.0,156.0,.0L7.0,.0C3.1,.0,.0,3.1,.0,7.0L.0,34.5C.0,38.4,3.1,41.5,7.0,41.5L156.0,41.5C159.9,41.5,163.0,38.4,163.0,34.5z" fill-rule="nonzero" fill="#ffffff"/><text xml:space="preserve" style="fill:#191919;font-family:微软雅黑,PingFang SC,Mircrosoft YaHei,Arial;font-size:12.50pt"><tspan style="font-size:10.00pt" x="29.0" y="26.5">Node nextWaiter</tspan></text></g><g transform="translate(409.012000,1304.090000)" id="shape18"><path stroke="#323232" stroke-width="1" d="M.0,.0L181.1,.0" fill="none"/><path stroke="#323232" stroke-width="1" stroke-linecap="round" d="M185.5,.0L180.3,-3.0C180.8,-2.1,181.1,-1.1,181.1,.0C181.1,1.1,180.8,2.1,180.3,3.0L185.5,.0" fill="#323232"/></g><g transform="translate(409.012000,1369.590000)" id="shape19"><path stroke="#323232" stroke-width="1" d="M.0,.0L181.1,.0" fill="none"/><path stroke="#323232" stroke-width="1" stroke-linecap="round" d="M185.5,.0L180.3,-3.0C180.8,-2.1,181.1,-1.1,181.1,.0C181.1,1.1,180.8,2.1,180.3,3.0L185.5,.0" fill="#323232"/></g><g transform="translate(260.236500,528.201000)" id="shape20"><path stroke="#323232" stroke-width="1" d="M126.7,262.0L126.7,7.0C126.7,3.1,123.5,.0,119.7,.0L7.0,.0C3.1,.0,.0,3.1,.0,7.0L.0,262.0C.0,265.9,3.1,269.0,7.0,269.0L119.7,269.0C123.5,269.0,126.7,265.9,126.7,262.0z" fill-rule="nonzero" fill="#aad3f5"/><text xml:space="preserve" style="fill:#191919;font-family:微软雅黑,PingFang SC,Mircrosoft YaHei,Arial;font-size:9.38pt"><tspan style="font-size:7.50pt" x="4.3" y="16.0">Node</tspan></text></g><g transform="translate(273.570400,566.201000)" id="shape21"><path stroke="#323232" stroke-width="1" d="M94.3,21.0L94.3,7.0C94.3,3.1,91.2,.0,87.3,.0L7.0,.0C3.1,.0,.0,3.1,.0,7.0L.0,21.0C.0,24.9,3.1,28.0,7.0,28.0L87.3,28.0C91.2,28.0,94.3,24.9,94.3,21.0z" fill-rule="nonzero" fill="#e1a822"/><text xml:space="preserve" style="fill:#191919;font-family:微软雅黑,PingFang SC,Mircrosoft YaHei,Arial;font-size:9.38pt"><tspan style="font-size:7.50pt" x="13.2" y="18.0">int waitStatus</tspan></text></g><g transform="translate(273.570000,614.201000)" id="shape22"><path stroke="#323232" stroke-width="1" d="M100.0,21.0L100.0,7.0C100.0,3.1,96.9,.0,93.0,.0L7.0,.0C3.1,.0,.0,3.1,.0,7.0L.0,21.0C.0,24.9,3.1,28.0,7.0,28.0L93.0,28.0C96.9,28.0,100.0,24.9,100.0,21.0z" fill-rule="nonzero" fill="#eb8989"/><text xml:space="preserve" style="fill:#191919;font-family:微软雅黑,PingFang SC,Mircrosoft YaHei,Arial;font-size:9.38pt"><tspan style="font-size:7.50pt" x="25.0" y="18.0">Node prev</tspan></text></g><g transform="translate(273.570000,662.201000)" id="shape23"><path stroke="#323232" stroke-width="1" d="M100.0,21.0L100.0,7.0C100.0,3.1,96.9,.0,93.0,.0L7.0,.0C3.1,.0,.0,3.1,.0,7.0L.0,21.0C.0,24.9,3.1,28.0,7.0,28.0L93.0,28.0C96.9,28.0,100.0,24.9,100.0,21.0z" fill-rule="nonzero" fill="#eb8989"/><text xml:space="preserve" style="fill:#191919;font-family:微软雅黑,PingFang SC,Mircrosoft YaHei,Arial;font-size:9.38pt"><tspan style="font-size:7.50pt" x="25.0" y="18.0">Node next</tspan></text></g><g transform="translate(273.570000,710.201000)" id="shape24"><path stroke="#323232" stroke-width="1" d="M100.0,21.0L100.0,7.0C100.0,3.1,96.9,.0,93.0,.0L7.0,.0C3.1,.0,.0,3.1,.0,7.0L.0,21.0C.0,24.9,3.1,28.0,7.0,28.0L93.0,28.0C96.9,28.0,100.0,24.9,100.0,21.0z" fill-rule="nonzero" fill="#ffede9"/><text xml:space="preserve" style="fill:#191919;font-family:微软雅黑,PingFang SC,Mircrosoft YaHei,Arial;font-size:9.38pt"><tspan style="font-size:7.50pt" x="15.5" y="18.0">Thread thread</tspan></text></g><g transform="translate(273.570000,750.201000)" id="shape25"><path stroke="#323232" stroke-width="1" d="M100.0,21.0L100.0,7.0C100.0,3.1,96.9,.0,93.0,.0L7.0,.0C3.1,.0,.0,3.1,.0,7.0L.0,21.0C.0,24.9,3.1,28.0,7.0,28.0L93.0,28.0C96.9,28.0,100.0,24.9,100.0,21.0z" fill-rule="nonzero" fill="#0099d2"/><text xml:space="preserve" style="fill:#191919;font-family:微软雅黑,PingFang SC,Mircrosoft YaHei,Arial;font-size:9.38pt"><tspan style="font-size:7.50pt" x="8.5" y="18.0">Node nextWaiter</tspan></text></g><g transform="translate(496.436500,528.201000)" id="shape26"><path stroke="#323232" stroke-width="1" d="M126.7,262.0L126.7,7.0C126.7,3.1,123.5,.0,119.7,.0L7.0,.0C3.1,.0,.0,3.1,.0,7.0L.0,262.0C.0,265.9,3.1,269.0,7.0,269.0L119.7,269.0C123.5,269.0,126.7,265.9,126.7,262.0z" fill-rule="nonzero" fill="#aada8f"/><text xml:space="preserve" style="fill:#191919;font-family:微软雅黑,PingFang SC,Mircrosoft YaHei,Arial;font-size:9.38pt"><tspan style="font-size:7.50pt" x="4.3" y="16.0">Node</tspan></text></g><g transform="translate(509.770000,566.201000)" id="shape27"><path stroke="#323232" stroke-width="1" d="M100.0,21.0L100.0,7.0C100.0,3.1,96.9,.0,93.0,.0L7.0,.0C3.1,.0,.0,3.1,.0,7.0L.0,21.0C.0,24.9,3.1,28.0,7.0,28.0L93.0,28.0C96.9,28.0,100.0,24.9,100.0,21.0z" fill-rule="nonzero" fill="#e1a822"/><text xml:space="preserve" style="fill:#191919;font-family:微软雅黑,PingFang SC,Mircrosoft YaHei,Arial;font-size:9.38pt"><tspan style="font-size:7.50pt" x="16.0" y="18.0">int waitStatus</tspan></text></g><g transform="translate(509.770000,614.201000)" id="shape28"><path stroke="#323232" stroke-width="1" d="M100.0,21.0L100.0,7.0C100.0,3.1,96.9,.0,93.0,.0L7.0,.0C3.1,.0,.0,3.1,.0,7.0L.0,21.0C.0,24.9,3.1,28.0,7.0,28.0L93.0,28.0C96.9,28.0,100.0,24.9,100.0,21.0z" fill-rule="nonzero" fill="#eb8989"/><text xml:space="preserve" style="fill:#191919;font-family:微软雅黑,PingFang SC,Mircrosoft YaHei,Arial;font-size:9.38pt"><tspan style="font-size:7.50pt" x="25.0" y="18.0">Node prev</tspan></text></g><g transform="translate(509.770000,662.201000)" id="shape29"><path stroke="#323232" stroke-width="1" d="M100.0,21.0L100.0,7.0C100.0,3.1,96.9,.0,93.0,.0L7.0,.0C3.1,.0,.0,3.1,.0,7.0L.0,21.0C.0,24.9,3.1,28.0,7.0,28.0L93.0,28.0C96.9,28.0,100.0,24.9,100.0,21.0z" fill-rule="nonzero" fill="#eb8989"/><text xml:space="preserve" style="fill:#191919;font-family:微软雅黑,PingFang SC,Mircrosoft YaHei,Arial;font-size:9.38pt"><tspan style="font-size:7.50pt" x="25.0" y="18.0">Node next</tspan></text></g><g transform="translate(509.770000,710.201000)" id="shape30"><path stroke="#323232" stroke-width="1" d="M100.0,21.0L100.0,7.0C100.0,3.1,96.9,.0,93.0,.0L7.0,.0C3.1,.0,.0,3.1,.0,7.0L.0,21.0C.0,24.9,3.1,28.0,7.0,28.0L93.0,28.0C96.9,28.0,100.0,24.9,100.0,21.0z" fill-rule="nonzero" fill="#ffede9"/><text xml:space="preserve" style="fill:#191919;font-family:微软雅黑,PingFang SC,Mircrosoft YaHei,Arial;font-size:9.38pt"><tspan style="font-size:7.50pt" x="15.5" y="18.0">Thread thread</tspan></text></g><g transform="translate(509.770000,750.201000)" id="shape31"><path stroke="#323232" stroke-width="1" d="M100.0,21.0L100.0,7.0C100.0,3.1,96.9,.0,93.0,.0L7.0,.0C3.1,.0,.0,3.1,.0,7.0L.0,21.0C.0,24.9,3.1,28.0,7.0,28.0L93.0,28.0C96.9,28.0,100.0,24.9,100.0,21.0z" fill-rule="nonzero" fill="#0099d2"/><text xml:space="preserve" style="fill:#191919;font-family:微软雅黑,PingFang SC,Mircrosoft YaHei,Arial;font-size:9.38pt"><tspan style="font-size:7.50pt" x="8.5" y="18.0">Node nextWaiter</tspan></text></g><g transform="translate(732.636500,528.201000)" id="shape32"><path stroke="#323232" stroke-width="1" d="M126.7,262.0L126.7,7.0C126.7,3.1,123.5,.0,119.7,.0L7.0,.0C3.1,.0,.0,3.1,.0,7.0L.0,262.0C.0,265.9,3.1,269.0,7.0,269.0L119.7,269.0C123.5,269.0,126.7,265.9,126.7,262.0z" fill-rule="nonzero" fill="#aada8f"/><text xml:space="preserve" style="fill:#191919;font-family:微软雅黑,PingFang SC,Mircrosoft YaHei,Arial;font-size:9.38pt"><tspan style="font-size:7.50pt" x="4.3" y="16.0">Node</tspan></text></g><g transform="translate(745.970000,566.201000)" id="shape33"><path stroke="#323232" stroke-width="1" d="M100.0,21.0L100.0,7.0C100.0,3.1,96.9,.0,93.0,.0L7.0,.0C3.1,.0,.0,3.1,.0,7.0L.0,21.0C.0,24.9,3.1,28.0,7.0,28.0L93.0,28.0C96.9,28.0,100.0,24.9,100.0,21.0z" fill-rule="nonzero" fill="#e1a822"/><text xml:space="preserve" style="fill:#191919;font-family:微软雅黑,PingFang SC,Mircrosoft YaHei,Arial;font-size:9.38pt"><tspan style="font-size:7.50pt" x="16.0" y="18.0">int waitStatus</tspan></text></g><g transform="translate(745.970000,614.201000)" id="shape34"><path stroke="#323232" stroke-width="1" d="M100.0,21.0L100.0,7.0C100.0,3.1,96.9,.0,93.0,.0L7.0,.0C3.1,.0,.0,3.1,.0,7.0L.0,21.0C.0,24.9,3.1,28.0,7.0,28.0L93.0,28.0C96.9,28.0,100.0,24.9,100.0,21.0z" fill-rule="nonzero" fill="#eb8989"/><text xml:space="preserve" style="fill:#191919;font-family:微软雅黑,PingFang SC,Mircrosoft YaHei,Arial;font-size:9.38pt"><tspan style="font-size:7.50pt" x="25.0" y="18.0">Node prev</tspan></text></g><g transform="translate(745.970000,662.201000)" id="shape35"><path stroke="#323232" stroke-width="1" d="M100.0,21.0L100.0,7.0C100.0,3.1,96.9,.0,93.0,.0L7.0,.0C3.1,.0,.0,3.1,.0,7.0L.0,21.0C.0,24.9,3.1,28.0,7.0,28.0L93.0,28.0C96.9,28.0,100.0,24.9,100.0,21.0z" fill-rule="nonzero" fill="#eb8989"/><text xml:space="preserve" style="fill:#191919;font-family:微软雅黑,PingFang SC,Mircrosoft YaHei,Arial;font-size:9.38pt"><tspan style="font-size:7.50pt" x="25.0" y="18.0">Node next</tspan></text></g><g transform="translate(745.970000,710.201000)" id="shape36"><path stroke="#323232" stroke-width="1" d="M100.0,21.0L100.0,7.0C100.0,3.1,96.9,.0,93.0,.0L7.0,.0C3.1,.0,.0,3.1,.0,7.0L.0,21.0C.0,24.9,3.1,28.0,7.0,28.0L93.0,28.0C96.9,28.0,100.0,24.9,100.0,21.0z" fill-rule="nonzero" fill="#ffede9"/><text xml:space="preserve" style="fill:#191919;font-family:微软雅黑,PingFang SC,Mircrosoft YaHei,Arial;font-size:9.38pt"><tspan style="font-size:7.50pt" x="15.5" y="18.0">Thread thread</tspan></text></g><g transform="translate(745.970000,750.201000)" id="shape37"><path stroke="#323232" stroke-width="1" d="M100.0,21.0L100.0,7.0C100.0,3.1,96.9,.0,93.0,.0L7.0,.0C3.1,.0,.0,3.1,.0,7.0L.0,21.0C.0,24.9,3.1,28.0,7.0,28.0L93.0,28.0C96.9,28.0,100.0,24.9,100.0,21.0z" fill-rule="nonzero" fill="#0099d2"/><text xml:space="preserve" style="fill:#191919;font-family:微软雅黑,PingFang SC,Mircrosoft YaHei,Arial;font-size:9.38pt"><tspan style="font-size:7.50pt" x="8.5" y="18.0">Node nextWaiter</tspan></text></g><g transform="translate(483.771000,276.201000)" id="shape38"><path stroke="#323232" stroke-width="1" d="M152.0,193.0L152.0,7.0C152.0,3.1,148.9,.0,145.0,.0L7.0,.0C3.1,.0,.0,3.1,.0,7.0L.0,193.0C.0,196.9,3.1,200.0,7.0,200.0L145.0,200.0C148.9,200.0,152.0,196.9,152.0,193.0z" fill-rule="nonzero" fill="#ffe8cd"/><text xml:space="preserve" style="fill:#191919;font-family:微软雅黑,PingFang SC,Mircrosoft YaHei,Arial;font-size:9.38pt"><tspan style="font-size:7.50pt" x="4.0" y="16.0">AQS</tspan></text></g><g transform="translate(509.771000,301.201000)" id="shape39"><path stroke="#323232" stroke-width="1" d="M100.0,36.0L100.0,7.0C100.0,3.1,96.9,.0,93.0,.0L7.0,.0C3.1,.0,.0,3.1,.0,7.0L.0,36.0C.0,39.9,3.1,43.0,7.0,43.0L93.0,43.0C96.9,43.0,100.0,39.9,100.0,36.0z" fill-rule="nonzero" fill="#aad3f5"/><text xml:space="preserve" style="fill:#191919;font-family:微软雅黑,PingFang SC,Mircrosoft YaHei,Arial;font-size:9.38pt"><tspan style="font-size:7.50pt" x="23.5" y="25.5">Node head</tspan></text></g><g transform="translate(509.771000,363.701000)" id="shape40"><path stroke="#323232" stroke-width="1" d="M100.0,36.0L100.0,7.0C100.0,3.1,96.9,.0,93.0,.0L7.0,.0C3.1,.0,.0,3.1,.0,7.0L.0,36.0C.0,39.9,3.1,43.0,7.0,43.0L93.0,43.0C96.9,43.0,100.0,39.9,100.0,36.0z" fill-rule="nonzero" fill="#aada8f"/><text xml:space="preserve" style="fill:#191919;font-family:微软雅黑,PingFang SC,Mircrosoft YaHei,Arial;font-size:9.38pt"><tspan style="font-size:7.50pt" x="27.5" y="25.5">Node tail</tspan></text></g><g transform="translate(509.771000,423.201000)" id="shape41"><path stroke="#323232" stroke-width="1" d="M100.0,36.0L100.0,7.0C100.0,3.1,96.9,.0,93.0,.0L7.0,.0C3.1,.0,.0,3.1,.0,7.0L.0,36.0C.0,39.9,3.1,43.0,7.0,43.0L93.0,43.0C96.9,43.0,100.0,39.9,100.0,36.0z" fill-rule="nonzero" fill="#ffffff"/><text xml:space="preserve" style="fill:#191919;font-family:微软雅黑,PingFang SC,Mircrosoft YaHei,Arial;font-size:9.38pt"><tspan style="font-size:7.50pt" x="29.5" y="25.5">int state</tspan></text></g><g transform="translate(581.488000,821.200500)" id="shape42"><path stroke="#323232" stroke-width="1" d="M174.5,35.3L174.5,7.0C174.5,3.1,171.4,.0,167.5,.0L7.0,.0C3.1,.0,.0,3.1,.0,7.0L.0,35.3C.0,39.2,3.1,42.3,7.0,42.3L167.5,42.3C171.4,42.3,174.5,39.2,174.5,35.3z" fill-rule="nonzero" fill="#ffffff"/><text xml:space="preserve" style="fill:#191919;font-family:微软雅黑,PingFang SC,Mircrosoft YaHei,Arial;font-size:9.38pt"><tspan style="font-size:7.50pt" x="5.8" y="25.1">final Node SHARED = new Node()</tspan></text></g><g transform="translate(559.770000,778.201000)" id="shape43"><path stroke="#323232" stroke-width="1" stroke-dasharray="11,5" d="M.0,.0L.0,62.5L21.7,62.5" fill="none"/><path stroke="#323232" stroke-width="1" stroke-linecap="round" d="M21.7,64.1L24.7,59.0C23.8,59.5,22.8,59.8,21.7,59.8C20.6,59.8,19.6,59.5,18.7,59.0L21.7,64.1" fill="#323232"/></g><g transform="translate(795.970000,778.201000)" id="shape44"><path stroke="#323232" stroke-width="1" stroke-dasharray="11,5" d="M.0,.0L.0,64.1L-35.6,64.1" fill="none"/><path stroke="#323232" stroke-width="1" stroke-linecap="round" d="M-40.0,64.1L-34.8,67.1C-35.3,66.3,-35.6,65.2,-35.6,64.1C-35.6,63.1,-35.3,62.0,-34.8,61.1L-40.0,64.1" fill="#323232"/></g><g transform="translate(609.771000,385.201000)" id="shape45"><path stroke="#323232" stroke-width="1" stroke-dasharray="11,5" d="M.0,.0L186.2,.0L186.2,138.6" fill="none"/><path stroke="#323232" stroke-width="1" stroke-linecap="round" d="M186.2,143.0L189.2,137.8C188.3,138.3,187.3,138.6,186.2,138.6C185.1,138.6,184.1,138.3,183.2,137.8L186.2,143.0" fill="#323232"/></g><g transform="translate(509.771000,322.701000)" id="shape46"><path stroke="#323232" stroke-width="1" stroke-dasharray="11,5" d="M.0,.0L-186.2,.0L-186.2,201.1" fill="none"/><path stroke="#323232" stroke-width="1" stroke-linecap="round" d="M-186.2,205.5L-183.2,200.3C-184.1,200.8,-185.1,201.1,-186.2,201.1C-187.3,201.1,-188.3,200.8,-189.2,200.3L-186.2,205.5" fill="#323232"/></g><g transform="translate(845.970000,676.201000)" id="shape47"><path stroke="#64983e" stroke-width="5.3333301544189453" d="M.0,.0L98.3,.0L98.3,233.5L-661.7,233.5L-661.7,-108.9L-595.9,-108.9" fill="none"/><path stroke="#64983e" stroke-width="1" stroke-linecap="round" d="M-585.7,-108.9L-597.7,-115.8C-596.6,-113.8,-595.9,-111.4,-595.9,-108.9C-595.9,-106.3,-596.6,-104.0,-597.7,-101.9L-585.7,-108.9" fill="#64983e"/></g><g transform="translate(273.570000,628.201000)" id="shape48"><path stroke="#bc8c1a" stroke-width="5.3333301544189453" d="M.0,.0L-66.3,.0L-66.3,262.5L623.7,262.5L623.7,142.1L595.9,142.1" fill="none"/><path stroke="#bc8c1a" stroke-width="1" stroke-linecap="round" d="M585.7,142.1L597.7,149.0C596.6,147.0,595.9,144.6,595.9,142.1C595.9,139.6,596.6,137.2,597.7,135.2L585.7,142.1" fill="#bc8c1a"/></g><g transform="translate(509.770000,628.201000)" id="shape49"><path stroke="#bc8c1a" stroke-width="5.3333301544189453" d="M.0,.0L-112.7,.0" fill="none"/><path stroke="#bc8c1a" stroke-width="1" stroke-linecap="round" d="M-122.9,.0L-110.9,6.9C-112.0,4.9,-112.7,2.5,-112.7,.0C-112.7,-2.5,-112.0,-4.9,-110.9,-6.9L-122.9,.0" fill="#bc8c1a"/></g><g transform="translate(745.970000,628.201000)" id="shape50"><path stroke="#bc8c1a" stroke-width="5.3333301544189453" d="M.0,.0L-112.7,.0" fill="none"/><path stroke="#bc8c1a" stroke-width="1" stroke-linecap="round" d="M-122.9,.0L-110.9,6.9C-112.0,4.9,-112.7,2.5,-112.7,.0C-112.7,-2.5,-112.0,-4.9,-110.9,-6.9L-122.9,.0" fill="#bc8c1a"/></g><g transform="translate(373.570000,676.201000)" id="shape51"><path stroke="#64983e" stroke-width="5.3333301544189453" d="M.0,.0L61.4,.0L61.4,.0L112.7,.0" fill="none"/><path stroke="#64983e" stroke-width="1" stroke-linecap="round" d="M122.9,.0L110.9,-6.9C112.0,-4.9,112.7,-2.5,112.7,.0C112.7,2.5,112.0,4.9,110.9,6.9L122.9,.0" fill="#64983e"/></g><g transform="translate(609.770000,676.201000)" id="shape52"><path stroke="#64983e" stroke-width="5.3333301544189453" d="M.0,.0L61.4,.0L61.4,.0L112.7,.0" fill="none"/><path stroke="#64983e" stroke-width="1" stroke-linecap="round" d="M122.9,.0L110.9,-6.9C112.0,-4.9,112.7,-2.5,112.7,.0C112.7,2.5,112.0,4.9,110.9,6.9L122.9,.0" fill="#64983e"/></g><g transform="matrix(0.000000,1.000000,-1.000000,0.000000,941.586000,917.701000)" id="shape53"><path stroke="#35609f" stroke-width="5.3333301544189453" d="M.0,.0L9.0,.0C11.5,-0.4,14.0,.5,15.8,2.2C17.5,4.0,18.4,6.5,18.0,9.0L18.0,370.8C17.6,373.3,18.5,375.8,20.2,377.6C22.0,379.3,24.5,380.2,27.0,379.8C24.5,379.5,22.0,380.3,20.2,382.1C18.5,383.8,17.6,386.3,18.0,388.8L18.0,750.6C18.4,753.1,17.5,755.6,15.8,757.4C14.0,759.1,11.5,760.0,9.0,759.6L.0,759.6" fill="none"/><text xml:space="preserve" style="fill:#191919;font-family:微软雅黑,PingFang SC,Mircrosoft YaHei,Arial;font-size:17.50pt" transform="matrix(0.00,-1.00,1.00,0.00,-330.8,428.8)"><tspan style="font-size:14.00pt" x="9.0" y="387.3">CLH 队列</tspan></text></g><g transform="translate(155.500000,435.856000)" id="shape54"><path stroke="#323232" stroke-width="1" d="M.0,44.6L.0,7.0C.0,3.1,3.1,.0,7.0,.0L93.0,.0C96.9,.0,100.0,3.1,100.0,7.0L100.0,51.6C100.0,51.6,100.0,51.6,100.0,51.6C92.8,47.0,84.2,44.3,75.0,44.3C75.0,44.3,75.0,44.3,75.0,44.3C75.0,44.3,50.0,51.6,50.0,51.6L50.0,51.6C50.0,51.6,50.0,51.6,50.0,51.6C42.8,56.3,34.2,59.0,25.0,59.0C18.3,59.0,11.9,57.6,6.1,55.0C1.9,53.0,.0,48.5,.0,44.6z" fill-rule="nonzero" fill="#aad3f5"/><text xml:space="preserve" style="fill:#191919;font-family:微软雅黑,PingFang SC,Mircrosoft YaHei,Arial;font-size:9.38pt"><tspan style="font-size:7.50pt" x="35.0" y="16.0">头节点</tspan><tspan style="font-size:7.50pt" x="15.0" y="32.0">不保存线程数据</tspan></text></g><g transform="translate(285.714000,528.201000)" id="shape55"><path stroke="#323232" stroke-width="1" d="M.0,.0L.0,-63.0L-25.6,-63.0" fill="none"/><path stroke="#323232" stroke-width="1" stroke-linecap="round" d="M-30.0,-63.0L-24.8,-60.0C-25.3,-60.9,-25.6,-61.9,-25.6,-63.0C-25.6,-64.1,-25.3,-65.1,-24.8,-66.0L-30.0,-63.0" fill="#323232"/></g><g transform="translate(866.500000,450.981000)" id="shape56"><path stroke="#323232" stroke-width="1" d="M.0,44.4L.0,7.0C.0,3.1,3.1,.0,7.0,.0L93.0,.0C96.9,.0,100.0,3.1,100.0,7.0L100.0,51.4C100.0,51.4,100.0,51.4,100.0,51.4C92.8,46.8,84.2,44.1,75.0,44.1C75.0,44.1,75.0,44.1,75.0,44.1C75.0,44.1,50.0,51.4,50.0,51.4L50.0,51.4C50.0,51.4,50.0,51.4,50.0,51.4C42.8,56.1,34.2,58.8,25.0,58.8C18.3,58.8,11.9,57.3,6.1,54.7C1.9,52.8,.0,48.3,.0,44.4z" fill-rule="nonzero" fill="#aada8f"/><text xml:space="preserve" style="fill:#191919;font-family:微软雅黑,PingFang SC,Mircrosoft YaHei,Arial;font-size:9.38pt"><tspan style="font-size:7.50pt" x="35.0" y="16.0">尾节点</tspan><tspan style="font-size:7.50pt" x="20.0" y="32.0">保存线程数据</tspan></text></g><g transform="translate(859.304000,561.211000)" id="shape57"><path stroke="#323232" stroke-width="1" d="M.0,.0L58.0,.0L58.0,-54.6" fill="none"/><path stroke="#323232" stroke-width="1" stroke-linecap="round" d="M58.0,-59.0L55.0,-53.8C55.9,-54.3,56.9,-54.6,58.0,-54.6C59.1,-54.6,60.1,-54.3,61.0,-53.8L58.0,-59.0" fill="#323232"/></g><g transform="translate(431.721000,102.861000)" id="shape58"><path stroke="#323232" stroke-width="1" d="M256.6,107.8L256.6,7.0C256.6,3.1,253.4,.0,249.6,.0L7.0,.0C3.1,.0,.0,3.1,.0,7.0L.0,107.8C.0,111.7,3.1,114.8,7.0,114.8L249.6,114.8C253.4,114.8,256.6,111.7,256.6,107.8z" fill-rule="nonzero" fill="#eb8989"/><text xml:space="preserve" style="fill:#191919;font-family:微软雅黑,PingFang SC,Mircrosoft YaHei,Arial;font-size:12.50pt"><tspan style="font-size:10.00pt" x="35.3" y="19.0">AbstractOwnableSynchronizer</tspan></text></g><g transform="translate(479.492300,150.701000)" id="shape59"><path stroke="#323232" stroke-width="1" d="M170.2,36.0L170.2,7.0C170.2,3.1,167.1,.0,163.2,.0L7.0,.0C3.1,.0,.0,3.1,.0,7.0L.0,36.0C.0,39.9,3.1,43.0,7.0,43.0L163.2,43.0C167.1,43.0,170.2,39.9,170.2,36.0z" fill-rule="nonzero" fill="#bc8c1a"/><text xml:space="preserve" style="fill:#191919;font-family:微软雅黑,PingFang SC,Mircrosoft YaHei,Arial;font-size:9.38pt"><tspan style="font-size:7.50pt" x="11.6" y="25.5">Thread exclusiveOwnerThread</tspan></text></g><g transform="translate(559.771000,276.201000)" id="shape60"><path stroke="#323232" stroke-width="1" d="M.0,.0L.0,-53.6" fill="none"/><path stroke="#323232" stroke-width="1" stroke-linecap="round" d="M.0,-58.0L-3.0,-52.8C-2.1,-53.3,-1.1,-53.6,.0,-53.6C1.1,-53.6,2.1,-53.3,3.0,-52.8L.0,-58.0" fill="#323232"/></g><g transform="translate(732.637000,130.937200)" id="shape61"><path stroke="#323232" stroke-width="1" d="M.0,44.4L.0,7.0C.0,3.1,3.1,.0,7.0,.0L93.0,.0C96.9,.0,100.0,3.1,100.0,7.0L100.0,51.4C100.0,51.4,100.0,51.4,100.0,51.4C92.8,46.7,84.2,44.0,75.0,44.0C75.0,44.0,75.0,44.0,75.0,44.0C75.0,44.0,50.0,51.4,50.0,51.4L50.0,51.4C50.0,51.4,50.0,51.4,50.0,51.4C42.8,56.0,34.2,58.7,25.0,58.7C18.3,58.7,11.9,57.3,6.1,54.7C1.9,52.8,.0,48.2,.0,44.4z" fill-rule="nonzero" fill="#eb8989"/><text xml:space="preserve" style="fill:#191919;font-family:微软雅黑,PingFang SC,Mircrosoft YaHei,Arial;font-size:12.50pt"><tspan style="font-size:10.00pt" x="4.5" y="19.0">当前获得锁的线</tspan><tspan style="font-size:10.00pt" x="41.5" y="38.0">程 </tspan></text></g><g transform="translate(302.000000,821.200500)" id="shape62"><path stroke="#323232" stroke-width="1" d="M.0,30.0L.0,7.0C.0,3.1,3.1,.0,7.0,.0L167.5,.0C171.4,.0,174.5,3.1,174.5,7.0L174.5,37.0C174.5,37.0,174.5,37.0,174.5,37.0C160.6,33.5,145.9,31.7,130.9,31.7C130.9,31.7,130.9,31.7,130.9,31.7C130.9,31.7,87.3,37.0,87.3,37.0L87.3,37.0C87.3,37.0,87.3,37.0,87.3,37.0C73.3,40.5,58.7,42.3,43.6,42.3C31.0,42.3,18.7,41.0,6.8,38.6C2.2,37.6,.0,33.9,.0,30.0z" fill-rule="nonzero" fill="#0099d2"/><text xml:space="preserve" style="fill:#191919;font-family:微软雅黑,PingFang SC,Mircrosoft YaHei,Arial;font-size:9.38pt"><tspan style="font-size:7.50pt" x="25.3" y="16.0">独占锁的nextWaiter是null,</tspan><tspan style="font-size:7.50pt" x="5.3" y="32.0">共享锁nextWaiter是Node.SHARED</tspan></text></g></g></svg>