<svg xmlns="http://www.w3.org/2000/svg" xmlns:ev="http://www.w3.org/2001/xml-events" viewBox="0 0 2255 1597" width="2255" xmlns:xlink="http://www.w3.org/1999/xlink" height="1597"><defs><linearGradient y2="61" x2="63" x1="30" gradientUnits="userSpaceOnUse" y1="-13" id="lg1"><stop stop-color="#373737" offset="0.00"/><stop stop-color="#494949" offset="0.52"/><stop stop-color="#474747" offset="0.03"/></linearGradient><linearGradient y2="0%" x2="0%" x1="100%" y1="0%" id="lg2"><stop stop-color="#343434" offset="0.14"/><stop stop-color="#383838" offset="0.66"/><stop stop-color="#353535" offset="1.00"/></linearGradient><linearGradient y2="42" x2="43" x1="19" gradientUnits="userSpaceOnUse" y1="-9" id="lg3"><stop stop-color="#4a4a4a" offset="0.45"/><stop stop-color="#565656" offset="0.49"/><stop stop-color="#414141" offset="0.51"/></linearGradient><linearGradient y2="0%" x2="0%" x1="100%" y1="0%" id="lg4"><stop stop-color="#414141" offset="0.00"/><stop stop-color="#4c4c4c" offset="0.25"/><stop stop-color="#353535" offset="1.00"/></linearGradient><linearGradient y2="41" x2="-7" x1="28" gradientUnits="userSpaceOnUse" y1="47" id="lg5"><stop stop-opacity="0.20" stop-color="#8f8f8f" offset="0.00"/><stop stop-opacity="0.00" stop-color="#686868" offset="0.52"/></linearGradient><clipPath id="clip1"><path d="M.0,.0L.0,1.8L19.4,10.8L19.4,8.9L.0,.0z"/></clipPath><linearGradient y2="0%" x2="100%" x1="0%" y1="0%" id="lg6"><stop stop-color="#333333" offset="0.00"/><stop stop-color="#000000" offset="1.00"/></linearGradient><linearGradient y2="100%" x2="0%" x1="0%" y1="0%" id="lg7"><stop stop-color="#333333" offset="0.00"/><stop stop-color="#000000" offset="1.00"/></linearGradient><clipPath id="clip2"><path d="M.0,.0L.0,2.0L19.4,10.9L19.4,8.7L.0,.0z"/></clipPath><linearGradient y2="0%" x2="100%" x1="0%" y1="0%" id="lg8"><stop stop-color="#333333" offset="0.00"/><stop stop-color="#000000" offset="1.00"/></linearGradient><linearGradient y2="100%" x2="0%" x1="0%" y1="0%" id="lg9"><stop stop-color="#333333" offset="0.00"/><stop stop-color="#000000" offset="1.00"/></linearGradient><clipPath id="clip3"><path d="M.0,.0L.0,2.1L19.5,11.1L19.5,9.1L.0,.0z"/></clipPath><linearGradient y2="0%" x2="100%" x1="0%" y1="0%" id="lg10"><stop stop-color="#333333" offset="0.00"/><stop stop-color="#000000" offset="1.00"/></linearGradient><linearGradient y2="100%" x2="0%" x1="0%" y1="0%" id="lg11"><stop stop-color="#333333" offset="0.00"/><stop stop-color="#000000" offset="1.00"/></linearGradient><clipPath id="clip4"><path d="M.0,.0L.0,2.1L19.3,10.9L19.3,8.9L.0,.0z"/></clipPath><linearGradient y2="0%" x2="100%" x1="0%" y1="0%" id="lg12"><stop stop-color="#333333" offset="0.00"/><stop stop-color="#000000" offset="1.00"/></linearGradient><linearGradient y2="100%" x2="0%" x1="0%" y1="0%" id="lg13"><stop stop-color="#333333" offset="0.00"/><stop stop-color="#000000" offset="1.00"/></linearGradient><clipPath id="clip5"><path d="M.0,.0L.0,1.8L17.5,9.4L17.5,7.7L.0,.0z"/></clipPath><linearGradient y2="0%" x2="100%" x1="0%" y1="0%" id="lg14"><stop stop-color="#006fbd" offset="0.00"/><stop stop-color="#004371" offset="1.00"/></linearGradient><linearGradient y2="100%" x2="0%" x1="0%" y1="0%" id="lg15"><stop stop-color="#006fbd" offset="0.00"/><stop stop-color="#004371" offset="1.00"/></linearGradient><linearGradient y2="5" x2="17" x1="0" gradientUnits="userSpaceOnUse" y1="5" id="lg16"><stop stop-color="#00538e" offset="0.00"/><stop stop-color="#00406e" offset="1.00"/></linearGradient><clipPath id="clip6"><path d="M.0,.0L.0,2.2L17.6,10.1L17.6,8.1L.0,.0z"/></clipPath><linearGradient y2="0%" x2="100%" x1="0%" y1="0%" id="lg17"><stop stop-color="#006fbd" offset="0.00"/><stop stop-color="#004371" offset="1.00"/></linearGradient><linearGradient y2="100%" x2="0%" x1="0%" y1="0%" id="lg18"><stop stop-color="#006fbd" offset="0.00"/><stop stop-color="#004371" offset="1.00"/></linearGradient><linearGradient y2="5" x2="18" x1="0" gradientUnits="userSpaceOnUse" y1="5" id="lg19"><stop stop-color="#00538e" offset="0.00"/><stop stop-color="#00406e" offset="1.00"/></linearGradient><clipPath id="clip7"><path d="M.0,.0L17.7,8.0L17.7,9.8L.0,2.2L.0,.0z"/></clipPath><linearGradient y2="0%" x2="100%" x1="0%" y1="0%" id="lg20"><stop stop-color="#006fbd" offset="0.00"/><stop stop-color="#004371" offset="1.00"/></linearGradient><linearGradient y2="100%" x2="0%" x1="0%" y1="0%" id="lg21"><stop stop-color="#006fbd" offset="0.00"/><stop stop-color="#004371" offset="1.00"/></linearGradient><clipPath id="clip8"><path d="M.0,.0L17.7,8.3L17.7,10.2L.0,2.2L.0,.0z"/></clipPath><linearGradient y2="100%" x2="0%" x1="0%" y1="0%" id="lg22"><stop stop-color="#006fbd" offset="0.63"/><stop stop-color="#004371" offset="1.00"/></linearGradient><linearGradient y2="0%" x2="0%" x1="100%" y1="0%" id="lg23"><stop stop-color="#006fbd" offset="0.63"/><stop stop-color="#004371" offset="1.00"/></linearGradient><linearGradient y2="100%" x2="0%" x1="0%" y1="0%" id="lg24"><stop stop-color="#40c2f2" offset="0.00"/><stop stop-opacity="0.00" stop-color="#45c4f3" offset="0.75"/></linearGradient><linearGradient y2="100%" x2="0%" x1="0%" y1="0%" id="lg25"><stop stop-opacity="0.78" stop-color="#40c2f2" offset="0.29"/><stop stop-opacity="0.00" stop-color="#45c4f3" offset="0.72"/></linearGradient><linearGradient y2="3" x2="-1" x1="16" gradientUnits="userSpaceOnUse" y1="6" id="lg26"><stop stop-color="#40c2f2" offset="0.07"/><stop stop-opacity="0.00" stop-color="#45c4f3" offset="0.41"/></linearGradient><linearGradient y2="3" x2="-1" x1="16" gradientUnits="userSpaceOnUse" y1="6" id="lg27"><stop stop-opacity="0.90" stop-color="#40c2f2" offset="0.00"/><stop stop-opacity="0.00" stop-color="#45c4f3" offset="0.41"/></linearGradient><linearGradient y2="60" x2="43" x1="14" gradientUnits="userSpaceOnUse" y1="-6" id="lg28"><stop stop-color="#181818" offset="0.00"/><stop stop-color="#4f4f4f" offset="0.52"/><stop stop-color="#212121" offset="0.78"/></linearGradient><linearGradient y2="72" x2="84" x1="35" gradientUnits="userSpaceOnUse" y1="-19" id="lg29"><stop stop-color="#414141" offset="0.25"/><stop stop-color="#4f4f4f" offset="0.37"/><stop stop-color="#4a4a4a" offset="0.80"/></linearGradient><linearGradient y2="0%" x2="100%" x1="0%" y1="0%" id="lg30"><stop stop-color="#b1b2b6" offset="0.00"/><stop stop-color="#9e9fa4" offset="1.00"/></linearGradient><linearGradient y2="100%" x2="0%" x1="0%" y1="0%" id="lg31"><stop stop-color="#b1b3b7" offset="0.00"/><stop stop-color="#c5c6c9" offset="1.00"/></linearGradient><linearGradient y2="100%" x2="0%" x1="0%" y1="0%" id="lg32"><stop stop-color="#9e9fa4" offset="0.00"/><stop stop-color="#a8a9ad" offset="1.00"/></linearGradient><linearGradient y2="36" x2="19" x1="35" gradientUnits="userSpaceOnUse" y1="-7" id="lg33"><stop stop-color="#181818" offset="0.26"/><stop stop-color="#4f4f4f" offset="0.56"/><stop stop-color="#212121" offset="0.78"/></linearGradient><linearGradient y2="0%" x2="100%" x1="0%" y1="0%" id="lg34"><stop stop-opacity="0.30" stop-color="#ffffff" offset="0.00"/><stop stop-opacity="0.00" stop-color="#ffffff" offset="1.00"/></linearGradient><linearGradient y2="0%" x2="0%" x1="100%" y1="0%" id="lg35"><stop stop-opacity="0.30" stop-color="#ffffff" offset="0.00"/><stop stop-opacity="0.00" stop-color="#ffffff" offset="1.00"/></linearGradient><linearGradient y2="35" x2="20" x1="35" gradientUnits="userSpaceOnUse" y1="-7" id="lg36"><stop stop-color="#181818" offset="0.26"/><stop stop-color="#4f4f4f" offset="0.56"/><stop stop-color="#212121" offset="0.78"/></linearGradient><linearGradient y2="100%" x2="0%" x1="0%" y1="0%" id="lg37"><stop stop-opacity="0.39" stop-color="#ffffff" offset="0.09"/><stop stop-opacity="0.00" stop-color="#ffffff" offset="0.36"/></linearGradient><linearGradient y2="100%" x2="0%" x1="0%" y1="0%" id="lg38"><stop stop-color="#4a4a4a" offset="0.00"/><stop stop-color="#2a2a2a" offset="1.00"/></linearGradient><linearGradient y2="0%" x2="0%" x1="100%" y1="0%" id="lg39"><stop stop-color="#272727" offset="0.00"/><stop stop-color="#373737" offset="0.79"/><stop stop-color="#1d1d1d" offset="1.00"/></linearGradient><linearGradient y2="0%" x2="0%" x1="100%" y1="0%" id="lg40"><stop stop-color="#272727" offset="0.00"/><stop stop-color="#383838" offset="0.83"/><stop stop-color="#1d1d1d" offset="1.00"/></linearGradient><linearGradient y2="0%" x2="0%" x1="100%" y1="0%" id="lg41"><stop stop-color="#272727" offset="0.00"/><stop stop-color="#373737" offset="0.13"/><stop stop-color="#1d1d1d" offset="1.00"/></linearGradient><linearGradient y2="41" x2="-4" x1="28" gradientUnits="userSpaceOnUse" y1="44" id="lg42"><stop stop-opacity="0.25" stop-color="#ffffff" offset="0.00"/><stop stop-opacity="0.00" stop-color="#686868" offset="0.44"/></linearGradient><radialGradient r="8.7" cy="6" fx="6" cx="6" fy="6" gradientUnits="userSpaceOnUse" id="rg1"><stop stop-color="#404040" offset="0.00"/><stop stop-color="#d8d8d8" offset="0.50"/><stop stop-color="#404040" offset="1.00"/></radialGradient><linearGradient y2="100%" x2="0%" x1="0%" y1="0%" id="lg43"><stop stop-color="#000000" offset="0.00"/><stop stop-color="#000000" offset="1.00"/></linearGradient><radialGradient r="14.3" cy="-0" fx="0" cx="0" fy="-0" gradientUnits="userSpaceOnUse" id="rg2"><stop stop-color="#a5a5a5" offset="0.00"/><stop stop-color="#383b3b" offset="0.83"/><stop stop-color="#383b3b" offset="1.00"/></radialGradient><linearGradient y2="0%" x2="0%" x1="100%" y1="0%" id="lg44"><stop stop-color="#d8d8d8" offset="0.00"/><stop stop-color="#bfbfbf" offset="1.00"/></linearGradient><radialGradient r="4.0" cy="0" fx="0" cx="0" fy="0" gradientUnits="userSpaceOnUse" id="rg3"><stop stop-color="#daeafd" offset="0.00"/><stop stop-color="#a8b1b2" offset="0.71"/><stop stop-color="#a8b1b2" offset="1.00"/></radialGradient><linearGradient y2="100%" x2="0%" x1="0%" y1="0%" id="lg45"><stop stop-color="#a5a5a5" offset="0.00"/><stop stop-color="#0c0c0c" offset="1.00"/></linearGradient><radialGradient r="87.3" cy="0" fx="87" cx="87" fy="0" gradientUnits="userSpaceOnUse" id="rg4"><stop stop-color="#383b3b" offset="0.00"/><stop stop-color="#e1ecee" offset="0.99"/><stop stop-color="#e1ecee" offset="1.00"/></radialGradient><linearGradient y2="100%" x2="0%" x1="0%" y1="0%" id="lg46"><stop stop-color="#e1ecee" offset="0.00"/><stop stop-color="#262626" offset="1.00"/></linearGradient><linearGradient y2="0%" x2="100%" x1="0%" y1="0%" id="lg47"><stop stop-color="#383b3b" offset="0.00"/><stop stop-color="#161717" offset="1.00"/></linearGradient><linearGradient y2="0%" x2="100%" x1="0%" y1="0%" id="lg48"><stop stop-color="#cad4d6" offset="0.00"/><stop stop-color="#707677" offset="1.00"/></linearGradient><linearGradient y2="0%" x2="100%" x1="0%" y1="0%" id="lg49"><stop stop-color="#2e2e2e" offset="0.00"/><stop stop-color="#4c4c4c" offset="0.30"/><stop stop-color="#1e1e1e" offset="1.00"/></linearGradient><linearGradient y2="-9" x2="32" x1="24" gradientUnits="userSpaceOnUse" y1="14" id="lg50"><stop stop-opacity="0.33" stop-color="#ffffff" offset="0.00"/><stop stop-opacity="0.02" stop-color="#000000" offset="0.40"/></linearGradient><linearGradient y2="0%" x2="100%" x1="0%" y1="0%" id="lg51"><stop stop-color="#2e2e2e" offset="0.00"/><stop stop-color="#3f3f3f" offset="0.29"/><stop stop-color="#1e1e1e" offset="1.00"/></linearGradient><linearGradient y2="100%" x2="0%" x1="0%" y1="0%" id="lg52"><stop stop-color="#3498db" offset="0.00"/><stop stop-color="#1a567f" offset="1.00"/></linearGradient><linearGradient y2="-9" x2="32" x1="24" gradientUnits="userSpaceOnUse" y1="14" id="lg53"><stop stop-opacity="0.23" stop-color="#ffffff" offset="0.00"/><stop stop-opacity="0.02" stop-color="#000000" offset="0.40"/></linearGradient></defs><g transform="translate(5.5,5.5)" id="page2"><rect width="2245" height="1587" x="0" y="0" fill="none"/><path stroke="#191919" stroke-width="1" d="M334.0,427.4L334.0,7.0C334.0,3.1,330.9,.0,327.0,.0L7.0,.0C3.1,.0,.0,3.1,.0,7.0L.0,427.4C.0,431.3,3.1,434.4,7.0,434.4L327.0,434.4C330.9,434.4,334.0,431.3,334.0,427.4z" fill-rule="nonzero" transform="translate(1848.320000,444.525000)" fill="#cbe3f8" id="shape1"/><g transform="translate(2069.320000,542.915000)" id="group2"><path d="M44.0,32.9C44.0,29.6,38.0,28.1,32.1,28.1C31.0,28.1,29.9,28.2,28.8,28.3L28.8,4.4C28.8,1.9,26.9,.0,24.5,.0L4.3,.0C1.9,.0,.0,1.9,.0,4.4L.0,54.1L20.6,54.1C22.2,57.5,28.2,58.0,32.0,58.0C36.2,58.0,43.4,57.3,43.8,52.6L43.8,33.6C44.0,33.5,44.0,33.2,44.0,32.9z" fill-rule="nonzero" fill="#ffffff" id="shape3"/><g transform="translate(1.537100,1.462200)" id="group4"><path d="M18.0,45.3L5.0,45.3L5.0,43.1L18.0,43.1L18.0,38.7L5.0,38.7L5.0,36.5L18.0,36.5L18.0,32.2L18.0,31.5C18.0,28.4,21.6,26.8,25.9,26.2L25.9,2.9C25.9,1.3,24.6,.0,23.1,.0L2.9,.0C1.3,.0,.0,1.3,.0,2.9L.0,51.2L18.1,51.2L18.1,50.3L18.1,45.3L18.0,45.3zM5.0,6.6L20.8,6.6L20.8,8.9L5.0,8.9L5.0,6.6z" fill-rule="nonzero" fill="#515150" id="shape5"/><path d="M.0,.0L.0,16.3L.0,17.2C.4,20.9,7.8,21.2,10.4,21.2C13.0,21.2,20.5,20.9,20.8,17.2L20.8,16.3L20.8,.0C18.7,1.6,14.5,2.3,10.5,2.3C6.4,2.3,2.1,1.7,.0,.0z" fill-rule="nonzero" transform="translate(20.174700,33.922700)" fill="#515150" id="shape6"/><path d="M20.9,3.3C20.9,5.1,16.3,6.6,10.5,6.6C4.7,6.6,.0,5.1,.0,3.3C.0,1.5,4.7,.0,10.5,.0C16.3,.0,20.9,1.5,20.9,3.3z" fill-rule="nonzero" transform="translate(20.078600,28.171410)" fill="#515150" id="shape7"/></g><circle r="3.0" cy="70.0" cx="-8.2" fill="#191919"/><circle r="3.0" cy="89.0" cx="-8.2" fill="#191919"/><circle r="3.0" cy="108.0" cx="-8.2" fill="#191919"/><text xml:space="preserve" style="fill:#191919;font-family:微软雅黑,PingFang SC,Mircrosoft YaHei,Arial;font-size:12.50pt"><tspan style="font-size:10.00pt" x="-1.0" y="75.5">PrivateKey</tspan><tspan style="font-size:10.00pt" x="-1.0" y="94.5">PublicKey</tspan><tspan style="font-size:10.00pt" x="-1.0" y="113.5">数字证书</tspan></text></g><path stroke="#007faf" stroke-width="4" d="M.0,.0L99.0,.0" transform="translate(1970.880000,571.915000)" fill="none" id="shape8"/><path stroke="#303030" stroke-width="1" d="M.0,.0L2.4,.0C5.0,-0.4,7.7,.5,9.6,2.4C11.5,4.3,12.4,7.0,12.0,9.6L12.0,207.6C11.6,210.2,12.5,212.9,14.4,214.8C16.3,216.7,19.0,217.6,21.6,217.2C19.0,216.8,16.3,217.7,14.4,219.6C12.5,221.5,11.6,224.2,12.0,226.8L12.0,424.8C12.4,427.4,11.5,430.1,9.6,432.0C7.7,433.9,5.0,434.8,2.4,434.4L.0,434.4" transform="matrix(-1.000000,0.000000,0.000000,1.000000,1375.850000,444.526000)" fill="none" id="shape9"/><path stroke="#303030" stroke-width="1" d="M.0,.0L2.4,.0C5.0,-0.4,7.7,.5,9.6,2.4C11.5,4.3,12.4,7.0,12.0,9.6L12.0,207.6C11.6,210.2,12.5,212.9,14.4,214.8C16.3,216.7,19.0,217.6,21.6,217.2C19.0,216.8,16.3,217.7,14.4,219.6C12.5,221.5,11.6,224.2,12.0,226.8L12.0,424.8C12.4,427.4,11.5,430.1,9.6,432.0C7.7,433.9,5.0,434.8,2.4,434.4L.0,434.4" transform="translate(1817.390000,444.526000)" fill="none" id="shape10"/><g transform="translate(1388.320000,462.915000)" id="shape11"><path stroke="#e1a822" stroke-width="4.3333301544189453" d="M.0,.0L413.5,.0" fill="none"/><path stroke="#e1a822" stroke-width="1" stroke-linecap="round" d="M413.5,-6.2L426.0,.0L413.5,6.2L413.5,-6.2" fill="#e1a822"/><rect width="231.0" height="19.0" x="97.9" y="-9.5" fill="#ffffff"/><text xml:space="preserve" style="fill:#191919;font-family:微软雅黑,PingFang SC,Mircrosoft YaHei,Arial;font-size:12.50pt"><tspan style="font-size:10.00pt" x="97.9" y="5.5">4 客户端请求example.dev服务器的证书</tspan></text></g><g transform="translate(1384.931000,493.967000)" id="shape12"><path stroke="#191919" stroke-width="1" d="M232.8,88.0L232.8,7.0C232.8,3.1,229.6,.0,225.8,.0L7.0,.0C3.1,.0,.0,3.1,.0,7.0L.0,88.0C.0,91.9,3.1,95.0,7.0,95.0L225.8,95.0C229.6,95.0,232.8,91.9,232.8,88.0z" fill-rule="nonzero" fill="#cfe9d8"/><text xml:space="preserve" style="fill:#191919;font-family:微软雅黑,PingFang SC,Mircrosoft YaHei,Arial;font-size:12.50pt"><tspan style="font-size:10.00pt" x="8.9" y="24.5">6. 客户端拿到CA的公钥，然后对证书</tspan><tspan style="font-size:10.00pt" x="13.4" y="43.5">进行解密，拿到服务器 PublicKey。</tspan><tspan style="font-size:10.00pt" x="6.4" y="62.5">然后客户端使用CA的PublicKey对服务</tspan><tspan style="font-size:10.00pt" x="19.9" y="81.5">器 PublicKey进行验签，验签通过</tspan></text></g><g transform="translate(1388.320000,698.915000)" id="shape13"><path stroke="#e1a822" stroke-width="4.3333301544189453" d="M.0,.0L403.5,.0" fill="none"/><path stroke="#e1a822" stroke-width="1" stroke-linecap="round" d="M403.5,-6.2L416.0,.0L403.5,6.2L403.5,-6.2" fill="#e1a822"/><rect width="270.0" height="19.0" x="85.6" y="-9.5" fill="#ffffff"/><text xml:space="preserve" style="fill:#191919;font-family:微软雅黑,PingFang SC,Mircrosoft YaHei,Arial;font-size:12.50pt"><tspan style="font-size:10.00pt" x="85.6" y="5.5">8 客户端将加密好的SecurityKey 发送给服务器</tspan></text></g><path stroke="#191919" stroke-width="1" d="M267.6,329.4L267.6,.0L.0,.0L.0,329.4L267.6,329.4z" fill-rule="nonzero" transform="translate(780.718000,1043.625000)" fill="#87cfa5" id="shape14"/><g transform="translate(826.756300,1073.620000)" id="shape15"><path stroke="#000000" stroke-width="1" d="M170.0,53.0L170.0,7.0C170.0,3.1,166.9,.0,163.0,.0L7.0,.0C3.1,.0,.0,3.1,.0,7.0L.0,53.0C.0,56.9,3.1,60.0,7.0,60.0L163.0,60.0C166.9,60.0,170.0,56.9,170.0,53.0z" fill-rule="nonzero" fill="#cfe9d8"/><text xml:space="preserve" style="fill:#191919;font-family:微软雅黑,PingFang SC,Mircrosoft YaHei,Arial;font-size:12.50pt"><tspan style="font-size:10.00pt" x="59.0" y="35.5">加密通信</tspan></text></g><g transform="translate(827.530100,1169.800000)" id="shape16"><path stroke="#191919" stroke-width="1" d="M92.0,53.0L92.0,7.0C92.0,3.1,88.8,.0,85.0,.0L7.0,.0C3.1,.0,.0,3.1,.0,7.0L.0,53.0C.0,56.9,3.1,60.0,7.0,60.0L85.0,60.0C88.8,60.0,92.0,56.9,92.0,53.0z" fill-rule="nonzero" fill="#ffdcac"/><text xml:space="preserve" style="fill:#191919;font-family:微软雅黑,PingFang SC,Mircrosoft YaHei,Arial;font-size:12.50pt"><tspan style="font-size:10.00pt" x="20.0" y="35.5">公钥加密</tspan></text></g><g transform="translate(919.060200,1169.800000)" id="shape17"><path stroke="#191919" stroke-width="1" d="M77.4,53.0L77.4,7.0C77.4,3.1,74.2,.0,70.4,.0L7.0,.0C3.1,.0,.0,3.1,.0,7.0L.0,53.0C.0,56.9,3.1,60.0,7.0,60.0L70.4,60.0C74.2,60.0,77.4,56.9,77.4,53.0z" fill-rule="nonzero" fill="#ffdcac"/><text xml:space="preserve" style="fill:#191919;font-family:微软雅黑,PingFang SC,Mircrosoft YaHei,Arial;font-size:12.50pt"><tspan style="font-size:10.00pt" x="12.7" y="35.5">加密数据</tspan></text></g><g transform="translate(826.757100,1268.980000)" id="shape18"><path stroke="#191919" stroke-width="1" d="M92.0,53.0L92.0,7.0C92.0,3.1,88.8,.0,85.0,.0L7.0,.0C3.1,.0,.0,3.1,.0,7.0L.0,53.0C.0,56.9,3.1,60.0,7.0,60.0L85.0,60.0C88.8,60.0,92.0,56.9,92.0,53.0z" fill-rule="nonzero" fill="#f0b0b1"/><text xml:space="preserve" style="fill:#191919;font-family:微软雅黑,PingFang SC,Mircrosoft YaHei,Arial;font-size:12.50pt"><tspan style="font-size:10.00pt" x="20.0" y="35.5">私钥解密</tspan></text></g><g transform="translate(918.286200,1268.980000)" id="shape19"><path stroke="#191919" stroke-width="1" d="M77.4,53.0L77.4,7.0C77.4,3.1,74.2,.0,70.4,.0L7.0,.0C3.1,.0,.0,3.1,.0,7.0L.0,53.0C.0,56.9,3.1,60.0,7.0,60.0L70.4,60.0C74.2,60.0,77.4,56.9,77.4,53.0z" fill-rule="nonzero" fill="#f0b0b1"/><text xml:space="preserve" style="fill:#191919;font-family:微软雅黑,PingFang SC,Mircrosoft YaHei,Arial;font-size:12.50pt"><tspan style="font-size:10.00pt" x="12.7" y="35.5">解密数据</tspan></text></g><path stroke="#191919" stroke-width="1" d="M249.0,329.4L249.0,.0L.0,.0L.0,329.4L249.0,329.4z" fill-rule="nonzero" transform="translate(1086.319000,1043.625000)" fill="#7cc2f2" id="shape20"/><g transform="translate(1131.164100,1073.620000)" id="shape21"><path stroke="#000000" stroke-width="1" d="M154.5,53.0L154.5,7.0C154.5,3.1,151.4,.0,147.5,.0L7.0,.0C3.1,.0,.0,3.1,.0,7.0L.0,53.0C.0,56.9,3.1,60.0,7.0,60.0L147.5,60.0C151.4,60.0,154.5,56.9,154.5,53.0z" fill-rule="nonzero" fill="#cbe3f8"/><text xml:space="preserve" style="fill:#191919;font-family:微软雅黑,PingFang SC,Mircrosoft YaHei,Arial;font-size:12.50pt"><tspan style="font-size:10.00pt" x="51.2" y="35.5">数字签名</tspan></text></g><g transform="translate(1131.868000,1169.800000)" id="shape22"><path stroke="#191919" stroke-width="1" d="M83.6,53.0L83.6,7.0C83.6,3.1,80.4,.0,76.6,.0L7.0,.0C3.1,.0,.0,3.1,.0,7.0L.0,53.0C.0,56.9,3.1,60.0,7.0,60.0L76.6,60.0C80.4,60.0,83.6,56.9,83.6,53.0z" fill-rule="nonzero" fill="#f0b0b1"/><text xml:space="preserve" style="fill:#191919;font-family:微软雅黑,PingFang SC,Mircrosoft YaHei,Arial;font-size:12.50pt"><tspan style="font-size:10.00pt" x="15.8" y="35.5">私钥加密</tspan></text></g><g transform="translate(1215.040500,1169.800000)" id="shape23"><path stroke="#191919" stroke-width="1" d="M70.3,53.0L70.3,7.0C70.3,3.1,67.2,.0,63.3,.0L7.0,.0C3.1,.0,.0,3.1,.0,7.0L.0,53.0C.0,56.9,3.1,60.0,7.0,60.0L63.3,60.0C67.2,60.0,70.3,56.9,70.3,53.0z" fill-rule="nonzero" fill="#f0b0b1"/><text xml:space="preserve" style="fill:#191919;font-family:微软雅黑,PingFang SC,Mircrosoft YaHei,Arial;font-size:12.50pt"><tspan style="font-size:10.00pt" x="9.1" y="35.5">生成签名</tspan></text></g><g transform="translate(1131.168000,1268.980000)" id="shape24"><path stroke="#191919" stroke-width="1" d="M83.6,53.0L83.6,7.0C83.6,3.1,80.4,.0,76.6,.0L7.0,.0C3.1,.0,.0,3.1,.0,7.0L.0,53.0C.0,56.9,3.1,60.0,7.0,60.0L76.6,60.0C80.4,60.0,83.6,56.9,83.6,53.0z" fill-rule="nonzero" fill="#ffdcac"/><text xml:space="preserve" style="fill:#191919;font-family:微软雅黑,PingFang SC,Mircrosoft YaHei,Arial;font-size:12.50pt"><tspan style="font-size:10.00pt" x="15.8" y="35.5">公钥解密</tspan></text></g><g transform="translate(1214.330500,1268.980000)" id="shape25"><path stroke="#191919" stroke-width="1" d="M70.3,53.0L70.3,7.0C70.3,3.1,67.2,.0,63.3,.0L7.0,.0C3.1,.0,.0,3.1,.0,7.0L.0,53.0C.0,56.9,3.1,60.0,7.0,60.0L63.3,60.0C67.2,60.0,70.3,56.9,70.3,53.0z" fill-rule="nonzero" fill="#ffdcac"/><text xml:space="preserve" style="fill:#191919;font-family:微软雅黑,PingFang SC,Mircrosoft YaHei,Arial;font-size:12.50pt"><tspan style="font-size:10.00pt" x="9.1" y="35.5">验证签名</tspan></text></g><g transform="translate(1389.997000,1043.621000)" id="shape26"><path stroke="#191919" stroke-width="1" d="M802.9,491.3L802.9,.0L.0,.0L.0,491.3L802.9,491.3z" fill-rule="nonzero" fill="#fff4e8"/><text xml:space="preserve" style="fill:#191919;font-family:微软雅黑,PingFang SC,Mircrosoft YaHei,Arial;font-size:12.50pt"><tspan style="font-size:10.00pt" x="362.5" y="19.0">数字签名过程</tspan><tspan style="font-size:10.00pt" x="140.0" y="38.0">数字签名只是对传输数据的hash值进行加密，解密。至于传输的数据是否加密，其并不关心</tspan></text></g><path stroke="#191919" stroke-width="1" d="M338.6,400.2L338.6,.0L.0,.0L.0,400.2L338.6,400.2z" fill-rule="nonzero" transform="translate(1422.560000,1106.461000)" fill="#7cc2f2" id="shape27"/><g transform="translate(1472.208000,1136.450000)" id="shape28"><path stroke="#000000" stroke-width="1" d="M219.8,53.0L219.8,7.0C219.8,3.1,216.6,.0,212.8,.0L7.0,.0C3.1,.0,.0,3.1,.0,7.0L.0,53.0C.0,56.9,3.1,60.0,7.0,60.0L212.8,60.0C216.6,60.0,219.8,56.9,219.8,53.0z" fill-rule="nonzero" fill="#cbe3f8"/><text xml:space="preserve" style="fill:#191919;font-family:微软雅黑,PingFang SC,Mircrosoft YaHei,Arial;font-size:12.50pt"><tspan style="font-size:10.00pt" x="96.9" y="35.5">签名</tspan></text></g><g transform="translate(1591.970000,1229.290000)" id="shape29"><path stroke="#191919" stroke-width="1" d="M100.0,53.0L100.0,7.0C100.0,3.1,96.9,.0,93.0,.0L7.0,.0C3.1,.0,.0,3.1,.0,7.0L.0,53.0C.0,56.9,3.1,60.0,7.0,60.0L93.0,60.0C96.9,60.0,100.0,56.9,100.0,53.0z" fill-rule="nonzero" fill="#f0b0b1"/><text xml:space="preserve" style="fill:#191919;font-family:微软雅黑,PingFang SC,Mircrosoft YaHei,Arial;font-size:12.50pt"><tspan style="font-size:10.00pt" x="37.0" y="35.5">私钥</tspan></text></g><g transform="translate(1532.090000,1329.330000)" id="shape30"><path stroke="#191919" stroke-width="1" d="M100.0,53.0L100.0,7.0C100.0,3.1,96.9,.0,93.0,.0L7.0,.0C3.1,.0,.0,3.1,.0,7.0L.0,53.0C.0,56.9,3.1,60.0,7.0,60.0L93.0,60.0C96.9,60.0,100.0,56.9,100.0,53.0z" fill-rule="nonzero" fill="#ffdcac"/><text xml:space="preserve" style="fill:#191919;font-family:微软雅黑,PingFang SC,Mircrosoft YaHei,Arial;font-size:12.50pt"><tspan style="font-size:10.00pt" x="24.0" y="26.0">签名算法</tspan><tspan style="font-size:10.00pt" x="37.0" y="45.0">加密</tspan></text></g><path stroke="#191919" stroke-width="1" d="M338.6,400.2L338.6,.0L.0,.0L.0,400.2L338.6,400.2z" fill-rule="nonzero" transform="translate(1805.750000,1108.111000)" fill="#d0d9f1" id="shape31"/><g transform="translate(1855.388000,1138.100000)" id="shape32"><path stroke="#000000" stroke-width="1" d="M219.8,53.0L219.8,7.0C219.8,3.1,216.6,.0,212.8,.0L7.0,.0C3.1,.0,.0,3.1,.0,7.0L.0,53.0C.0,56.9,3.1,60.0,7.0,60.0L212.8,60.0C216.6,60.0,219.8,56.9,219.8,53.0z" fill-rule="nonzero" fill="#cbe3f8"/><text xml:space="preserve" style="fill:#191919;font-family:微软雅黑,PingFang SC,Mircrosoft YaHei,Arial;font-size:12.50pt"><tspan style="font-size:10.00pt" x="96.9" y="35.5">验签</tspan></text></g><g transform="translate(1915.611200,1329.330000)" id="shape33"><path stroke="#191919" stroke-width="1" d="M118.9,53.0L118.9,7.0C118.9,3.1,115.8,.0,111.9,.0L7.0,.0C3.1,.0,.0,3.1,.0,7.0L.0,53.0C.0,56.9,3.1,60.0,7.0,60.0L111.9,60.0C115.8,60.0,118.9,56.9,118.9,53.0z" fill-rule="nonzero" fill="#ffdcac"/><text xml:space="preserve" style="fill:#191919;font-family:微软雅黑,PingFang SC,Mircrosoft YaHei,Arial;font-size:12.50pt"><tspan style="font-size:10.00pt" x="33.4" y="26.0">验证签名</tspan><tspan style="font-size:10.00pt" x="46.4" y="45.0">解密</tspan></text></g><g transform="translate(1925.060000,1429.370000)" id="shape34"><path stroke="#191919" stroke-width="1" d="M100.0,53.0L100.0,7.0C100.0,3.1,96.9,.0,93.0,.0L7.0,.0C3.1,.0,.0,3.1,.0,7.0L.0,53.0C.0,56.9,3.1,60.0,7.0,60.0L93.0,60.0C96.9,60.0,100.0,56.9,100.0,53.0z" fill-rule="nonzero" fill="#c2c2c2"/><text xml:space="preserve" style="fill:#191919;font-family:微软雅黑,PingFang SC,Mircrosoft YaHei,Arial;font-size:12.50pt"><tspan style="font-size:10.00pt" x="24.0" y="35.5">验证结果</tspan></text></g><g transform="translate(1472.210000,1229.290000)" id="shape35"><path stroke="#191919" stroke-width="1" d="M100.0,53.0L100.0,7.0C100.0,3.1,96.9,.0,93.0,.0L7.0,.0C3.1,.0,.0,3.1,.0,7.0L.0,53.0C.0,56.9,3.1,60.0,7.0,60.0L93.0,60.0C96.9,60.0,100.0,56.9,100.0,53.0z" fill-rule="nonzero" fill="#b0ddc1"/><text xml:space="preserve" style="fill:#191919;font-family:微软雅黑,PingFang SC,Mircrosoft YaHei,Arial;font-size:12.50pt"><tspan style="font-size:10.00pt" x="24.0" y="26.0">文件数据</tspan><tspan style="font-size:10.00pt" x="22.5" y="45.0">hash计算</tspan></text></g><g transform="translate(1532.090000,1429.370000)" id="shape36"><path stroke="#191919" stroke-width="1" d="M100.0,53.0L100.0,7.0C100.0,3.1,96.9,.0,93.0,.0L7.0,.0C3.1,.0,.0,3.1,.0,7.0L.0,53.0C.0,56.9,3.1,60.0,7.0,60.0L93.0,60.0C96.9,60.0,100.0,56.9,100.0,53.0z" fill-rule="nonzero" fill="#df7746"/><text xml:space="preserve" style="fill:#191919;font-family:微软雅黑,PingFang SC,Mircrosoft YaHei,Arial;font-size:12.50pt"><tspan style="font-size:10.00pt" x="37.0" y="35.5">签名</tspan></text></g><g transform="translate(1641.970000,1289.290000)" id="shape37"><path stroke="#191919" stroke-width="1" d="M.0,.0L.0,70.0L-3.0,70.0" fill="none"/><path stroke="#191919" stroke-width="1" stroke-linecap="round" d="M-3.0,73.0L-9.0,70.0L-3.0,67.0L-3.0,73.0" fill="#191919"/></g><g transform="translate(1517.560000,1289.290000)" id="shape38"><path stroke="#191919" stroke-width="1" d="M.0,.0L.0,70.0L9.0,70.0" fill="none"/><path stroke="#191919" stroke-width="1" stroke-linecap="round" d="M9.0,67.0L15.0,70.0L9.0,73.0L9.0,67.0" fill="#191919"/></g><g transform="translate(1582.090000,1389.330000)" id="shape39"><path stroke="#191919" stroke-width="1" d="M.0,.0L.0,34.0" fill="none"/><path stroke="#191919" stroke-width="1" stroke-linecap="round" d="M3.0,34.0L.0,40.0L-3.0,34.0L3.0,34.0" fill="#191919"/></g><g transform="translate(1855.387700,1229.290000)" id="shape40"><path stroke="#191919" stroke-width="1" d="M63.7,53.0L63.7,7.0C63.7,3.1,60.6,.0,56.7,.0L7.0,.0C3.1,.0,.0,3.1,.0,7.0L.0,53.0C.0,56.9,3.1,60.0,7.0,60.0L56.7,60.0C60.6,60.0,63.7,56.9,63.7,53.0z" fill-rule="nonzero" fill="#b0ddc1"/><text xml:space="preserve" style="fill:#191919;font-family:微软雅黑,PingFang SC,Mircrosoft YaHei,Arial;font-size:12.50pt"><tspan style="font-size:10.00pt" x="5.9" y="26.0">文件数据</tspan><tspan style="font-size:10.00pt" x="4.4" y="45.0">hash计算</tspan></text></g><g transform="translate(1943.187700,1229.290000)" id="shape41"><path stroke="#191919" stroke-width="1" d="M63.7,53.0L63.7,7.0C63.7,3.1,60.6,.0,56.7,.0L7.0,.0C3.1,.0,.0,3.1,.0,7.0L.0,53.0C.0,56.9,3.1,60.0,7.0,60.0L56.7,60.0C60.6,60.0,63.7,56.9,63.7,53.0z" fill-rule="nonzero" fill="#df7746"/><text xml:space="preserve" style="fill:#191919;font-family:微软雅黑,PingFang SC,Mircrosoft YaHei,Arial;font-size:12.50pt"><tspan style="font-size:10.00pt" x="18.9" y="35.5">签名</tspan></text></g><g transform="translate(2039.417700,1229.290000)" id="shape42"><path stroke="#191919" stroke-width="1" d="M63.7,53.0L63.7,7.0C63.7,3.1,60.6,.0,56.7,.0L7.0,.0C3.1,.0,.0,3.1,.0,7.0L.0,53.0C.0,56.9,3.1,60.0,7.0,60.0L56.7,60.0C60.6,60.0,63.7,56.9,63.7,53.0z" fill-rule="nonzero" fill="#f0b0b1"/><text xml:space="preserve" style="fill:#191919;font-family:微软雅黑,PingFang SC,Mircrosoft YaHei,Arial;font-size:12.50pt"><tspan style="font-size:10.00pt" x="18.9" y="35.5">公钥</tspan></text></g><g transform="translate(1887.510000,1289.290000)" id="shape43"><path stroke="#191919" stroke-width="1" d="M.0,.0L.0,70.0L22.0,70.0" fill="none"/><path stroke="#191919" stroke-width="1" stroke-linecap="round" d="M22.0,67.0L28.0,70.0L22.0,73.0L22.0,67.0" fill="#191919"/></g><g transform="translate(1975.060000,1289.290000)" id="shape44"><path stroke="#191919" stroke-width="1" d="M.0,.0L.0,34.0" fill="none"/><path stroke="#191919" stroke-width="1" stroke-linecap="round" d="M3.0,34.0L.0,40.0L-3.0,34.0L3.0,34.0" fill="#191919"/></g><g transform="translate(2071.290000,1289.290000)" id="shape45"><path stroke="#191919" stroke-width="1" d="M.0,.0L.0,70.0L-30.0,70.0" fill="none"/><path stroke="#191919" stroke-width="1" stroke-linecap="round" d="M-30.0,73.0L-36.0,70.0L-30.0,67.0L-30.0,73.0" fill="#191919"/></g><g transform="translate(1975.060000,1389.330000)" id="shape46"><path stroke="#191919" stroke-width="1" d="M.0,.0L.0,34.0" fill="none"/><path stroke="#191919" stroke-width="1" stroke-linecap="round" d="M3.0,34.0L.0,40.0L-3.0,34.0L3.0,34.0" fill="#191919"/></g><g transform="translate(111.988000,384.661000)" id="shape47"><path stroke="#000000" stroke-width="1" d="M405.4,53.0L405.4,7.0C405.4,3.1,402.3,.0,398.4,.0L7.0,.0C3.1,.0,.0,3.1,.0,7.0L.0,53.0C.0,56.9,3.1,60.0,7.0,60.0L398.4,60.0C402.3,60.0,405.4,56.9,405.4,53.0z" fill-rule="nonzero" fill="#cbe3f8"/><text xml:space="preserve" style="fill:#191919;font-family:微软雅黑,PingFang SC,Mircrosoft YaHei,Arial;font-size:12.50pt"><tspan style="font-size:10.00pt" x="4.2" y="35.5">HTTP</tspan></text></g><g transform="translate(111.988000,445.152000)" id="shape48"><path stroke="#000000" stroke-width="1" d="M405.4,367.2L405.4,7.0C405.4,3.1,402.3,.0,398.4,.0L7.0,.0C3.1,.0,.0,3.1,.0,7.0L.0,367.2C.0,371.1,3.1,374.2,7.0,374.2L398.4,374.2C402.3,374.2,405.4,371.1,405.4,367.2z" fill-rule="nonzero" fill="#cbe3f8"/><text xml:space="preserve" style="fill:#191919;font-family:微软雅黑,PingFang SC,Mircrosoft YaHei,Arial;font-size:12.50pt"><tspan style="font-size:10.00pt" x="4.2" y="193.0">SSL</tspan></text></g><g transform="translate(111.988000,819.000000)" id="shape49"><path stroke="#000000" stroke-width="1" d="M405.4,53.0L405.4,7.0C405.4,3.1,402.3,.0,398.4,.0L7.0,.0C3.1,.0,.0,3.1,.0,7.0L.0,53.0C.0,56.9,3.1,60.0,7.0,60.0L398.4,60.0C402.3,60.0,405.4,56.9,405.4,53.0z" fill-rule="nonzero" fill="#cbe3f8"/><text xml:space="preserve" style="fill:#191919;font-family:微软雅黑,PingFang SC,Mircrosoft YaHei,Arial;font-size:12.50pt"><tspan style="font-size:10.00pt" x="4.2" y="35.5">TCP</tspan></text></g><g transform="matrix(-1.000000,0.000000,0.000000,1.000000,111.080000,384.661000)" id="shape50"><path stroke="#eb8989" stroke-width="4" d="M.0,.0L8.5,.0C10.8,-0.3,13.2,.5,14.9,2.1C16.5,3.8,17.3,6.2,17.0,8.5L17.0,237.2C16.7,239.5,17.5,241.9,19.1,243.5C20.8,245.2,23.2,246.0,25.5,245.7C23.2,245.3,20.8,246.1,19.1,247.8C17.5,249.5,16.7,251.8,17.0,254.2L17.0,482.8C17.3,485.2,16.5,487.5,14.9,489.2C13.2,490.9,10.8,491.7,8.5,491.3L.0,491.3" fill="none"/><text xml:space="preserve" style="fill:#191919;font-family:微软雅黑,PingFang SC,Mircrosoft YaHei,Arial;font-size:12.50pt" transform="matrix(-1.00,0.00,0.00,1.00,117.4,0.0)"><tspan style="font-size:10.00pt" x="39.7" y="251.2">HTTPS</tspan></text></g><g transform="translate(1876.880000,509.915000)" id="group51"><path stroke="#3a3a3a" stroke-width="1" d="M.0,25.2L.7,23.4L56.1,.0L93.5,9.7L36.6,47.1L.0,25.2z" fill-rule="nonzero" transform="translate(0.239800,0.000000)" fill="url(#lg1)" id="shape52"/><path stroke="#414141" stroke-width="1" d="M14.7,114.3L73.9,82.0L73.9,1.1L15.5,27.7L.0,74.7L14.7,114.3z" fill-rule="nonzero" transform="translate(20.064200,9.672300)" fill="#414141" id="shape53"/><path stroke="#424242" stroke-width="1" d="M1.2,.0L34.4,13.1C35.1,13.3,35.5,14.0,35.6,14.4L35.6,99.4C35.6,100.1,35.1,100.5,34.4,100.5L1.2,84.2C.3,83.7,.1,83.4,.0,83.0L.0,1.1C.0,.5,.5,.0,1.2,.0z" fill-rule="nonzero" transform="translate(-0.010500,23.427100)" fill="url(#lg2)" id="shape54"/><path d="M.0,27.0C2.5,28.1,2.8,28.0,4.7,29.6C5.7,30.5,6.2,33.2,6.2,33.2L61.9,2.4C61.9,2.4,62.2,1.2,61.7,.8C61.3,.5,57.8,.0,57.8,.0L.0,27.0z" fill-rule="nonzero" transform="translate(31.986800,8.871600)" fill="url(#lg3)" id="shape55"/><path d="M-0.0,.0C1.6,.0,6.2,2.2,6.4,6.0C6.5,7.3,6.4,86.1,6.4,86.1C6.4,86.1,3.3,88.7,2.9,88.3C2.6,87.9,.1,87.0,.1,87.0L-0.0,.0z" fill-rule="nonzero" transform="translate(31.662640,35.651500)" fill="url(#lg4)" id="shape56"/><path d="M21.2,7.2L10.6,88.1L.0,83.6L.0,.3C.0,.3,-0.3,-0.3,1.2,.2L21.2,7.2z" fill-rule="nonzero" transform="translate(0.140400,24.058800)" fill="url(#lg5)" id="shape57"/><g transform="translate(0.080000,34.095000)" id="group58"><g transform="translate(0.126360,-0.000010)" id="shape59"><g clip-path="url(#clip1)"><path stroke="url(#lg6)" stroke-width="2" d="M19.4,.0L19.4,10.8L.0,.0z" fill="url(#lg6)"/></g><g clip-path="url(#clip1)"><path stroke="url(#lg7)" stroke-width="2" d="M19.4,10.8L.0,10.8L.0,.0z" fill="url(#lg7)"/></g><path stroke="#292929" stroke-width="1" d="M.0,.0L.0,1.8L19.4,10.8L19.4,8.9L.0,.0z" fill="none"/></g><g transform="translate(0.126360,12.151070)" id="shape60"><g clip-path="url(#clip2)"><path stroke="url(#lg8)" stroke-width="2" d="M19.4,.0L19.4,10.9L.0,.0z" fill="url(#lg8)"/></g><g clip-path="url(#clip2)"><path stroke="url(#lg9)" stroke-width="2" d="M19.4,10.9L.0,10.9L.0,.0z" fill="url(#lg9)"/></g><path stroke="#292929" stroke-width="1" d="M.0,.0L.0,2.0L19.4,10.9L19.4,8.7L.0,.0z" fill="none"/></g><g transform="translate(-0.000020,24.398860)" id="shape61"><g clip-path="url(#clip3)"><path stroke="url(#lg10)" stroke-width="2" d="M19.5,.0L19.5,11.1L.0,.0z" fill="url(#lg10)"/></g><g clip-path="url(#clip3)"><path stroke="url(#lg11)" stroke-width="2" d="M19.5,11.1L.0,11.1L.0,.0z" fill="url(#lg11)"/></g><path stroke="#292929" stroke-width="1" d="M.0,.0L.0,2.1L19.5,11.1L19.5,9.1L.0,.0z" fill="none"/></g><g transform="translate(0.173330,37.077520)" id="shape62"><g clip-path="url(#clip4)"><path stroke="url(#lg12)" stroke-width="2" d="M19.3,.0L19.3,10.9L.0,.0z" fill="url(#lg12)"/></g><g clip-path="url(#clip4)"><path stroke="url(#lg13)" stroke-width="2" d="M19.3,10.9L.0,10.9L.0,.0z" fill="url(#lg13)"/></g><path stroke="#292929" stroke-width="1" d="M.0,.0L.0,2.1L19.3,10.9L19.3,8.9L.0,.0z" fill="none"/></g><g transform="translate(17.980280,8.346570)" id="shape63"><g clip-path="url(#clip5)"><path stroke="url(#lg14)" stroke-width="2" d="M17.5,.0L17.5,9.4L.0,.0z" fill="url(#lg14)"/></g><g clip-path="url(#clip5)"><path stroke="url(#lg15)" stroke-width="2" d="M17.5,9.4L.0,9.4L.0,.0z" fill="url(#lg15)"/></g><path stroke="url(#lg16)" stroke-width="1" d="M.0,.0L.0,1.8L17.5,9.4L17.5,7.7L.0,.0z" fill="none"/></g><g transform="translate(17.980430,20.207750)" id="shape64"><g clip-path="url(#clip6)"><path stroke="url(#lg17)" stroke-width="2" d="M17.6,.0L17.6,10.1L.0,.0z" fill="url(#lg17)"/></g><g clip-path="url(#clip6)"><path stroke="url(#lg18)" stroke-width="2" d="M17.6,10.1L.0,10.1L.0,.0z" fill="url(#lg18)"/></g><path stroke="url(#lg19)" stroke-width="1" d="M.0,.0L.0,2.2L17.6,10.1L17.6,8.1L.0,.0z" fill="none"/></g><g transform="translate(17.876280,32.781630)" id="shape65"><g clip-path="url(#clip7)"><path stroke="url(#lg20)" stroke-width="2" d="M17.7,.0L17.7,9.8L.0,.0z" fill="url(#lg20)"/></g><g clip-path="url(#clip7)"><path stroke="url(#lg21)" stroke-width="2" d="M17.7,9.8L.0,9.8L.0,.0z" fill="url(#lg21)"/></g><path stroke="url(#lg19)" stroke-width="1" d="M.0,.0L17.7,8.0L17.7,9.8L.0,2.2L.0,.0z" fill="none"/></g><g transform="translate(17.876280,45.145770)" id="shape66"><g clip-path="url(#clip8)"><path stroke="url(#lg22)" stroke-width="2" d="M17.7,10.2L.0,10.2L17.7,.0z" fill="url(#lg22)"/></g><g clip-path="url(#clip8)"><path stroke="url(#lg23)" stroke-width="2" d="M.0,.0L.0,10.2L17.7,.0z" fill="url(#lg23)"/></g><path stroke="url(#lg19)" stroke-width="1" d="M.0,.0L17.7,8.3L17.7,10.2L.0,2.2L.0,.0z" fill="none"/></g><path d="M.0,.0L13.2,5.8L14.7,8.5L.0,2.0L.0,.0z" fill-rule="nonzero" transform="translate(18.915610,8.765740)" fill="url(#lg24)" id="shape67"/><path d="M.0,.0L13.1,6.0L14.6,9.1L.1,2.4L.0,.0z" fill-rule="nonzero" transform="translate(18.687000,20.417210)" fill="url(#lg24)" id="shape68"/><path d="M.0,.0L13.2,5.9L14.7,8.8L.0,2.3L.0,.0z" fill-rule="nonzero" transform="translate(18.853310,33.158750)" fill="url(#lg24)" id="shape69"/><path d="M.0,.0L13.2,5.8L14.7,8.5L.0,2.0L.0,.0z" fill-rule="nonzero" transform="translate(18.853310,45.714640)" fill="url(#lg25)" id="shape70"/><path d="M.0,.0L15.2,7.1L15.2,8.9L2.1,3.1L.0,.0z" fill-rule="nonzero" transform="translate(18.853270,45.714430)" fill="url(#lg26)" id="shape71"/><path d="M.0,.0L15.2,7.1L15.2,8.9L2.1,3.1L.0,.0z" fill-rule="nonzero" transform="translate(19.102770,33.107730)" fill="url(#lg27)" id="shape72"/><path d="M.0,.0L15.2,7.1L15.2,8.9L2.1,3.1L.0,.0z" fill-rule="nonzero" transform="translate(19.154870,20.785430)" fill="url(#lg27)" id="shape73"/><path d="M.0,.0L15.2,7.1L15.2,8.9L2.1,3.1L.0,.0z" fill-rule="nonzero" transform="translate(19.154870,8.588930)" fill="url(#lg27)" id="shape74"/></g><text xml:space="preserve" style="fill:#191919;font-family:微软雅黑,PingFang SC,Mircrosoft YaHei,Arial;font-size:12.50pt"><tspan style="font-size:10.00pt" x="-13.5" y="141.5">example.dev  服务器</tspan></text></g><g transform="translate(1876.880000,729.293500)" id="shape75"><path stroke="#323232" stroke-width="1" d="M276.4,38.6L276.4,7.0C276.4,3.1,273.3,.0,269.4,.0L7.0,.0C3.1,.0,.0,3.1,.0,7.0L.0,38.6C.0,42.5,3.1,45.6,7.0,45.6L269.4,45.6C273.3,45.6,276.4,42.5,276.4,38.6z" fill-rule="nonzero" fill="#7cc2f2"/><text xml:space="preserve" style="fill:#191919;font-family:微软雅黑,PingFang SC,Mircrosoft YaHei,Arial;font-size:12.50pt"><tspan style="font-size:10.00pt" x="39.7" y="19.0">1. 服务器使用非对称加密算法生成</tspan><tspan style="font-size:10.00pt" x="66.2" y="38.0">PrivateKey 和 PublicKey</tspan></text></g><path stroke="#323232" stroke-width="1" d="M365.2,193.0L365.2,7.0C365.2,3.1,362.1,.0,358.2,.0L7.0,.0C3.1,.0,.0,3.1,.0,7.0L.0,193.0C.0,196.9,3.1,200.0,7.0,200.0L358.2,200.0C362.1,200.0,365.2,196.9,365.2,193.0z" fill-rule="nonzero" transform="translate(1445.120000,69.526000)" fill="#fff4e8" id="shape76"/><g transform="translate(1621.520000,158.180000)" id="group77"><path d="M.3,54.2L56.9,21.7L57.0,.7L56.5,.0C56.1,-0.3,.0,22.9,.0,22.9L.3,54.2z" fill-rule="nonzero" transform="translate(62.988900,21.771800)" fill="url(#lg28)" id="shape78"/><path d="M.0,25.2C-0.2,24.7,.9,24.2,.9,24.2C.9,24.2,56.1,-0.3,56.6,.0C57.1,.2,116.9,21.0,119.1,21.7C119.6,22.4,63.6,53.1,63.6,53.1C63.6,53.1,.3,25.7,.0,25.2z" fill-rule="nonzero" transform="translate(0.443300,0.038000)" fill="url(#lg29)" id="shape79"/><path d="M1.0,.0L62.9,28.2C63.5,28.4,63.9,29.0,64.0,29.3L64.1,50.7C64.1,51.3,63.2,51.9,62.7,51.9L2.1,25.0C1.3,24.4,.4,23.8,.2,23.0L.0,1.0C.0,.4,.4,.0,1.0,.0z" fill-rule="nonzero" transform="translate(-0.006900,23.858200)" fill="url(#lg30)" id="shape80"/><path d="M1.0,.0L1.9,.4L1.9,24.6L1.1,24.2C.3,23.8,.2,23.5,.0,23.1L-0.0,1.1C-0.0,.4,.4,.0,1.0,.0z" fill-rule="nonzero" transform="translate(0.207230,24.224000)" fill="url(#lg31)" id="shape81"/><path d="M-0.0,.0L1.3,.5C2.0,.7,2.3,1.3,2.4,1.6L2.5,23.0C2.5,23.6,2.0,24.0,1.4,24.0L.0,23.4L-0.0,.0z" fill-rule="nonzero" transform="translate(61.579220,51.992700)" fill="url(#lg32)" id="shape82"/><path stroke="#494949" stroke-width="1" d="M.0,.0L9.6,11.2L49.6,29.3L54.6,24.5L10.2,4.6L3.9,1.8L.0,.0z" fill-rule="nonzero" transform="matrix(-1.000000,-0.000000,0.000000,-1.000000,59.101200,74.254000)" fill="url(#lg33)" id="shape83"/><path d="M8.1,10.7L7.7,20.1L2.3,25.3L.0,24.4L.1,.0L2.3,.8L8.1,10.7z" fill-rule="nonzero" transform="translate(2.015840,24.638900)" fill="url(#lg34)" id="shape84"/><path d="M.7,1.8L.0,11.9L10.0,22.9L11.9,24.1L11.8,.4L10.7,.0L.7,1.8z" fill-rule="nonzero" transform="translate(49.704550,51.292700)" fill="url(#lg35)" id="shape85"/><path stroke="#494949" stroke-width="1" d="M.0,.0L5.5,9.9L45.8,27.6L55.3,25.5L50.5,22.8L8.5,3.6L.0,.0z" fill-rule="nonzero" transform="translate(4.652900,25.407000)" fill="url(#lg36)" id="shape86"/><g transform="translate(25.110210,46.160910)" id="group87"><path d="M-0.0,2.7C-0.0,1.2,1.0,-0.0,2.2,-0.0C3.4,-0.0,4.4,1.2,4.4,2.7C4.4,4.1,3.4,5.3,2.2,5.3C1.0,5.3,-0.0,4.1,-0.0,2.7z" fill-rule="nonzero" transform="translate(0.003220,-0.017980)" fill="#ededed" id="shape88"/><path d="M-0.0,2.2C-0.0,1.0,.8,-0.0,1.8,-0.0C2.8,-0.0,3.6,1.0,3.6,2.2C3.6,3.5,2.8,4.5,1.8,4.5C.8,4.5,-0.0,3.5,-0.0,2.2z" fill-rule="nonzero" transform="translate(0.361770,0.417470)" fill="#000000" id="shape89"/><path d="M-0.0,2.2C-0.0,1.0,.8,-0.0,1.8,-0.0C2.8,-0.0,3.6,1.0,3.6,2.2C3.6,3.5,2.8,4.5,1.8,4.5C.8,4.5,-0.0,3.5,-0.0,2.2z" fill-rule="nonzero" transform="translate(0.361760,0.417470)" fill="url(#lg37)" id="shape90"/><path d="M.3,.0L.0,.7L3.7,2.4L4.0,1.7L.3,.0z" fill-rule="nonzero" transform="translate(0.115900,1.489950)" fill="#ededed" id="shape91"/></g><text xml:space="preserve" style="fill:#191919;font-family:微软雅黑,PingFang SC,Mircrosoft YaHei,Arial;font-size:12.50pt"><tspan style="font-size:10.00pt" x="32.5" y="93.5">CA服务器</tspan></text></g><g transform="translate(1561.320000,86.526000)" id="group92"><path d="M44.0,32.9C44.0,29.6,38.0,28.1,32.1,28.1C31.0,28.1,29.9,28.2,28.8,28.3L28.8,4.4C28.8,1.9,26.9,.0,24.5,.0L4.3,.0C1.9,.0,.0,1.9,.0,4.4L.0,54.1L20.6,54.1C22.2,57.5,28.2,58.0,32.0,58.0C36.2,58.0,43.4,57.3,43.8,52.6L43.8,33.6C44.0,33.5,44.0,33.2,44.0,32.9z" fill-rule="nonzero" fill="#ffffff" id="shape93"/><g transform="translate(1.537100,1.462200)" id="group94"><path d="M18.0,45.3L5.0,45.3L5.0,43.1L18.0,43.1L18.0,38.7L5.0,38.7L5.0,36.5L18.0,36.5L18.0,32.2L18.0,31.5C18.0,28.4,21.6,26.8,25.9,26.2L25.9,2.9C25.9,1.3,24.6,.0,23.1,.0L2.9,.0C1.3,.0,.0,1.3,.0,2.9L.0,51.2L18.1,51.2L18.1,50.3L18.1,45.3L18.0,45.3zM5.0,6.6L20.8,6.6L20.8,8.9L5.0,8.9L5.0,6.6z" fill-rule="nonzero" fill="#515150" id="shape95"/><path d="M.0,.0L.0,16.3L.0,17.2C.4,20.9,7.8,21.2,10.4,21.2C13.0,21.2,20.5,20.9,20.8,17.2L20.8,16.3L20.8,.0C18.7,1.6,14.5,2.3,10.5,2.3C6.4,2.3,2.1,1.7,.0,.0z" fill-rule="nonzero" transform="translate(20.174700,33.922700)" fill="#515150" id="shape96"/><path d="M20.9,3.3C20.9,5.1,16.3,6.6,10.5,6.6C4.7,6.6,.0,5.1,.0,3.3C.0,1.5,4.7,.0,10.5,.0C16.3,.0,20.9,1.5,20.9,3.3z" fill-rule="nonzero" transform="translate(20.078600,28.171410)" fill="#515150" id="shape97"/></g><circle r="3.0" cy="60.5" cx="-23.7" fill="#191919"/><circle r="3.0" cy="79.5" cx="-23.7" fill="#191919"/><text xml:space="preserve" style="fill:#191919;font-family:微软雅黑,PingFang SC,Mircrosoft YaHei,Arial;font-size:12.50pt"><tspan style="font-size:10.00pt" x="-16.5" y="66.0">CA的PublicKey</tspan><tspan style="font-size:10.00pt" x="-16.5" y="85.0">CA的PrivateKey</tspan></text></g><path stroke="#191919" stroke-width="1" d="M.0,.0L.0,-43.0L-76.0,-43.0" transform="translate(1681.520000,158.180000)" fill="none" id="shape98"/><g transform="translate(1627.720000,269.526000)" id="shape99"><path stroke="#0099d2" stroke-width="4" d="M.0,.0L.0,121.2L247.1,121.2L247.1,163.0" fill="none"/><path stroke="#0099d2" stroke-width="1" stroke-linecap="round" d="M253.1,163.0L247.1,175.0L241.1,163.0L253.1,163.0" fill="#0099d2"/><rect width="254.0" height="19.0" x="-126.0" y="49.9" fill="#ffffff"/><text xml:space="preserve" style="fill:#191919;font-family:微软雅黑,PingFang SC,Mircrosoft YaHei,Arial;font-size:12.50pt"><tspan style="font-size:10.00pt" x="-126.0" y="64.9">3. CA将上一步生成的数字证书发送给服务器</tspan></text></g><g transform="translate(1445.120000,169.526000)" id="shape100"><path stroke="#39aa71" stroke-width="4" d="M.0,.0L-172.5,.0L-172.5,263.0" fill="none"/><path stroke="#39aa71" stroke-width="1" stroke-linecap="round" d="M-166.5,263.0L-172.5,275.0L-178.5,263.0L-166.5,263.0" fill="#39aa71"/><rect width="267.0" height="19.0" x="-305.0" y="81.1" fill="#ffffff"/><rect width="225.0" height="19.0" x="-284.0" y="100.1" fill="#ffffff"/><rect width="376.0" height="19.0" x="-359.5" y="138.1" fill="#ffffff"/><rect width="78.0" height="19.0" x="-210.5" y="157.1" fill="#ffffff"/><text xml:space="preserve" style="fill:#191919;font-family:微软雅黑,PingFang SC,Mircrosoft YaHei,Arial;font-size:12.50pt"><tspan style="font-size:10.00pt" x="-305.0" y="96.1">5. 根据第四步的得到的证书数据，拿到CA信息</tspan><tspan style="font-size:10.00pt" x="-284.0" y="115.1">向相关的CA服务器请求CA的PublicKey</tspan><tspan style="font-size:10.00pt" x="-359.5" y="153.1">不过很多浏览器已经将知名的CA的PublicKey写死在了浏览器里，</tspan><tspan style="font-size:10.00pt" x="-210.5" y="172.1">避免黑客攻击</tspan></text></g><g transform="translate(2015.320000,444.526000)" id="shape101"><path stroke="#0099d2" stroke-width="4" d="M.0,.0L.0,-275.0L-193.0,-275.0" fill="none"/><path stroke="#0099d2" stroke-width="1" stroke-linecap="round" d="M-193.0,-269.0L-205.0,-275.0L-193.0,-281.0L-193.0,-269.0" fill="#0099d2"/><rect width="235.0" height="19.0" x="-116.5" y="-201.6" fill="#ffffff"/><rect width="288.0" height="19.0" x="-143.0" y="-182.6" fill="#ffffff"/><rect width="288.0" height="19.0" x="-143.0" y="-163.6" fill="#ffffff"/><rect width="332.0" height="19.0" x="-165.0" y="-144.6" fill="#ffffff"/><rect width="78.0" height="19.0" x="-38.0" y="-125.6" fill="#ffffff"/><text xml:space="preserve" style="fill:#191919;font-family:微软雅黑,PingFang SC,Mircrosoft YaHei,Arial;font-size:12.50pt"><tspan style="font-size:10.00pt" x="-116.5" y="-186.6">2. 服务器将自己的PublicKey发送给CA，</tspan><tspan style="font-size:10.00pt" x="-143.0" y="-167.6">CA将服务器的PublicKey经过hash算法生成签名。</tspan><tspan style="font-size:10.00pt" x="-143.0" y="-148.6">同时CA使用自己 PrivateKey对服务器的PublicKey</tspan><tspan style="font-size:10.00pt" x="-165.0" y="-129.6">进行加密，将加密好的PublicKey与数字签名封装到一起，</tspan><tspan style="font-size:10.00pt" x="-38.0" y="-110.6">生成数字证书</tspan></text></g><path stroke="#323232" stroke-width="1" d="M257.0,427.4L257.0,7.0C257.0,3.1,253.9,.0,250.0,.0L7.0,.0C3.1,.0,.0,3.1,.0,7.0L.0,427.4C.0,431.3,3.1,434.4,7.0,434.4L250.0,434.4C253.9,434.4,257.0,431.3,257.0,427.4z" fill-rule="nonzero" transform="translate(1086.320000,444.526000)" fill="#cfe9d8" id="shape102"/><g transform="translate(1167.970000,539.915000)" id="group103"><g transform="translate(-0.018400,4.709600)" id="group104"><path stroke="#000000" stroke-width="1" d="M.4,.0L38.0,.0C38.2,.0,38.4,.2,38.4,.4L38.4,84.5C38.4,84.7,38.2,84.9,38.0,84.9L.4,84.9C.2,84.9,.0,84.7,.0,84.5L.0,.4C.0,.2,.2,.0,.4,.0z" fill-rule="nonzero" fill="url(#lg38)" id="shape105"/><path stroke="#7e7e7e" stroke-width="1" d="M.4,.0L16.5,.0C16.7,.0,16.9,.2,16.9,.4L16.9,50.5C16.9,50.7,16.7,50.9,16.5,50.9L.4,50.9C.2,50.9,.0,50.7,.0,50.5L.0,.4C.0,.2,.2,.0,.4,.0z" fill-rule="nonzero" transform="translate(2.597150,2.546000)" fill="url(#lg39)" id="shape106"/><path stroke="#7e7e7e" stroke-width="1" d="M.4,.0L16.5,.0C16.7,.0,16.9,.2,16.9,.5L16.9,28.4C16.9,28.6,16.7,28.9,16.5,28.9L.4,28.9C.2,28.9,.0,28.6,.0,28.4L.0,.5C.0,.2,.2,.0,.4,.0z" fill-rule="nonzero" transform="translate(2.597150,53.465600)" fill="url(#lg40)" id="shape107"/><path stroke="#7e7e7e" stroke-width="1" d="M.4,.0L15.7,.0C16.0,.0,16.1,.2,16.1,.4L16.1,79.3C16.1,79.6,16.0,79.8,15.7,79.8L.4,79.8C.2,79.8,.0,79.6,.0,79.3L.0,.4C.0,.2,.2,.0,.4,.0z" fill-rule="nonzero" transform="translate(19.375960,2.546000)" fill="url(#lg41)" id="shape108"/><path d="M.0,.0L24.6,.0L17.4,84.7L.1,84.7L.0,.0z" fill-rule="nonzero" transform="translate(0.231100,0.070300)" fill="url(#lg42)" id="shape109"/><g transform="translate(25.261730,51.958830)" id="group110"><path stroke="#000000" stroke-width="1" d="M.0,3.1C.0,1.4,1.4,.0,3.1,.0C4.8,.0,6.1,1.4,6.1,3.1C6.1,4.8,4.8,6.1,3.1,6.1C1.4,6.1,.0,4.8,.0,3.1z" fill-rule="nonzero" fill="url(#rg1)" id="shape111"/><path d="M.0,2.4C.0,1.1,1.1,.0,2.4,.0C3.7,.0,4.8,1.1,4.8,2.4C4.8,3.7,3.7,4.8,2.4,4.8C1.1,4.8,.0,3.7,.0,2.4z" fill-rule="nonzero" transform="translate(0.684340,0.684340)" fill="url(#lg43)" id="shape112"/><path d="M.0,2.4C.0,1.1,1.1,.0,2.4,.0C3.7,.0,4.8,1.1,4.8,2.4C4.8,3.7,3.7,4.8,2.4,4.8C1.1,4.8,.0,3.7,.0,2.4z" fill-rule="nonzero" transform="translate(0.684340,0.684340)" fill="url(#lg37)" id="shape113"/><g transform="translate(1.969050,1.492910)" id="group114"><path d="M.2,-0.0L.2,-0.0C.3,-0.0,.4,.1,.4,.2L.4,1.4C.4,1.5,.3,1.5,.2,1.5L.2,1.5C.1,1.5,-0.0,1.5,-0.0,1.4L-0.0,.2C-0.0,.1,.1,-0.0,.2,-0.0z" fill-rule="nonzero" transform="translate(0.916448,0.000519)" fill="#ff4500" id="shape115"/><path d="M.7,.3C.9,.3,.7,-0.1,.6,.0C.5,.1,.0,.3,.0,.9C-0.0,1.6,.5,2.1,1.1,2.1C1.7,2.1,2.2,1.7,2.2,1.0C2.2,.2,1.4,-0.0,1.4,.0C1.3,.1,1.3,.2,1.5,.3C1.7,.4,1.8,.8,1.8,1.0C1.8,1.2,1.8,1.7,1.1,1.7C.4,1.7,.3,1.2,.3,1.0C.3,.8,.4,.4,.7,.3z" fill-rule="nonzero" transform="translate(0.000000,0.633450)" fill="#ff4500" id="shape116"/></g></g></g><g transform="translate(143.421870,85.805250)" id="group117"><path d="M.0,3.1C.6,1.7,2.5,.7,3.6,.4C4.7,.1,6.8,-0.2,8.4,.3C9.7,.6,11.1,1.5,11.8,3.3C12.1,4.2,12.3,5.7,12.0,6.4C11.8,6.9,10.3,7.7,8.0,7.6C5.1,7.4,3.3,6.4,3.3,6.4C3.3,6.4,2.6,3.4,1.8,2.8C1.3,2.4,.5,2.3,.0,3.1z" fill-rule="nonzero" transform="translate(0.479760,-0.020830)" fill="url(#rg2)" id="shape118"/><path d="M.0,1.9C.0,1.9,2.9,3.7,3.7,4.0C3.5,3.1,3.1,.3,1.6,.1C.3,-0.3,.0,1.9,.0,1.9z" fill-rule="nonzero" transform="translate(0.070480,2.368860)" fill="url(#lg44)" id="shape119"/><path d="M1.5,.0C.7,.0,.0,.6,.0,1.3C.0,2.0,.7,2.6,1.5,2.6C2.4,2.6,3.0,2.0,3.0,1.3C3.0,.6,2.4,.0,1.5,.0z" fill-rule="nonzero" transform="translate(4.582570,1.633190)" fill="url(#rg3)" id="shape120"/></g><g transform="translate(49.382200,85.093480)" id="group121"><path d="M1.6,.0C1.6,.0,.6,2.5,.2,4.1C.0,5.7,-0.3,8.0,.6,8.2C.6,8.2,87.0,8.2,87.0,8.2C87.6,7.8,88.3,7.6,87.0,4.4C85.6,1.3,83.0,.0,83.0,.0L1.6,.0z" fill-rule="nonzero" transform="translate(-0.008200,0.714820)" fill="url(#lg45)" id="shape122"/><path d="M1.6,.1C1.6,.1,.6,2.3,.2,3.8C.0,5.3,-0.3,7.3,.6,7.5C.6,7.5,86.3,7.5,86.3,7.5C86.9,7.2,87.6,7.0,86.3,4.1C85.0,1.2,83.1,.0,83.1,.0L1.6,.1z" fill-rule="nonzero" transform="translate(0.191600,0.741670)" fill="url(#rg4)" id="shape123"/><g transform="translate(70.033680,0.639500)" id="group124"><path d="M.1,1.8L4.0,1.9L3.0,.0L.4,.0L-0.0,1.0L.1,1.8z" fill-rule="nonzero" transform="translate(0.011310,0.008158)" fill="url(#lg46)" id="shape125"/><path d="M.0,1.8L4.3,1.8L3.5,.0L.8,.0L.0,1.8z" fill-rule="nonzero" transform="translate(3.210590,0.056216)" fill="url(#lg46)" id="shape126"/><path d="M-0.0,1.8L4.0,1.8L3.0,.0L.6,.0L-0.0,1.8z" fill-rule="nonzero" transform="translate(6.809180,0.062879)" fill="url(#lg46)" id="shape127"/><path d="M.0,1.8L3.7,1.8L3.0,.0L.6,.0L.0,1.8z" fill-rule="nonzero" transform="translate(10.140370,0.033298)" fill="url(#lg46)" id="shape128"/></g><g transform="translate(57.288160,0.069535)" id="group129"><path d="M.1,1.8L3.9,1.9L2.9,.0L.4,.0L.0,.9L.1,1.8z" fill-rule="nonzero" transform="translate(-0.008040,-0.020033)" fill="url(#lg46)" id="shape130"/><path d="M.0,1.8L4.3,1.8L3.5,.0L.8,.0L.0,1.8z" fill-rule="nonzero" transform="translate(3.113400,0.027925)" fill="url(#lg46)" id="shape131"/><path d="M-0.0,1.8L4.0,1.8L3.0,.0L.6,.0L-0.0,1.8z" fill-rule="nonzero" transform="translate(6.711800,0.034536)" fill="url(#lg46)" id="shape132"/></g><g transform="translate(57.263410,0.354457)" id="group133"><path d="M.0,1.3L3.7,1.3L3.3,.0L.5,.0L.0,1.3z" fill-rule="nonzero" transform="translate(-0.022940,0.008064)" fill="url(#lg47)" id="shape134"/><path d="M.0,1.3L3.5,1.3L3.1,.0L.4,.0L.0,1.3z" fill-rule="nonzero" transform="translate(3.677040,0.015829)" fill="url(#lg47)" id="shape135"/><path d="M.0,1.3L3.2,1.3L2.8,.0L.4,.0L.0,1.3z" fill-rule="nonzero" transform="translate(7.134520,0.008064)" fill="url(#lg47)" id="shape136"/></g><g transform="translate(2.333800,0.045080)" id="group137"><g transform="translate(38.492900,0.000000)" id="group138"><path d="M.0,1.8L4.4,1.8L3.4,.0L.9,.0L.0,1.8z" fill-rule="nonzero" transform="translate(6.928010,-0.005955)" fill="url(#lg46)" id="shape139"/><path d="M.0,1.8L4.4,1.8L3.4,.0L.9,.0L.0,1.8z" fill-rule="nonzero" transform="translate(10.536490,-0.005955)" fill="url(#lg46)" id="shape140"/><path d="M.0,1.8L4.4,1.8L3.4,.0L.9,.0L.0,1.8z" fill-rule="nonzero" transform="translate(0.006580,0.012182)" fill="url(#lg46)" id="shape141"/><path d="M.0,1.8L4.4,1.8L3.4,.0L.9,.0L.0,1.8z" fill-rule="nonzero" transform="translate(3.615030,0.012182)" fill="url(#lg46)" id="shape142"/></g><g transform="translate(22.731400,0.000000)" id="group143"><path d="M.0,1.8L4.4,1.8L3.4,.0L.9,.0L.0,1.8z" fill-rule="nonzero" transform="translate(6.928010,-0.005955)" fill="url(#lg46)" id="shape144"/><path d="M.0,1.8L4.4,1.8L3.4,.0L.9,.0L.0,1.8z" fill-rule="nonzero" transform="translate(10.536490,-0.005955)" fill="url(#lg46)" id="shape145"/><path d="M.0,1.8L4.4,1.8L3.4,.0L.9,.0L.0,1.8z" fill-rule="nonzero" transform="translate(0.006580,0.012182)" fill="url(#lg46)" id="shape146"/><path d="M.0,1.8L4.4,1.8L3.4,.0L.9,.0L.0,1.8z" fill-rule="nonzero" transform="translate(3.615030,0.012182)" fill="url(#lg46)" id="shape147"/></g><g transform="translate(6.602200,0.000000)" id="group148"><path d="M.0,1.8L4.4,1.8L3.4,.0L.9,.0L.0,1.8z" fill-rule="nonzero" transform="translate(6.928010,-0.005955)" fill="url(#lg46)" id="shape149"/><path d="M.0,1.8L4.4,1.8L3.4,.0L.9,.0L.0,1.8z" fill-rule="nonzero" transform="translate(10.536490,-0.005955)" fill="url(#lg46)" id="shape150"/><path d="M.0,1.8L4.4,1.8L3.4,.0L.9,.0L.0,1.8z" fill-rule="nonzero" transform="translate(0.006580,0.012182)" fill="url(#lg46)" id="shape151"/><path d="M.0,1.8L4.4,1.8L3.4,.0L.9,.0L.0,1.8z" fill-rule="nonzero" transform="translate(3.615030,0.012182)" fill="url(#lg46)" id="shape152"/></g><path d="M-0.0,1.8L3.5,1.8L3.4,.9L3.0,.0L.6,.0L-0.0,1.8z" fill-rule="nonzero" transform="translate(-0.009830,-0.009840)" fill="url(#lg46)" id="shape153"/></g><g transform="translate(2.438100,0.406806)" id="group154"><path d="M.0,1.5L3.2,1.5L2.8,.0L.4,.0L.0,1.5z" fill-rule="nonzero" transform="translate(0.019070,0.000968)" fill="url(#lg47)" id="shape155"/><g transform="translate(7.178290,0.000000)" id="group156"><path d="M.0,1.5L3.4,1.5L2.9,.0L.4,.0L.0,1.5z" fill-rule="nonzero" transform="translate(0.002840,0.015544)" fill="url(#lg47)" id="shape157"/><path d="M.0,1.5L3.1,1.5L2.7,.0L.4,.0L.0,1.5z" fill-rule="nonzero" transform="translate(3.449130,0.019610)" fill="url(#lg47)" id="shape158"/><path d="M.0,1.5L3.4,1.5L2.9,.0L.4,.0L.0,1.5z" fill-rule="nonzero" transform="translate(6.939540,0.024864)" fill="url(#lg47)" id="shape159"/><path d="M.0,1.5L3.4,1.5L3.0,.0L.4,.0L.0,1.5z" fill-rule="nonzero" transform="translate(10.335160,0.019610)" fill="url(#lg47)" id="shape160"/></g><g transform="translate(23.272090,-0.006729)" id="group161"><path d="M.0,1.5L3.4,1.5L2.9,.0L.4,.0L.0,1.5z" fill-rule="nonzero" transform="translate(0.002840,0.015544)" fill="url(#lg47)" id="shape162"/><path d="M.0,1.5L3.1,1.5L2.7,.0L.4,.0L.0,1.5z" fill-rule="nonzero" transform="translate(3.449130,0.019610)" fill="url(#lg47)" id="shape163"/><path d="M.0,1.5L3.4,1.5L2.9,.0L.4,.0L.0,1.5z" fill-rule="nonzero" transform="translate(6.939540,0.024864)" fill="url(#lg47)" id="shape164"/><path d="M.0,1.5L3.4,1.5L3.0,.0L.4,.0L.0,1.5z" fill-rule="nonzero" transform="translate(10.335160,0.019610)" fill="url(#lg47)" id="shape165"/></g><g transform="translate(39.082890,0.000000)" id="group166"><path d="M.0,1.5L3.4,1.5L2.9,.0L.4,.0L.0,1.5z" fill-rule="nonzero" transform="translate(0.002840,0.015544)" fill="url(#lg47)" id="shape167"/><path d="M.0,1.5L3.1,1.5L2.7,.0L.4,.0L.0,1.5z" fill-rule="nonzero" transform="translate(3.449130,0.019610)" fill="url(#lg47)" id="shape168"/><path d="M.0,1.5L3.4,1.5L2.9,.0L.4,.0L.0,1.5z" fill-rule="nonzero" transform="translate(6.939540,0.024864)" fill="url(#lg47)" id="shape169"/><path d="M.0,1.5L3.4,1.5L3.0,.0L.4,.0L.0,1.5z" fill-rule="nonzero" transform="translate(10.335160,0.019610)" fill="url(#lg47)" id="shape170"/></g></g><g transform="translate(1.969600,0.925532)" id="group171"><path d="M.0,1.8L3.8,1.8L3.0,.0L.8,.0L.0,1.8z" fill-rule="nonzero" transform="translate(-0.036070,-0.005436)" fill="url(#lg46)" id="shape172"/><path d="M.0,1.8L4.6,1.8L3.6,.0L1.0,.0L.0,1.8z" fill-rule="nonzero" transform="translate(2.836870,-0.005436)" fill="url(#lg46)" id="shape173"/><path d="M.0,1.8L4.6,1.8L3.6,.0L1.0,.0L.0,1.8z" fill-rule="nonzero" transform="translate(6.667960,-0.022536)" fill="url(#lg46)" id="shape174"/><path d="M.0,1.8L4.5,1.8L3.6,.0L.9,.0L.0,1.8z" fill-rule="nonzero" transform="translate(10.258810,-0.022536)" fill="url(#lg46)" id="shape175"/><path d="M.0,1.8L4.6,1.8L3.6,.0L1.0,.0L.0,1.8z" fill-rule="nonzero" transform="translate(13.804040,-0.022536)" fill="url(#lg46)" id="shape176"/><path d="M.0,1.8L4.6,1.8L3.6,.0L1.0,.0L.0,1.8z" fill-rule="nonzero" transform="translate(17.510640,-0.022536)" fill="url(#lg46)" id="shape177"/><path d="M.0,1.8L4.6,1.8L3.6,.0L1.0,.0L.0,1.8z" fill-rule="nonzero" transform="translate(21.264440,-0.022017)" fill="url(#lg46)" id="shape178"/><path d="M.0,1.8L4.5,1.8L3.6,.0L.9,.0L.0,1.8z" fill-rule="nonzero" transform="translate(24.855910,-0.022017)" fill="url(#lg46)" id="shape179"/><path d="M.0,1.8L4.6,1.8L3.6,.0L.9,.0L.0,1.8z" fill-rule="nonzero" transform="translate(28.538480,-0.020462)" fill="url(#lg46)" id="shape180"/><path d="M.0,1.8L4.4,1.8L3.4,.0L.9,.0L.0,1.8z" fill-rule="nonzero" transform="translate(32.204870,0.010108)" fill="url(#lg46)" id="shape181"/><path d="M.0,1.8L4.4,1.8L3.4,.0L.9,.0L.0,1.8z" fill-rule="nonzero" transform="translate(35.733170,0.010108)" fill="url(#lg46)" id="shape182"/><path d="M.0,1.8L4.4,1.8L3.4,.0L.9,.0L.0,1.8z" fill-rule="nonzero" transform="translate(39.306270,0.010627)" fill="url(#lg46)" id="shape183"/><path d="M.0,1.8L4.3,1.8L3.4,.0L.9,.0L.0,1.8z" fill-rule="nonzero" transform="translate(42.725680,0.010627)" fill="url(#lg46)" id="shape184"/><path d="M.0,1.8L4.4,1.8L3.4,.0L.9,.0L.0,1.8z" fill-rule="nonzero" transform="translate(46.230670,0.012182)" fill="url(#lg46)" id="shape185"/></g><g transform="translate(2.125800,1.235544)" id="group186"><path d="M.0,1.5L3.6,1.5L3.0,.0L.4,.0L.0,1.5z" fill-rule="nonzero" transform="translate(43.324700,0.043521)" fill="url(#lg47)" id="shape187"/><path d="M.0,1.5L3.6,1.5L3.0,.0L.4,.0L.0,1.5z" fill-rule="nonzero" transform="translate(46.871200,0.070979)" fill="url(#lg47)" id="shape188"/><path d="M-0.0,1.5L2.9,1.4L2.6,.0L.3,.0L-0.0,1.5z" fill-rule="nonzero" transform="translate(-0.007780,0.061124)" fill="url(#lg47)" id="shape189"/><g transform="translate(3.264100,0.017956)" id="group190"><path d="M.0,1.5L3.5,1.5L3.1,.0L.4,.0L.0,1.5z" fill-rule="nonzero" transform="translate(0.012270,0.040508)" fill="url(#lg47)" id="shape191"/><path d="M.0,1.5L3.5,1.5L3.0,.0L.4,.0L.0,1.5z" fill-rule="nonzero" transform="translate(3.747180,0.049207)" fill="url(#lg47)" id="shape192"/><path d="M.0,1.5L3.5,1.5L3.1,.0L.4,.0L.0,1.5z" fill-rule="nonzero" transform="translate(7.447150,0.053627)" fill="url(#lg47)" id="shape193"/><path d="M.0,1.5L3.5,1.5L3.0,.0L.4,.0L.0,1.5z" fill-rule="nonzero" transform="translate(11.030530,0.058887)" fill="url(#lg47)" id="shape194"/><path d="M.0,1.5L3.5,1.5L3.1,.0L.4,.0L.0,1.5z" fill-rule="nonzero" transform="translate(14.569430,0.053627)" fill="url(#lg47)" id="shape195"/><path d="M.0,1.5L3.5,1.5L3.0,.0L.4,.0L.0,1.5z" fill-rule="nonzero" transform="translate(18.304230,0.063035)" fill="url(#lg47)" id="shape196"/><path d="M.0,1.5L3.5,1.5L2.9,.0L.4,.0L.0,1.5z" fill-rule="nonzero" transform="translate(21.889230,0.028399)" fill="url(#lg47)" id="shape197"/><path d="M.0,1.5L3.5,1.5L3.0,.0L.4,.0L.0,1.5z" fill-rule="nonzero" transform="translate(25.433930,0.072006)" fill="url(#lg47)" id="shape198"/><path d="M.0,1.5L3.5,1.5L2.9,.0L.4,.0L.0,1.5z" fill-rule="nonzero" transform="translate(29.126130,-0.026847)" fill="url(#lg47)" id="shape199"/><path d="M.0,1.5L3.5,1.5L3.0,.0L.4,.0L.0,1.5z" fill-rule="nonzero" transform="translate(32.670730,0.016744)" fill="url(#lg47)" id="shape200"/><path d="M.0,1.5L3.5,1.5L3.0,.0L.4,.0L.0,1.5z" fill-rule="nonzero" transform="translate(36.161930,-0.007421)" fill="url(#lg47)" id="shape201"/></g></g><g transform="translate(1.796300,1.581130)" id="group202"><path d="M-0.0,1.7L5.9,1.8L4.8,-0.0L.5,.0L-0.0,1.7z" fill-rule="nonzero" transform="translate(0.022380,0.038078)" fill="url(#lg46)" id="shape203"/><path d="M.0,1.8L5.9,1.8L5.7,.9L5.4,-0.0L.7,.0L.0,1.8z" fill-rule="nonzero" transform="translate(48.680180,0.019427)" fill="url(#lg46)" id="shape204"/><path d="M.0,1.8L4.7,1.8L3.6,.0L1.0,.0L.0,1.8z" fill-rule="nonzero" transform="translate(4.690700,0.009764)" fill="url(#lg46)" id="shape205"/><path d="M.0,1.8L4.7,1.8L3.6,.0L1.0,.0L.0,1.8z" fill-rule="nonzero" transform="translate(8.424640,0.009764)" fill="url(#lg46)" id="shape206"/><path d="M.0,1.8L4.7,1.8L3.6,.0L1.0,.0L.0,1.8z" fill-rule="nonzero" transform="translate(12.283540,0.061569)" fill="url(#lg46)" id="shape207"/><path d="M.0,1.8L4.6,1.8L3.6,.0L.9,.0L.0,1.8z" fill-rule="nonzero" transform="translate(15.900600,0.061569)" fill="url(#lg46)" id="shape208"/><path d="M.0,1.8L4.7,1.8L3.6,.0L1.0,.0L.0,1.8z" fill-rule="nonzero" transform="translate(19.471640,0.061569)" fill="url(#lg46)" id="shape209"/><path d="M.0,1.8L4.7,1.8L3.6,.0L1.0,.0L.0,1.8z" fill-rule="nonzero" transform="translate(23.205540,0.061569)" fill="url(#lg46)" id="shape210"/><path d="M.0,1.8L4.7,1.8L3.6,.0L1.0,.0L.0,1.8z" fill-rule="nonzero" transform="translate(26.986640,0.044991)" fill="url(#lg46)" id="shape211"/><path d="M.0,1.8L4.6,1.8L3.6,.0L.9,.0L.0,1.8z" fill-rule="nonzero" transform="translate(30.603900,0.044991)" fill="url(#lg46)" id="shape212"/><path d="M.0,1.8L4.6,1.8L3.6,.0L.9,.0L.0,1.8z" fill-rule="nonzero" transform="translate(34.313360,0.046357)" fill="url(#lg46)" id="shape213"/><path d="M.0,1.8L4.4,1.8L3.4,.0L.9,.0L.0,1.8z" fill-rule="nonzero" transform="translate(37.930630,0.046357)" fill="url(#lg46)" id="shape214"/><path d="M.0,1.8L4.4,1.8L3.4,.0L.9,.0L.0,1.8z" fill-rule="nonzero" transform="translate(41.539530,0.046357)" fill="url(#lg46)" id="shape215"/><path d="M.0,1.8L4.4,1.8L3.4,.0L.9,.0L.0,1.8z" fill-rule="nonzero" transform="translate(45.127630,0.019427)" fill="url(#lg46)" id="shape216"/></g><g transform="translate(1.865500,1.858040)" id="group217"><path d="M-0.0,1.5L4.9,1.4L4.3,.0L.5,.0L-0.0,1.5z" fill-rule="nonzero" transform="translate(0.006580,0.079781)" fill="url(#lg47)" id="shape218"/><path d="M.0,1.5L4.7,1.5L4.4,-0.0L.3,.1L.0,1.5z" fill-rule="nonzero" transform="translate(49.510880,0.051801)" fill="url(#lg47)" id="shape219"/><g transform="translate(4.937300,0.034536)" id="group220"><path d="M.0,1.5L3.6,1.5L3.2,.0L.4,.0L.0,1.5z" fill-rule="nonzero" transform="translate(0.012460,0.040507)" fill="url(#lg47)" id="shape221"/><path d="M.0,1.5L3.6,1.5L3.0,.0L.4,.0L.0,1.5z" fill-rule="nonzero" transform="translate(3.806590,0.049207)" fill="url(#lg47)" id="shape222"/><path d="M.0,1.5L3.6,1.5L3.2,.0L.4,.0L.0,1.5z" fill-rule="nonzero" transform="translate(7.565220,0.053627)" fill="url(#lg47)" id="shape223"/><path d="M.0,1.5L3.6,1.5L3.0,.0L.4,.0L.0,1.5z" fill-rule="nonzero" transform="translate(11.205420,0.058887)" fill="url(#lg47)" id="shape224"/><path d="M.0,1.5L3.6,1.5L3.2,.0L.4,.0L.0,1.5z" fill-rule="nonzero" transform="translate(14.800430,0.053627)" fill="url(#lg47)" id="shape225"/><path d="M.0,1.5L3.6,1.5L3.0,.0L.4,.0L.0,1.5z" fill-rule="nonzero" transform="translate(18.594420,0.063035)" fill="url(#lg47)" id="shape226"/><path d="M.0,1.5L3.6,1.5L2.9,.0L.4,.0L.0,1.5z" fill-rule="nonzero" transform="translate(22.236230,0.028399)" fill="url(#lg47)" id="shape227"/><path d="M.0,1.5L3.6,1.5L3.0,.0L.4,.0L.0,1.5z" fill-rule="nonzero" transform="translate(25.837220,0.072006)" fill="url(#lg47)" id="shape228"/><path d="M.0,1.5L3.6,1.5L2.9,.0L.4,.0L.0,1.5z" fill-rule="nonzero" transform="translate(29.587930,-0.026846)" fill="url(#lg47)" id="shape229"/><path d="M.0,1.5L3.6,1.5L3.0,.0L.4,.0L.0,1.5z" fill-rule="nonzero" transform="translate(33.188720,0.016745)" fill="url(#lg47)" id="shape230"/><path d="M.0,1.5L3.6,1.5L3.0,.0L.4,.0L.0,1.5z" fill-rule="nonzero" transform="translate(36.735220,-0.007420)" fill="url(#lg47)" id="shape231"/></g><path d="M.0,1.5L3.6,1.5L2.9,.0L.4,.0L.0,1.5z" fill-rule="nonzero" transform="translate(45.310930,0.073306)" fill="url(#lg47)" id="shape232"/></g><g transform="translate(1.796300,2.202331)" id="group233"><path d="M-0.0,1.7L6.7,1.8L5.5,-0.0L.5,.0L-0.0,1.7z" fill-rule="nonzero" transform="translate(-0.017490,0.072615)" fill="url(#lg46)" id="shape234"/><path d="M.0,1.8L8.8,1.8L8.5,.9L8.1,-0.0L1.1,.0L.0,1.8z" fill-rule="nonzero" transform="translate(45.806850,0.044301)" fill="url(#lg46)" id="shape235"/><g transform="translate(5.479100,0.000000)" id="group236"><path d="M.0,1.8L4.7,1.8L3.6,.0L1.0,.0L.0,1.8z" fill-rule="nonzero" transform="translate(0.009210,0.044301)" fill="url(#lg46)" id="shape237"/><path d="M.0,1.8L4.7,1.8L3.6,.0L1.0,.0L.0,1.8z" fill-rule="nonzero" transform="translate(3.743130,0.044301)" fill="url(#lg46)" id="shape238"/><path d="M.0,1.8L4.7,1.8L3.6,.0L1.0,.0L.0,1.8z" fill-rule="nonzero" transform="translate(7.602210,0.027032)" fill="url(#lg46)" id="shape239"/><path d="M.0,1.8L4.6,1.8L3.6,.0L.9,.0L.0,1.8z" fill-rule="nonzero" transform="translate(11.219280,0.027032)" fill="url(#lg46)" id="shape240"/><path d="M.0,1.8L4.7,1.8L3.6,.0L1.0,.0L.0,1.8z" fill-rule="nonzero" transform="translate(14.790310,0.027032)" fill="url(#lg46)" id="shape241"/><path d="M.0,1.8L4.7,1.8L3.6,.0L1.0,.0L.0,1.8z" fill-rule="nonzero" transform="translate(18.524310,0.027032)" fill="url(#lg46)" id="shape242"/><path d="M.0,1.8L4.7,1.8L3.6,.0L1.0,.0L.0,1.8z" fill-rule="nonzero" transform="translate(22.305410,0.079527)" fill="url(#lg46)" id="shape243"/><path d="M.0,1.8L4.6,1.8L3.6,.0L.9,.0L.0,1.8z" fill-rule="nonzero" transform="translate(25.922880,0.079527)" fill="url(#lg46)" id="shape244"/><path d="M.0,1.8L4.6,1.8L3.6,.0L.9,.0L.0,1.8z" fill-rule="nonzero" transform="translate(29.632330,0.080894)" fill="url(#lg46)" id="shape245"/><path d="M.0,1.8L4.4,1.8L3.4,.0L.9,.0L.0,1.8z" fill-rule="nonzero" transform="translate(33.249700,0.080894)" fill="url(#lg46)" id="shape246"/><path d="M.0,1.8L4.4,1.8L3.4,.0L.9,.0L.0,1.8z" fill-rule="nonzero" transform="translate(36.858600,0.080894)" fill="url(#lg46)" id="shape247"/></g></g><path d="M.0,.0L85.4,.0L85.4,1.3L.0,1.3L.0,.0z" fill-rule="nonzero" transform="translate(0.892200,6.423868)" fill="url(#lg48)" id="shape248"/><g transform="translate(1.865700,2.549370)" id="group249"><path d="M-0.0,1.5L5.4,1.4L4.7,.0L.5,.0L-0.0,1.5z" fill-rule="nonzero" transform="translate(0.006590,0.045245)" fill="url(#lg47)" id="shape250"/><path d="M.0,1.5L7.9,1.5L7.4,-0.0L.6,.1L.0,1.5z" fill-rule="nonzero" transform="translate(46.458440,0.015190)" fill="url(#lg47)" id="shape251"/><g transform="translate(6.033900,0.000000)" id="group252"><path d="M.0,1.5L3.6,1.5L3.2,.0L.4,.0L.0,1.5z" fill-rule="nonzero" transform="translate(0.012460,0.040507)" fill="url(#lg47)" id="shape253"/><path d="M.0,1.5L3.6,1.5L3.0,.0L.4,.0L.0,1.5z" fill-rule="nonzero" transform="translate(3.806610,0.049207)" fill="url(#lg47)" id="shape254"/><path d="M.0,1.5L3.6,1.5L3.2,.0L.4,.0L.0,1.5z" fill-rule="nonzero" transform="translate(7.565240,0.053627)" fill="url(#lg47)" id="shape255"/><path d="M.0,1.5L3.6,1.5L3.0,.0L.4,.0L.0,1.5z" fill-rule="nonzero" transform="translate(11.205520,0.058887)" fill="url(#lg47)" id="shape256"/><path d="M.0,1.5L3.6,1.5L3.2,.0L.4,.0L.0,1.5z" fill-rule="nonzero" transform="translate(14.800420,0.053627)" fill="url(#lg47)" id="shape257"/><path d="M.0,1.5L3.6,1.5L3.0,.0L.4,.0L.0,1.5z" fill-rule="nonzero" transform="translate(18.594520,0.063035)" fill="url(#lg47)" id="shape258"/><path d="M.0,1.5L3.6,1.5L2.9,.0L.4,.0L.0,1.5z" fill-rule="nonzero" transform="translate(22.236320,0.028399)" fill="url(#lg47)" id="shape259"/><path d="M.0,1.5L3.6,1.5L3.0,.0L.4,.0L.0,1.5z" fill-rule="nonzero" transform="translate(25.837220,0.072006)" fill="url(#lg47)" id="shape260"/><path d="M.0,1.5L3.6,1.5L2.9,.0L.4,.0L.0,1.5z" fill-rule="nonzero" transform="translate(29.588020,-0.026846)" fill="url(#lg47)" id="shape261"/><path d="M.0,1.5L3.6,1.5L3.0,.0L.4,.0L.0,1.5z" fill-rule="nonzero" transform="translate(33.188820,0.016745)" fill="url(#lg47)" id="shape262"/><path d="M.0,1.5L3.6,1.5L3.0,.0L.4,.0L.0,1.5z" fill-rule="nonzero" transform="translate(36.735420,-0.007420)" fill="url(#lg47)" id="shape263"/></g></g><g transform="translate(1.518800,3.031350)" id="group264"><path d="M.0,1.7L9.1,1.8L7.9,-0.0L.6,.0L.0,1.7z" fill-rule="nonzero" transform="translate(-0.011290,0.062934)" fill="url(#lg46)" id="shape265"/><path d="M.0,1.8L4.7,1.8L3.6,.0L1.0,.0L.0,1.8z" fill-rule="nonzero" transform="translate(7.874430,0.034620)" fill="url(#lg46)" id="shape266"/><path d="M.0,1.8L4.7,1.8L3.6,.0L1.0,.0L.0,1.8z" fill-rule="nonzero" transform="translate(11.608330,0.034620)" fill="url(#lg46)" id="shape267"/><path d="M.0,1.8L4.7,1.8L3.6,.0L1.0,.0L.0,1.8z" fill-rule="nonzero" transform="translate(15.467330,0.017353)" fill="url(#lg46)" id="shape268"/><path d="M.0,1.8L4.6,1.8L3.6,.0L.9,.0L.0,1.8z" fill-rule="nonzero" transform="translate(19.084470,0.017353)" fill="url(#lg46)" id="shape269"/><path d="M.0,1.8L4.7,1.8L3.6,.0L1.0,.0L.0,1.8z" fill-rule="nonzero" transform="translate(22.655730,0.017353)" fill="url(#lg46)" id="shape270"/><path d="M.0,1.8L4.7,1.8L3.6,.0L1.0,.0L.0,1.8z" fill-rule="nonzero" transform="translate(26.389530,0.017353)" fill="url(#lg46)" id="shape271"/><path d="M.0,1.8L4.7,1.8L3.6,.0L1.0,.0L.0,1.8z" fill-rule="nonzero" transform="translate(30.170530,0.069848)" fill="url(#lg46)" id="shape272"/><path d="M.0,1.8L4.6,1.8L3.6,.0L.9,.0L.0,1.8z" fill-rule="nonzero" transform="translate(33.787870,0.069848)" fill="url(#lg46)" id="shape273"/><path d="M.0,1.8L4.6,1.8L3.6,.0L.9,.0L.0,1.8z" fill-rule="nonzero" transform="translate(37.497320,0.071231)" fill="url(#lg46)" id="shape274"/><path d="M.0,1.8L4.4,1.8L3.4,.0L.9,.0L.0,1.8z" fill-rule="nonzero" transform="translate(41.114590,0.071231)" fill="url(#lg46)" id="shape275"/><path d="M.0,1.8L10.5,1.8L10.2,.9L9.8,-0.0L1.1,.0L.0,1.8z" fill-rule="nonzero" transform="translate(44.542230,0.034620)" fill="url(#lg46)" id="shape276"/></g><g transform="translate(1.449600,3.308404)" id="group277"><path d="M.0,1.5L3.6,1.5L3.2,.0L.4,.0L.0,1.5z" fill-rule="nonzero" transform="translate(8.501720,0.028063)" fill="url(#lg47)" id="shape278"/><path d="M-0.0,1.5L8.4,1.5L7.8,-0.0L.7,.0L-0.0,1.5z" fill-rule="nonzero" transform="translate(0.069450,0.033038)" fill="url(#lg47)" id="shape279"/><path d="M.0,1.5L3.6,1.5L3.0,.0L.4,.0L.0,1.5z" fill-rule="nonzero" transform="translate(12.295820,0.036780)" fill="url(#lg47)" id="shape280"/><path d="M.0,1.5L3.6,1.5L3.2,.0L.4,.0L.0,1.5z" fill-rule="nonzero" transform="translate(16.054520,0.041198)" fill="url(#lg47)" id="shape281"/><path d="M.0,1.5L3.6,1.5L3.0,.0L.4,.0L.0,1.5z" fill-rule="nonzero" transform="translate(19.694720,0.046460)" fill="url(#lg47)" id="shape282"/><path d="M.0,1.5L3.6,1.5L3.2,.0L.4,.0L.0,1.5z" fill-rule="nonzero" transform="translate(23.289720,0.041198)" fill="url(#lg47)" id="shape283"/><path d="M.0,1.5L3.6,1.5L3.0,.0L.4,.0L.0,1.5z" fill-rule="nonzero" transform="translate(27.083720,0.050590)" fill="url(#lg47)" id="shape284"/><path d="M.0,1.5L3.6,1.5L2.9,.0L.4,.0L.0,1.5z" fill-rule="nonzero" transform="translate(30.725620,0.015970)" fill="url(#lg47)" id="shape285"/><path d="M.0,1.5L3.6,1.5L3.0,.0L.4,.0L.0,1.5z" fill-rule="nonzero" transform="translate(34.326520,0.059578)" fill="url(#lg47)" id="shape286"/><path d="M.0,1.5L3.6,1.5L2.9,.0L.4,.0L.0,1.5z" fill-rule="nonzero" transform="translate(38.077120,-0.039292)" fill="url(#lg47)" id="shape287"/><path d="M.0,1.5L3.6,1.5L3.0,.0L.4,.0L.0,1.5z" fill-rule="nonzero" transform="translate(41.678020,0.004317)" fill="url(#lg47)" id="shape288"/><path d="M.0,1.5L9.9,1.5L9.3,-0.0L.7,.1L.0,1.5z" fill-rule="nonzero" transform="translate(45.012750,-0.021418)" fill="url(#lg47)" id="shape289"/></g><g transform="translate(1.241300,3.998970)" id="group290"><path d="M-0.0,1.8L5.2,1.8L4.4,.0L.9,.0L-0.0,1.8z" fill-rule="nonzero" transform="translate(5.342330,0.004954)" fill="url(#lg46)" id="shape291"/><path d="M.0,1.8L6.1,1.8L5.1,-0.0L.5,.0L.0,1.8z" fill-rule="nonzero" transform="translate(0.000550,0.033316)" fill="url(#lg46)" id="shape292"/><path d="M.0,1.8L5.5,1.8L4.5,.0L1.0,.0L.0,1.8z" fill-rule="nonzero" transform="translate(9.914410,0.004420)" fill="url(#lg46)" id="shape293"/><path d="M.0,1.8L22.4,1.8L20.9,.0L1.3,.0L.0,1.8z" fill-rule="nonzero" transform="translate(14.404700,0.004233)" fill="url(#lg46)" id="shape294"/><path d="M-0.0,1.8L5.2,1.8L4.4,.0L.9,.0L-0.0,1.8z" fill-rule="nonzero" transform="translate(35.785970,0.018766)" fill="url(#lg46)" id="shape295"/><path d="M.0,1.8L5.5,1.8L4.5,.0L1.0,.0L.0,1.8z" fill-rule="nonzero" transform="translate(40.242010,0.004420)" fill="url(#lg46)" id="shape296"/><path d="M-0.0,1.8L5.2,1.8L4.4,.0L.9,.0L-0.0,1.8z" fill-rule="nonzero" transform="translate(44.901370,-0.004725)" fill="url(#lg46)" id="shape297"/><path d="M.0,1.8L6.3,1.8L5.6,.0L1.1,.0L.0,1.8z" fill-rule="nonzero" transform="translate(49.138900,0.004485)" fill="url(#lg46)" id="shape298"/></g><path d="M.1,1.8L4.0,1.9L3.0,.0L.4,.0L.0,.9L.1,1.8z" fill-rule="nonzero" transform="translate(61.763540,3.031350)" fill="url(#lg46)" id="shape299"/><path d="M.0,1.3L3.5,1.3L3.1,.0L.4,.0L.0,1.3z" fill-rule="nonzero" transform="translate(61.874670,3.406334)" fill="url(#lg47)" id="shape300"/><g transform="translate(58.291350,3.980550)" id="group301"><path d="M.1,1.8L4.0,1.9L3.0,.0L.4,.0L.0,.9L.1,1.8z" fill-rule="nonzero" transform="translate(-0.009760,-0.005825)" fill="url(#lg46)" id="shape302"/><path d="M.0,1.8L4.5,1.8L3.6,.0L.8,.0L.0,1.8z" fill-rule="nonzero" transform="translate(3.195360,0.042236)" fill="url(#lg46)" id="shape303"/><path d="M-0.0,1.8L4.1,1.8L3.7,.6L3.1,.0L.6,.0L-0.0,1.8z" fill-rule="nonzero" transform="translate(6.890500,0.048945)" fill="url(#lg46)" id="shape304"/></g><g transform="translate(57.373230,0.654045)" id="group305"><path d="M.1,1.8L4.1,1.9L3.0,.0L.4,.0L.0,.9L.1,1.8z" fill-rule="nonzero" transform="translate(-0.008320,-0.020033)" fill="url(#lg46)" id="shape306"/><path d="M.0,1.8L4.5,1.8L3.7,.0L.8,.0L.0,1.8z" fill-rule="nonzero" transform="translate(3.223980,0.027925)" fill="url(#lg46)" id="shape307"/><path d="M-0.0,1.8L4.1,1.8L3.2,.0L.7,.0L-0.0,1.8z" fill-rule="nonzero" transform="translate(6.950210,0.034536)" fill="url(#lg46)" id="shape308"/></g><g transform="translate(57.368000,1.055617)" id="group309"><path d="M.0,1.3L3.7,1.3L3.3,.0L.4,.0L.0,1.3z" fill-rule="nonzero" transform="translate(-0.022750,0.008064)" fill="url(#lg47)" id="shape310"/><path d="M.0,1.3L3.4,1.3L3.1,.0L.4,.0L.0,1.3z" fill-rule="nonzero" transform="translate(3.647960,0.015829)" fill="url(#lg47)" id="shape311"/><path d="M.0,1.3L3.7,1.3L3.3,.0L.4,.0L.0,1.3z" fill-rule="nonzero" transform="translate(7.078200,0.008064)" fill="url(#lg47)" id="shape312"/></g><g transform="translate(57.377150,1.313440)" id="group313"><path d="M.1,1.8L4.0,1.9L3.0,.0L.4,.0L.0,.9L.1,1.8z" fill-rule="nonzero" transform="translate(-0.009760,-0.005825)" fill="url(#lg46)" id="shape314"/><path d="M.0,1.8L4.5,1.8L3.6,.0L.8,.0L.0,1.8z" fill-rule="nonzero" transform="translate(3.195360,0.042236)" fill="url(#lg46)" id="shape315"/><path d="M-0.0,1.8L4.1,1.8L3.7,.6L3.1,.0L.6,.0L-0.0,1.8z" fill-rule="nonzero" transform="translate(6.890500,0.048945)" fill="url(#lg46)" id="shape316"/></g><g transform="translate(57.471640,1.857467)" id="group317"><path d="M.0,1.3L3.7,1.3L3.3,.0L.5,.0L.0,1.3z" fill-rule="nonzero" transform="translate(-0.022930,0.008064)" fill="url(#lg47)" id="shape318"/><path d="M.0,1.3L3.5,1.3L3.1,.0L.4,.0L.0,1.3z" fill-rule="nonzero" transform="translate(3.677030,0.015829)" fill="url(#lg47)" id="shape319"/><path d="M.0,1.3L3.7,1.3L3.3,.0L.5,.0L.0,1.3z" fill-rule="nonzero" transform="translate(7.134610,0.008064)" fill="url(#lg47)" id="shape320"/></g><g transform="translate(70.189730,1.027683)" id="group321"><path d="M.0,1.3L3.5,1.3L3.1,.0L.4,.0L.0,1.3z" fill-rule="nonzero" transform="translate(-0.015620,-0.001681)" fill="url(#lg47)" id="shape322"/><path d="M.0,1.3L3.3,1.3L2.9,.0L.4,.0L.0,1.3z" fill-rule="nonzero" transform="translate(3.562610,0.006098)" fill="url(#lg47)" id="shape323"/><path d="M.0,1.3L3.0,1.2L2.5,.0L.3,.0L.0,1.3z" fill-rule="nonzero" transform="translate(7.223650,-0.001556)" fill="url(#lg47)" id="shape324"/><path d="M.0,1.3L3.2,1.2L2.7,.0L.5,.0L.0,1.3z" fill-rule="nonzero" transform="translate(10.348160,0.033806)" fill="url(#lg47)" id="shape325"/></g><path d="M.0,2.6L4.3,2.5L3.0,.0L.7,.0L.0,2.6z" fill-rule="nonzero" transform="translate(80.726490,1.401360)" fill="url(#lg46)" id="shape326"/><path d="M.0,1.3L3.3,1.3L2.9,.0L.4,.0L.0,1.3z" fill-rule="nonzero" transform="translate(81.473590,2.699024)" fill="url(#lg47)" id="shape327"/><g transform="translate(70.228680,1.416595)" id="group328"><path d="M.2,1.8L4.2,1.9L3.1,.0L.6,.0L.0,.9L.2,1.8z" fill-rule="nonzero" transform="translate(-0.010930,-0.005446)" fill="url(#lg46)" id="shape329"/><path d="M.0,1.8L4.4,1.8L3.6,.0L.8,.0L.0,1.8z" fill-rule="nonzero" transform="translate(3.365650,0.042632)" fill="url(#lg46)" id="shape330"/><path d="M-0.0,1.8L4.0,1.8L3.1,.0L.6,.0L-0.0,1.8z" fill-rule="nonzero" transform="translate(7.033140,0.049278)" fill="url(#lg46)" id="shape331"/></g><g transform="translate(70.506810,1.848867)" id="group332"><path d="M.0,1.3L3.7,1.3L3.3,.0L.5,.0L.0,1.3z" fill-rule="nonzero" transform="translate(-0.022940,0.008064)" fill="url(#lg47)" id="shape333"/><path d="M.0,1.3L3.5,1.3L3.1,.0L.4,.0L.0,1.3z" fill-rule="nonzero" transform="translate(3.677040,0.015829)" fill="url(#lg47)" id="shape334"/><path d="M.0,1.3L3.2,1.3L2.8,.0L.4,.0L.0,1.3z" fill-rule="nonzero" transform="translate(7.134520,0.008064)" fill="url(#lg47)" id="shape335"/></g><g transform="translate(70.462640,2.234610)" id="group336"><path d="M.2,1.8L4.3,1.9L3.2,.0L.5,.0L-0.0,1.0L.2,1.8z" fill-rule="nonzero" transform="translate(0.010790,0.013204)" fill="url(#lg46)" id="shape337"/><path d="M.0,1.8L4.6,1.8L3.7,.0L.8,.0L.0,1.8z" fill-rule="nonzero" transform="translate(3.439600,0.061281)" fill="url(#lg46)" id="shape338"/><path d="M-0.0,1.8L4.2,1.8L3.2,.0L.7,.0L-0.0,1.8z" fill-rule="nonzero" transform="translate(7.214810,0.067926)" fill="url(#lg46)" id="shape339"/></g><g transform="translate(70.724000,2.667917)" id="group340"><path d="M.0,1.3L3.7,1.3L3.3,.0L.4,.0L.0,1.3z" fill-rule="nonzero" transform="translate(-0.022750,0.008064)" fill="url(#lg47)" id="shape341"/><path d="M.0,1.3L3.4,1.3L3.1,.0L.4,.0L.0,1.3z" fill-rule="nonzero" transform="translate(3.647960,0.015829)" fill="url(#lg47)" id="shape342"/><path d="M.0,1.3L3.7,1.3L3.3,.0L.4,.0L.0,1.3z" fill-rule="nonzero" transform="translate(7.078200,0.008064)" fill="url(#lg47)" id="shape343"/></g><g transform="translate(70.799500,3.031350)" id="group344"><path d="M.1,1.8L4.1,1.9L3.0,.0L.4,.0L.0,.9L.1,1.8z" fill-rule="nonzero" transform="translate(-0.009950,-0.005825)" fill="url(#lg46)" id="shape345"/><path d="M.0,1.8L4.5,1.8L3.7,.0L.8,.0L.0,1.8z" fill-rule="nonzero" transform="translate(3.256190,0.042236)" fill="url(#lg46)" id="shape346"/><path d="M-0.0,1.8L4.1,1.8L3.8,.6L3.2,.0L.7,.0L-0.0,1.8z" fill-rule="nonzero" transform="translate(7.021690,0.048945)" fill="url(#lg46)" id="shape347"/></g><g transform="translate(71.024440,3.420647)" id="group348"><path d="M.0,1.3L3.7,1.3L3.3,.0L.5,.0L.0,1.3z" fill-rule="nonzero" transform="translate(-0.022930,0.008064)" fill="url(#lg47)" id="shape349"/><path d="M.0,1.3L3.5,1.3L3.1,.0L.4,.0L.0,1.3z" fill-rule="nonzero" transform="translate(3.677030,0.015829)" fill="url(#lg47)" id="shape350"/><path d="M.0,1.3L3.7,1.3L3.3,.0L.5,.0L.0,1.3z" fill-rule="nonzero" transform="translate(7.134610,0.008064)" fill="url(#lg47)" id="shape351"/></g><path d="M.3,2.9L4.1,2.8L3.8,1.5L2.9,.0L.3,.0L-0.0,1.3L.3,2.9z" fill-rule="nonzero" transform="translate(81.638840,3.067750)" fill="url(#lg46)" id="shape352"/><g transform="translate(70.813790,4.058130)" id="group353"><path d="M.3,1.8L8.3,1.9L6.8,.0L1.0,.0L-0.0,.9L.3,1.8z" fill-rule="nonzero" transform="translate(0.019500,0.030295)" fill="url(#lg46)" id="shape354"/><path d="M.0,1.9L3.9,1.9L3.4,.1L.8,.0L.0,1.9z" fill-rule="nonzero" transform="translate(7.260660,0.000779)" fill="url(#lg46)" id="shape355"/></g><g transform="translate(1.134300,4.579027)" id="group356"><path d="M.0,1.3L4.5,1.3L4.1,.0L.6,.0L.0,1.3z" fill-rule="nonzero" transform="translate(5.980180,0.000001)" fill="url(#lg47)" id="shape357"/><path d="M-0.0,1.3L6.0,1.3L5.5,-0.0L.5,.0L-0.0,1.3z" fill-rule="nonzero" transform="translate(0.000150,0.004496)" fill="url(#lg47)" id="shape358"/><path d="M.0,1.3L4.5,1.3L4.1,.0L.6,.0L.0,1.3z" fill-rule="nonzero" transform="translate(10.630460,0.000001)" fill="url(#lg47)" id="shape359"/><path d="M-0.0,1.3L20.7,1.3L20.2,.0L.5,.0L-0.0,1.3z" fill-rule="nonzero" transform="translate(15.408800,-0.002879)" fill="url(#lg47)" id="shape360"/><path d="M.0,1.3L4.5,1.3L4.1,.0L.6,.0L.0,1.3z" fill-rule="nonzero" transform="translate(36.228960,0.000001)" fill="url(#lg47)" id="shape361"/><path d="M.0,1.3L4.5,1.3L4.1,.0L.6,.0L.0,1.3z" fill-rule="nonzero" transform="translate(40.834460,0.044205)" fill="url(#lg47)" id="shape362"/><path d="M.0,1.3L4.5,1.3L4.1,.0L.6,.0L.0,1.3z" fill-rule="nonzero" transform="translate(45.552560,0.044205)" fill="url(#lg47)" id="shape363"/><path d="M-0.0,1.3L5.2,1.3L4.8,-0.0L.5,.0L-0.0,1.3z" fill-rule="nonzero" transform="translate(50.188250,-0.011469)" fill="url(#lg47)" id="shape364"/><path d="M.0,1.3L3.7,1.3L3.3,.0L.5,.0L.0,1.3z" fill-rule="nonzero" transform="translate(57.256640,0.044205)" fill="url(#lg47)" id="shape365"/><path d="M.0,1.3L3.3,1.3L3.0,.0L.4,.0L.0,1.3z" fill-rule="nonzero" transform="translate(60.956870,0.000001)" fill="url(#lg47)" id="shape366"/><path d="M.0,1.3L3.7,1.3L3.3,.0L.5,.0L.0,1.3z" fill-rule="nonzero" transform="translate(64.414540,0.044205)" fill="url(#lg47)" id="shape367"/><path d="M.0,1.3L7.4,1.3L6.7,.0L.9,.0L.0,1.3z" fill-rule="nonzero" transform="translate(70.002700,0.011047)" fill="url(#lg47)" id="shape368"/><path d="M.0,1.3L3.3,1.3L3.0,.0L.4,.0L.0,1.3z" fill-rule="nonzero" transform="translate(77.459870,0.040518)" fill="url(#lg47)" id="shape369"/><path d="M.0,1.3L3.7,1.3L3.3,.0L.5,.0L.0,1.3z" fill-rule="nonzero" transform="translate(80.865840,0.011047)" fill="url(#lg47)" id="shape370"/></g></g><g transform="translate(43.941400,0.000000)" id="group371"><path d="M.0,.2L.0,2.4C.0,2.4,-0.2,3.8,1.8,3.8C5.8,4.1,16.1,4.7,29.5,4.7C43.2,4.7,51.5,4.2,54.4,4.0C55.6,4.0,55.6,2.3,55.6,2.3L55.6,.0C55.6,.0,19.2,4.7,.0,.2z" fill-rule="nonzero" transform="translate(19.176200,76.680890)" fill="url(#lg49)" id="shape372"/><path d="M22.8,.0C22.8,.0,4.2,.3,.2,2.6C-3.7,4.9,44.8,6.6,55.0,3.1C57.8,2.1,49.6,.0,22.8,.0z" fill-rule="nonzero" transform="translate(19.206900,74.060620)" fill="url(#lg49)" id="shape373"/><path d="M22.8,.0C22.8,.0,4.2,.3,.2,2.6C-3.7,4.9,44.8,6.6,55.0,3.1C57.8,2.1,49.6,.0,22.8,.0z" fill-rule="nonzero" transform="translate(19.206900,74.060620)" fill="url(#lg50)" id="shape374"/><path stroke="#313131" stroke-width="1" d="M.0,.0L9.5,.0L9.5,12.7L.0,12.7L.0,.0z" fill-rule="nonzero" transform="translate(42.637370,64.391350)" fill="url(#lg51)" id="shape375"/><path stroke="#464646" stroke-width="1" d="M.4,.0L92.6,.0C92.8,.0,93.0,.2,93.0,.4L93.0,66.8C93.0,67.0,92.8,67.2,92.6,67.2L.4,67.2C.2,67.2,.0,67.0,.0,66.8L.0,.4C.0,.2,.2,.0,.4,.0z" fill-rule="nonzero" transform="translate(0.866700,-0.004500)" fill="url(#lg38)" id="shape376"/><path stroke="#184b6e" stroke-width="1" d="M.0,.0L83.2,.0L83.2,57.6L.0,57.6L.0,.0z" fill-rule="nonzero" transform="translate(5.789400,4.716600)" fill="url(#lg52)" id="shape377"/><path d="M23.0,.0C23.0,.0,2.7,.4,.2,2.6C-3.3,5.6,45.0,6.6,55.2,3.1C58.0,2.1,49.8,.0,23.0,.0z" fill-rule="nonzero" transform="matrix(-1.000000,0.000000,0.000000,1.000000,74.907400,74.060520)" fill="url(#lg53)" id="shape378"/></g><text xml:space="preserve" style="fill:#191919;font-family:微软雅黑,PingFang SC,Mircrosoft YaHei,Arial;font-size:12.50pt"><tspan style="font-size:10.00pt" x="59.5" y="111.5">客户端</tspan></text></g><g transform="translate(1223.970000,697.915000)" id="group379"><path d="M44.0,32.9C44.0,29.6,38.0,28.1,32.1,28.1C31.0,28.1,29.9,28.2,28.8,28.3L28.8,4.4C28.8,1.9,26.9,.0,24.5,.0L4.3,.0C1.9,.0,.0,1.9,.0,4.4L.0,54.1L20.6,54.1C22.2,57.5,28.2,58.0,32.0,58.0C36.2,58.0,43.4,57.3,43.8,52.6L43.8,33.6C44.0,33.5,44.0,33.2,44.0,32.9z" fill-rule="nonzero" fill="#ffffff" id="shape380"/><g transform="translate(1.537100,1.462200)" id="group381"><path d="M18.0,45.3L5.0,45.3L5.0,43.1L18.0,43.1L18.0,38.7L5.0,38.7L5.0,36.5L18.0,36.5L18.0,32.2L18.0,31.5C18.0,28.4,21.6,26.8,25.9,26.2L25.9,2.9C25.9,1.3,24.6,.0,23.1,.0L2.9,.0C1.3,.0,.0,1.3,.0,2.9L.0,51.2L18.1,51.2L18.1,50.3L18.1,45.3L18.0,45.3zM5.0,6.6L20.8,6.6L20.8,8.9L5.0,8.9L5.0,6.6z" fill-rule="nonzero" fill="#515150" id="shape382"/><path d="M.0,.0L.0,16.3L.0,17.2C.4,20.9,7.8,21.2,10.4,21.2C13.0,21.2,20.5,20.9,20.8,17.2L20.8,16.3L20.8,.0C18.7,1.6,14.5,2.3,10.5,2.3C6.4,2.3,2.1,1.7,.0,.0z" fill-rule="nonzero" transform="translate(20.174700,33.922700)" fill="#515150" id="shape383"/><path d="M20.9,3.3C20.9,5.1,16.3,6.6,10.5,6.6C4.7,6.6,.0,5.1,.0,3.3C.0,1.5,4.7,.0,10.5,.0C16.3,.0,20.9,1.5,20.9,3.3z" fill-rule="nonzero" transform="translate(20.078600,28.171410)" fill="#515150" id="shape384"/></g><circle r="3.0" cy="89.0" cx="-21.2" fill="#191919"/><text xml:space="preserve" style="fill:#191919;font-family:微软雅黑,PingFang SC,Mircrosoft YaHei,Arial;font-size:12.50pt"><tspan style="font-size:10.00pt" x="-14.0" y="94.5">CA的PublicKey</tspan></text></g><path stroke="#191919" stroke-width="4" d="M.0,.0L47.0,.0L47.0,140.0L56.0,140.0" transform="translate(1167.970000,586.915000)" fill="none" id="shape385"/><g transform="translate(1384.932000,608.147000)" id="shape386"><path stroke="#191919" stroke-width="1" d="M232.8,59.0L232.8,7.0C232.8,3.1,229.6,.0,225.8,.0L7.0,.0C3.1,.0,.0,3.1,.0,7.0L.0,59.0C.0,62.9,3.1,66.0,7.0,66.0L225.8,66.0C229.6,66.0,232.8,62.9,232.8,59.0z" fill-rule="nonzero" fill="#cfe9d8"/><text xml:space="preserve" style="fill:#191919;font-family:微软雅黑,PingFang SC,Mircrosoft YaHei,Arial;font-size:12.50pt"><tspan style="font-size:10.00pt" x="37.4" y="19.5">7. 客户端随机生成一个秘钥</tspan><tspan style="font-size:10.00pt" x="8.9" y="38.5">SecurityKey，客户端使用上一步的服</tspan><tspan style="font-size:10.00pt" x="18.4" y="57.5">务器PublicKey对SecurityKey加密</tspan></text></g><g transform="translate(1577.542000,727.915000)" id="shape387"><path stroke="#191919" stroke-width="1" d="M232.8,59.0L232.8,7.0C232.8,3.1,229.6,.0,225.8,.0L7.0,.0C3.1,.0,.0,3.1,.0,7.0L.0,59.0C.0,62.9,3.1,66.0,7.0,66.0L225.8,66.0C229.6,66.0,232.8,62.9,232.8,59.0z" fill-rule="nonzero" fill="#cbe3f8"/><text xml:space="preserve" style="fill:#191919;font-family:微软雅黑,PingFang SC,Mircrosoft YaHei,Arial;font-size:12.50pt"><tspan style="font-size:10.00pt" x="17.9" y="29.0">9. 服务器接收到客户端发送过来的</tspan><tspan style="font-size:10.00pt" x="34.9" y="48.0">SecurityKey，将其保存下来</tspan></text></g><g transform="translate(1388.150000,812.915000)" id="shape388"><path stroke="#e1a822" stroke-width="4.3333301544189453" d="M9.3,.0L416.0,.0" fill="none"/><path stroke="#e1a822" stroke-width="1" stroke-linecap="round" d="M9.3,9.3L.0,.0L9.3,-9.3L9.3,9.3" fill="#e1a822"/><rect width="384.0" height="19.0" x="18.0" y="-9.5" fill="#ffffff"/><text xml:space="preserve" style="fill:#191919;font-family:微软雅黑,PingFang SC,Mircrosoft YaHei,Arial;font-size:12.50pt"><tspan style="font-size:10.00pt" x="18.0" y="5.5">10. 服务器告诉客户端 SecurityKey 已经接受到 了，可以正常通信 </tspan></text></g><g transform="translate(1388.320000,859.915000)" id="shape389"><path stroke="#e1a822" stroke-width="4.3333301544189453" d="M9.3,.0L403.5,.0" fill="none"/><path stroke="#e1a822" stroke-width="1" stroke-linecap="round" d="M9.3,9.3L.0,.0L9.3,-9.3L9.3,9.3" fill="#e1a822"/><path stroke="#e1a822" stroke-width="1" stroke-linecap="round" d="M403.5,-6.2L416.0,.0L403.5,6.2L403.5,-6.2" fill="#e1a822"/><rect width="342.0" height="19.0" x="49.6" y="-9.5" fill="#ffffff"/><text xml:space="preserve" style="fill:#191919;font-family:微软雅黑,PingFang SC,Mircrosoft YaHei,Arial;font-size:12.50pt"><tspan style="font-size:10.00pt" x="49.6" y="5.5">11. 客户端与服务器通过对称加密使用SecurityKey进行通信</tspan></text></g><g transform="translate(2097.320000,717.915000)" id="shape390"><path stroke="#eb8989" stroke-width="5.3333301544189453" d="M.0,.0L.0,-43.1" fill="none"/><path stroke="#eb8989" stroke-width="1" stroke-linecap="round" d="M-6.9,-43.1L.0,-57.0L6.9,-43.1L-6.9,-43.1" fill="#eb8989"/></g></g></svg>