<svg xmlns="http://www.w3.org/2000/svg" xmlns:ev="http://www.w3.org/2001/xml-events" viewBox="0 0 2255 1597" width="2255" xmlns:xlink="http://www.w3.org/1999/xlink" height="1597"><defs/><g transform="translate(5.5,5.5)" id="page1"><rect width="2245" height="1587" x="0" y="0" fill="none"/><g transform="translate(76.000000,97.500000)" id="shape1"><path stroke="#191919" stroke-width="1" d="M311.0,559.0L311.0,.0L.0,.0L.0,559.0L311.0,559.0z" fill-rule="nonzero" fill="#e9edf8"/><text xml:space="preserve" style="fill:#191919;font-family:微软雅黑,PingFang SC,Mircrosoft YaHei,Arial;font-size:17.50pt"><tspan style="font-size:14.00pt" x="4.0" y="24.0">Java源文件</tspan></text></g><g transform="translate(94.000000,152.000000)" id="shape2"><path stroke="#191919" stroke-width="1" d="M268.5,24.5L268.5,7.0C268.5,3.1,265.4,.0,261.5,.0L7.0,.0C3.1,.0,.0,3.1,.0,7.0L.0,24.5C.0,28.4,3.1,31.5,7.0,31.5L261.5,31.5C265.4,31.5,268.5,28.4,268.5,24.5z" fill-rule="nonzero" fill="#b2c2e9"/><text xml:space="preserve" style="fill:#191919;font-family:微软雅黑,PingFang SC,Mircrosoft YaHei,Arial;font-size:12.50pt"><tspan style="font-size:10.00pt" x="105.3" y="21.3">UTF8编码</tspan></text></g><g transform="translate(409.500000,338.750000)" id="shape3"><path stroke="#191919" stroke-width="1" d="M.0,22.9L108.6,22.9L108.6,.0L143.0,38.3L108.6,76.5L108.6,53.5L.0,53.5L.0,22.9z" fill-rule="nonzero" fill="#b2c2e9"/><text xml:space="preserve" style="fill:#191919;font-family:微软雅黑,PingFang SC,Mircrosoft YaHei,Arial;font-size:12.50pt"><tspan style="font-size:10.00pt" x="41.3" y="43.8">编译</tspan></text></g><g transform="translate(575.000000,97.500000)" id="shape4"><path stroke="#191919" stroke-width="1" d="M767.0,559.0L767.0,.0L.0,.0L.0,559.0L767.0,559.0z" fill-rule="nonzero" fill="#e9edf8"/><text xml:space="preserve" style="fill:#191919;font-family:微软雅黑,PingFang SC,Mircrosoft YaHei,Arial;font-size:17.50pt"><tspan style="font-size:14.00pt" x="4.0" y="24.0">class文件</tspan></text></g><g transform="translate(596.000000,152.000000)" id="shape5"><path stroke="#191919" stroke-width="1" d="M717.0,24.5L717.0,7.0C717.0,3.1,713.9,.0,710.0,.0L7.0,.0C3.1,.0,.0,3.1,.0,7.0L.0,24.5C.0,28.4,3.1,31.5,7.0,31.5L710.0,31.5C713.9,31.5,717.0,28.4,717.0,24.5z" fill-rule="nonzero" fill="#b2c2e9"/><text xml:space="preserve" style="fill:#191919;font-family:微软雅黑,PingFang SC,Mircrosoft YaHei,Arial;font-size:12.50pt"><tspan style="font-size:10.00pt" x="329.5" y="21.3">UTF8编码</tspan></text></g><g transform="translate(1369.000000,366.938000)" id="shape6"><path stroke="#191919" stroke-width="1" d="M.0,21.1L111.3,21.1L111.3,.0L143.0,35.3L111.3,70.5L111.3,49.4L.0,49.4L.0,21.1z" fill-rule="nonzero" fill="#b2c2e9"/><text xml:space="preserve" style="fill:#191919;font-family:微软雅黑,PingFang SC,Mircrosoft YaHei,Arial;font-size:12.50pt"><tspan style="font-size:10.00pt" x="28.1" y="40.8">class加载</tspan></text></g><g transform="translate(1539.000000,97.500000)" id="shape7"><path stroke="#191919" stroke-width="1" d="M634.0,559.0L634.0,.0L.0,.0L.0,559.0L634.0,559.0z" fill-rule="nonzero" fill="#e9edf8"/><text xml:space="preserve" style="fill:#191919;font-family:微软雅黑,PingFang SC,Mircrosoft YaHei,Arial;font-size:17.50pt"><tspan style="font-size:14.00pt" x="4.0" y="24.0">JVM运行时</tspan></text></g><g transform="translate(596.000000,216.000000)" id="shape8"><path stroke="#191919" stroke-width="1" d="M717.0,423.5L717.0,7.0C717.0,3.1,713.9,.0,710.0,.0L7.0,.0C3.1,.0,.0,3.1,.0,7.0L.0,423.5C.0,427.4,3.1,430.5,7.0,430.5L710.0,430.5C713.9,430.5,717.0,427.4,717.0,423.5z" fill-rule="nonzero" fill="#cfe9d8"/><text xml:space="preserve" style="fill:#191919;font-family:微软雅黑,PingFang SC,Mircrosoft YaHei,Arial;font-size:12.50pt"><tspan style="font-size:10.00pt" x="4.0" y="19.0">Constant Pool</tspan></text></g><g transform="translate(649.000000,546.624500)" id="shape9"><path stroke="#191919" stroke-width="1" d="M275.0,76.4L275.0,.0L.0,.0L.0,76.4L275.0,76.4z" fill-rule="nonzero" fill="#ffe8cd"/><text xml:space="preserve" style="fill:#191919;font-family:微软雅黑,PingFang SC,Mircrosoft YaHei,Arial;font-size:12.50pt"><tspan style="font-size:10.00pt" x="4.0" y="19.0">CONSTANT_String_info</tspan></text></g><g transform="translate(718.000000,577.062000)" id="shape10"><path stroke="#191919" stroke-width="1" d="M192.0,24.5L192.0,7.0C192.0,3.1,188.9,.0,185.0,.0L7.0,.0C3.1,.0,.0,3.1,.0,7.0L.0,24.5C.0,28.4,3.1,31.5,7.0,31.5L185.0,31.5C188.9,31.5,192.0,28.4,192.0,24.5z" fill-rule="nonzero" fill="#ffce80"/><text xml:space="preserve" style="fill:#191919;font-family:微软雅黑,PingFang SC,Mircrosoft YaHei,Arial;font-size:12.50pt"><tspan style="font-size:10.00pt" x="47.5" y="21.3">u2 string_index;</tspan></text></g><g transform="translate(989.500000,544.436500)" id="shape11"><path stroke="#191919" stroke-width="1" d="M275.0,76.4L275.0,.0L.0,.0L.0,76.4L275.0,76.4z" fill-rule="nonzero" fill="#ffe8cd"/><text xml:space="preserve" style="fill:#191919;font-family:微软雅黑,PingFang SC,Mircrosoft YaHei,Arial;font-size:12.50pt"><tspan style="font-size:10.00pt" x="4.0" y="19.0">CONSTANT_Utf8_info</tspan></text></g><g transform="translate(1051.000000,577.062000)" id="shape12"><path stroke="#191919" stroke-width="1" d="M152.0,24.5L152.0,7.0C152.0,3.1,148.9,.0,145.0,.0L7.0,.0C3.1,.0,.0,3.1,.0,7.0L.0,24.5C.0,28.4,3.1,31.5,7.0,31.5L145.0,31.5C148.9,31.5,152.0,28.4,152.0,24.5z" fill-rule="nonzero" fill="#ffce80"/><text xml:space="preserve" style="fill:#191919;font-family:微软雅黑,PingFang SC,Mircrosoft YaHei,Arial;font-size:12.50pt"><tspan style="font-size:10.00pt" x="24.5" y="21.5">u1 bytes[length];</tspan></text></g><g transform="translate(910.000000,592.812000)" id="shape13"><path stroke="#191919" stroke-width="1" d="M.0,.0L51.0,.0L51.0,-10.0L73.0,-10.0" fill="none"/><path stroke="#191919" stroke-width="1" stroke-linecap="round" d="M73.0,-13.0L79.0,-10.0L73.0,-7.0L73.0,-13.0" fill="#191919"/><rect width="26.0" height="19.0" x="46.8" y="-19.5" fill="#ffffff"/><text xml:space="preserve" style="fill:#191919;font-family:微软雅黑,PingFang SC,Mircrosoft YaHei,Arial;font-size:12.50pt"><tspan style="font-size:10.00pt" x="46.8" y="-4.5">指向</tspan></text></g><g transform="translate(104.000000,292.813000)" id="shape14"><path stroke="#191919" stroke-width="1" d="M258.5,76.5L258.5,.0L.0,.0L.0,76.5L258.5,76.5z" fill-rule="nonzero" fill="#8ba7e1"/><text xml:space="preserve" style="fill:#191919;font-family:微软雅黑,PingFang SC,Mircrosoft YaHei,Arial;font-size:12.50pt"><tspan style="font-size:10.00pt" x="83.8" y="25.0">字符串常量编码</tspan><tspan style="font-size:10.00pt" x="77.3" y="63.0">String ab = "ab";</tspan></text></g><g transform="translate(104.000000,407.000000)" id="shape15"><path stroke="#191919" stroke-width="1" d="M258.5,70.0L258.5,.0L.0,.0L.0,70.0L258.5,70.0z" fill-rule="nonzero" fill="#8ba7e1"/><text xml:space="preserve" style="fill:#191919;font-family:微软雅黑,PingFang SC,Mircrosoft YaHei,Arial;font-size:12.50pt"><tspan style="font-size:10.00pt" x="83.8" y="21.5">字符串对象编码</tspan><tspan style="font-size:10.00pt" x="46.3" y="59.5">String a = new String("a"); </tspan></text></g><g transform="translate(104.000000,509.688000)" id="shape16"><path stroke="#191919" stroke-width="1" d="M258.5,70.0L258.5,.0L.0,.0L.0,70.0L258.5,70.0z" fill-rule="nonzero" fill="#8ba7e1"/><text xml:space="preserve" style="fill:#191919;font-family:微软雅黑,PingFang SC,Mircrosoft YaHei,Arial;font-size:12.50pt"><tspan style="font-size:10.00pt" x="62.8" y="21.5">类/字段/方法 名称编码</tspan><tspan style="font-size:10.00pt" x="75.3" y="59.5">String 汉 = "汉";  </tspan></text></g><g transform="translate(649.000000,445.781500)" id="shape17"><path stroke="#191919" stroke-width="1" d="M275.0,76.4L275.0,.0L.0,.0L.0,76.4L275.0,76.4z" fill-rule="nonzero" fill="#87cfa5"/><text xml:space="preserve" style="fill:#191919;font-family:微软雅黑,PingFang SC,Mircrosoft YaHei,Arial;font-size:12.50pt"><tspan style="font-size:10.00pt" x="4.0" y="19.0">CONSTANT_Class_info</tspan></text></g><g transform="translate(718.000000,481.656000)" id="shape18"><path stroke="#191919" stroke-width="1" d="M192.0,24.5L192.0,7.0C192.0,3.1,188.9,.0,185.0,.0L7.0,.0C3.1,.0,.0,3.1,.0,7.0L.0,24.5C.0,28.4,3.1,31.5,7.0,31.5L185.0,31.5C188.9,31.5,192.0,28.4,192.0,24.5z" fill-rule="nonzero" fill="#2e8d5d"/><text xml:space="preserve" style="fill:#191919;font-family:微软雅黑,PingFang SC,Mircrosoft YaHei,Arial;font-size:12.50pt"><tspan style="font-size:10.00pt" x="48.0" y="21.3">u2 name_index;</tspan></text></g><g transform="translate(649.000000,262.500000)" id="shape19"><path stroke="#191919" stroke-width="1" d="M275.0,170.0L275.0,.0L.0,.0L.0,170.0L275.0,170.0z" fill-rule="nonzero" fill="#87cfa5"/><text xml:space="preserve" style="fill:#191919;font-family:微软雅黑,PingFang SC,Mircrosoft YaHei,Arial;font-size:12.50pt"><tspan style="font-size:10.00pt" x="4.0" y="19.0">CONSTANT_Fieldref_info</tspan><tspan style="font-size:10.00pt" x="4.0" y="38.0">CONSTANT_Methodref_info</tspan><tspan style="font-size:10.00pt" x="4.0" y="57.0">CONSTANT_InterfaceMethodref_info</tspan></text></g><g transform="translate(718.000000,383.875700)" id="shape20"><path stroke="#191919" stroke-width="1" d="M192.0,29.6L192.0,7.0C192.0,3.1,188.9,.0,185.0,.0L7.0,.0C3.1,.0,.0,3.1,.0,7.0L.0,29.6C.0,33.5,3.1,36.6,7.0,36.6L185.0,36.6C188.9,36.6,192.0,33.5,192.0,29.6z" fill-rule="nonzero" fill="#2e8d5d"/><text xml:space="preserve" style="fill:#191919;font-family:微软雅黑,PingFang SC,Mircrosoft YaHei,Arial;font-size:12.50pt"><tspan style="font-size:10.00pt" x="17.0" y="23.8">u2 name_and_type_index;</tspan></text></g><g transform="translate(718.000000,333.562800)" id="shape21"><path stroke="#191919" stroke-width="1" d="M192.0,29.6L192.0,7.0C192.0,3.1,188.9,.0,185.0,.0L7.0,.0C3.1,.0,.0,3.1,.0,7.0L.0,29.6C.0,33.5,3.1,36.6,7.0,36.6L185.0,36.6C188.9,36.6,192.0,33.5,192.0,29.6z" fill-rule="nonzero" fill="#2e8d5d"/><text xml:space="preserve" style="fill:#191919;font-family:微软雅黑,PingFang SC,Mircrosoft YaHei,Arial;font-size:12.50pt"><tspan style="font-size:10.00pt" x="50.5" y="23.8">u2 class_index;</tspan></text></g><g transform="translate(910.000000,497.406000)" id="shape22"><path stroke="#191919" stroke-width="1" d="M.0,.0L216.0,.0L216.0,41.0" fill="none"/><path stroke="#191919" stroke-width="1" stroke-linecap="round" d="M219.0,41.0L216.0,47.0L213.0,41.0L219.0,41.0" fill="#191919"/><rect width="26.0" height="19.0" x="107.8" y="-9.5" fill="#ffffff"/><text xml:space="preserve" style="fill:#191919;font-family:微软雅黑,PingFang SC,Mircrosoft YaHei,Arial;font-size:12.50pt"><tspan style="font-size:10.00pt" x="107.8" y="5.5">指向</tspan></text></g><g transform="translate(989.500000,309.312200)" id="shape23"><path stroke="#191919" stroke-width="1" d="M275.0,123.2L275.0,.0L.0,.0L.0,123.2L275.0,123.2z" fill-rule="nonzero" fill="#87cfa5"/><text xml:space="preserve" style="fill:#191919;font-family:微软雅黑,PingFang SC,Mircrosoft YaHei,Arial;font-size:12.50pt"><tspan style="font-size:10.00pt" x="4.0" y="19.0">CONSTANT_NameAndType_info</tspan></text></g><g transform="translate(1051.000000,343.187000)" id="shape24"><path stroke="#191919" stroke-width="1" d="M152.0,24.5L152.0,7.0C152.0,3.1,148.9,.0,145.0,.0L7.0,.0C3.1,.0,.0,3.1,.0,7.0L.0,24.5C.0,28.4,3.1,31.5,7.0,31.5L145.0,31.5C148.9,31.5,152.0,28.4,152.0,24.5z" fill-rule="nonzero" fill="#2e8d5d"/><text xml:space="preserve" style="fill:#191919;font-family:微软雅黑,PingFang SC,Mircrosoft YaHei,Arial;font-size:12.50pt"><tspan style="font-size:10.00pt" x="28.0" y="21.5">u2 name_index;</tspan></text></g><g transform="translate(1203.000000,358.937000)" id="shape25"><path stroke="#191919" stroke-width="1" d="M.0,.0L38.0,.0L38.0,180.0" fill="none"/><path stroke="#191919" stroke-width="1" stroke-linecap="round" d="M41.0,180.0L38.0,186.0L35.0,180.0L41.0,180.0" fill="#191919"/><rect width="26.0" height="19.0" x="26.0" y="106.4" fill="#ffffff"/><text xml:space="preserve" style="fill:#191919;font-family:微软雅黑,PingFang SC,Mircrosoft YaHei,Arial;font-size:12.50pt"><tspan style="font-size:10.00pt" x="26.0" y="121.4">指向</tspan></text></g><g transform="translate(1051.000000,383.876000)" id="shape26"><path stroke="#191919" stroke-width="1" d="M152.0,24.5L152.0,7.0C152.0,3.1,148.9,.0,145.0,.0L7.0,.0C3.1,.0,.0,3.1,.0,7.0L.0,24.5C.0,28.4,3.1,31.5,7.0,31.5L145.0,31.5C148.9,31.5,152.0,28.4,152.0,24.5z" fill-rule="nonzero" fill="#2e8d5d"/><text xml:space="preserve" style="fill:#191919;font-family:微软雅黑,PingFang SC,Mircrosoft YaHei,Arial;font-size:12.50pt"><tspan style="font-size:10.00pt" x="14.0" y="21.5">u2 descriptor_index;</tspan></text></g><g transform="translate(1186.340000,415.376000)" id="shape27"><path stroke="#191919" stroke-width="1" d="M.0,.0L.0,124.0" fill="none"/><path stroke="#191919" stroke-width="1" stroke-linecap="round" d="M3.0,124.0L.0,130.0L-3.0,124.0L3.0,124.0" fill="#191919"/><rect width="26.0" height="19.0" x="-12.0" y="56.8" fill="#ffffff"/><text xml:space="preserve" style="fill:#191919;font-family:微软雅黑,PingFang SC,Mircrosoft YaHei,Arial;font-size:12.50pt"><tspan style="font-size:10.00pt" x="-12.0" y="71.8">指向</tspan></text></g><g transform="translate(718.000000,351.875000)" id="shape28"><path stroke="#191919" stroke-width="1" d="M.0,.0L-97.0,.0L-97.0,132.0L-75.0,132.0" fill="none"/><path stroke="#191919" stroke-width="1" stroke-linecap="round" d="M-75.0,129.0L-69.0,132.0L-75.0,135.0L-75.0,129.0" fill="#191919"/><rect width="26.0" height="19.0" x="-109.0" y="41.0" fill="#ffffff"/><text xml:space="preserve" style="fill:#191919;font-family:微软雅黑,PingFang SC,Mircrosoft YaHei,Arial;font-size:12.50pt"><tspan style="font-size:10.00pt" x="-109.0" y="56.0">指向</tspan></text></g><g transform="translate(910.000000,402.188000)" id="shape29"><path stroke="#191919" stroke-width="1" d="M.0,.0L51.0,.0L51.0,-32.0L73.0,-32.0" fill="none"/><path stroke="#191919" stroke-width="1" stroke-linecap="round" d="M73.0,-35.0L79.0,-32.0L73.0,-29.0L73.0,-35.0" fill="#191919"/><rect width="26.0" height="19.0" x="39.0" y="-29.3" fill="#ffffff"/><text xml:space="preserve" style="fill:#191919;font-family:微软雅黑,PingFang SC,Mircrosoft YaHei,Arial;font-size:12.50pt"><tspan style="font-size:10.00pt" x="39.0" y="-14.3">指向</tspan></text></g><g transform="translate(1570.000000,152.000000)" id="shape30"><path stroke="#191919" stroke-width="1" d="M575.0,260.4L575.0,7.0C575.0,3.1,571.9,.0,568.0,.0L7.0,.0C3.1,.0,.0,3.1,.0,7.0L.0,260.4C.0,264.3,3.1,267.4,7.0,267.4L568.0,267.4C571.9,267.4,575.0,264.3,575.0,260.4z" fill-rule="nonzero" fill="#ffede9"/><text xml:space="preserve" style="fill:#191919;font-family:微软雅黑,PingFang SC,Mircrosoft YaHei,Arial;font-size:17.50pt"><tspan style="font-size:14.00pt" x="4.0" y="24.0">字符串对象</tspan></text></g><g transform="translate(1590.500000,198.000000)" id="shape31"><path stroke="#191919" stroke-width="1" d="M526.5,84.5L526.5,7.0C526.5,3.1,523.4,.0,519.5,.0L7.0,.0C3.1,.0,.0,3.1,.0,7.0L.0,84.5C.0,88.4,3.1,91.5,7.0,91.5L519.5,91.5C523.4,91.5,526.5,88.4,526.5,84.5z" fill-rule="nonzero" fill="#fec3b3"/><text xml:space="preserve" style="fill:#191919;font-family:微软雅黑,PingFang SC,Mircrosoft YaHei,Arial;font-size:12.50pt"><tspan style="font-size:10.00pt" x="4.3" y="19.0">JDK8</tspan></text></g><g transform="translate(1635.500000,224.000000)" id="shape32"><path stroke="#191919" stroke-width="1" d="M117.0,32.5L117.0,7.0C117.0,3.1,113.9,.0,110.0,.0L7.0,.0C3.1,.0,.0,3.1,.0,7.0L.0,32.5C.0,36.4,3.1,39.5,7.0,39.5L110.0,39.5C113.9,39.5,117.0,36.4,117.0,32.5z" fill-rule="nonzero" fill="#df7746"/><text xml:space="preserve" style="fill:#000000;font-family:微软雅黑,PingFang SC,Mircrosoft YaHei,Arial;font-size:12.50pt;font-weight:bold"><tspan style="font-size:10.00pt" x="19.0" y="25.5">char value[]</tspan></text></g><g transform="translate(1590.500000,311.749000)" id="shape33"><path stroke="#191919" stroke-width="1" d="M526.5,84.5L526.5,7.0C526.5,3.1,523.4,.0,519.5,.0L7.0,.0C3.1,.0,.0,3.1,.0,7.0L.0,84.5C.0,88.4,3.1,91.5,7.0,91.5L519.5,91.5C523.4,91.5,526.5,88.4,526.5,84.5z" fill-rule="nonzero" fill="#fec3b3"/><text xml:space="preserve" style="fill:#191919;font-family:微软雅黑,PingFang SC,Mircrosoft YaHei,Arial;font-size:12.50pt"><tspan style="font-size:10.00pt" x="4.3" y="19.0">JDK9</tspan></text></g><g transform="translate(1635.500000,339.250000)" id="shape34"><path stroke="#191919" stroke-width="1" d="M117.0,32.5L117.0,7.0C117.0,3.1,113.9,.0,110.0,.0L7.0,.0C3.1,.0,.0,3.1,.0,7.0L.0,32.5C.0,36.4,3.1,39.5,7.0,39.5L110.0,39.5C113.9,39.5,117.0,36.4,117.0,32.5z" fill-rule="nonzero" fill="#df7746"/><text xml:space="preserve" style="fill:#000000;font-family:微软雅黑,PingFang SC,Mircrosoft YaHei,Arial;font-size:12.50pt;font-weight:bold"><tspan style="font-size:10.00pt" x="19.0" y="25.5">byte value[]</tspan></text></g><g transform="translate(1757.000000,224.000000)" id="shape35"><path stroke="#595959" stroke-width="1" d="M.0,.0L4.5,.0C5.7,-0.2,7.0,.2,7.9,1.1C8.8,2.0,9.2,3.3,9.0,4.5L9.0,15.3C8.8,16.5,9.2,17.7,10.1,18.6C11.0,19.5,12.3,19.9,13.5,19.8C12.3,19.6,11.0,20.0,10.1,20.9C9.2,21.8,8.8,23.0,9.0,24.3L9.0,35.0C9.2,36.2,8.8,37.5,7.9,38.4C7.0,39.3,5.7,39.7,4.5,39.5L.0,39.5" fill="none"/><text xml:space="preserve" style="fill:#191919;font-family:微软雅黑,PingFang SC,Mircrosoft YaHei,Arial;font-size:12.50pt"><tspan style="font-size:10.00pt" x="27.4" y="15.8">UTF16，源码中每个Unicode编码字符</tspan><tspan style="font-size:10.00pt" x="43.4" y="34.8">在String对象中都用2个char表示</tspan></text></g><g transform="translate(1757.000000,340.750000)" id="shape36"><path stroke="#595959" stroke-width="1" d="M.0,.0L4.5,.0C5.7,-0.2,7.0,.2,7.9,1.1C8.8,2.0,9.2,3.3,9.0,4.5L9.0,15.3C8.8,16.5,9.2,17.7,10.1,18.6C11.0,19.5,12.3,19.9,13.5,19.8C12.3,19.6,11.0,20.0,10.1,20.9C9.2,21.8,8.8,23.0,9.0,24.3L9.0,35.0C9.2,36.2,8.8,37.5,7.9,38.4C7.0,39.3,5.7,39.7,4.5,39.5L.0,39.5" fill="none"/><text xml:space="preserve" style="fill:#191919;font-family:微软雅黑,PingFang SC,Mircrosoft YaHei,Arial;font-size:12.50pt"><tspan style="font-size:10.00pt" x="27.0" y="25.3">采用Latin1或者UTF16进行编码</tspan></text></g><g transform="translate(649.000000,699.000000)" id="shape37"><path stroke="#191919" stroke-width="1" d="M615.5,265.0L615.5,.0L.0,.0L.0,265.0L615.5,265.0z" fill-rule="nonzero" fill="#fff4e8"/><text xml:space="preserve" style="fill:#191919;font-family:微软雅黑,PingFang SC,Mircrosoft YaHei,Arial;font-size:12.50pt"><tspan style="font-size:10.00pt" x="4.3" y="19.0">CONSTANT_Utf8_info 字符常量编码方案 （采用改进过的UTF8方案）</tspan></text></g><g transform="translate(1127.000000,608.562000)" id="shape38"><path stroke="#bc8c1a" stroke-width="4.6666698455810547" d="M.0,.0L.0,78.0" fill="none"/><path stroke="#bc8c1a" stroke-width="1" stroke-linecap="round" d="M6.5,78.0L.0,91.0L-6.5,78.0L6.5,78.0" fill="#bc8c1a"/></g><g transform="translate(1569.000000,459.092300)" id="shape39"><path stroke="#191919" stroke-width="1" d="M472.0,119.9L472.0,7.0C472.0,3.1,468.9,.0,465.0,.0L7.0,.0C3.1,.0,.0,3.1,.0,7.0L.0,119.9C.0,123.8,3.1,126.9,7.0,126.9L465.0,126.9C468.9,126.9,472.0,123.8,472.0,119.9z" fill-rule="nonzero" fill="#fae9e9"/><text xml:space="preserve" style="fill:#191919;font-family:微软雅黑,PingFang SC,Mircrosoft YaHei,Arial;font-size:17.50pt"><tspan style="font-size:14.00pt" x="4.0" y="24.0">运行时常量池</tspan></text></g><g transform="translate(1857.500000,419.438000)" id="shape40"><path stroke="#191919" stroke-width="1" d="M.0,.0L.0,34.0" fill="none"/><path stroke="#191919" stroke-width="1" stroke-linecap="round" d="M3.0,34.0L.0,40.0L-3.0,34.0L3.0,34.0" fill="#191919"/><rect width="115.0" height="19.0" x="-56.5" y="7.2" fill="#ffffff"/><text xml:space="preserve" style="fill:#191919;font-family:微软雅黑,PingFang SC,Mircrosoft YaHei,Arial;font-size:12.50pt"><tspan style="font-size:10.00pt" x="-56.5" y="22.2">String#intern()方法</tspan></text></g><g transform="translate(283.000000,763.000000)" id="shape41"><path stroke="#191919" stroke-width="1" d="M284.0,106.0L284.0,.0L.0,.0L.0,106.0L284.0,106.0z" fill-rule="nonzero" fill="#ffffff"/><text xml:space="preserve" style="fill:#191919;font-family:微软雅黑,PingFang SC,Mircrosoft YaHei,Arial;font-size:12.50pt"><tspan style="font-size:10.00pt" x="4.0" y="20.5">CONSTANT_Integer_info</tspan><tspan style="font-size:10.00pt" x="4.0" y="39.5">CONSTANT_Float_info</tspan><tspan style="font-size:10.00pt" x="4.0" y="58.5">CONSTANT_MethodHandle_info</tspan><tspan style="font-size:10.00pt" x="4.0" y="77.5">CONSTANT_MethodType_info</tspan><tspan style="font-size:10.00pt" x="4.0" y="96.5">CONSTANT_InvokeDynamic_info</tspan></text></g><g transform="translate(596.000000,577.858000)" id="shape42"><path stroke="#191919" stroke-width="1" stroke-dasharray="11,5" d="M.0,.0L-171.0,.0L-171.0,180.0" fill="none"/><path stroke="#191919" stroke-width="1" stroke-linecap="round" d="M-168.0,180.0L-171.0,186.0L-174.0,180.0L-168.0,180.0" fill="#191919"/><rect width="91.0" height="19.0" x="-215.5" y="129.8" fill="#ffffff"/><text xml:space="preserve" style="fill:#191919;font-family:微软雅黑,PingFang SC,Mircrosoft YaHei,Arial;font-size:12.50pt"><tspan style="font-size:10.00pt" x="-215.5" y="144.8">其他常量池属性</tspan></text></g><g transform="translate(666.000000,745.000000)" id="shape43"><path stroke="#191919" stroke-width="1" d="M411.0,39.0L411.0,.0L.0,.0L.0,39.0L411.0,39.0z" fill-rule="nonzero" fill="#ffffff"/><text xml:space="preserve" style="fill:#191919;font-family:微软雅黑,PingFang SC,Mircrosoft YaHei,Arial;font-size:12.50pt"><tspan style="font-size:10.00pt" x="4.0" y="25.0">代码点在 ['\u0001' ~ '\u007F'] 范围之间用1个字节表示</tspan></text></g><g transform="translate(666.000000,796.500000)" id="shape44"><path stroke="#191919" stroke-width="1" d="M411.0,39.0L411.0,.0L.0,.0L.0,39.0L411.0,39.0z" fill-rule="nonzero" fill="#ffffff"/><text xml:space="preserve" style="fill:#191919;font-family:微软雅黑,PingFang SC,Mircrosoft YaHei,Arial;font-size:12.50pt"><tspan style="font-size:10.00pt" x="4.0" y="25.0">代码点在 ['\u0080' ~ '\u07FF'] 范围之间用2个字节表示</tspan></text></g><g transform="translate(666.000000,849.000000)" id="shape45"><path stroke="#191919" stroke-width="1" d="M411.0,39.0L411.0,.0L.0,.0L.0,39.0L411.0,39.0z" fill-rule="nonzero" fill="#ffffff"/><text xml:space="preserve" style="fill:#191919;font-family:微软雅黑,PingFang SC,Mircrosoft YaHei,Arial;font-size:12.50pt"><tspan style="font-size:10.00pt" x="4.0" y="25.0">代码点在 ['\u0800' ~ '\uFFFF'] 范围之间用3个字节表示</tspan></text></g><g transform="translate(666.000000,899.000000)" id="shape46"><path stroke="#191919" stroke-width="1" d="M411.0,39.0L411.0,.0L.0,.0L.0,39.0L411.0,39.0z" fill-rule="nonzero" fill="#ffffff"/><text xml:space="preserve" style="fill:#191919;font-family:微软雅黑,PingFang SC,Mircrosoft YaHei,Arial;font-size:12.50pt"><tspan style="font-size:10.00pt" x="4.0" y="25.0">代码点大于 [ '\uFFFF'] 用6个字节表示，而不是标准UTF8的4个</tspan></text></g><g transform="translate(1096.000000,899.000000)" id="shape47"><path stroke="#595959" stroke-width="1" d="M.0,.0L4.5,.0C5.7,-0.2,7.0,.2,7.9,1.1C8.8,2.0,9.2,3.3,9.0,4.5L9.0,15.3C8.8,16.5,9.2,17.7,10.1,18.6C11.0,19.5,12.3,19.9,13.5,19.8C12.3,19.6,11.0,20.0,10.1,20.9C9.2,21.8,8.8,23.0,9.0,24.3L9.0,35.0C9.2,36.2,8.8,37.5,7.9,38.4C7.0,39.3,5.7,39.7,4.5,39.5L.0,39.5" fill="none"/><text xml:space="preserve" style="fill:#191919;font-family:微软雅黑,PingFang SC,Mircrosoft YaHei,Arial;font-size:12.50pt"><tspan style="font-size:10.00pt" x="27.5" y="25.3">改进方案</tspan></text></g><g transform="translate(2048.000000,459.092300)" id="shape48"><path stroke="#595959" stroke-width="1" d="M.0,.0L8.0,.0C10.2,-0.3,12.4,.4,14.0,2.0C15.6,3.6,16.3,5.8,16.0,8.0L16.0,85.7C15.7,87.9,16.4,90.1,18.0,91.7C19.6,93.3,21.8,94.0,24.0,93.7C21.8,93.4,19.6,94.1,18.0,95.7C16.4,97.3,15.7,99.5,16.0,101.7L16.0,179.4C16.3,181.6,15.6,183.8,14.0,185.4C12.4,187.0,10.2,187.7,8.0,187.4L.0,187.4" fill="none"/><text xml:space="preserve" style="fill:#191919;font-family:微软雅黑,PingFang SC,Mircrosoft YaHei,Arial;font-size:12.50pt"><tspan style="font-size:10.00pt" x="38.0" y="99.2">属于方法区</tspan></text></g><g transform="matrix(0.000000,1.000000,-1.000000,0.000000,2044.000000,594.000000)" id="shape49"><path stroke="#595959" stroke-width="1" d="M.0,.0L9.0,.0C11.5,-0.4,14.0,.5,15.8,2.2C17.5,4.0,18.4,6.5,18.0,9.0L18.0,228.5C17.6,231.0,18.5,233.5,20.2,235.3C22.0,237.0,24.5,237.9,27.0,237.5C24.5,237.1,22.0,238.0,20.2,239.7C18.5,241.5,17.6,244.0,18.0,246.5L18.0,466.0C18.4,468.5,17.5,471.0,15.8,472.8C14.0,474.5,11.5,475.4,9.0,475.0L.0,475.0" fill="none"/><text xml:space="preserve" style="fill:#191919;font-family:微软雅黑,PingFang SC,Mircrosoft YaHei,Arial;font-size:12.50pt" transform="matrix(0.00,-1.00,1.00,0.00,-192.5,282.5)"><tspan style="font-size:10.00pt" x="-157.0" y="243.0">运行时常量池是class文件中每个类或者接口的常量池表的运行表现形式</tspan></text></g></g></svg>