<svg xmlns="http://www.w3.org/2000/svg" xmlns:ev="http://www.w3.org/2001/xml-events" viewBox="0 0 1132 1597" width="1132" xmlns:xlink="http://www.w3.org/1999/xlink" height="1597"><defs/><g transform="translate(5.5,5.5)" id="page3"><rect width="1123" height="1587" x="0" y="0" fill="none"/><g transform="translate(121.000000,88.500000)" id="shape1"><path stroke="#2e8d5d" stroke-width="1" d="M22.0,44.0L78.0,44.0L78.0,44.0C90.2,44.0,100.0,34.2,100.0,22.0C100.0,9.8,90.2,.0,78.0,.0L22.0,.0L22.0,.0C9.8,.0,.0,9.8,.0,22.0C.0,34.2,9.8,44.0,22.0,44.0z" fill-rule="nonzero" fill="#cfe9d8"/><text xml:space="preserve" style="fill:#191919;font-family:微软雅黑,PingFang SC,Mircrosoft YaHei,Arial;font-size:9.38pt"><tspan style="font-size:7.50pt" x="39.0" y="26.0">put()</tspan></text></g><g transform="translate(121.000000,178.500000)" id="shape2"><path stroke="#2e8d5d" stroke-width="1" d="M100.0,37.0L100.0,7.0C100.0,3.1,96.9,.0,93.0,.0L7.0,.0C3.1,.0,.0,3.1,.0,7.0L.0,37.0C.0,40.9,3.1,44.0,7.0,44.0L93.0,44.0C96.9,44.0,100.0,40.9,100.0,37.0z" fill-rule="nonzero" fill="#cfe9d8"/><text xml:space="preserve" style="fill:#191919;font-family:微软雅黑,PingFang SC,Mircrosoft YaHei,Arial;font-size:9.38pt"><tspan style="font-size:7.50pt" x="29.0" y="26.0">putLast()</tspan></text></g><g transform="translate(121.000000,268.500000)" id="shape3"><path stroke="#2e8d5d" stroke-width="1" d="M100.0,37.0L100.0,7.0C100.0,3.1,96.9,.0,93.0,.0L7.0,.0C3.1,.0,.0,3.1,.0,7.0L.0,37.0C.0,40.9,3.1,44.0,7.0,44.0L93.0,44.0C96.9,44.0,100.0,40.9,100.0,37.0z" fill-rule="nonzero" fill="#cfe9d8"/><text xml:space="preserve" style="fill:#e54648;font-family:微软雅黑,PingFang SC,Mircrosoft YaHei,Arial;font-size:11.25pt"><tspan style="font-size:9.00pt" x="20.5" y="26.5">lock.lock()</tspan></text></g><g transform="translate(370.500000,649.500000)" id="shape4"><path stroke="#2e8d5d" stroke-width="1" d="M100.0,37.0L100.0,7.0C100.0,3.1,96.9,.0,93.0,.0L7.0,.0C3.1,.0,.0,3.1,.0,7.0L.0,37.0C.0,40.9,3.1,44.0,7.0,44.0L93.0,44.0C96.9,44.0,100.0,40.9,100.0,37.0z" fill-rule="nonzero" fill="#cfe9d8"/><text xml:space="preserve" style="fill:#e54648;font-family:微软雅黑,PingFang SC,Mircrosoft YaHei,Arial;font-size:11.25pt"><tspan style="font-size:9.00pt" x="12.0" y="26.5">lock.unlock();</tspan></text></g><g transform="translate(121.000000,548.500000)" id="shape5"><path stroke="#2e8d5d" stroke-width="1" d="M100.0,37.0L100.0,7.0C100.0,3.1,96.9,.0,93.0,.0L7.0,.0C3.1,.0,.0,3.1,.0,7.0L.0,37.0C.0,40.9,3.1,44.0,7.0,44.0L93.0,44.0C96.9,44.0,100.0,40.9,100.0,37.0z" fill-rule="nonzero" fill="#cfe9d8"/><text xml:space="preserve" style="fill:#191919;font-family:微软雅黑,PingFang SC,Mircrosoft YaHei,Arial;font-size:9.38pt"><tspan style="font-size:7.50pt" x="40.0" y="26.0">入列</tspan></text></g><g transform="translate(121.000000,354.500000)" id="shape6"><path stroke="#2e8d5d" stroke-width="1" d="M.0,44.0L100.0,44.0L100.0,11.0L89.0,.0L11.0,.0L.0,11.0L.0,44.0z" fill-rule="nonzero" fill="#cfe9d8"/><text xml:space="preserve" style="fill:#191919;font-family:微软雅黑,PingFang SC,Mircrosoft YaHei,Arial;font-size:9.38pt"><tspan style="font-size:7.50pt" x="16.5" y="26.0">linkLast(node)</tspan></text></g><g transform="translate(121.000000,453.250000)" id="shape7"><path stroke="#2e8d5d" stroke-width="1" d="M50.0,62.5L100.0,31.3L50.0,.0L.0,31.3L50.0,62.5z" fill-rule="nonzero" fill="#cfe9d8"/><text xml:space="preserve" style="fill:#191919;font-family:宋体,PingFang SC,Mircrosoft YaHei,Arial;font-size:12.50pt"><tspan style="font-size:10.00pt" x="22.0" y="29.3">count >= </tspan><tspan style="font-size:10.00pt" x="22.0" y="44.3">capacity</tspan></text></g><g transform="translate(348.000000,344.000000)" id="shape8"><path stroke="#2e8d5d" stroke-width="1" d="M145.0,58.0L145.0,7.0C145.0,3.1,141.9,.0,138.0,.0L7.0,.0C3.1,.0,.0,3.1,.0,7.0L.0,58.0C.0,61.9,3.1,65.0,7.0,65.0L138.0,65.0C141.9,65.0,145.0,61.9,145.0,58.0z" fill-rule="nonzero" fill="#cfe9d8"/><text xml:space="preserve" style="fill:#191919;font-family:微软雅黑,PingFang SC,Mircrosoft YaHei,Arial;font-size:9.38pt"><tspan style="font-size:7.50pt" x="37.5" y="12.5">notFull.await();</tspan><tspan style="font-size:7.50pt" x="6.5" y="44.5">队列满了, 当前线程await阻塞</tspan><tspan style="font-size:7.50pt" x="14.0" y="60.5">住,释放锁, 让其他线程进入</tspan></text></g><g transform="translate(348.000000,527.500000)" id="shape9"><path stroke="#2e8d5d" stroke-width="1" d="M145.0,79.0L145.0,7.0C145.0,3.1,141.9,.0,138.0,.0L7.0,.0C3.1,.0,.0,3.1,.0,7.0L.0,79.0C.0,82.9,3.1,86.0,7.0,86.0L138.0,86.0C141.9,86.0,145.0,82.9,145.0,79.0z" fill-rule="nonzero" fill="#cfe9d8"/><text xml:space="preserve" style="fill:#191919;font-family:微软雅黑,PingFang SC,Mircrosoft YaHei,Arial;font-size:9.38pt"><tspan style="font-size:7.50pt" x="31.0" y="15.0">notEmpty.signal()</tspan><tspan style="font-size:7.50pt" x="26.5" y="47.0">队列非空,通知阻塞在</tspan><tspan style="font-size:7.50pt" x="5.5" y="63.0">notEmpty处的await()线程, 可</tspan><tspan style="font-size:7.50pt" x="41.5" y="79.0">以继续出列了.</tspan></text></g><g transform="translate(171.000000,132.500000)" id="shape10"><path stroke="#2e8d5d" stroke-width="1" d="M.0,.0L.0,41.6" fill="none"/><path stroke="#2e8d5d" stroke-width="1" stroke-linecap="round" d="M.0,46.0L3.0,40.8C2.1,41.3,1.1,41.6,.0,41.6C-1.1,41.6,-2.1,41.3,-3.0,40.8L.0,46.0" fill="#2e8d5d"/></g><g transform="translate(171.000000,222.500000)" id="shape11"><path stroke="#2e8d5d" stroke-width="1" d="M.0,.0L.0,41.6" fill="none"/><path stroke="#2e8d5d" stroke-width="1" stroke-linecap="round" d="M.0,46.0L3.0,40.8C2.1,41.3,1.1,41.6,.0,41.6C-1.1,41.6,-2.1,41.3,-3.0,40.8L.0,46.0" fill="#2e8d5d"/></g><g transform="translate(171.000000,312.500000)" id="shape12"><path stroke="#2e8d5d" stroke-width="1" d="M.0,.0L.0,37.6" fill="none"/><path stroke="#2e8d5d" stroke-width="1" stroke-linecap="round" d="M.0,42.0L3.0,36.8C2.1,37.3,1.1,37.6,.0,37.6C-1.1,37.6,-2.1,37.3,-3.0,36.8L.0,42.0" fill="#2e8d5d"/></g><g transform="translate(171.000000,398.500000)" id="shape13"><path stroke="#2e8d5d" stroke-width="1" d="M.0,.0L.0,50.6" fill="none"/><path stroke="#2e8d5d" stroke-width="1" stroke-linecap="round" d="M.0,55.0L3.0,49.8C2.1,50.3,1.1,50.6,.0,50.6C-1.1,50.6,-2.1,50.3,-3.0,49.8L.0,55.0" fill="#2e8d5d"/></g><g transform="translate(171.000000,515.750000)" id="shape14"><path stroke="#2e8d5d" stroke-width="1" d="M.0,.0L.0,28.6" fill="none"/><path stroke="#2e8d5d" stroke-width="1" stroke-linecap="round" d="M.0,33.0L3.0,27.8C2.1,28.3,1.1,28.6,.0,28.6C-1.1,28.6,-2.1,28.3,-3.0,27.8L.0,33.0" fill="#2e8d5d"/></g><g transform="translate(221.000000,570.500000)" id="shape15"><path stroke="#2e8d5d" stroke-width="1" d="M.0,.0L122.6,.0" fill="none"/><path stroke="#2e8d5d" stroke-width="1" stroke-linecap="round" d="M127.0,.0L121.8,-3.0C122.3,-2.1,122.6,-1.1,122.6,.0C122.6,1.1,122.3,2.1,121.8,3.0L127.0,.0" fill="#2e8d5d"/></g><g transform="translate(420.500000,613.500000)" id="shape16"><path stroke="#2e8d5d" stroke-width="1" d="M.0,.0L.0,31.6" fill="none"/><path stroke="#2e8d5d" stroke-width="1" stroke-linecap="round" d="M.0,36.0L3.0,30.8C2.1,31.3,1.1,31.6,.0,31.6C-1.1,31.6,-2.1,31.3,-3.0,30.8L.0,36.0" fill="#2e8d5d"/></g><g transform="translate(420.500000,693.500000)" id="shape17"><path stroke="#2e8d5d" stroke-width="1" d="M.0,.0L.0,31.6" fill="none"/><path stroke="#2e8d5d" stroke-width="1" stroke-linecap="round" d="M.0,36.0L3.0,30.8C2.1,31.3,1.1,31.6,.0,31.6C-1.1,31.6,-2.1,31.3,-3.0,30.8L.0,36.0" fill="#2e8d5d"/></g><g transform="translate(221.000000,484.500000)" id="shape18"><path stroke="#2e8d5d" stroke-width="1" d="M.0,.0C40.1,.1,80.2,.1,113.5,-4.9C146.8,-9.9,173.4,-19.9,186.6,-32.6C198.8,-44.2,199.6,-58.0,199.5,-72.0" fill="none"/><path stroke="#2e8d5d" stroke-width="1" stroke-linecap="round" d="M199.5,-75.5L196.5,-70.3C197.4,-70.8,198.4,-71.1,199.5,-71.1C200.6,-71.1,201.7,-70.8,202.5,-70.3L199.5,-75.5" fill="#2e8d5d"/><rect width="10.0" height="16.0" x="86.1" y="-10.2" fill="#ffffff"/><text xml:space="preserve" style="fill:#191919;font-family:微软雅黑,PingFang SC,Mircrosoft YaHei,Arial;font-size:9.38pt"><tspan style="font-size:7.50pt" x="86.1" y="1.8">是</tspan></text></g><g transform="translate(348.000000,376.500000)" id="shape19"><path stroke="#007faf" stroke-width="2.6666700839996338" stroke-dasharray="29.3334,13.3334" d="M.0,.0L-119.8,.0" fill="none"/><path stroke="#007faf" stroke-width="1" stroke-linecap="round" d="M-127.0,.0L-118.5,4.9C-119.4,3.5,-119.8,1.8,-119.8,.0C-119.8,-1.8,-119.4,-3.5,-118.5,-4.9L-127.0,.0" fill="#007faf"/><rect width="60.0" height="16.0" x="-97.4" y="-16.0" fill="#ffffff"/><rect width="40.0" height="16.0" x="-87.4" y="0.0" fill="#ffffff"/><text xml:space="preserve" style="fill:#191919;font-family:微软雅黑,PingFang SC,Mircrosoft YaHei,Arial;font-size:9.38pt"><tspan style="font-size:7.50pt" x="-97.4" y="-4.0">唤醒一个线程</tspan><tspan style="font-size:7.50pt" x="-87.4" y="12.0">尝试插入</tspan></text></g><g transform="translate(370.500000,729.500000)" id="shape20"><path stroke="#2e8d5d" stroke-width="1" d="M22.0,44.0L78.0,44.0L78.0,44.0C90.2,44.0,100.0,34.2,100.0,22.0C100.0,9.8,90.2,.0,78.0,.0L22.0,.0L22.0,.0C9.8,.0,.0,9.8,.0,22.0C.0,34.2,9.8,44.0,22.0,44.0z" fill-rule="nonzero" fill="#cfe9d8"/><text xml:space="preserve" style="fill:#191919;font-family:微软雅黑,PingFang SC,Mircrosoft YaHei,Arial;font-size:9.38pt"><tspan style="font-size:7.50pt" x="20.0" y="26.0">返回入列结果</tspan></text></g><g transform="translate(1015.000000,88.500000)" id="shape21"><path stroke="#007faf" stroke-width="1" d="M22.0,44.0L78.0,44.0L78.0,44.0C90.2,44.0,100.0,34.2,100.0,22.0C100.0,9.8,90.2,.0,78.0,.0L22.0,.0L22.0,.0C9.8,.0,.0,9.8,.0,22.0C.0,34.2,9.8,44.0,22.0,44.0z" fill-rule="nonzero" fill="#cbe3f8"/><text xml:space="preserve" style="fill:#191919;font-family:微软雅黑,PingFang SC,Mircrosoft YaHei,Arial;font-size:9.38pt"><tspan style="font-size:7.50pt" x="36.5" y="26.0">take()</tspan></text></g><g transform="translate(1015.000000,178.500000)" id="shape22"><path stroke="#007faf" stroke-width="1" d="M100.0,37.0L100.0,7.0C100.0,3.1,96.9,.0,93.0,.0L7.0,.0C3.1,.0,.0,3.1,.0,7.0L.0,37.0C.0,40.9,3.1,44.0,7.0,44.0L93.0,44.0C96.9,44.0,100.0,40.9,100.0,37.0z" fill-rule="nonzero" fill="#cbe3f8"/><text xml:space="preserve" style="fill:#191919;font-family:微软雅黑,PingFang SC,Mircrosoft YaHei,Arial;font-size:9.38pt"><tspan style="font-size:7.50pt" x="26.0" y="26.0">takeFirst()</tspan></text></g><g transform="translate(1015.000000,268.500000)" id="shape23"><path stroke="#007faf" stroke-width="1" d="M100.0,37.0L100.0,7.0C100.0,3.1,96.9,.0,93.0,.0L7.0,.0C3.1,.0,.0,3.1,.0,7.0L.0,37.0C.0,40.9,3.1,44.0,7.0,44.0L93.0,44.0C96.9,44.0,100.0,40.9,100.0,37.0z" fill-rule="nonzero" fill="#cbe3f8"/><text xml:space="preserve" style="fill:#e54648;font-family:微软雅黑,PingFang SC,Mircrosoft YaHei,Arial;font-size:11.25pt"><tspan style="font-size:9.00pt" x="20.5" y="26.5">lock.lock()</tspan></text></g><g transform="translate(780.000000,649.500000)" id="shape24"><path stroke="#007faf" stroke-width="1" d="M100.0,37.0L100.0,7.0C100.0,3.1,96.9,.0,93.0,.0L7.0,.0C3.1,.0,.0,3.1,.0,7.0L.0,37.0C.0,40.9,3.1,44.0,7.0,44.0L93.0,44.0C96.9,44.0,100.0,40.9,100.0,37.0z" fill-rule="nonzero" fill="#cbe3f8"/><text xml:space="preserve" style="fill:#e54648;font-family:微软雅黑,PingFang SC,Mircrosoft YaHei,Arial;font-size:11.25pt"><tspan style="font-size:9.00pt" x="12.0" y="26.5">lock.unlock();</tspan></text></g><g transform="translate(1015.000000,548.500000)" id="shape25"><path stroke="#007faf" stroke-width="1" d="M100.0,37.0L100.0,7.0C100.0,3.1,96.9,.0,93.0,.0L7.0,.0C3.1,.0,.0,3.1,.0,7.0L.0,37.0C.0,40.9,3.1,44.0,7.0,44.0L93.0,44.0C96.9,44.0,100.0,40.9,100.0,37.0z" fill-rule="nonzero" fill="#cbe3f8"/><text xml:space="preserve" style="fill:#191919;font-family:微软雅黑,PingFang SC,Mircrosoft YaHei,Arial;font-size:9.38pt"><tspan style="font-size:7.50pt" x="40.0" y="26.0">出列</tspan></text></g><g transform="translate(1015.000000,354.500000)" id="shape26"><path stroke="#007faf" stroke-width="1" d="M.0,44.0L100.0,44.0L100.0,11.0L89.0,.0L11.0,.0L.0,11.0L.0,44.0z" fill-rule="nonzero" fill="#cbe3f8"/><text xml:space="preserve" style="fill:#191919;font-family:微软雅黑,PingFang SC,Mircrosoft YaHei,Arial;font-size:9.38pt"><tspan style="font-size:7.50pt" x="13.5" y="18.0">unlinkFirst() == </tspan><tspan style="font-size:7.50pt" x="41.0" y="34.0">null</tspan></text></g><g transform="translate(1015.000000,453.250000)" id="shape27"><path stroke="#007faf" stroke-width="1" d="M50.0,62.5L100.0,31.3L50.0,.0L.0,31.3L50.0,62.5z" fill-rule="nonzero" fill="#cbe3f8"/><text xml:space="preserve" style="fill:#191919;font-family:宋体,PingFang SC,Mircrosoft YaHei,Arial;font-size:12.50pt"><tspan style="font-size:10.00pt" x="22.0" y="29.3">first == </tspan><tspan style="font-size:10.00pt" x="36.0" y="44.3">null</tspan></text></g><g transform="translate(757.500000,333.500000)" id="shape28"><path stroke="#007faf" stroke-width="1" d="M145.0,79.0L145.0,7.0C145.0,3.1,141.9,.0,138.0,.0L7.0,.0C3.1,.0,.0,3.1,.0,7.0L.0,79.0C.0,82.9,3.1,86.0,7.0,86.0L138.0,86.0C141.9,86.0,145.0,82.9,145.0,79.0z" fill-rule="nonzero" fill="#cbe3f8"/><text xml:space="preserve" style="fill:#191919;font-family:微软雅黑,PingFang SC,Mircrosoft YaHei,Arial;font-size:9.38pt"><tspan style="font-size:7.50pt" x="31.0" y="15.0">notEmpty.await();</tspan><tspan style="font-size:7.50pt" x="5.0" y="47.0">当前队列为空, 当前线程阻塞释</tspan><tspan style="font-size:7.50pt" x="4.0" y="63.0">放锁,让其他线程获得锁, 继续循</tspan><tspan style="font-size:7.50pt" x="47.5" y="79.0">环判断非满</tspan></text></g><g transform="translate(757.500000,527.500000)" id="shape29"><path stroke="#007faf" stroke-width="1" d="M145.0,79.0L145.0,7.0C145.0,3.1,141.9,.0,138.0,.0L7.0,.0C3.1,.0,.0,3.1,.0,7.0L.0,79.0C.0,82.9,3.1,86.0,7.0,86.0L138.0,86.0C141.9,86.0,145.0,82.9,145.0,79.0z" fill-rule="nonzero" fill="#cbe3f8"/><text xml:space="preserve" style="fill:#191919;font-family:微软雅黑,PingFang SC,Mircrosoft YaHei,Arial;font-size:9.38pt"><tspan style="font-size:7.50pt" x="37.5" y="15.0">notFull.signal()</tspan><tspan style="font-size:7.50pt" x="5.0" y="47.0">队列非满了, 通知入列的阻塞在</tspan><tspan style="font-size:7.50pt" x="5.0" y="63.0">await()处的等待线程,可以继续</tspan><tspan style="font-size:7.50pt" x="57.5" y="79.0">入列了</tspan></text></g><g transform="translate(1065.000000,132.500000)" id="shape30"><path stroke="#007faf" stroke-width="1" d="M.0,.0L.0,41.6" fill="none"/><path stroke="#007faf" stroke-width="1" stroke-linecap="round" d="M.0,46.0L3.0,40.8C2.1,41.3,1.1,41.6,.0,41.6C-1.1,41.6,-2.1,41.3,-3.0,40.8L.0,46.0" fill="#007faf"/></g><g transform="translate(1065.000000,222.500000)" id="shape31"><path stroke="#007faf" stroke-width="1" d="M.0,.0L.0,41.6" fill="none"/><path stroke="#007faf" stroke-width="1" stroke-linecap="round" d="M.0,46.0L3.0,40.8C2.1,41.3,1.1,41.6,.0,41.6C-1.1,41.6,-2.1,41.3,-3.0,40.8L.0,46.0" fill="#007faf"/></g><g transform="translate(1065.000000,312.500000)" id="shape32"><path stroke="#007faf" stroke-width="1" d="M.0,.0L.0,37.6" fill="none"/><path stroke="#007faf" stroke-width="1" stroke-linecap="round" d="M.0,42.0L3.0,36.8C2.1,37.3,1.1,37.6,.0,37.6C-1.1,37.6,-2.1,37.3,-3.0,36.8L.0,42.0" fill="#007faf"/></g><g transform="translate(1065.000000,398.500000)" id="shape33"><path stroke="#007faf" stroke-width="1" d="M.0,.0L.0,50.6" fill="none"/><path stroke="#007faf" stroke-width="1" stroke-linecap="round" d="M.0,55.0L3.0,49.8C2.1,50.3,1.1,50.6,.0,50.6C-1.1,50.6,-2.1,50.3,-3.0,49.8L.0,55.0" fill="#007faf"/></g><g transform="translate(1065.000000,515.750000)" id="shape34"><path stroke="#007faf" stroke-width="1" d="M.0,.0L.0,28.6" fill="none"/><path stroke="#007faf" stroke-width="1" stroke-linecap="round" d="M.0,33.0L3.0,27.8C2.1,28.3,1.1,28.6,.0,28.6C-1.1,28.6,-2.1,28.3,-3.0,27.8L.0,33.0" fill="#007faf"/></g><g transform="translate(1015.000000,570.500000)" id="shape35"><path stroke="#007faf" stroke-width="1" d="M.0,.0L-108.6,.0" fill="none"/><path stroke="#007faf" stroke-width="1" stroke-linecap="round" d="M-113.0,.0L-107.8,3.0C-108.3,2.1,-108.6,1.1,-108.6,.0C-108.6,-1.1,-108.3,-2.1,-107.8,-3.0L-113.0,.0" fill="#007faf"/></g><g transform="translate(830.000000,613.500000)" id="shape36"><path stroke="#007faf" stroke-width="1" d="M.0,.0L.0,31.6" fill="none"/><path stroke="#007faf" stroke-width="1" stroke-linecap="round" d="M.0,36.0L3.0,30.8C2.1,31.3,1.1,31.6,.0,31.6C-1.1,31.6,-2.1,31.3,-3.0,30.8L.0,36.0" fill="#007faf"/></g><g transform="translate(830.000000,693.500000)" id="shape37"><path stroke="#007faf" stroke-width="1" d="M.0,.0L.0,31.6" fill="none"/><path stroke="#007faf" stroke-width="1" stroke-linecap="round" d="M.0,36.0L3.0,30.8C2.1,31.3,1.1,31.6,.0,31.6C-1.1,31.6,-2.1,31.3,-3.0,30.8L.0,36.0" fill="#007faf"/></g><g transform="translate(1015.000000,484.500000)" id="shape38"><path stroke="#007faf" stroke-width="1" d="M.0,.0C-37.2,.0,-74.3,.1,-105.2,-4.2C-136.1,-8.5,-160.8,-17.2,-173.0,-28.0C-184.2,-38.0,-185.1,-49.8,-185.0,-61.7" fill="none"/><path stroke="#007faf" stroke-width="1" stroke-linecap="round" d="M-185.0,-65.0L-188.0,-59.8C-187.2,-60.3,-186.1,-60.6,-185.0,-60.6C-183.9,-60.6,-182.9,-60.3,-182.0,-59.8L-185.0,-65.0" fill="#007faf"/><rect width="10.0" height="16.0" x="-86.2" y="-9.8" fill="#ffffff"/><text xml:space="preserve" style="fill:#191919;font-family:微软雅黑,PingFang SC,Mircrosoft YaHei,Arial;font-size:9.38pt"><tspan style="font-size:7.50pt" x="-86.2" y="2.2">是</tspan></text></g><g transform="translate(902.500000,376.500000)" id="shape39"><path stroke="#2e8d5d" stroke-width="2.6666700839996338" stroke-dasharray="29.3334,13.3334" d="M.0,.0L105.8,.0" fill="none"/><path stroke="#2e8d5d" stroke-width="1" stroke-linecap="round" d="M113.0,.0L104.5,-4.9C105.4,-3.5,105.8,-1.8,105.8,.0C105.8,1.8,105.4,3.5,104.5,4.9L113.0,.0" fill="#2e8d5d"/><rect width="60.0" height="16.0" x="31.8" y="-16.0" fill="#ffffff"/><rect width="40.0" height="16.0" x="41.8" y="0.0" fill="#ffffff"/><text xml:space="preserve" style="fill:#191919;font-family:微软雅黑,PingFang SC,Mircrosoft YaHei,Arial;font-size:9.38pt"><tspan style="font-size:7.50pt" x="31.8" y="-4.0">唤醒一个线程</tspan><tspan style="font-size:7.50pt" x="41.8" y="12.0">尝试取出</tspan></text></g><g transform="translate(780.000000,729.500000)" id="shape40"><path stroke="#007faf" stroke-width="1" d="M22.0,44.0L78.0,44.0L78.0,44.0C90.2,44.0,100.0,34.2,100.0,22.0C100.0,9.8,90.2,.0,78.0,.0L22.0,.0L22.0,.0C9.8,.0,.0,9.8,.0,22.0C.0,34.2,9.8,44.0,22.0,44.0z" fill-rule="nonzero" fill="#cbe3f8"/><text xml:space="preserve" style="fill:#191919;font-family:微软雅黑,PingFang SC,Mircrosoft YaHei,Arial;font-size:9.38pt"><tspan style="font-size:7.50pt" x="20.0" y="26.0">返回出列结果</tspan></text></g><g transform="translate(757.500000,570.500000)" id="shape41"><path stroke="#007faf" stroke-width="2.6666700839996338" stroke-dasharray="29.3334,13.3334" d="M.0,.0C-32.5,-3.2,-65.0,-6.4,-92.8,-37.1C-120.7,-67.9,-143.8,-126.1,-171.7,-156.9C-197.9,-185.8,-228.2,-190.3,-258.8,-193.4" fill="none"/><path stroke="#007faf" stroke-width="1" stroke-linecap="round" d="M-264.5,-194.0L-256.5,-188.3C-257.2,-189.8,-257.5,-191.5,-257.4,-193.3C-257.2,-195.1,-256.5,-196.7,-255.6,-198.0L-264.5,-194.0" fill="#007faf"/></g><g transform="translate(493.000000,570.500000)" id="shape42"><path stroke="#2e8d5d" stroke-width="2.6666700839996338" stroke-dasharray="29.3334,13.3334" d="M.0,.0C32.5,-3.2,65.0,-6.4,92.8,-37.1C120.7,-67.9,143.8,-126.1,171.7,-156.9C197.9,-185.8,228.2,-190.3,258.8,-193.4" fill="none"/><path stroke="#2e8d5d" stroke-width="1" stroke-linecap="round" d="M264.5,-194.0L255.6,-198.0C256.5,-196.7,257.2,-195.1,257.4,-193.3C257.5,-191.5,257.2,-189.8,256.5,-188.3L264.5,-194.0" fill="#2e8d5d"/></g><g transform="translate(61.750000,855.000000)" id="table43"><g><path stroke="#a0a0a4" stroke-width="1" d="M.0,.0L133.8,.0L133.8,40.0L.0,40.0L.0,.0z" fill="#ffffff"/><text xml:space="preserve" style="fill:#191919;font-family:微软雅黑,PingFang SC,Mircrosoft YaHei,Arial;font-size:9.38pt"><tspan style="font-size:7.50pt" x="9.0" y="24.0">Queue</tspan></text></g><g><path stroke="#a0a0a4" stroke-width="1" d="M133.8,.0L543.3,.0L543.3,40.0L133.8,40.0L133.8,.0z" fill="#ffffff"/><text xml:space="preserve" style="fill:#191919;font-family:宋体,PingFang SC,Mircrosoft YaHei,Arial;font-size:12.50pt"><tspan style="font-size:10.00pt" x="142.8" y="25.5">只能一头进，另一头出</tspan></text></g><g><path stroke="#a0a0a4" stroke-width="1" d="M.0,40.0L133.8,40.0L133.8,120.0L.0,120.0L.0,40.0z" fill="#ffffff"/><text xml:space="preserve" style="fill:#191919;font-family:宋体,PingFang SC,Mircrosoft YaHei,Arial;font-size:12.50pt"><tspan style="font-size:10.00pt" x="9.0" y="85.5">Deque</tspan></text></g><g><path stroke="#a0a0a4" stroke-width="1" d="M133.8,40.0L543.3,40.0L543.3,80.0L133.8,80.0L133.8,40.0z" fill="#ffffff"/><text xml:space="preserve" style="fill:#191919;font-family:宋体,PingFang SC,Mircrosoft YaHei,Arial;font-size:12.50pt"><tspan style="font-size:10.00pt" x="142.8" y="65.5">既可以添加到队尾，也可以添加到队首；</tspan></text></g><g><path stroke="#a0a0a4" stroke-width="1" d="M133.8,80.0L543.3,80.0L543.3,120.0L133.8,120.0L133.8,80.0z" fill="#ffffff"/><text xml:space="preserve" style="fill:#191919;font-family:宋体,PingFang SC,Mircrosoft YaHei,Arial;font-size:12.50pt"><tspan style="font-size:10.00pt" x="142.8" y="105.5">既可以从队首获取，又可以从队尾获取。</tspan></text></g><g><path stroke="#a0a0a4" stroke-width="1" d="M.0,120.0L133.8,120.0L133.8,160.0L.0,160.0L.0,120.0z" fill="#ffffff"/><text xml:space="preserve" style="fill:#191919;font-family:微软雅黑,PingFang SC,Mircrosoft YaHei,Arial;font-size:9.38pt"/></g><g><path stroke="#a0a0a4" stroke-width="1" d="M133.8,120.0L291.8,120.0L291.8,160.0L133.8,160.0L133.8,120.0z" fill="#ffffff"/><text xml:space="preserve" style="fill:#191919;font-family:微软雅黑,PingFang SC,Mircrosoft YaHei,Arial;font-size:9.38pt"><tspan style="font-size:7.50pt" x="142.8" y="144.0">Queue</tspan></text></g><g><path stroke="#a0a0a4" stroke-width="1" d="M291.8,120.0L543.3,120.0L543.3,160.0L291.8,160.0L291.8,120.0z" fill="#ffffff"/><text xml:space="preserve" style="fill:#191919;font-family:微软雅黑,PingFang SC,Mircrosoft YaHei,Arial;font-size:9.38pt"><tspan style="font-size:7.50pt" x="300.8" y="144.0">Deque</tspan></text></g><g><path stroke="#a0a0a4" stroke-width="1" d="M.0,160.0L133.8,160.0L133.8,202.0L.0,202.0L.0,160.0z" fill="#ffffff"/><text xml:space="preserve" style="fill:#191919;font-family:微软雅黑,PingFang SC,Mircrosoft YaHei,Arial;font-size:9.38pt"><tspan style="font-size:7.50pt" x="9.0" y="185.0">添加元素到队尾</tspan></text></g><g><path stroke="#a0a0a4" stroke-width="1" d="M133.8,160.0L291.8,160.0L291.8,202.0L133.8,202.0L133.8,160.0z" fill="#ffffff"/><text xml:space="preserve" style="fill:#191919;font-family:微软雅黑,PingFang SC,Mircrosoft YaHei,Arial;font-size:9.38pt"><tspan style="font-size:7.50pt" x="142.8" y="185.0">add(E e) / offer(E e)</tspan></text></g><g><path stroke="#a0a0a4" stroke-width="1" d="M291.8,160.0L543.3,160.0L543.3,202.0L291.8,202.0L291.8,160.0z" fill="#ffffff"/><text xml:space="preserve" style="fill:#191919;font-family:微软雅黑,PingFang SC,Mircrosoft YaHei,Arial;font-size:9.38pt"><tspan style="font-size:7.50pt" x="300.8" y="177.0">add(E e) / offer(E e)</tspan><tspan style="font-size:7.50pt" x="300.8" y="193.0">内部调用 addLast(E e) / offerLast(E e)</tspan></text></g><g><path stroke="#a0a0a4" stroke-width="1" d="M.0,202.0L133.8,202.0L133.8,244.0L.0,244.0L.0,202.0z" fill="#ffffff"/><text xml:space="preserve" style="fill:#191919;font-family:微软雅黑,PingFang SC,Mircrosoft YaHei,Arial;font-size:9.38pt"><tspan style="font-size:7.50pt" x="9.0" y="227.0">取队首元素并删除</tspan></text></g><g><path stroke="#a0a0a4" stroke-width="1" d="M133.8,202.0L291.8,202.0L291.8,244.0L133.8,244.0L133.8,202.0z" fill="#ffffff"/><text xml:space="preserve" style="fill:#191919;font-family:微软雅黑,PingFang SC,Mircrosoft YaHei,Arial;font-size:9.38pt"><tspan style="font-size:7.50pt" x="142.8" y="227.0">E remove() / E poll()</tspan></text></g><g><path stroke="#a0a0a4" stroke-width="1" d="M291.8,202.0L543.3,202.0L543.3,244.0L291.8,244.0L291.8,202.0z" fill="#ffffff"/><text xml:space="preserve" style="fill:#191919;font-family:微软雅黑,PingFang SC,Mircrosoft YaHei,Arial;font-size:9.38pt"><tspan style="font-size:7.50pt" x="300.8" y="219.0">E remove() / E poll()</tspan><tspan style="font-size:7.50pt" x="300.8" y="235.0">内部调用 E removeFirst() / E pollFirst()</tspan></text></g><g><path stroke="#a0a0a4" stroke-width="1" d="M.0,244.0L133.8,244.0L133.8,286.0L.0,286.0L.0,244.0z" fill="#ffffff"/><text xml:space="preserve" style="fill:#191919;font-family:微软雅黑,PingFang SC,Mircrosoft YaHei,Arial;font-size:9.38pt"><tspan style="font-size:7.50pt" x="9.0" y="269.0">取队首元素但不删除</tspan></text></g><g><path stroke="#a0a0a4" stroke-width="1" d="M133.8,244.0L291.8,244.0L291.8,286.0L133.8,286.0L133.8,244.0z" fill="#ffffff"/><text xml:space="preserve" style="fill:#191919;font-family:微软雅黑,PingFang SC,Mircrosoft YaHei,Arial;font-size:9.38pt"><tspan style="font-size:7.50pt" x="142.8" y="269.0">E element() / E peek()</tspan></text></g><g><path stroke="#a0a0a4" stroke-width="1" d="M291.8,244.0L543.3,244.0L543.3,286.0L291.8,286.0L291.8,244.0z" fill="#ffffff"/><text xml:space="preserve" style="fill:#191919;font-family:微软雅黑,PingFang SC,Mircrosoft YaHei,Arial;font-size:9.38pt"><tspan style="font-size:7.50pt" x="300.8" y="261.0">E element() / E peek()</tspan><tspan style="font-size:7.50pt" x="300.8" y="277.0">内部调用 E getFirst() / E peekFirst()</tspan></text></g><g><path stroke="#a0a0a4" stroke-width="1" d="M.0,286.0L133.8,286.0L133.8,326.0L.0,326.0L.0,286.0z" fill="#ffffff"/><text xml:space="preserve" style="fill:#191919;font-family:微软雅黑,PingFang SC,Mircrosoft YaHei,Arial;font-size:9.38pt"><tspan style="font-size:7.50pt" x="9.0" y="310.0">添加元素到队首</tspan></text></g><g><path stroke="#a0a0a4" stroke-width="1" d="M133.8,286.0L291.8,286.0L291.8,326.0L133.8,326.0L133.8,286.0z" fill="#ffffff"/><text xml:space="preserve" style="fill:#191919;font-family:微软雅黑,PingFang SC,Mircrosoft YaHei,Arial;font-size:9.38pt"><tspan style="font-size:7.50pt" x="142.8" y="310.0">无</tspan></text></g><g><path stroke="#a0a0a4" stroke-width="1" d="M291.8,286.0L543.3,286.0L543.3,326.0L291.8,326.0L291.8,286.0z" fill="#ffffff"/><text xml:space="preserve" style="fill:#191919;font-family:微软雅黑,PingFang SC,Mircrosoft YaHei,Arial;font-size:9.38pt"><tspan style="font-size:7.50pt" x="300.8" y="310.0">addFirst(E e) / offerFirst(E e)</tspan></text></g><g><path stroke="#a0a0a4" stroke-width="1" d="M.0,326.0L133.8,326.0L133.8,366.0L.0,366.0L.0,326.0z" fill="#ffffff"/><text xml:space="preserve" style="fill:#191919;font-family:微软雅黑,PingFang SC,Mircrosoft YaHei,Arial;font-size:9.38pt"><tspan style="font-size:7.50pt" x="9.0" y="350.0">取队尾元素并删除</tspan></text></g><g><path stroke="#a0a0a4" stroke-width="1" d="M133.8,326.0L291.8,326.0L291.8,366.0L133.8,366.0L133.8,326.0z" fill="#ffffff"/><text xml:space="preserve" style="fill:#191919;font-family:微软雅黑,PingFang SC,Mircrosoft YaHei,Arial;font-size:9.38pt"><tspan style="font-size:7.50pt" x="142.8" y="350.0">无</tspan></text></g><g><path stroke="#a0a0a4" stroke-width="1" d="M291.8,326.0L543.3,326.0L543.3,366.0L291.8,366.0L291.8,326.0z" fill="#ffffff"/><text xml:space="preserve" style="fill:#191919;font-family:微软雅黑,PingFang SC,Mircrosoft YaHei,Arial;font-size:9.38pt"><tspan style="font-size:7.50pt" x="300.8" y="350.0">E removeLast() / E pollLast()</tspan></text></g><g><path stroke="#a0a0a4" stroke-width="1" d="M.0,366.0L133.8,366.0L133.8,406.0L.0,406.0L.0,366.0z" fill="#ffffff"/><text xml:space="preserve" style="fill:#191919;font-family:微软雅黑,PingFang SC,Mircrosoft YaHei,Arial;font-size:9.38pt"><tspan style="font-size:7.50pt" x="9.0" y="390.0">取队尾元素但不删除</tspan></text></g><g><path stroke="#a0a0a4" stroke-width="1" d="M133.8,366.0L291.8,366.0L291.8,406.0L133.8,406.0L133.8,366.0z" fill="#ffffff"/><text xml:space="preserve" style="fill:#191919;font-family:微软雅黑,PingFang SC,Mircrosoft YaHei,Arial;font-size:9.38pt"><tspan style="font-size:7.50pt" x="142.8" y="390.0">无</tspan></text></g><g><path stroke="#a0a0a4" stroke-width="1" d="M291.8,366.0L543.3,366.0L543.3,406.0L291.8,406.0L291.8,366.0z" fill="#ffffff"/><text xml:space="preserve" style="fill:#191919;font-family:微软雅黑,PingFang SC,Mircrosoft YaHei,Arial;font-size:9.38pt"><tspan style="font-size:7.50pt" x="300.8" y="390.0">E getLast() / E peekLast()</tspan></text></g></g><g transform="translate(830.000000,333.500000)" id="shape44"><path stroke="#007faf" stroke-width="1" d="M.0,.0C-0.1,-8.6,-0.3,-17.3,12.0,-24.5C24.2,-31.6,48.9,-37.4,79.8,-40.2C109.5,-43.0,145.0,-43.0,180.7,-43.0" fill="none"/><path stroke="#007faf" stroke-width="1" stroke-linecap="round" d="M185.0,-43.0L179.8,-46.0C180.3,-45.1,180.6,-44.1,180.6,-43.0C180.6,-41.9,180.3,-40.9,179.8,-40.0L185.0,-43.0" fill="#007faf"/><rect width="110.0" height="16.0" x="28.2" y="-48.4" fill="#ffffff"/><text xml:space="preserve" style="fill:#191919;font-family:微软雅黑,PingFang SC,Mircrosoft YaHei,Arial;font-size:9.38pt"><tspan style="font-size:7.50pt" x="28.2" y="-36.4">释放锁，让其他线程进入</tspan></text></g><g transform="translate(420.500000,344.000000)" id="shape45"><path stroke="#2e8d5d" stroke-width="1" d="M.0,.0C.1,-10.7,.3,-21.5,-12.9,-30.4C-26.1,-39.4,-52.7,-46.5,-86.0,-50.0C-118.5,-53.5,-157.3,-53.5,-196.3,-53.5" fill="none"/><path stroke="#2e8d5d" stroke-width="1" stroke-linecap="round" d="M-199.5,-53.5L-194.3,-50.5C-194.8,-51.4,-195.1,-52.4,-195.1,-53.5C-195.1,-54.6,-194.8,-55.6,-194.3,-56.5L-199.5,-53.5" fill="#2e8d5d"/><rect width="110.0" height="16.0" x="-156.5" y="-59.5" fill="#ffffff"/><text xml:space="preserve" style="fill:#191919;font-family:微软雅黑,PingFang SC,Mircrosoft YaHei,Arial;font-size:9.38pt"><tspan style="font-size:7.50pt" x="-156.5" y="-47.5">释放锁，让其他线程进入</tspan></text></g><g transform="translate(550.521000,57.000000)" id="shape46"><path stroke="#323232" stroke-width="1" d="M.0,30.0C.0,13.4,22.4,.0,50.0,.0C77.6,.0,100.0,13.4,100.0,30.0C100.0,46.6,77.6,60.0,50.0,60.0C22.4,60.0,.0,46.6,.0,30.0z" fill-rule="nonzero" fill="#fae9e9"/><text xml:space="preserve" style="fill:#303030;font-family:微软雅黑,PingFang SC,Mircrosoft YaHei,Arial;font-size:12.50pt"><tspan style="font-size:10.00pt" x="37.5" y="26.0">lock</tspan><tspan style="font-size:10.00pt" x="17.5" y="45.0">只有一把锁</tspan></text></g><g transform="translate(387.021000,159.000000)" id="shape47"><path stroke="#323232" stroke-width="1" d="M.0,.0L114.5,.0L114.5,44.0L.0,44.0L.0,.0z" fill-rule="nonzero" fill="#fae9e9"/><text xml:space="preserve" style="fill:#303030;font-family:微软雅黑,PingFang SC,Mircrosoft YaHei,Arial;font-size:12.50pt"><tspan style="font-size:10.00pt" x="4.3" y="27.5">Condition notFull</tspan></text></g><g transform="translate(694.521200,159.000000)" id="shape48"><path stroke="#323232" stroke-width="1" d="M.0,.0L128.5,.0L128.5,44.0L.0,44.0L.0,.0z" fill-rule="nonzero" fill="#fae9e9"/><text xml:space="preserve" style="fill:#303030;font-family:微软雅黑,PingFang SC,Mircrosoft YaHei,Arial;font-size:11.25pt"><tspan style="font-size:9.00pt" x="6.7" y="26.5">Condition notEmpty</tspan></text></g><g transform="translate(550.521000,87.000000)" id="shape49"><path stroke="#323232" stroke-width="1" d="M.0,.0C-21.3,-0.1,-42.7,-0.1,-60.4,4.7C-78.2,9.4,-92.3,19.0,-99.4,31.0C-105.8,42.1,-106.3,55.3,-106.3,68.6" fill="none"/><path stroke="#323232" stroke-width="1" stroke-linecap="round" d="M-106.3,72.0L-103.3,66.8C-104.2,67.3,-105.2,67.6,-106.3,67.6C-107.4,67.6,-108.4,67.3,-109.3,66.8L-106.3,72.0" fill="#323232"/><rect width="121.0" height="19.0" x="-161.1" y="26.1" fill="#ffffff"/><text xml:space="preserve" style="fill:#191919;font-family:微软雅黑,PingFang SC,Mircrosoft YaHei,Arial;font-size:12.50pt"><tspan style="font-size:10.00pt" x="-161.1" y="41.1">lock.newCondition()</tspan></text></g><g transform="translate(650.521000,87.000000)" id="shape50"><path stroke="#323232" stroke-width="1" d="M.0,.0C21.7,-0.1,43.5,-0.1,61.6,4.7C79.6,9.4,94.0,19.0,101.2,31.0C107.9,42.3,108.3,55.8,108.2,69.3" fill="none"/><path stroke="#323232" stroke-width="1" stroke-linecap="round" d="M108.2,72.0L111.3,66.8C110.4,67.3,109.3,67.6,108.2,67.6C107.2,67.6,106.1,67.3,105.3,66.8L108.2,72.0" fill="#323232"/><rect width="121.0" height="19.0" x="38.5" y="16.9" fill="#ffffff"/><text xml:space="preserve" style="fill:#191919;font-family:微软雅黑,PingFang SC,Mircrosoft YaHei,Arial;font-size:12.50pt"><tspan style="font-size:10.00pt" x="38.5" y="31.9">lock.newCondition()</tspan></text></g></g></svg>