<svg xmlns="http://www.w3.org/2000/svg" xmlns:ev="http://www.w3.org/2001/xml-events" viewBox="0 0 3377 3185" width="3377" xmlns:xlink="http://www.w3.org/1999/xlink" height="3185"><defs/><g transform="translate(5.5,5.5)" id="page1"><rect width="3368" height="3175" x="0" y="0" fill="none"/><g transform="matrix(0.000000,1.000000,-1.000000,0.000000,1632.877000,1653.857000)" id="group1"><g id="group2"><path stroke="#191919" stroke-width="1" d="M.0,.0L1199.7,.0L1199.7,413.9L.0,413.9L.0,.0z" fill-rule="nonzero" fill="#ebebeb" id="shape3"/><g transform="matrix(0.000000,-1.000000,1.000000,0.000000,-0.000000,413.874000)" id="shape4"><path stroke="#191919" stroke-width="1" d="M.0,.0L413.9,.0L413.9,56.7L.0,56.7L.0,.0z" fill-rule="nonzero" fill="#ebebeb"/><text xml:space="preserve" style="fill:#191919;font-family:微软雅黑,PingFang SC,Mircrosoft YaHei,Arial;font-size:12.50pt"><tspan style="font-size:10.00pt" x="187.4" y="34.0">客户端</tspan></text></g></g></g><g transform="translate(1248.204000,1752.810000)" id="shape5"><path stroke="#191919" stroke-width="1" d="M311.8,53.0L311.8,7.0C311.8,3.1,308.7,.0,304.8,.0L7.0,.0C3.1,.0,.0,3.1,.0,7.0L.0,53.0C.0,56.9,3.1,60.0,7.0,60.0L304.8,60.0C308.7,60.0,311.8,56.9,311.8,53.0z" fill-rule="nonzero" fill="#ffffff"/><text xml:space="preserve" style="fill:#191919;font-family:微软雅黑,PingFang SC,Mircrosoft YaHei,Arial;font-size:12.50pt"><tspan style="font-size:10.00pt" x="79.4" y="26.0">randomAccessFile = new </tspan><tspan style="font-size:10.00pt" x="4.4" y="45.0">RandomAccessFile(PATH + "/largeFile2.txt", "rw")</tspan></text></g><g transform="matrix(0.000000,1.000000,-1.000000,0.000000,2057.948000,1653.857000)" id="group6"><g id="group7"><path stroke="#191919" stroke-width="1" d="M.0,.0L1199.7,.0L1199.7,425.2L.0,425.2L.0,.0z" fill-rule="nonzero" fill="#cfe9d8" id="shape8"/><g transform="matrix(0.000000,-1.000000,1.000000,0.000000,-0.000000,425.196000)" id="shape9"><path stroke="#191919" stroke-width="1" d="M.0,.0L425.2,.0L425.2,56.7L.0,56.7L.0,.0z" fill-rule="nonzero" fill="#cfe9d8"/><text xml:space="preserve" style="fill:#191919;font-family:微软雅黑,PingFang SC,Mircrosoft YaHei,Arial;font-size:12.50pt"><tspan style="font-size:10.00pt" x="156.1" y="34.0">RandomAccessFile</tspan></text></g></g></g><g transform="translate(1708.349000,1754.170000)" id="shape10"><path stroke="#191919" stroke-width="1" d="M20.0,60.0L282.4,60.0L302.4,30.0L282.4,.0L20.0,.0L.0,30.0L20.0,60.0z" fill-rule="nonzero" fill="#ffffff"/><text xml:space="preserve" style="fill:#191919;font-family:微软雅黑,PingFang SC,Mircrosoft YaHei,Arial;font-size:12.50pt"><tspan style="font-size:10.00pt" x="33.2" y="26.0">RandomAccessFile(String name, String </tspan><tspan style="font-size:10.00pt" x="131.7" y="45.0">mode)</tspan></text></g><g transform="translate(1743.008000,1858.938800)" id="shape11"><path stroke="#191919" stroke-width="1" d="M232.3,34.1L232.3,7.0C232.3,3.1,229.1,.0,225.3,.0L7.0,.0C3.1,.0,.0,3.1,.0,7.0L.0,34.1C.0,38.0,3.1,41.1,7.0,41.1L225.3,41.1C229.1,41.1,232.3,38.0,232.3,34.1z" fill-rule="nonzero" fill="#ffffff"/><text xml:space="preserve" style="fill:#191919;font-family:微软雅黑,PingFang SC,Mircrosoft YaHei,Arial;font-size:12.50pt"><tspan style="font-size:10.00pt" x="38.6" y="26.1">fd = new FileDescriptor();</tspan></text></g><g transform="translate(1744.768000,1936.178800)" id="shape12"><path stroke="#191919" stroke-width="1" d="M232.3,34.1L232.3,7.0C232.3,3.1,229.1,.0,225.3,.0L7.0,.0C3.1,.0,.0,3.1,.0,7.0L.0,34.1C.0,38.0,3.1,41.1,7.0,41.1L225.3,41.1C229.1,41.1,232.3,38.0,232.3,34.1z" fill-rule="nonzero" fill="#ffffff"/><text xml:space="preserve" style="fill:#191919;font-family:微软雅黑,PingFang SC,Mircrosoft YaHei,Arial;font-size:12.50pt"><tspan style="font-size:10.00pt" x="72.1" y="26.5">fd.attach(this);</tspan></text></g><g transform="translate(1743.008000,2001.498800)" id="shape13"><path stroke="#191919" stroke-width="1" d="M232.3,34.1L232.3,7.0C232.3,3.1,229.1,.0,225.3,.0L7.0,.0C3.1,.0,.0,3.1,.0,7.0L.0,34.1C.0,38.0,3.1,41.1,7.0,41.1L225.3,41.1C229.1,41.1,232.3,38.0,232.3,34.1z" fill-rule="nonzero" fill="#ffffff"/><text xml:space="preserve" style="fill:#191919;font-family:微软雅黑,PingFang SC,Mircrosoft YaHei,Arial;font-size:12.50pt"><tspan style="font-size:10.00pt" x="74.6" y="26.5">path = name;</tspan></text></g><g transform="translate(1742.008000,2067.638800)" id="shape14"><path stroke="#191919" stroke-width="1" d="M232.3,34.1L232.3,7.0C232.3,3.1,229.1,.0,225.3,.0L7.0,.0C3.1,.0,.0,3.1,.0,7.0L.0,34.1C.0,38.0,3.1,41.1,7.0,41.1L225.3,41.1C229.1,41.1,232.3,38.0,232.3,34.1z" fill-rule="nonzero" fill="#ffffff"/><text xml:space="preserve" style="fill:#191919;font-family:微软雅黑,PingFang SC,Mircrosoft YaHei,Arial;font-size:12.50pt"><tspan style="font-size:10.00pt" x="55.6" y="26.5">open(name, imode);</tspan></text></g><g transform="translate(1859.530000,1814.170000)" id="shape15"><path stroke="#191919" stroke-width="1" d="M.0,.0L.0,39.0" fill="none"/><path stroke="#191919" stroke-width="1" stroke-linecap="round" d="M3.0,39.0L.0,45.0L-3.0,39.0L3.0,39.0" fill="#191919"/></g><g transform="translate(1859.150000,1900.040000)" id="shape16"><path stroke="#191919" stroke-width="1" d="M.0,.0L.0,30.0" fill="none"/><path stroke="#191919" stroke-width="1" stroke-linecap="round" d="M3.0,30.0L.0,36.0L-3.0,30.0L3.0,30.0" fill="#191919"/></g><g transform="translate(1860.910000,1977.280000)" id="shape17"><path stroke="#191919" stroke-width="1" d="M.0,.0L.0,19.0" fill="none"/><path stroke="#191919" stroke-width="1" stroke-linecap="round" d="M3.0,19.0L.0,25.0L-3.0,19.0L3.0,19.0" fill="#191919"/></g><g transform="translate(1859.150000,2042.600000)" id="shape18"><path stroke="#191919" stroke-width="1" d="M.0,.0L.0,19.0" fill="none"/><path stroke="#191919" stroke-width="1" stroke-linecap="round" d="M3.0,19.0L.0,25.0L-3.0,19.0L3.0,19.0" fill="#191919"/></g><g transform="translate(1560.020000,1782.810000)" id="shape19"><path stroke="#191919" stroke-width="1" d="M.0,.0L141.0,.0" fill="none"/><path stroke="#191919" stroke-width="1" stroke-linecap="round" d="M141.0,-3.0L147.0,.0L141.0,3.0L141.0,-3.0" fill="#191919"/></g><g transform="translate(1247.484000,2143.230000)" id="shape20"><path stroke="#191919" stroke-width="1" d="M311.8,53.0L311.8,7.0C311.8,3.1,308.7,.0,304.8,.0L7.0,.0C3.1,.0,.0,3.1,.0,7.0L.0,53.0C.0,56.9,3.1,60.0,7.0,60.0L304.8,60.0C308.7,60.0,311.8,56.9,311.8,53.0z" fill-rule="nonzero" fill="#ffffff"/><text xml:space="preserve" style="fill:#191919;font-family:微软雅黑,PingFang SC,Mircrosoft YaHei,Arial;font-size:12.50pt"><tspan style="font-size:10.00pt" x="27.4" y="35.5">channel = randomAccessFile.getChannel()</tspan></text></g><g transform="translate(1709.729000,2143.230000)" id="shape21"><path stroke="#191919" stroke-width="1" d="M20.0,60.0L282.4,60.0L302.4,30.0L282.4,.0L20.0,.0L.0,30.0L20.0,60.0z" fill-rule="nonzero" fill="#ffffff"/><text xml:space="preserve" style="fill:#191919;font-family:微软雅黑,PingFang SC,Mircrosoft YaHei,Arial;font-size:12.50pt"><tspan style="font-size:10.00pt" x="33.2" y="26.0">RandomAccessFile(String name, String </tspan><tspan style="font-size:10.00pt" x="131.7" y="45.0">mode)</tspan></text></g><g transform="translate(1559.290000,2173.230000)" id="shape22"><path stroke="#191919" stroke-width="1" d="M.0,.0L144.0,.0" fill="none"/><path stroke="#191919" stroke-width="1" stroke-linecap="round" d="M144.0,-3.0L150.0,.0L144.0,3.0L144.0,-3.0" fill="#191919"/></g><g transform="translate(1404.110000,1812.810000)" id="shape23"><path stroke="#191919" stroke-width="1" d="M.0,.0L.0,324.0" fill="none"/><path stroke="#191919" stroke-width="1" stroke-linecap="round" d="M3.0,324.0L.0,330.0L-3.0,324.0L3.0,324.0" fill="#191919"/></g><g transform="translate(1709.728000,2240.008800)" id="shape24"><path stroke="#191919" stroke-width="1" d="M301.0,45.1L301.0,7.0C301.0,3.1,297.8,.0,294.0,.0L7.0,.0C3.1,.0,.0,3.1,.0,7.0L.0,45.1C.0,49.0,3.1,52.1,7.0,52.1L294.0,52.1C297.8,52.1,301.0,49.0,301.0,45.1z" fill-rule="nonzero" fill="#ffffff"/><text xml:space="preserve" style="fill:#191919;font-family:微软雅黑,PingFang SC,Mircrosoft YaHei,Arial;font-size:12.50pt"><tspan style="font-size:10.00pt" x="8.5" y="22.1">channel = FileChannelImpl.open(fd, path, true, </tspan><tspan style="font-size:10.00pt" x="125.0" y="41.1">rw, this);</tspan></text></g><g transform="translate(1861.690000,2203.230000)" id="shape25"><path stroke="#191919" stroke-width="1" d="M.0,.0L.0,31.0" fill="none"/><path stroke="#191919" stroke-width="1" stroke-linecap="round" d="M3.0,31.0L.0,37.0L-3.0,31.0L3.0,31.0" fill="#191919"/></g><g transform="translate(1246.035000,2346.100000)" id="shape26"><path stroke="#191919" stroke-width="1" d="M311.8,63.0L311.8,7.0C311.8,3.1,308.7,.0,304.8,.0L7.0,.0C3.1,.0,.0,3.1,.0,7.0L.0,63.0C.0,66.9,3.1,70.0,7.0,70.0L304.8,70.0C308.7,70.0,311.8,66.9,311.8,63.0z" fill-rule="nonzero" fill="#ffffff"/><text xml:space="preserve" style="fill:#191919;font-family:微软雅黑,PingFang SC,Mircrosoft YaHei,Arial;font-size:12.50pt"><tspan style="font-size:10.00pt" x="91.4" y="21.5">mappedByteBuffer = </tspan><tspan style="font-size:10.00pt" x="5.4" y="40.5">channel.map(FileChannel.MapMode.READ_WRITE</tspan><tspan style="font-size:10.00pt" x="99.9" y="59.5">, 0, ONE_M * 100)</tspan></text></g><g transform="translate(1403.390000,2203.230000)" id="shape27"><path stroke="#191919" stroke-width="1" d="M.0,.0L.0,137.0" fill="none"/><path stroke="#191919" stroke-width="1" stroke-linecap="round" d="M3.0,137.0L.0,143.0L-3.0,137.0L3.0,137.0" fill="#191919"/></g><g transform="translate(1709.729000,2351.100000)" id="shape28"><path stroke="#191919" stroke-width="1" d="M20.0,60.0L282.4,60.0L302.4,30.0L282.4,.0L20.0,.0L.0,30.0L20.0,60.0z" fill-rule="nonzero" fill="#ffffff"/><text xml:space="preserve" style="fill:#191919;font-family:微软雅黑,PingFang SC,Mircrosoft YaHei,Arial;font-size:12.50pt"><tspan style="font-size:10.00pt" x="33.2" y="26.0">RandomAccessFile(String name, String </tspan><tspan style="font-size:10.00pt" x="131.7" y="45.0">mode)</tspan></text></g><g transform="translate(1709.728000,2449.538800)" id="shape29"><path stroke="#191919" stroke-width="1" d="M301.0,45.1L301.0,7.0C301.0,3.1,297.8,.0,294.0,.0L7.0,.0C3.1,.0,.0,3.1,.0,7.0L.0,45.1C.0,49.0,3.1,52.1,7.0,52.1L294.0,52.1C297.8,52.1,301.0,49.0,301.0,45.1z" fill-rule="nonzero" fill="#ffffff"/><text xml:space="preserve" style="fill:#191919;font-family:微软雅黑,PingFang SC,Mircrosoft YaHei,Arial;font-size:12.50pt"><tspan style="font-size:10.00pt" x="15.0" y="31.6">addr = map0(imode, mapPosition, mapSize);</tspan></text></g><g transform="translate(1860.910000,2411.100000)" id="shape30"><path stroke="#191919" stroke-width="1" d="M.0,.0L.0,33.0" fill="none"/><path stroke="#191919" stroke-width="1" stroke-linecap="round" d="M3.0,33.0L.0,39.0L-3.0,33.0L3.0,33.0" fill="#191919"/></g><g transform="translate(1557.840000,2381.100000)" id="shape31"><path stroke="#191919" stroke-width="1" d="M.0,.0L147.0,.0" fill="none"/><path stroke="#191919" stroke-width="1" stroke-linecap="round" d="M147.0,-3.0L153.0,.0L147.0,3.0L147.0,-3.0" fill="#191919"/></g><g transform="matrix(0.000000,1.000000,-1.000000,0.000000,2929.136000,1653.854000)" id="group32"><g id="group33"><path stroke="#191919" stroke-width="1" d="M.0,.0L670.6,.0L670.6,871.7L.0,871.7L.0,.0z" fill-rule="nonzero" fill="#cbe3f8" id="shape34"/><g transform="matrix(0.000000,-1.000000,1.000000,0.000000,-0.000000,871.732000)" id="shape35"><path stroke="#191919" stroke-width="1" d="M.0,.0L871.7,.0L871.7,56.7L.0,56.7L.0,.0z" fill-rule="nonzero" fill="#cbe3f8"/><text xml:space="preserve" style="fill:#191919;font-family:微软雅黑,PingFang SC,Mircrosoft YaHei,Arial;font-size:12.50pt"><tspan style="font-size:10.00pt" x="382.4" y="34.0">FileChannelImpl.c</tspan></text></g></g></g><g transform="translate(2218.581000,1751.810000)" id="shape36"><path stroke="#191919" stroke-width="1" d="M20.0,70.0L320.2,70.0L340.2,35.0L320.2,.0L20.0,.0L.0,35.0L20.0,70.0z" fill-rule="nonzero" fill="#ffffff"/><text xml:space="preserve" style="fill:#191919;font-family:微软雅黑,PingFang SC,Mircrosoft YaHei,Arial;font-size:12.50pt"><tspan style="font-size:10.00pt" x="25.1" y="31.0">Java_sun_nio_ch_FileChannelImpl_map0(JNIEnv </tspan><tspan style="font-size:10.00pt" x="30.1" y="50.0">*env, jobject this, jint prot, jlong off, jlong len)</tspan></text></g><g transform="translate(2010.710000,2475.590000)" id="shape37"><path stroke="#191919" stroke-width="1" d="M.0,.0L30.2,.0L30.2,-688.8L201.9,-688.8" fill="none"/><path stroke="#191919" stroke-width="1" stroke-linecap="round" d="M201.9,-691.8L207.9,-688.8L201.9,-685.8L201.9,-691.8" fill="#191919"/></g><g transform="translate(2218.581000,1924.248800)" id="shape38"><path stroke="#191919" stroke-width="1" d="M340.2,153.1L340.2,7.0C340.2,3.1,337.0,.0,333.2,.0L7.0,.0C3.1,.0,.0,3.1,.0,7.0L.0,153.1C.0,157.0,3.1,160.1,7.0,160.1L333.2,160.1C337.0,160.1,340.2,157.0,340.2,153.1z" fill-rule="nonzero" fill="#ffffff"/><text xml:space="preserve" style="fill:#191919;font-family:微软雅黑,PingFang SC,Mircrosoft YaHei,Arial;font-size:12.50pt"><tspan style="font-size:10.00pt" x="4.1" y="19.0">mapAddress = mmap64(</tspan><tspan style="font-size:10.00pt" x="4.1" y="38.0">        0,                    /* Let OS decide location */</tspan><tspan style="font-size:10.00pt" x="4.1" y="57.0">        len,                  /* Number of bytes to map */</tspan><tspan style="font-size:10.00pt" x="4.1" y="76.0">        protections,          /* File permissions */</tspan><tspan style="font-size:10.00pt" x="4.1" y="95.0">        flags,                /* Changes are shared */</tspan><tspan style="font-size:10.00pt" x="4.1" y="114.0">        fd,                   /* File descriptor of mapped file </tspan><tspan style="font-size:10.00pt" x="4.1" y="133.0">*/</tspan><tspan style="font-size:10.00pt" x="4.1" y="152.0">        off);                 /* Offset into file */</tspan></text></g><g transform="translate(2388.520000,1821.400000)" id="shape39"><path stroke="#191919" stroke-width="1" d="M.0,.0L.0,96.0" fill="none"/><path stroke="#191919" stroke-width="1" stroke-linecap="round" d="M3.0,96.0L.0,102.0L-3.0,96.0L3.0,96.0" fill="#191919"/></g><g transform="translate(2306.967100,2186.800000)" id="shape40"><path stroke="#191919" stroke-width="1" d="M22.0,44.0L141.4,44.0L141.4,44.0C153.5,44.0,163.4,34.2,163.4,22.0C163.4,9.8,153.5,.0,141.4,.0L22.0,.0L22.0,.0C9.8,.0,.0,9.8,.0,22.0C.0,34.2,9.8,44.0,22.0,44.0z" fill-rule="nonzero" fill="#ffffff"/><text xml:space="preserve" style="fill:#191919;font-family:微软雅黑,PingFang SC,Mircrosoft YaHei,Arial;font-size:12.50pt"><tspan style="font-size:10.00pt" x="22.7" y="27.5">return mapAddress</tspan></text></g><g transform="translate(2388.660000,2084.350000)" id="shape41"><path stroke="#191919" stroke-width="1" d="M.0,.0L.0,97.0" fill="none"/><path stroke="#191919" stroke-width="1" stroke-linecap="round" d="M3.0,97.0L.0,103.0L-3.0,97.0L3.0,97.0" fill="#191919"/></g><g transform="translate(1709.728000,2562.928800)" id="shape42"><path stroke="#191919" stroke-width="1" d="M301.0,45.1L301.0,7.0C301.0,3.1,297.8,.0,294.0,.0L7.0,.0C3.1,.0,.0,3.1,.0,7.0L.0,45.1C.0,49.0,3.1,52.1,7.0,52.1L294.0,52.1C297.8,52.1,301.0,49.0,301.0,45.1z" fill-rule="nonzero" fill="#ffffff"/><text xml:space="preserve" style="fill:#191919;font-family:微软雅黑,PingFang SC,Mircrosoft YaHei,Arial;font-size:12.50pt"><tspan style="font-size:10.00pt" x="50.0" y="22.1">Util.newMappedByteBuffer(isize, </tspan><tspan style="font-size:10.00pt" x="55.0" y="41.1">addr + pagePosition, mfd, um);</tspan></text></g><g transform="translate(1860.220000,2501.640000)" id="shape43"><path stroke="#191919" stroke-width="1" d="M.0,.0L.0,55.0" fill="none"/><path stroke="#191919" stroke-width="1" stroke-linecap="round" d="M3.0,55.0L.0,61.0L-3.0,55.0L3.0,55.0" fill="#191919"/></g><g transform="translate(811.606000,1673.750000)" id="shape44"><path d="M.0,.0L258.0,.0L258.0,199.5L.0,199.5L.0,.0zM.0,38.0L258.0,38.0L.0,38.0zM.0,148.0L258.0,148.0L.0,148.0z" fill-rule="nonzero" fill="#ffffff"/><path stroke="#191919" stroke-width="1" d="M.0,.0L258.0,.0L258.0,199.5L.0,199.5L.0,.0zM.0,38.0L258.0,38.0L.0,38.0zM.0,148.0L258.0,148.0L.0,148.0z" fill="none"/><text xml:space="preserve" style="fill:#191919;font-family:微软雅黑,PingFang SC,Mircrosoft YaHei,Arial;font-size:12.50pt"><tspan style="font-size:10.00pt" x="110.0" y="24.5">Buffer</tspan></text><text xml:space="preserve" style="fill:#191919;font-family:微软雅黑,PingFang SC,Mircrosoft YaHei,Arial;font-size:12.50pt"><tspan style="font-size:10.00pt" x="4.0" y="60.5">+   Attribute mark: int</tspan><tspan style="font-size:10.00pt" x="4.0" y="79.5">+   Attribute position: int</tspan><tspan style="font-size:10.00pt" x="4.0" y="98.5">+   Attribute limit: int</tspan><tspan style="font-size:10.00pt" x="4.0" y="117.5">+   Attribute capacity: int</tspan><tspan style="font-size:10.00pt" x="4.0" y="136.5">+   Attribute address: long</tspan></text><text xml:space="preserve" style="fill:#191919;font-family:微软雅黑,PingFang SC,Mircrosoft YaHei,Arial;font-size:12.50pt"><tspan style="font-size:10.00pt" x="4.0" y="179.3">+   Operation A(params) : return</tspan></text></g><g transform="translate(811.606000,1937.740000)" id="shape45"><path d="M.0,.0L258.0,.0L258.0,163.5L.0,163.5L.0,.0zM.0,38.0L258.0,38.0L.0,38.0zM.0,112.0L258.0,112.0L.0,112.0z" fill-rule="nonzero" fill="#ffffff"/><path stroke="#191919" stroke-width="1" d="M.0,.0L258.0,.0L258.0,163.5L.0,163.5L.0,.0zM.0,38.0L258.0,38.0L.0,38.0zM.0,112.0L258.0,112.0L.0,112.0z" fill="none"/><text xml:space="preserve" style="fill:#191919;font-family:微软雅黑,PingFang SC,Mircrosoft YaHei,Arial;font-size:12.50pt"><tspan style="font-size:10.00pt" x="96.5" y="24.5">ByteBuffer</tspan></text><text xml:space="preserve" style="fill:#191919;font-family:微软雅黑,PingFang SC,Mircrosoft YaHei,Arial;font-size:12.50pt"><tspan style="font-size:10.00pt" x="4.0" y="61.5">+   Attribute hb: byte[]</tspan><tspan style="font-size:10.00pt" x="4.0" y="80.5">+   Attribute offset: int</tspan><tspan style="font-size:10.00pt" x="4.0" y="99.5">+   Attribute isReadOnly: boolean</tspan></text><text xml:space="preserve" style="fill:#191919;font-family:微软雅黑,PingFang SC,Mircrosoft YaHei,Arial;font-size:12.50pt"><tspan style="font-size:10.00pt" x="4.0" y="143.3">+   Operation A(params) : return</tspan></text></g><g transform="translate(811.606000,2143.230000)" id="shape46"><path d="M.0,.0L258.0,.0L258.0,141.0L.0,141.0L.0,.0zM.0,38.0L258.0,38.0L.0,38.0zM.0,89.5L258.0,89.5L.0,89.5z" fill-rule="nonzero" fill="#ffffff"/><path stroke="#191919" stroke-width="1" d="M.0,.0L258.0,.0L258.0,141.0L.0,141.0L.0,.0zM.0,38.0L258.0,38.0L.0,38.0zM.0,89.5L258.0,89.5L.0,89.5z" fill="none"/><text xml:space="preserve" style="fill:#191919;font-family:微软雅黑,PingFang SC,Mircrosoft YaHei,Arial;font-size:12.50pt"><tspan style="font-size:10.00pt" x="71.0" y="24.5">MappedByteBuffer</tspan></text><text xml:space="preserve" style="fill:#191919;font-family:微软雅黑,PingFang SC,Mircrosoft YaHei,Arial;font-size:12.50pt"><tspan style="font-size:10.00pt" x="4.0" y="69.3">+   Attribute A: type = defaultValue</tspan></text><text xml:space="preserve" style="fill:#191919;font-family:微软雅黑,PingFang SC,Mircrosoft YaHei,Arial;font-size:12.50pt"><tspan style="font-size:10.00pt" x="4.0" y="120.8">+   Operation A(params) : return</tspan></text></g><g transform="translate(811.606000,2362.200000)" id="shape47"><path d="M.0,.0L258.0,.0L258.0,141.0L.0,141.0L.0,.0zM.0,38.0L258.0,38.0L.0,38.0zM.0,89.5L258.0,89.5L.0,89.5z" fill-rule="nonzero" fill="#ffffff"/><path stroke="#191919" stroke-width="1" d="M.0,.0L258.0,.0L258.0,141.0L.0,141.0L.0,.0zM.0,38.0L258.0,38.0L.0,38.0zM.0,89.5L258.0,89.5L.0,89.5z" fill="none"/><text xml:space="preserve" style="fill:#191919;font-family:微软雅黑,PingFang SC,Mircrosoft YaHei,Arial;font-size:12.50pt"><tspan style="font-size:10.00pt" x="78.0" y="24.5">DirectByteBuffer</tspan></text><text xml:space="preserve" style="fill:#191919;font-family:微软雅黑,PingFang SC,Mircrosoft YaHei,Arial;font-size:12.50pt"><tspan style="font-size:10.00pt" x="4.0" y="69.3">+   Attribute A: type = defaultValue</tspan></text><text xml:space="preserve" style="fill:#191919;font-family:微软雅黑,PingFang SC,Mircrosoft YaHei,Arial;font-size:12.50pt"><tspan style="font-size:10.00pt" x="4.0" y="120.8">+   Operation A(params) : return</tspan></text></g><g transform="translate(941.343000,2362.200000)" id="shape48"><path stroke="#191919" stroke-width="1" d="M.0,.0L.0,-72.0" fill="none"/><path stroke="#191919" stroke-width="1" stroke-linecap="round" d="M-3.0,-72.0L.0,-78.0L3.0,-72.0L-3.0,-72.0" fill="#191919"/></g><g transform="translate(941.343000,2143.230000)" id="shape49"><path stroke="#191919" stroke-width="1" d="M.0,.0L.0,-36.0" fill="none"/><path stroke="#191919" stroke-width="1" stroke-linecap="round" d="M-3.0,-36.0L.0,-42.0L3.0,-36.0L-3.0,-36.0" fill="#191919"/></g><g transform="translate(941.343000,1937.740000)" id="shape50"><path stroke="#191919" stroke-width="1" d="M.0,.0L.0,-59.0" fill="none"/><path stroke="#191919" stroke-width="1" stroke-linecap="round" d="M-3.0,-59.0L.0,-65.0L3.0,-59.0L-3.0,-59.0" fill="#191919"/></g><g transform="matrix(0.000000,1.000000,-1.000000,0.000000,2929.133000,2324.721000)" id="group51"><g id="group52"><path stroke="#191919" stroke-width="1" d="M.0,.0L528.8,.0L528.8,871.9L.0,871.9L.0,.0z" fill-rule="nonzero" fill="#ffe8cd" id="shape53"/><g transform="matrix(0.000000,-1.000000,1.000000,0.000000,-0.000000,871.906000)" id="shape54"><path stroke="#191919" stroke-width="1" d="M.0,.0L871.9,.0L871.9,56.7L.0,56.7L.0,.0z" fill-rule="nonzero" fill="#ffe8cd"/><text xml:space="preserve" style="fill:#191919;font-family:微软雅黑,PingFang SC,Mircrosoft YaHei,Arial;font-size:12.50pt"><tspan style="font-size:10.00pt" x="425.5" y="34.0">Util</tspan></text></g></g></g><g transform="translate(2209.219000,2407.800000)" id="shape55"><path stroke="#191919" stroke-width="1" d="M20.0,60.0L282.4,60.0L302.4,30.0L282.4,.0L20.0,.0L.0,30.0L20.0,60.0z" fill-rule="nonzero" fill="#ffffff"/><text xml:space="preserve" style="fill:#191919;font-family:微软雅黑,PingFang SC,Mircrosoft YaHei,Arial;font-size:12.50pt"><tspan style="font-size:10.00pt" x="23.2" y="26.0">newMappedByteBuffer(int size, long addr, </tspan><tspan style="font-size:10.00pt" x="33.2" y="45.0">FileDescriptor fd, Runnable unmapper)</tspan></text></g><g transform="translate(2010.710000,2588.980000)" id="shape56"><path stroke="#191919" stroke-width="1" d="M.0,.0L96.1,.0L96.1,-151.2L192.5,-151.2" fill="none"/><path stroke="#191919" stroke-width="1" stroke-linecap="round" d="M192.5,-154.2L198.5,-151.2L192.5,-148.2L192.5,-154.2" fill="#191919"/></g><g transform="translate(2209.219000,2520.930000)" id="shape57"><path stroke="#191919" stroke-width="1" d="M151.2,60.5L302.4,30.3L151.2,.0L.0,30.3L151.2,60.5z" fill-rule="nonzero" fill="#ffffff"/><text xml:space="preserve" style="fill:#191919;font-family:Microsoft YaHei UI,PingFang SC,Mircrosoft YaHei,Arial;font-size:11.25pt"><tspan style="font-size:9.00pt" x="59.7" y="26.3">directByteBufferConstructor == </tspan><tspan style="font-size:9.00pt" x="141.2" y="43.3">null</tspan></text></g><g transform="translate(2360.000000,2467.400000)" id="shape58"><path stroke="#191919" stroke-width="1" d="M.0,.0L.0,47.0" fill="none"/><path stroke="#191919" stroke-width="1" stroke-linecap="round" d="M3.0,47.0L.0,53.0L-3.0,47.0L3.0,47.0" fill="#191919"/></g><g transform="translate(2209.218000,2626.772400)" id="shape59"><path stroke="#191919" stroke-width="1" d="M301.0,30.8L301.0,7.0C301.0,3.1,297.8,.0,294.0,.0L7.0,.0C3.1,.0,.0,3.1,.0,7.0L.0,30.8C.0,34.7,3.1,37.8,7.0,37.8L294.0,37.8C297.8,37.8,301.0,34.7,301.0,30.8z" fill-rule="nonzero" fill="#ffffff"/><text xml:space="preserve" style="fill:#191919;font-family:微软雅黑,PingFang SC,Mircrosoft YaHei,Arial;font-size:12.50pt"><tspan style="font-size:10.00pt" x="85.5" y="24.4">initDBBConstructor();</tspan></text></g><g transform="translate(2360.400000,2581.430000)" id="shape60"><path stroke="#191919" stroke-width="1" d="M.0,.0L.0,38.0" fill="none"/><path stroke="#191919" stroke-width="1" stroke-linecap="round" d="M3.0,38.0L.0,44.0L-3.0,38.0L3.0,38.0" fill="#191919"/><rect width="25.0" height="19.0" x="-11.5" y="13.9" fill="#ffffff"/><text xml:space="preserve" style="fill:#191919;font-family:微软雅黑,PingFang SC,Mircrosoft YaHei,Arial;font-size:12.50pt"><tspan style="font-size:10.00pt" x="-11.5" y="28.9">true</tspan></text></g><g transform="translate(2169.830000,2721.261200)" id="shape61"><path stroke="#191919" stroke-width="1" d="M379.8,97.9L379.8,7.0C379.8,3.1,376.6,.0,372.8,.0L7.0,.0C3.1,.0,.0,3.1,.0,7.0L.0,97.9C.0,101.8,3.1,104.9,7.0,104.9L372.8,104.9C376.6,104.9,379.8,101.8,379.8,97.9z" fill-rule="nonzero" fill="#ffffff"/><text xml:space="preserve" style="fill:#191919;font-family:微软雅黑,PingFang SC,Mircrosoft YaHei,Arial;font-size:12.50pt"><tspan style="font-size:10.00pt" x="4.4" y="19.0">(MappedByteBuffer)directByteBufferConstructor.newInstanc</tspan><tspan style="font-size:10.00pt" x="4.4" y="38.0">e(</tspan><tspan style="font-size:10.00pt" x="4.4" y="57.0">              new Object[] { new Integer(size),</tspan><tspan style="font-size:10.00pt" x="4.4" y="76.0">                                    new Long(addr),</tspan><tspan style="font-size:10.00pt" x="4.4" y="95.0">                                    fd,</tspan><tspan style="font-size:10.00pt" x="4.4" y="114.0">                                    unmapper });</tspan></text></g><g transform="translate(2359.000000,2665.400000)" id="shape62"><path stroke="#191919" stroke-width="1" d="M.0,.0L.0,49.0" fill="none"/><path stroke="#191919" stroke-width="1" stroke-linecap="round" d="M3.0,49.0L.0,55.0L-3.0,49.0L3.0,49.0" fill="#191919"/></g><g transform="translate(2588.979000,2648.261000)" id="shape63"><path stroke="#191919" stroke-width="1" d="M302.4,170.9L302.4,7.0C302.4,3.1,299.2,.0,295.4,.0L7.0,.0C3.1,.0,.0,3.1,.0,7.0L.0,170.9C.0,174.8,3.1,177.9,7.0,177.9L295.4,177.9C299.2,177.9,302.4,174.8,302.4,170.9z" fill-rule="nonzero" fill="#ffffff"/><text xml:space="preserve" style="fill:#191919;font-family:微软雅黑,PingFang SC,Mircrosoft YaHei,Arial;font-size:12.50pt"><tspan style="font-size:10.00pt" x="4.2" y="19.0">    protected DirectByteBuffer(int cap, long </tspan><tspan style="font-size:10.00pt" x="4.2" y="38.0">addr,</tspan><tspan style="font-size:10.00pt" x="4.2" y="57.0">                                     FileDescriptor fd,</tspan><tspan style="font-size:10.00pt" x="4.2" y="76.0">                                     Runnable unmapper)</tspan><tspan style="font-size:10.00pt" x="4.2" y="95.0">    {</tspan><tspan style="font-size:10.00pt" x="4.2" y="114.0">        super(-1, 0, cap, cap, fd);</tspan><tspan style="font-size:10.00pt" x="4.2" y="133.0">        address = addr;</tspan><tspan style="font-size:10.00pt" x="4.2" y="152.0">        cleaner = Cleaner.create(this, unmapper);</tspan><tspan style="font-size:10.00pt" x="4.2" y="171.0">        att = null;</tspan><tspan style="font-size:10.00pt" x="4.2" y="190.0">    }</tspan></text></g><g transform="translate(2550.000000,2773.400000)" id="shape64"><path stroke="#191919" stroke-width="1" d="M.0,.0L26.0,.0L26.0,-37.0L32.0,-37.0" fill="none"/><path stroke="#191919" stroke-width="1" stroke-linecap="round" d="M32.0,-40.0L38.0,-37.0L32.0,-34.0L32.0,-40.0" fill="#191919"/></g><g transform="translate(2609.760000,2533.930000)" id="group65"><path stroke="#00aeee" stroke-width="1" d="M66.0,38.0L130.4,114.3" fill="none" id="shape66"/><g id="shape67"><path stroke="#00aeee" stroke-width="1" d="M.0,.0L132.0,.0L132.0,76.0L.0,76.0L.0,.0z" fill-rule="nonzero" fill="#00aeee"/><text xml:space="preserve" style="fill:#ffffff;font-family:微软雅黑,PingFang SC,Mircrosoft YaHei,Arial;font-size:12.50pt"><tspan style="font-size:10.00pt" x="33.5" y="34.0">最终构建出 </tspan><tspan style="font-size:10.00pt" x="15.0" y="53.0">DirectByteBuffer</tspan></text></g><path stroke="#00aeee" stroke-width="1" d="M.0,5.7C.0,2.5,2.5,.0,5.7,.0C8.8,.0,11.3,2.5,11.3,5.7C11.3,8.8,8.8,11.3,5.7,11.3C2.5,11.3,.0,8.8,.0,5.7z" fill-rule="nonzero" transform="translate(124.724710,108.661710)" fill="#00aeee" id="shape68"/></g><g transform="translate(188.977000,226.772000)" id="shape69"><path stroke="#191919" stroke-width="1" d="M596.2,357.7L596.2,.0L.0,.0L.0,357.7L596.2,357.7z" fill-rule="nonzero" fill="#cfe9d8"/><text xml:space="preserve" style="fill:#191919;font-family:微软雅黑,PingFang SC,Mircrosoft YaHei,Arial;font-size:22.50pt"><tspan style="font-size:18.00pt" x="4.1" y="29.0">用户空间</tspan></text></g><g transform="translate(188.977000,600.984000)" id="shape70"><path stroke="#191919" stroke-width="1" d="M596.2,357.7L596.2,.0L.0,.0L.0,357.7L596.2,357.7z" fill-rule="nonzero" fill="#cbe3f8"/><text xml:space="preserve" style="fill:#191919;font-family:微软雅黑,PingFang SC,Mircrosoft YaHei,Arial;font-size:22.50pt"><tspan style="font-size:18.00pt" x="4.1" y="29.0">内核空间</tspan></text></g><g transform="translate(188.977000,994.571000)" id="shape71"><path stroke="#191919" stroke-width="1" d="M256.1,271.7L256.1,.0L.0,.0L.0,271.7L256.1,271.7z" fill-rule="nonzero" fill="#ffe8cd"/><text xml:space="preserve" style="fill:#191919;font-family:微软雅黑,PingFang SC,Mircrosoft YaHei,Arial;font-size:22.50pt"><tspan style="font-size:18.00pt" x="4.0" y="29.0">磁盘</tspan></text></g><g transform="translate(529.134000,994.571000)" id="shape72"><path stroke="#191919" stroke-width="1" d="M256.1,271.7L256.1,.0L.0,.0L.0,271.7L256.1,271.7z" fill-rule="nonzero" fill="#fedad0"/><text xml:space="preserve" style="fill:#191919;font-family:微软雅黑,PingFang SC,Mircrosoft YaHei,Arial;font-size:22.50pt"><tspan style="font-size:18.00pt" x="4.0" y="29.0">网络</tspan></text></g><g transform="translate(323.706000,328.241000)" id="shape73"><path stroke="#191919" stroke-width="1" d="M337.7,147.8L337.7,7.0C337.7,3.1,334.6,.0,330.7,.0L7.0,.0C3.1,.0,.0,3.1,.0,7.0L.0,147.8C.0,151.7,3.1,154.8,7.0,154.8L330.7,154.8C334.6,154.8,337.7,151.7,337.7,147.8z" fill-rule="nonzero" fill="#39aa71"/><text xml:space="preserve" style="fill:#191919;font-family:微软雅黑,PingFang SC,Mircrosoft YaHei,Arial;font-size:30.00pt"><tspan style="font-size:24.00pt" x="72.9" y="89.9">用户空间缓存</tspan></text></g><g transform="translate(302.362300,669.381000)" id="shape74"><path stroke="#191919" stroke-width="1" d="M142.7,193.1L142.7,7.0C142.7,3.1,139.6,.0,135.7,.0L7.0,.0C3.1,.0,.0,3.1,.0,7.0L.0,193.1C.0,196.9,3.1,200.1,7.0,200.1L135.7,200.1C139.6,200.1,142.7,196.9,142.7,193.1z" fill-rule="nonzero" fill="#7cc2f2"/><text xml:space="preserve" style="fill:#191919;font-family:微软雅黑,PingFang SC,Mircrosoft YaHei,Arial;font-size:30.00pt"><tspan style="font-size:24.00pt" x="23.3" y="92.5">页缓存</tspan></text></g><g transform="translate(566.929300,669.381000)" id="shape75"><path stroke="#191919" stroke-width="1" d="M142.7,193.1L142.7,7.0C142.7,3.1,139.6,.0,135.7,.0L7.0,.0C3.1,.0,.0,3.1,.0,7.0L.0,193.1C.0,196.9,3.1,200.1,7.0,200.1L135.7,200.1C139.6,200.1,142.7,196.9,142.7,193.1z" fill-rule="nonzero" fill="#7cc2f2"/><text xml:space="preserve" style="fill:#191919;font-family:微软雅黑,PingFang SC,Mircrosoft YaHei,Arial;font-size:30.00pt"><tspan style="font-size:24.00pt" x="20.8" y="92.5">Socket</tspan><tspan style="font-size:24.00pt" x="39.3" y="133.5">缓存</tspan></text></g><g transform="translate(267.013000,1122.924700)" id="shape76"><path stroke="#191919" stroke-width="1" d="M100.0,98.6L100.0,7.0C100.0,3.1,96.9,.0,93.0,.0L7.0,.0C3.1,.0,.0,3.1,.0,7.0L.0,98.6C.0,102.5,3.1,105.6,7.0,105.6L93.0,105.6C96.9,105.6,100.0,102.5,100.0,98.6z" fill-rule="nonzero" fill="#ffffff"/><text xml:space="preserve" style="fill:#191919;font-family:微软雅黑,PingFang SC,Mircrosoft YaHei,Arial;font-size:30.00pt"><tspan style="font-size:24.00pt" x="18.0" y="45.0">磁盘</tspan><tspan style="font-size:24.00pt" x="18.0" y="86.0">文件</tspan></text></g><g transform="translate(607.170000,1120.644700)" id="shape77"><path stroke="#191919" stroke-width="1" d="M100.0,98.6L100.0,7.0C100.0,3.1,96.9,.0,93.0,.0L7.0,.0C3.1,.0,.0,3.1,.0,7.0L.0,98.6C.0,102.5,3.1,105.6,7.0,105.6L93.0,105.6C96.9,105.6,100.0,102.5,100.0,98.6z" fill-rule="nonzero" fill="#ffffff"/><text xml:space="preserve" style="fill:#191919;font-family:微软雅黑,PingFang SC,Mircrosoft YaHei,Arial;font-size:30.00pt"><tspan style="font-size:24.00pt" x="18.0" y="45.0">网络</tspan><tspan style="font-size:24.00pt" x="18.0" y="86.0">设备</tspan></text></g><g transform="translate(317.013000,1122.920000)" id="shape78"><path stroke="#191919" stroke-width="1" d="M.0,.0L.0,-225.0L56.0,-225.0L56.0,-247.0" fill="none"/><path stroke="#191919" stroke-width="1" stroke-linecap="round" d="M53.0,-247.0L56.0,-253.0L59.0,-247.0L53.0,-247.0" fill="#191919"/><rect width="62.0" height="19.0" x="-30.0" y="-121.3" fill="#ffffff"/><text xml:space="preserve" style="fill:#191919;font-family:微软雅黑,PingFang SC,Mircrosoft YaHei,Arial;font-size:12.50pt"><tspan style="font-size:10.00pt" x="-30.0" y="-106.3">DMA 拷贝</tspan></text></g><g transform="translate(657.170000,1120.650000)" id="shape79"><path stroke="#191919" stroke-width="1" d="M.0,.0L.0,-223.0L-19.0,-223.0L-19.0,-245.0" fill="none"/><path stroke="#191919" stroke-width="1" stroke-linecap="round" d="M-22.0,-245.0L-19.0,-251.0L-16.0,-245.0L-22.0,-245.0" fill="#191919"/><rect width="58.0" height="19.0" x="-28.0" y="-120.8" fill="#ffffff"/><text xml:space="preserve" style="fill:#191919;font-family:微软雅黑,PingFang SC,Mircrosoft YaHei,Arial;font-size:12.50pt"><tspan style="font-size:10.00pt" x="-28.0" y="-105.8">DMA拷贝</tspan></text></g><g transform="translate(323.706000,778.564700)" id="shape80"><path stroke="#191919" stroke-width="1" d="M100.0,24.8L100.0,7.0C100.0,3.1,96.9,.0,93.0,.0L7.0,.0C3.1,.0,.0,3.1,.0,7.0L.0,24.8C.0,28.7,3.1,31.8,7.0,31.8L93.0,31.8C96.9,31.8,100.0,28.7,100.0,24.8z" fill-rule="nonzero" fill="#ffffff"/><text xml:space="preserve" style="fill:#191919;font-family:微软雅黑,PingFang SC,Mircrosoft YaHei,Arial;font-size:12.50pt"><tspan style="font-size:10.00pt" x="28.0" y="21.5">CACHE</tspan></text></g><g transform="translate(323.706000,818.745700)" id="shape81"><path stroke="#191919" stroke-width="1" d="M100.0,24.8L100.0,7.0C100.0,3.1,96.9,.0,93.0,.0L7.0,.0C3.1,.0,.0,3.1,.0,7.0L.0,24.8C.0,28.7,3.1,31.8,7.0,31.8L93.0,31.8C96.9,31.8,100.0,28.7,100.0,24.8z" fill-rule="nonzero" fill="#ffffff"/><text xml:space="preserve" style="fill:#191919;font-family:微软雅黑,PingFang SC,Mircrosoft YaHei,Arial;font-size:12.50pt"><tspan style="font-size:10.00pt" x="26.5" y="21.5">BUFFER</tspan></text></g><g transform="translate(373.706000,669.381000)" id="shape82"><path stroke="#191919" stroke-width="1" d="M.0,.0L.0,-179.0" fill="none"/><path stroke="#191919" stroke-width="1" stroke-linecap="round" d="M-3.0,-179.0L.0,-185.0L3.0,-179.0L-3.0,-179.0" fill="#191919"/><rect width="27.0" height="19.0" x="-12.5" y="-160.5" fill="#ffffff"/><rect width="53.0" height="19.0" x="-25.5" y="-122.5" fill="#ffffff"/><text xml:space="preserve" style="fill:#191919;font-family:微软雅黑,PingFang SC,Mircrosoft YaHei,Arial;font-size:12.50pt"><tspan style="font-size:10.00pt" x="-12.5" y="-145.5">read</tspan><tspan style="font-size:10.00pt" x="-25.5" y="-107.5">CPU拷贝</tspan></text></g><g transform="translate(638.273000,669.381000)" id="shape83"><path stroke="#191919" stroke-width="1" d="M.0,.0L.0,-159.0L-4.0,-159.0L-4.0,-179.0" fill="none"/><path stroke="#191919" stroke-width="1" stroke-linecap="round" d="M-7.0,-179.0L-4.0,-185.0L-1.0,-179.0L-7.0,-179.0" fill="#191919"/><rect width="26.0" height="19.0" x="-12.0" y="-167.8" fill="#ffffff"/><rect width="53.0" height="19.0" x="-25.5" y="-129.8" fill="#ffffff"/><text xml:space="preserve" style="fill:#191919;font-family:微软雅黑,PingFang SC,Mircrosoft YaHei,Arial;font-size:12.50pt"><tspan style="font-size:10.00pt" x="-12.0" y="-152.8">recv</tspan><tspan style="font-size:10.00pt" x="-25.5" y="-114.8">CPU拷贝</tspan></text></g><g transform="translate(811.606000,745.420000)" id="shape84"><path stroke="#191919" stroke-width="1" d="M.0,14.4L331.6,14.4L331.6,.0L353.2,24.0L331.6,48.0L331.6,33.6L.0,33.6L.0,14.4z" fill-rule="nonzero" fill="#ffffff"/><text xml:space="preserve" style="fill:#191919;font-family:微软雅黑,PingFang SC,Mircrosoft YaHei,Arial;font-size:12.50pt"><tspan style="font-size:10.00pt" x="107.3" y="29.5">mmap映射，零拷贝</tspan></text></g><g transform="translate(1219.005000,236.772000)" id="shape85"><path stroke="#191919" stroke-width="1" d="M596.2,357.7L596.2,.0L.0,.0L.0,357.7L596.2,357.7z" fill-rule="nonzero" fill="#cfe9d8"/><text xml:space="preserve" style="fill:#191919;font-family:微软雅黑,PingFang SC,Mircrosoft YaHei,Arial;font-size:22.50pt"><tspan style="font-size:18.00pt" x="4.1" y="29.0">用户空间</tspan></text></g><g transform="translate(1219.005000,610.984000)" id="shape86"><path stroke="#191919" stroke-width="1" d="M596.2,357.7L596.2,.0L.0,.0L.0,357.7L596.2,357.7z" fill-rule="nonzero" fill="#cbe3f8"/><text xml:space="preserve" style="fill:#191919;font-family:微软雅黑,PingFang SC,Mircrosoft YaHei,Arial;font-size:22.50pt"><tspan style="font-size:18.00pt" x="4.1" y="29.0">内核空间</tspan></text></g><g transform="translate(1219.004000,1004.571000)" id="shape87"><path stroke="#191919" stroke-width="1" d="M256.1,271.7L256.1,.0L.0,.0L.0,271.7L256.1,271.7z" fill-rule="nonzero" fill="#ffe8cd"/><text xml:space="preserve" style="fill:#191919;font-family:微软雅黑,PingFang SC,Mircrosoft YaHei,Arial;font-size:22.50pt"><tspan style="font-size:18.00pt" x="4.0" y="29.0">磁盘</tspan></text></g><g transform="translate(1559.164000,1004.571000)" id="shape88"><path stroke="#191919" stroke-width="1" d="M256.1,271.7L256.1,.0L.0,.0L.0,271.7L256.1,271.7z" fill-rule="nonzero" fill="#fedad0"/><text xml:space="preserve" style="fill:#191919;font-family:微软雅黑,PingFang SC,Mircrosoft YaHei,Arial;font-size:22.50pt"><tspan style="font-size:18.00pt" x="4.0" y="29.0">网络</tspan></text></g><g transform="translate(1353.734000,338.241000)" id="shape89"><path stroke="#191919" stroke-width="1" d="M337.7,147.8L337.7,7.0C337.7,3.1,334.6,.0,330.7,.0L7.0,.0C3.1,.0,.0,3.1,.0,7.0L.0,147.8C.0,151.7,3.1,154.8,7.0,154.8L330.7,154.8C334.6,154.8,337.7,151.7,337.7,147.8z" fill-rule="nonzero" fill="#39aa71"/><text xml:space="preserve" style="fill:#191919;font-family:微软雅黑,PingFang SC,Mircrosoft YaHei,Arial;font-size:30.00pt"><tspan style="font-size:24.00pt" x="72.9" y="89.9">用户空间缓存</tspan></text></g><g transform="translate(1332.396300,679.381000)" id="shape90"><path stroke="#191919" stroke-width="1" d="M142.7,193.1L142.7,7.0C142.7,3.1,139.6,.0,135.7,.0L7.0,.0C3.1,.0,.0,3.1,.0,7.0L.0,193.1C.0,196.9,3.1,200.1,7.0,200.1L135.7,200.1C139.6,200.1,142.7,196.9,142.7,193.1z" fill-rule="nonzero" fill="#7cc2f2"/><text xml:space="preserve" style="fill:#191919;font-family:微软雅黑,PingFang SC,Mircrosoft YaHei,Arial;font-size:30.00pt"><tspan style="font-size:24.00pt" x="23.3" y="92.5">页缓存</tspan></text></g><g transform="translate(1596.956300,679.381000)" id="shape91"><path stroke="#191919" stroke-width="1" d="M142.7,193.1L142.7,7.0C142.7,3.1,139.6,.0,135.7,.0L7.0,.0C3.1,.0,.0,3.1,.0,7.0L.0,193.1C.0,196.9,3.1,200.1,7.0,200.1L135.7,200.1C139.6,200.1,142.7,196.9,142.7,193.1z" fill-rule="nonzero" fill="#7cc2f2"/><text xml:space="preserve" style="fill:#191919;font-family:微软雅黑,PingFang SC,Mircrosoft YaHei,Arial;font-size:30.00pt"><tspan style="font-size:24.00pt" x="20.8" y="92.5">Socket</tspan><tspan style="font-size:24.00pt" x="39.3" y="133.5">缓存</tspan></text></g><g transform="translate(1297.040000,1132.924700)" id="shape92"><path stroke="#191919" stroke-width="1" d="M100.0,98.6L100.0,7.0C100.0,3.1,96.9,.0,93.0,.0L7.0,.0C3.1,.0,.0,3.1,.0,7.0L.0,98.6C.0,102.5,3.1,105.6,7.0,105.6L93.0,105.6C96.9,105.6,100.0,102.5,100.0,98.6z" fill-rule="nonzero" fill="#ffffff"/><text xml:space="preserve" style="fill:#191919;font-family:微软雅黑,PingFang SC,Mircrosoft YaHei,Arial;font-size:30.00pt"><tspan style="font-size:24.00pt" x="18.0" y="45.0">磁盘</tspan><tspan style="font-size:24.00pt" x="18.0" y="86.0">文件</tspan></text></g><g transform="translate(1637.200000,1130.644700)" id="shape93"><path stroke="#191919" stroke-width="1" d="M100.0,98.6L100.0,7.0C100.0,3.1,96.9,.0,93.0,.0L7.0,.0C3.1,.0,.0,3.1,.0,7.0L.0,98.6C.0,102.5,3.1,105.6,7.0,105.6L93.0,105.6C96.9,105.6,100.0,102.5,100.0,98.6z" fill-rule="nonzero" fill="#ffffff"/><text xml:space="preserve" style="fill:#191919;font-family:微软雅黑,PingFang SC,Mircrosoft YaHei,Arial;font-size:30.00pt"><tspan style="font-size:24.00pt" x="18.0" y="45.0">网络</tspan><tspan style="font-size:24.00pt" x="18.0" y="86.0">设备</tspan></text></g><g transform="translate(1347.040000,1132.920000)" id="shape94"><path stroke="#191919" stroke-width="1" d="M.0,.0L.0,-225.0L56.0,-225.0L56.0,-247.0" fill="none"/><path stroke="#191919" stroke-width="1" stroke-linecap="round" d="M53.0,-247.0L56.0,-253.0L59.0,-247.0L53.0,-247.0" fill="#191919"/><rect width="62.0" height="19.0" x="-30.0" y="-121.3" fill="#ffffff"/><text xml:space="preserve" style="fill:#191919;font-family:微软雅黑,PingFang SC,Mircrosoft YaHei,Arial;font-size:12.50pt"><tspan style="font-size:10.00pt" x="-30.0" y="-106.3">DMA 拷贝</tspan></text></g><g transform="translate(1687.200000,1130.640000)" id="shape95"><path stroke="#191919" stroke-width="1" d="M.0,.0L.0,-223.0L-19.0,-223.0L-19.0,-245.0" fill="none"/><path stroke="#191919" stroke-width="1" stroke-linecap="round" d="M-22.0,-245.0L-19.0,-251.0L-16.0,-245.0L-22.0,-245.0" fill="#191919"/><rect width="58.0" height="19.0" x="-28.0" y="-120.8" fill="#ffffff"/><text xml:space="preserve" style="fill:#191919;font-family:微软雅黑,PingFang SC,Mircrosoft YaHei,Arial;font-size:12.50pt"><tspan style="font-size:10.00pt" x="-28.0" y="-105.8">DMA拷贝</tspan></text></g><g transform="translate(1353.740000,788.564700)" id="shape96"><path stroke="#191919" stroke-width="1" d="M100.0,24.8L100.0,7.0C100.0,3.1,96.9,.0,93.0,.0L7.0,.0C3.1,.0,.0,3.1,.0,7.0L.0,24.8C.0,28.7,3.1,31.8,7.0,31.8L93.0,31.8C96.9,31.8,100.0,28.7,100.0,24.8z" fill-rule="nonzero" fill="#ffffff"/><text xml:space="preserve" style="fill:#191919;font-family:微软雅黑,PingFang SC,Mircrosoft YaHei,Arial;font-size:12.50pt"><tspan style="font-size:10.00pt" x="28.0" y="21.5">CACHE</tspan></text></g><g transform="translate(1353.740000,828.745700)" id="shape97"><path stroke="#191919" stroke-width="1" d="M100.0,24.8L100.0,7.0C100.0,3.1,96.9,.0,93.0,.0L7.0,.0C3.1,.0,.0,3.1,.0,7.0L.0,24.8C.0,28.7,3.1,31.8,7.0,31.8L93.0,31.8C96.9,31.8,100.0,28.7,100.0,24.8z" fill-rule="nonzero" fill="#ffffff"/><text xml:space="preserve" style="fill:#191919;font-family:微软雅黑,PingFang SC,Mircrosoft YaHei,Arial;font-size:12.50pt"><tspan style="font-size:10.00pt" x="26.5" y="21.5">BUFFER</tspan></text></g><g transform="translate(1403.740000,679.381000)" id="shape98"><path stroke="#191919" stroke-width="1" d="M.0,-5.0L.0,-159.0L118.0,-159.0L118.0,-181.0" fill="none"/><path stroke="#191919" stroke-width="1" stroke-linecap="round" d="M5.0,-5.0L.0,.0L-5.0,-5.0L5.0,-5.0" fill="#191919"/><path stroke="#191919" stroke-width="1" stroke-linecap="round" d="M114.0,-181.0L118.0,-185.0L122.0,-181.0L114.0,-181.0" fill="#191919"/><rect width="156.0" height="19.0" x="-77.0" y="-122.1" fill="#ffffff"/><text xml:space="preserve" style="fill:#191919;font-family:微软雅黑,PingFang SC,Mircrosoft YaHei,Arial;font-size:12.50pt"><tspan style="font-size:10.00pt" x="-77.0" y="-107.1">用户空间共享内核空间数据</tspan></text></g><g transform="translate(1475.080000,716.898000)" id="shape99"><path stroke="#191919" stroke-width="1" d="M.0,.0L114.0,.0" fill="none"/><path stroke="#191919" stroke-width="1" stroke-linecap="round" d="M114.0,-3.0L120.0,.0L114.0,3.0L114.0,-3.0" fill="#191919"/><rect width="53.0" height="19.0" x="33.9" y="-9.5" fill="#ffffff"/><text xml:space="preserve" style="fill:#191919;font-family:微软雅黑,PingFang SC,Mircrosoft YaHei,Arial;font-size:12.50pt"><tspan style="font-size:10.00pt" x="33.9" y="5.5">CPU拷贝</tspan></text></g><g transform="translate(1187.248000,111.181000)" id="shape100"><rect width="255.0" height="19.0" x="124.6" y="30.5" fill="#ffff00"/><text xml:space="preserve" style="fill:#e54648;font-family:微软雅黑,PingFang SC,Mircrosoft YaHei,Arial;font-size:12.50pt;font-weight:bold"><tspan style="font-size:10.00pt" x="124.6" y="45.5">mmap映射只能用于文件，不能用于socket</tspan></text></g></g></svg>