<svg xmlns="http://www.w3.org/2000/svg" xmlns:ev="http://www.w3.org/2001/xml-events" viewBox="0 0 2255 804" width="2255" xmlns:xlink="http://www.w3.org/1999/xlink" height="804"><defs/><g transform="translate(5.5,5.5)" id="page1"><rect width="2245" height="794" x="0" y="0" fill="none"/><g transform="translate(117.000000,76.000000)" id="shape1"><path stroke="#101843" stroke-width="1" d="M214.0,526.0L214.0,7.0C214.0,3.1,210.9,.0,207.0,.0L7.0,.0C3.1,.0,.0,3.1,.0,7.0L.0,526.0C.0,529.9,3.1,533.0,7.0,533.0L207.0,533.0C210.9,533.0,214.0,529.9,214.0,526.0z" fill-rule="nonzero" fill="#ffffff"/><text xml:space="preserve" style="fill:#191919;font-family:微软雅黑,PingFang SC,Mircrosoft YaHei,Arial;font-size:12.50pt"><tspan style="font-size:10.00pt" x="4.0" y="19.0">SLF4J</tspan><tspan style="font-size:10.00pt" x="4.0" y="38.0">未绑定</tspan></text></g><g transform="translate(142.000000,140.000000)" id="shape2"><path stroke="#101843" stroke-width="1" d="M175.0,32.0L175.0,.0L.0,.0L.0,32.0L175.0,32.0z" fill-rule="nonzero" fill="#d0f0ea"/><text xml:space="preserve" style="fill:#191919;font-family:微软雅黑,PingFang SC,Mircrosoft YaHei,Arial;font-size:12.50pt"><tspan style="font-size:10.00pt" x="46.5" y="21.5">Java 应用程序</tspan></text></g><g transform="translate(142.000000,217.000000)" id="shape3"><path stroke="#101843" stroke-width="1" d="M175.0,62.0L175.0,.0L.0,.0L.0,62.0L175.0,62.0z" fill-rule="nonzero" fill="#c5dcff"/><text xml:space="preserve" style="fill:#191919;font-family:微软雅黑,PingFang SC,Mircrosoft YaHei,Arial;font-size:12.50pt"><tspan style="font-size:10.00pt" x="4.0" y="19.0">SLF4J API</tspan></text></g><g transform="translate(194.000000,247.000000)" id="shape4"><path stroke="#101843" stroke-width="1" d="M123.0,32.0L123.0,.0L.0,.0L.0,32.0L123.0,32.0z" fill-rule="nonzero" fill="#7ba9e1"/><text xml:space="preserve" style="fill:#191919;font-family:微软雅黑,PingFang SC,Mircrosoft YaHei,Arial;font-size:12.50pt"><tspan style="font-size:10.00pt" x="28.0" y="21.5">slf4j-api.jar</tspan></text></g><g transform="translate(142.000000,319.000000)" id="shape5"><path stroke="#101843" stroke-width="1" d="M175.0,62.0L175.0,.0L.0,.0L.0,62.0L175.0,62.0z" fill-rule="nonzero" fill="#ffffff"/><text xml:space="preserve" style="fill:#191919;font-family:微软雅黑,PingFang SC,Mircrosoft YaHei,Arial;font-size:12.50pt"><tspan style="font-size:10.00pt" x="59.5" y="36.5">/dev/null</tspan></text></g><g transform="translate(229.000000,172.000000)" id="shape6"><path stroke="#191919" stroke-width="2.6666700839996338" d="M.0,.0L.0,35.2" fill="none"/><path stroke="#191919" stroke-width="1" stroke-linecap="round" d="M4.9,35.2L.0,45.0L-4.9,35.2L4.9,35.2" fill="#191919"/></g><g transform="translate(229.000000,279.000000)" id="shape7"><path stroke="#191919" stroke-width="2.6666700839996338" d="M.0,.0L.0,30.2" fill="none"/><path stroke="#191919" stroke-width="1" stroke-linecap="round" d="M4.9,30.2L.0,40.0L-4.9,30.2L4.9,30.2" fill="#191919"/></g><g transform="translate(380.000000,76.000000)" id="shape8"><path stroke="#101843" stroke-width="1" d="M214.0,526.0L214.0,7.0C214.0,3.1,210.9,.0,207.0,.0L7.0,.0C3.1,.0,.0,3.1,.0,7.0L.0,526.0C.0,529.9,3.1,533.0,7.0,533.0L207.0,533.0C210.9,533.0,214.0,529.9,214.0,526.0z" fill-rule="nonzero" fill="#ffffff"/><text xml:space="preserve" style="fill:#191919;font-family:微软雅黑,PingFang SC,Mircrosoft YaHei,Arial;font-size:12.50pt"><tspan style="font-size:10.00pt" x="4.0" y="19.0">SLF4J 绑定到</tspan><tspan style="font-size:10.00pt" x="4.0" y="38.0">slf4j-simple</tspan></text></g><g transform="translate(405.000000,140.000000)" id="shape9"><path stroke="#101843" stroke-width="1" d="M175.0,32.0L175.0,.0L.0,.0L.0,32.0L175.0,32.0z" fill-rule="nonzero" fill="#d0f0ea"/><text xml:space="preserve" style="fill:#191919;font-family:微软雅黑,PingFang SC,Mircrosoft YaHei,Arial;font-size:12.50pt"><tspan style="font-size:10.00pt" x="46.5" y="21.5">Java 应用程序</tspan></text></g><g transform="translate(405.000000,217.000000)" id="shape10"><path stroke="#101843" stroke-width="1" d="M175.0,62.0L175.0,.0L.0,.0L.0,62.0L175.0,62.0z" fill-rule="nonzero" fill="#c5dcff"/><text xml:space="preserve" style="fill:#191919;font-family:微软雅黑,PingFang SC,Mircrosoft YaHei,Arial;font-size:12.50pt"><tspan style="font-size:10.00pt" x="4.0" y="19.0">SLF4J API</tspan></text></g><g transform="translate(457.000000,247.000000)" id="shape11"><path stroke="#101843" stroke-width="1" d="M123.0,32.0L123.0,.0L.0,.0L.0,32.0L123.0,32.0z" fill-rule="nonzero" fill="#7ba9e1"/><text xml:space="preserve" style="fill:#191919;font-family:微软雅黑,PingFang SC,Mircrosoft YaHei,Arial;font-size:12.50pt"><tspan style="font-size:10.00pt" x="28.0" y="21.5">slf4j-api.jar</tspan></text></g><g transform="translate(405.000000,472.000000)" id="shape12"><path stroke="#101843" stroke-width="2.6666700839996338" d="M175.0,111.0L175.0,.0L.0,.0L.0,111.0L175.0,111.0z" fill-rule="nonzero" fill="#fff6e9"/><text xml:space="preserve" style="fill:#191919;font-family:微软雅黑,PingFang SC,Mircrosoft YaHei,Arial;font-size:12.50pt"><tspan style="font-size:10.00pt" x="48.5" y="32.5">底层日志框架</tspan></text></g><g transform="translate(492.500000,172.000000)" id="shape13"><path stroke="#191919" stroke-width="2.6666700839996338" d="M.0,.0L.0,35.2" fill="none"/><path stroke="#191919" stroke-width="1" stroke-linecap="round" d="M4.9,35.2L.0,45.0L-4.9,35.2L4.9,35.2" fill="#191919"/></g><g transform="translate(492.500000,279.000000)" id="shape14"><path stroke="#191919" stroke-width="2.6666700839996338" d="M.0,.0L.0,183.2" fill="none"/><path stroke="#191919" stroke-width="1" stroke-linecap="round" d="M4.9,183.2L.0,193.0L-4.9,183.2L4.9,183.2" fill="#191919"/></g><g transform="translate(457.000000,531.000000)" id="shape15"><path stroke="#ff0000" stroke-width="4" d="M123.0,52.0L123.0,.0L.0,.0L.0,52.0L123.0,52.0z" fill-rule="nonzero" fill="#bc953b"/><text xml:space="preserve" style="fill:#191919;font-family:微软雅黑,PingFang SC,Mircrosoft YaHei,Arial;font-size:12.50pt"><tspan style="font-size:10.00pt" x="4.0" y="31.5">slf4j-simple.jar</tspan></text></g><g transform="translate(638.000000,76.000000)" id="shape16"><path stroke="#101843" stroke-width="1" d="M214.0,526.0L214.0,7.0C214.0,3.1,210.9,.0,207.0,.0L7.0,.0C3.1,.0,.0,3.1,.0,7.0L.0,526.0C.0,529.9,3.1,533.0,7.0,533.0L207.0,533.0C210.9,533.0,214.0,529.9,214.0,526.0z" fill-rule="nonzero" fill="#ffffff"/><text xml:space="preserve" style="fill:#191919;font-family:微软雅黑,PingFang SC,Mircrosoft YaHei,Arial;font-size:12.50pt"><tspan style="font-size:10.00pt" x="4.0" y="19.0">SLF4J 绑定到</tspan><tspan style="font-size:10.00pt" x="4.0" y="38.0">no-operation</tspan></text></g><g transform="translate(663.000000,140.000000)" id="shape17"><path stroke="#101843" stroke-width="1" d="M175.0,32.0L175.0,.0L.0,.0L.0,32.0L175.0,32.0z" fill-rule="nonzero" fill="#d0f0ea"/><text xml:space="preserve" style="fill:#191919;font-family:微软雅黑,PingFang SC,Mircrosoft YaHei,Arial;font-size:12.50pt"><tspan style="font-size:10.00pt" x="46.5" y="21.5">Java 应用程序</tspan></text></g><g transform="translate(663.000000,217.000000)" id="shape18"><path stroke="#101843" stroke-width="1" d="M175.0,62.0L175.0,.0L.0,.0L.0,62.0L175.0,62.0z" fill-rule="nonzero" fill="#c5dcff"/><text xml:space="preserve" style="fill:#191919;font-family:微软雅黑,PingFang SC,Mircrosoft YaHei,Arial;font-size:12.50pt"><tspan style="font-size:10.00pt" x="4.0" y="19.0">SLF4J API</tspan></text></g><g transform="translate(715.000000,247.000000)" id="shape19"><path stroke="#101843" stroke-width="1" d="M123.0,32.0L123.0,.0L.0,.0L.0,32.0L123.0,32.0z" fill-rule="nonzero" fill="#7ba9e1"/><text xml:space="preserve" style="fill:#191919;font-family:微软雅黑,PingFang SC,Mircrosoft YaHei,Arial;font-size:12.50pt"><tspan style="font-size:10.00pt" x="28.0" y="21.5">slf4j-api.jar</tspan></text></g><g transform="translate(663.000000,472.000000)" id="shape20"><path stroke="#101843" stroke-width="2.6666700839996338" d="M175.0,111.0L175.0,.0L.0,.0L.0,111.0L175.0,111.0z" fill-rule="nonzero" fill="#fff6e9"/><text xml:space="preserve" style="fill:#191919;font-family:微软雅黑,PingFang SC,Mircrosoft YaHei,Arial;font-size:12.50pt"><tspan style="font-size:10.00pt" x="48.5" y="32.5">底层日志框架</tspan></text></g><g transform="translate(750.500000,172.000000)" id="shape21"><path stroke="#191919" stroke-width="2.6666700839996338" d="M.0,.0L.0,35.2" fill="none"/><path stroke="#191919" stroke-width="1" stroke-linecap="round" d="M4.9,35.2L.0,45.0L-4.9,35.2L4.9,35.2" fill="#191919"/></g><g transform="translate(750.500000,279.000000)" id="shape22"><path stroke="#191919" stroke-width="2.6666700839996338" d="M.0,.0L.0,183.2" fill="none"/><path stroke="#191919" stroke-width="1" stroke-linecap="round" d="M4.9,183.2L.0,193.0L-4.9,183.2L4.9,183.2" fill="#191919"/></g><g transform="translate(715.000000,531.000000)" id="shape23"><path stroke="#ff0000" stroke-width="4" d="M123.0,52.0L123.0,.0L.0,.0L.0,52.0L123.0,52.0z" fill-rule="nonzero" fill="#bc953b"/><text xml:space="preserve" style="fill:#191919;font-family:微软雅黑,PingFang SC,Mircrosoft YaHei,Arial;font-size:12.50pt"><tspan style="font-size:10.00pt" x="4.0" y="31.5">slf4j-nop.jar</tspan></text></g><g transform="translate(895.000000,76.000000)" id="shape24"><path stroke="#101843" stroke-width="1" d="M214.0,517.0L214.0,7.0C214.0,3.1,210.9,.0,207.0,.0L7.0,.0C3.1,.0,.0,3.1,.0,7.0L.0,517.0C.0,520.9,3.1,524.0,7.0,524.0L207.0,524.0C210.9,524.0,214.0,520.9,214.0,517.0z" fill-rule="nonzero" fill="#ffffff"/><text xml:space="preserve" style="fill:#191919;font-family:微软雅黑,PingFang SC,Mircrosoft YaHei,Arial;font-size:12.50pt"><tspan style="font-size:10.00pt" x="4.0" y="19.0">SLF4J 绑定到</tspan><tspan style="font-size:10.00pt" x="4.0" y="38.0">logback</tspan></text></g><g transform="translate(920.000000,140.000000)" id="shape25"><path stroke="#101843" stroke-width="1" d="M175.0,32.0L175.0,.0L.0,.0L.0,32.0L175.0,32.0z" fill-rule="nonzero" fill="#d0f0ea"/><text xml:space="preserve" style="fill:#191919;font-family:微软雅黑,PingFang SC,Mircrosoft YaHei,Arial;font-size:12.50pt"><tspan style="font-size:10.00pt" x="46.5" y="21.5">Java 应用程序</tspan></text></g><g transform="translate(920.000000,217.000000)" id="shape26"><path stroke="#101843" stroke-width="1" d="M175.0,62.0L175.0,.0L.0,.0L.0,62.0L175.0,62.0z" fill-rule="nonzero" fill="#c5dcff"/><text xml:space="preserve" style="fill:#191919;font-family:微软雅黑,PingFang SC,Mircrosoft YaHei,Arial;font-size:12.50pt"><tspan style="font-size:10.00pt" x="4.0" y="19.0">SLF4J API</tspan></text></g><g transform="translate(972.000000,247.000000)" id="shape27"><path stroke="#101843" stroke-width="1" d="M123.0,32.0L123.0,.0L.0,.0L.0,32.0L123.0,32.0z" fill-rule="nonzero" fill="#7ba9e1"/><text xml:space="preserve" style="fill:#191919;font-family:微软雅黑,PingFang SC,Mircrosoft YaHei,Arial;font-size:12.50pt"><tspan style="font-size:10.00pt" x="28.0" y="21.5">slf4j-api.jar</tspan></text></g><g transform="translate(920.000000,472.000000)" id="shape28"><path stroke="#101843" stroke-width="2.6666700839996338" d="M175.0,111.0L175.0,.0L.0,.0L.0,111.0L175.0,111.0z" fill-rule="nonzero" fill="#fff6e9"/><text xml:space="preserve" style="fill:#191919;font-family:微软雅黑,PingFang SC,Mircrosoft YaHei,Arial;font-size:12.50pt"><tspan style="font-size:10.00pt" x="48.5" y="32.5">底层日志框架</tspan></text></g><g transform="translate(1007.500000,172.000000)" id="shape29"><path stroke="#191919" stroke-width="2.6666700839996338" d="M.0,.0L.0,35.2" fill="none"/><path stroke="#191919" stroke-width="1" stroke-linecap="round" d="M4.9,35.2L.0,45.0L-4.9,35.2L4.9,35.2" fill="#191919"/></g><g transform="translate(1007.500000,279.000000)" id="shape30"><path stroke="#191919" stroke-width="2.6666700839996338" d="M.0,.0L.0,183.2" fill="none"/><path stroke="#191919" stroke-width="1" stroke-linecap="round" d="M4.9,183.2L.0,193.0L-4.9,183.2L4.9,183.2" fill="#191919"/></g><g transform="translate(972.000000,531.000000)" id="shape31"><path stroke="#ff0000" stroke-width="4" d="M123.0,52.0L123.0,.0L.0,.0L.0,52.0L123.0,52.0z" fill-rule="nonzero" fill="#bc953b"/><text xml:space="preserve" style="fill:#191919;font-family:微软雅黑,PingFang SC,Mircrosoft YaHei,Arial;font-size:12.50pt"><tspan style="font-size:10.00pt" x="4.0" y="22.0">logback-core.jar</tspan><tspan style="font-size:10.00pt" x="4.0" y="41.0">logback-classic.jar</tspan></text></g><g transform="translate(1398.000000,80.500000)" id="shape32"><path stroke="#101843" stroke-width="1" d="M214.0,517.0L214.0,7.0C214.0,3.1,210.9,.0,207.0,.0L7.0,.0C3.1,.0,.0,3.1,.0,7.0L.0,517.0C.0,520.9,3.1,524.0,7.0,524.0L207.0,524.0C210.9,524.0,214.0,520.9,214.0,517.0z" fill-rule="nonzero" fill="#ffffff"/><text xml:space="preserve" style="fill:#191919;font-family:微软雅黑,PingFang SC,Mircrosoft YaHei,Arial;font-size:12.50pt"><tspan style="font-size:10.00pt" x="4.0" y="19.0">SLF4J 绑定到</tspan><tspan style="font-size:10.00pt" x="4.0" y="38.0">reload4j</tspan></text></g><g transform="translate(1423.000000,144.500000)" id="shape33"><path stroke="#101843" stroke-width="1" d="M175.0,32.0L175.0,.0L.0,.0L.0,32.0L175.0,32.0z" fill-rule="nonzero" fill="#d0f0ea"/><text xml:space="preserve" style="fill:#191919;font-family:微软雅黑,PingFang SC,Mircrosoft YaHei,Arial;font-size:12.50pt"><tspan style="font-size:10.00pt" x="46.5" y="21.5">Java 应用程序</tspan></text></g><g transform="translate(1423.000000,221.500000)" id="shape34"><path stroke="#101843" stroke-width="1" d="M175.0,62.0L175.0,.0L.0,.0L.0,62.0L175.0,62.0z" fill-rule="nonzero" fill="#c5dcff"/><text xml:space="preserve" style="fill:#191919;font-family:微软雅黑,PingFang SC,Mircrosoft YaHei,Arial;font-size:12.50pt"><tspan style="font-size:10.00pt" x="4.0" y="19.0">SLF4J API</tspan></text></g><g transform="translate(1475.000000,251.500000)" id="shape35"><path stroke="#101843" stroke-width="1" d="M123.0,32.0L123.0,.0L.0,.0L.0,32.0L123.0,32.0z" fill-rule="nonzero" fill="#7ba9e1"/><text xml:space="preserve" style="fill:#191919;font-family:微软雅黑,PingFang SC,Mircrosoft YaHei,Arial;font-size:12.50pt"><tspan style="font-size:10.00pt" x="28.0" y="21.5">slf4j-api.jar</tspan></text></g><g transform="translate(1423.000000,323.500000)" id="shape36"><path stroke="#101843" stroke-width="1" d="M175.0,111.0L175.0,.0L.0,.0L.0,111.0L175.0,111.0z" fill-rule="nonzero" fill="#ffd8d7"/><text xml:space="preserve" style="fill:#191919;font-family:微软雅黑,PingFang SC,Mircrosoft YaHei,Arial;font-size:12.50pt"><tspan style="font-size:10.00pt" x="68.0" y="32.5">适配层</tspan></text></g><g transform="translate(1510.500000,176.500000)" id="shape37"><path stroke="#191919" stroke-width="2.6666700839996338" d="M.0,.0L.0,35.2" fill="none"/><path stroke="#191919" stroke-width="1" stroke-linecap="round" d="M4.9,35.2L.0,45.0L-4.9,35.2L4.9,35.2" fill="#191919"/></g><g transform="translate(1510.500000,283.500000)" id="shape38"><path stroke="#191919" stroke-width="2.6666700839996338" d="M.0,.0L.0,30.2" fill="none"/><path stroke="#191919" stroke-width="1" stroke-linecap="round" d="M4.9,30.2L.0,40.0L-4.9,30.2L4.9,30.2" fill="#191919"/></g><g transform="translate(1475.000000,382.500000)" id="shape39"><path stroke="#101843" stroke-width="1" d="M123.0,52.0L123.0,.0L.0,.0L.0,52.0L123.0,52.0z" fill-rule="nonzero" fill="#e16e6a"/><text xml:space="preserve" style="fill:#191919;font-family:微软雅黑,PingFang SC,Mircrosoft YaHei,Arial;font-size:12.50pt"><tspan style="font-size:10.00pt" x="4.0" y="31.5">slf4j-reload4j.jar</tspan></text></g><g transform="translate(1423.000000,476.500000)" id="shape40"><path stroke="#101843" stroke-width="2.6666700839996338" d="M175.0,111.0L175.0,.0L.0,.0L.0,111.0L175.0,111.0z" fill-rule="nonzero" fill="#fff6e9"/><text xml:space="preserve" style="fill:#191919;font-family:微软雅黑,PingFang SC,Mircrosoft YaHei,Arial;font-size:12.50pt"><tspan style="font-size:10.00pt" x="48.5" y="32.5">底层日志框架</tspan></text></g><g transform="translate(1475.000000,535.500000)" id="shape41"><path stroke="#101843" stroke-width="4" d="M123.0,52.0L123.0,.0L.0,.0L.0,52.0L123.0,52.0z" fill-rule="nonzero" fill="#bc953b"/><text xml:space="preserve" style="fill:#191919;font-family:微软雅黑,PingFang SC,Mircrosoft YaHei,Arial;font-size:12.50pt"><tspan style="font-size:10.00pt" x="4.0" y="31.5">reload4j.jar</tspan></text></g><g transform="translate(1510.500000,434.500000)" id="shape42"><path stroke="#191919" stroke-width="2.6666700839996338" d="M.0,.0L.0,32.2" fill="none"/><path stroke="#191919" stroke-width="1" stroke-linecap="round" d="M4.9,32.2L.0,42.0L-4.9,32.2L4.9,32.2" fill="#191919"/></g><g transform="translate(1657.000000,80.500000)" id="shape43"><path stroke="#101843" stroke-width="1" d="M214.0,517.0L214.0,7.0C214.0,3.1,210.9,.0,207.0,.0L7.0,.0C3.1,.0,.0,3.1,.0,7.0L.0,517.0C.0,520.9,3.1,524.0,7.0,524.0L207.0,524.0C210.9,524.0,214.0,520.9,214.0,517.0z" fill-rule="nonzero" fill="#ffffff"/><text xml:space="preserve" style="fill:#191919;font-family:微软雅黑,PingFang SC,Mircrosoft YaHei,Arial;font-size:12.50pt"><tspan style="font-size:10.00pt" x="4.0" y="19.0">SLF4J 绑定到</tspan><tspan style="font-size:10.00pt" x="4.0" y="38.0">java.util.logging</tspan></text></g><g transform="translate(1682.000000,144.500000)" id="shape44"><path stroke="#101843" stroke-width="1" d="M175.0,32.0L175.0,.0L.0,.0L.0,32.0L175.0,32.0z" fill-rule="nonzero" fill="#d0f0ea"/><text xml:space="preserve" style="fill:#191919;font-family:微软雅黑,PingFang SC,Mircrosoft YaHei,Arial;font-size:12.50pt"><tspan style="font-size:10.00pt" x="46.5" y="21.5">Java 应用程序</tspan></text></g><g transform="translate(1682.000000,221.500000)" id="shape45"><path stroke="#101843" stroke-width="1" d="M175.0,62.0L175.0,.0L.0,.0L.0,62.0L175.0,62.0z" fill-rule="nonzero" fill="#c5dcff"/><text xml:space="preserve" style="fill:#191919;font-family:微软雅黑,PingFang SC,Mircrosoft YaHei,Arial;font-size:12.50pt"><tspan style="font-size:10.00pt" x="4.0" y="19.0">SLF4J API</tspan></text></g><g transform="translate(1734.000000,251.500000)" id="shape46"><path stroke="#101843" stroke-width="1" d="M123.0,32.0L123.0,.0L.0,.0L.0,32.0L123.0,32.0z" fill-rule="nonzero" fill="#7ba9e1"/><text xml:space="preserve" style="fill:#191919;font-family:微软雅黑,PingFang SC,Mircrosoft YaHei,Arial;font-size:12.50pt"><tspan style="font-size:10.00pt" x="28.0" y="21.5">slf4j-api.jar</tspan></text></g><g transform="translate(1682.000000,323.500000)" id="shape47"><path stroke="#101843" stroke-width="1" d="M175.0,111.0L175.0,.0L.0,.0L.0,111.0L175.0,111.0z" fill-rule="nonzero" fill="#ffd8d7"/><text xml:space="preserve" style="fill:#191919;font-family:微软雅黑,PingFang SC,Mircrosoft YaHei,Arial;font-size:12.50pt"><tspan style="font-size:10.00pt" x="68.0" y="32.5">适配层</tspan></text></g><g transform="translate(1769.500000,176.500000)" id="shape48"><path stroke="#191919" stroke-width="2.6666700839996338" d="M.0,.0L.0,35.2" fill="none"/><path stroke="#191919" stroke-width="1" stroke-linecap="round" d="M4.9,35.2L.0,45.0L-4.9,35.2L4.9,35.2" fill="#191919"/></g><g transform="translate(1769.500000,283.500000)" id="shape49"><path stroke="#191919" stroke-width="2.6666700839996338" d="M.0,.0L.0,30.2" fill="none"/><path stroke="#191919" stroke-width="1" stroke-linecap="round" d="M4.9,30.2L.0,40.0L-4.9,30.2L4.9,30.2" fill="#191919"/></g><g transform="translate(1734.000000,382.500000)" id="shape50"><path stroke="#101843" stroke-width="1" d="M123.0,52.0L123.0,.0L.0,.0L.0,52.0L123.0,52.0z" fill-rule="nonzero" fill="#e16e6a"/><text xml:space="preserve" style="fill:#191919;font-family:微软雅黑,PingFang SC,Mircrosoft YaHei,Arial;font-size:12.50pt"><tspan style="font-size:10.00pt" x="4.0" y="31.5">slf4j-jdk14j.jar</tspan></text></g><g transform="translate(1682.000000,476.500000)" id="shape51"><path stroke="#101843" stroke-width="2.6666700839996338" d="M175.0,111.0L175.0,.0L.0,.0L.0,111.0L175.0,111.0z" fill-rule="nonzero" fill="#fff6e9"/><text xml:space="preserve" style="fill:#191919;font-family:微软雅黑,PingFang SC,Mircrosoft YaHei,Arial;font-size:12.50pt"><tspan style="font-size:10.00pt" x="48.5" y="32.5">底层日志框架</tspan></text></g><g transform="translate(1734.000000,535.500000)" id="shape52"><path stroke="#101843" stroke-width="4" d="M123.0,52.0L123.0,.0L.0,.0L.0,52.0L123.0,52.0z" fill-rule="nonzero" fill="#bc953b"/><text xml:space="preserve" style="fill:#191919;font-family:微软雅黑,PingFang SC,Mircrosoft YaHei,Arial;font-size:12.50pt"><tspan style="font-size:10.00pt" x="4.0" y="31.5">JVM Runtime</tspan></text></g><g transform="translate(1769.500000,434.500000)" id="shape53"><path stroke="#191919" stroke-width="2.6666700839996338" d="M.0,.0L.0,32.2" fill="none"/><path stroke="#191919" stroke-width="1" stroke-linecap="round" d="M4.9,32.2L.0,42.0L-4.9,32.2L4.9,32.2" fill="#191919"/></g><g transform="matrix(0.000000,1.000000,-1.000000,0.000000,1110.000000,619.000000)" id="shape54"><path stroke="#ff0000" stroke-width="4" d="M.0,.0L9.5,.0C12.1,-0.4,14.8,.5,16.6,2.4C18.5,4.2,19.4,6.9,19.0,9.5L19.0,355.5C18.6,358.1,19.5,360.7,21.4,362.6C23.2,364.5,25.9,365.3,28.5,365.0C25.9,364.6,23.2,365.5,21.4,367.3C19.5,369.2,18.6,371.8,19.0,374.5L19.0,720.4C19.4,723.0,18.5,725.7,16.6,727.5C14.8,729.4,12.1,730.3,9.5,729.9L.0,729.9" fill="none"/><text xml:space="preserve" style="fill:#c00000;font-family:微软雅黑,PingFang SC,Mircrosoft YaHei,Arial;font-size:17.50pt" transform="matrix(0.00,-1.00,1.00,0.00,-315.0,415.0)"><tspan style="font-size:14.00pt" x="-158.0" y="372.5">底层日志框架实现了SLF4J-API 不需要引入适配层</tspan></text></g><g transform="translate(1146.500000,80.500000)" id="shape55"><path stroke="#101843" stroke-width="1" d="M214.0,517.0L214.0,7.0C214.0,3.1,210.9,.0,207.0,.0L7.0,.0C3.1,.0,.0,3.1,.0,7.0L.0,517.0C.0,520.9,3.1,524.0,7.0,524.0L207.0,524.0C210.9,524.0,214.0,520.9,214.0,517.0z" fill-rule="nonzero" fill="#ffffff"/><text xml:space="preserve" style="fill:#191919;font-family:微软雅黑,PingFang SC,Mircrosoft YaHei,Arial;font-size:12.50pt"><tspan style="font-size:10.00pt" x="4.0" y="19.0">SLF4J 绑定到</tspan><tspan style="font-size:10.00pt" x="4.0" y="38.0">log4j2</tspan></text></g><g transform="translate(1171.500000,144.500000)" id="shape56"><path stroke="#101843" stroke-width="1" d="M175.0,32.0L175.0,.0L.0,.0L.0,32.0L175.0,32.0z" fill-rule="nonzero" fill="#d0f0ea"/><text xml:space="preserve" style="fill:#191919;font-family:微软雅黑,PingFang SC,Mircrosoft YaHei,Arial;font-size:12.50pt"><tspan style="font-size:10.00pt" x="46.5" y="21.5">Java 应用程序</tspan></text></g><g transform="translate(1171.500000,221.500000)" id="shape57"><path stroke="#101843" stroke-width="1" d="M175.0,62.0L175.0,.0L.0,.0L.0,62.0L175.0,62.0z" fill-rule="nonzero" fill="#c5dcff"/><text xml:space="preserve" style="fill:#191919;font-family:微软雅黑,PingFang SC,Mircrosoft YaHei,Arial;font-size:12.50pt"><tspan style="font-size:10.00pt" x="4.0" y="19.0">SLF4J API</tspan></text></g><g transform="translate(1223.500000,251.500000)" id="shape58"><path stroke="#101843" stroke-width="1" d="M123.0,32.0L123.0,.0L.0,.0L.0,32.0L123.0,32.0z" fill-rule="nonzero" fill="#7ba9e1"/><text xml:space="preserve" style="fill:#191919;font-family:微软雅黑,PingFang SC,Mircrosoft YaHei,Arial;font-size:12.50pt"><tspan style="font-size:10.00pt" x="28.0" y="21.5">slf4j-api.jar</tspan></text></g><g transform="translate(1171.500000,323.500000)" id="shape59"><path stroke="#101843" stroke-width="1" d="M175.0,111.0L175.0,.0L.0,.0L.0,111.0L175.0,111.0z" fill-rule="nonzero" fill="#ffd8d7"/><text xml:space="preserve" style="fill:#191919;font-family:微软雅黑,PingFang SC,Mircrosoft YaHei,Arial;font-size:12.50pt"><tspan style="font-size:10.00pt" x="68.0" y="32.5">适配层</tspan></text></g><g transform="translate(1259.000000,176.500000)" id="shape60"><path stroke="#191919" stroke-width="2.6666700839996338" d="M.0,.0L.0,35.2" fill="none"/><path stroke="#191919" stroke-width="1" stroke-linecap="round" d="M4.9,35.2L.0,45.0L-4.9,35.2L4.9,35.2" fill="#191919"/></g><g transform="translate(1259.000000,283.500000)" id="shape61"><path stroke="#191919" stroke-width="2.6666700839996338" d="M.0,.0L.0,30.2" fill="none"/><path stroke="#191919" stroke-width="1" stroke-linecap="round" d="M4.9,30.2L.0,40.0L-4.9,30.2L4.9,30.2" fill="#191919"/></g><g transform="translate(1209.000000,382.500000)" id="shape62"><path stroke="#101843" stroke-width="1" d="M137.5,52.0L137.5,.0L.0,.0L.0,52.0L137.5,52.0z" fill-rule="nonzero" fill="#e16e6a"/><text xml:space="preserve" style="fill:#191919;font-family:微软雅黑,PingFang SC,Mircrosoft YaHei,Arial;font-size:12.50pt"><tspan style="font-size:10.00pt" x="4.3" y="22.0">log4j-slf4j-impl.jar</tspan><tspan style="font-size:10.00pt" x="4.3" y="41.0">log4j-slf4j18-impl.jar</tspan></text></g><g transform="translate(1171.500000,476.500000)" id="shape63"><path stroke="#101843" stroke-width="2.6666700839996338" d="M175.0,111.0L175.0,.0L.0,.0L.0,111.0L175.0,111.0z" fill-rule="nonzero" fill="#fff6e9"/><text xml:space="preserve" style="fill:#191919;font-family:微软雅黑,PingFang SC,Mircrosoft YaHei,Arial;font-size:12.50pt"><tspan style="font-size:10.00pt" x="48.5" y="32.5">底层日志框架</tspan></text></g><g transform="translate(1223.500000,535.500000)" id="shape64"><path stroke="#101843" stroke-width="4" d="M123.0,52.0L123.0,.0L.0,.0L.0,52.0L123.0,52.0z" fill-rule="nonzero" fill="#bc953b"/><text xml:space="preserve" style="fill:#191919;font-family:微软雅黑,PingFang SC,Mircrosoft YaHei,Arial;font-size:12.50pt"><tspan style="font-size:10.00pt" x="4.0" y="22.0">log4j-core.jar</tspan><tspan style="font-size:10.00pt" x="4.0" y="41.0">log4j-api.jar</tspan></text></g><g transform="translate(1259.000000,434.500000)" id="shape65"><path stroke="#191919" stroke-width="2.6666700839996338" d="M.0,.0L.0,32.2" fill="none"/><path stroke="#191919" stroke-width="1" stroke-linecap="round" d="M4.9,32.2L.0,42.0L-4.9,32.2L4.9,32.2" fill="#191919"/></g></g></svg>