<svg xmlns="http://www.w3.org/2000/svg" xmlns:ev="http://www.w3.org/2001/xml-events" viewBox="0 0 2255 1597" width="2255" xmlns:xlink="http://www.w3.org/1999/xlink" height="1597"><defs/><g transform="translate(5.5,5.5)" id="page6"><rect width="2245" height="1587" x="0" y="0" fill="none"/><g transform="matrix(0.000000,1.000000,-1.000000,0.000000,482.000000,57.000000)" id="group1"><g id="group2"><path stroke="#323232" stroke-width="1" d="M.0,.0L680.0,.0L680.0,405.0L.0,405.0L.0,.0z" fill-rule="nonzero" fill="#cfe9d8" id="shape3"/><g transform="matrix(0.000000,-1.000000,1.000000,0.000000,-0.000000,405.000000)" id="shape4"><path stroke="#323232" stroke-width="1" d="M.0,.0L405.0,.0L405.0,56.7L.0,56.7L.0,.0z" fill-rule="nonzero" fill="#cfe9d8"/><text xml:space="preserve" style="fill:#191919;font-family:微软雅黑,PingFang SC,Mircrosoft YaHei,Arial;font-size:12.50pt"><tspan style="font-size:10.00pt" x="158.5" y="34.0">AtomicInteger</tspan></text></g></g></g><g transform="translate(138.500000,144.000000)" id="shape5"><path stroke="#323232" stroke-width="1" d="M20.0,52.0L262.0,52.0L282.0,26.0L262.0,.0L20.0,.0L.0,26.0L20.0,52.0z" fill-rule="nonzero" fill="#ffffff"/><text xml:space="preserve" style="fill:#191919;font-family:微软雅黑,PingFang SC,Mircrosoft YaHei,Arial;font-size:12.50pt"><tspan style="font-size:10.00pt" x="22.0" y="31.5">compareAndSet(int expect, int update)</tspan></text></g><g transform="translate(138.500000,253.000000)" id="shape6"><path stroke="#323232" stroke-width="1" d="M282.0,53.0L282.0,7.0C282.0,3.1,278.9,.0,275.0,.0L7.0,.0C3.1,.0,.0,3.1,.0,7.0L.0,53.0C.0,56.9,3.1,60.0,7.0,60.0L275.0,60.0C278.9,60.0,282.0,56.9,282.0,53.0z" fill-rule="nonzero" fill="#ffffff"/><text xml:space="preserve" style="fill:#191919;font-family:微软雅黑,PingFang SC,Mircrosoft YaHei,Arial;font-size:12.50pt"><tspan style="font-size:10.00pt" x="40.0" y="26.0">unsafe.compareAndSwapInt(this, </tspan><tspan style="font-size:10.00pt" x="53.0" y="45.0">valueOffset, expect, update);</tspan></text></g><g transform="translate(279.000000,196.000000)" id="shape7"><path stroke="#323232" stroke-width="1" d="M.0,.0L.0,52.6" fill="none"/><path stroke="#323232" stroke-width="1" stroke-linecap="round" d="M.0,57.0L3.0,51.8C2.1,52.3,1.1,52.6,.0,52.6C-1.1,52.6,-2.1,52.3,-3.0,51.8L.0,57.0" fill="#323232"/></g><g transform="matrix(0.000000,1.000000,-1.000000,0.000000,888.000000,57.000000)" id="group8"><g id="group9"><path stroke="#323232" stroke-width="1" d="M.0,.0L680.0,.0L680.0,406.0L.0,406.0L.0,.0z" fill-rule="nonzero" fill="#cbe3f8" id="shape10"/><g transform="matrix(0.000000,-1.000000,1.000000,0.000000,-0.000000,406.000000)" id="shape11"><path stroke="#323232" stroke-width="1" d="M.0,.0L406.0,.0L406.0,56.7L.0,56.7L.0,.0z" fill-rule="nonzero" fill="#cbe3f8"/><text xml:space="preserve" style="fill:#191919;font-family:微软雅黑,PingFang SC,Mircrosoft YaHei,Arial;font-size:12.50pt"><tspan style="font-size:10.00pt" x="181.5" y="34.0">Unsafe</tspan></text></g></g></g><g transform="translate(567.000000,144.000000)" id="shape12"><path stroke="#323232" stroke-width="1" d="M20.0,52.0L262.0,52.0L282.0,26.0L262.0,.0L20.0,.0L.0,26.0L20.0,52.0z" fill-rule="nonzero" fill="#ffffff"/><text xml:space="preserve" style="fill:#191919;font-family:微软雅黑,PingFang SC,Mircrosoft YaHei,Arial;font-size:12.50pt"><tspan style="font-size:10.00pt" x="44.5" y="22.0">compareAndSwapInt(Object o, </tspan><tspan style="font-size:10.00pt" x="47.0" y="41.0">long offset, int expected, int x)</tspan></text></g><g transform="translate(420.500000,283.000000)" id="shape13"><path stroke="#323232" stroke-width="1" stroke-dasharray="11,5" d="M.0,.0L90.0,.0L90.0,-113.0L142.1,-113.0" fill="none"/><path stroke="#323232" stroke-width="1" stroke-linecap="round" d="M146.5,-113.0L141.3,-116.0C141.8,-115.1,142.1,-114.1,142.1,-113.0C142.1,-111.9,141.8,-110.9,141.3,-110.0L146.5,-113.0" fill="#323232"/></g><g transform="matrix(0.000000,1.000000,-1.000000,0.000000,1587.000000,57.000000)" id="group14"><g id="group15"><path stroke="#323232" stroke-width="1" d="M.0,.0L680.0,.0L680.0,699.0L.0,699.0L.0,.0z" fill-rule="nonzero" fill="#cbe3f8" id="shape16"/><g transform="matrix(0.000000,-1.000000,1.000000,0.000000,-0.000000,699.000000)" id="shape17"><path stroke="#323232" stroke-width="1" d="M.0,.0L699.0,.0L699.0,56.7L.0,56.7L.0,.0z" fill-rule="nonzero" fill="#cbe3f8"/><text xml:space="preserve" style="fill:#191919;font-family:微软雅黑,PingFang SC,Mircrosoft YaHei,Arial;font-size:12.50pt"><tspan style="font-size:10.00pt" x="316.0" y="24.5">unsafe.cpp</tspan><tspan style="font-size:10.00pt" x="225.0" y="43.5">hotspot/src/share/vm/prims/unsafe.cpp</tspan></text></g></g></g><g transform="translate(945.000000,144.000000)" id="shape18"><path stroke="#323232" stroke-width="1" d="M20.0,52.0L599.0,52.0L619.0,26.0L599.0,.0L20.0,.0L.0,26.0L20.0,52.0z" fill-rule="nonzero" fill="#ffffff"/><text xml:space="preserve" style="fill:#191919;font-family:微软雅黑,PingFang SC,Mircrosoft YaHei,Arial;font-size:12.50pt"><tspan style="font-size:10.00pt" x="21.0" y="31.5">Unsafe_CompareAndSwapInt(JNIEnv *env, jobject unsafe, jobject obj, jlong offset, jint e, jint x)</tspan></text></g><g transform="translate(567.000000,265.000000)" id="shape19"><path stroke="#323232" stroke-width="1" d="M282.0,53.0L282.0,7.0C282.0,3.1,278.9,.0,275.0,.0L7.0,.0C3.1,.0,.0,3.1,.0,7.0L.0,53.0C.0,56.9,3.1,60.0,7.0,60.0L275.0,60.0C278.9,60.0,282.0,56.9,282.0,53.0z" fill-rule="nonzero" fill="#ffffff"/><text xml:space="preserve" style="fill:#191919;font-family:微软雅黑,PingFang SC,Mircrosoft YaHei,Arial;font-size:12.50pt"><tspan style="font-size:10.00pt" x="107.5" y="35.5">native 实现</tspan></text></g><g transform="translate(708.000000,196.000000)" id="shape20"><path stroke="#323232" stroke-width="1" d="M.0,.0L.0,64.6" fill="none"/><path stroke="#323232" stroke-width="1" stroke-linecap="round" d="M.0,69.0L3.0,63.8C2.1,64.3,1.1,64.6,.0,64.6C-1.1,64.6,-2.1,64.3,-3.0,63.8L.0,69.0" fill="#323232"/></g><g transform="translate(849.000000,295.000000)" id="shape21"><path stroke="#323232" stroke-width="1" stroke-dasharray="11,5" d="M.0,.0L68.0,.0L68.0,-125.0L91.6,-125.0" fill="none"/><path stroke="#323232" stroke-width="1" stroke-linecap="round" d="M96.0,-125.0L90.8,-128.0C91.3,-127.1,91.6,-126.1,91.6,-125.0C91.6,-123.9,91.3,-122.9,90.8,-122.0L96.0,-125.0" fill="#323232"/></g><g transform="translate(1113.500000,265.000000)" id="shape22"><path stroke="#323232" stroke-width="1" d="M282.0,53.0L282.0,7.0C282.0,3.1,278.9,.0,275.0,.0L7.0,.0C3.1,.0,.0,3.1,.0,7.0L.0,53.0C.0,56.9,3.1,60.0,7.0,60.0L275.0,60.0C278.9,60.0,282.0,56.9,282.0,53.0z" fill-rule="nonzero" fill="#ffffff"/><text xml:space="preserve" style="fill:#191919;font-family:微软雅黑,PingFang SC,Mircrosoft YaHei,Arial;font-size:12.50pt"><tspan style="font-size:10.00pt" x="40.0" y="35.5">oop p = JNIHandles::resolve(obj);</tspan></text></g><g transform="translate(1047.250000,386.000000)" id="shape23"><path stroke="#323232" stroke-width="1" d="M414.5,53.0L414.5,7.0C414.5,3.1,411.4,.0,407.5,.0L7.0,.0C3.1,.0,.0,3.1,.0,7.0L.0,53.0C.0,56.9,3.1,60.0,7.0,60.0L407.5,60.0C411.4,60.0,414.5,56.9,414.5,53.0z" fill-rule="nonzero" fill="#ffffff"/><text xml:space="preserve" style="fill:#191919;font-family:微软雅黑,PingFang SC,Mircrosoft YaHei,Arial;font-size:12.50pt"><tspan style="font-size:10.00pt" x="15.3" y="35.5">jint* addr = (jint *) index_oop_from_field_offset_long(p, offset);</tspan></text></g><g transform="translate(1254.500000,196.000000)" id="shape24"><path stroke="#323232" stroke-width="1" d="M.0,.0L.0,64.6" fill="none"/><path stroke="#323232" stroke-width="1" stroke-linecap="round" d="M.0,69.0L3.0,63.8C2.1,64.3,1.1,64.6,.0,64.6C-1.1,64.6,-2.1,64.3,-3.0,63.8L.0,69.0" fill="#323232"/></g><g transform="translate(1254.500000,325.000000)" id="shape25"><path stroke="#323232" stroke-width="1" d="M.0,.0L.0,56.6" fill="none"/><path stroke="#323232" stroke-width="1" stroke-linecap="round" d="M.0,61.0L3.0,55.8C2.1,56.3,1.1,56.6,.0,56.6C-1.1,56.6,-2.1,56.3,-3.0,55.8L.0,61.0" fill="#323232"/></g><g transform="translate(1047.250000,499.000000)" id="shape26"><path stroke="#323232" stroke-width="1" d="M414.5,53.0L414.5,7.0C414.5,3.1,411.4,.0,407.5,.0L7.0,.0C3.1,.0,.0,3.1,.0,7.0L.0,53.0C.0,56.9,3.1,60.0,7.0,60.0L407.5,60.0C411.4,60.0,414.5,56.9,414.5,53.0z" fill-rule="nonzero" fill="#ffffff"/><text xml:space="preserve" style="fill:#191919;font-family:微软雅黑,PingFang SC,Mircrosoft YaHei,Arial;font-size:12.50pt"><tspan style="font-size:10.00pt" x="64.3" y="35.5">return (jint)(Atomic::cmpxchg(x, addr, e)) == e;</tspan></text></g><g transform="translate(1254.000000,446.000000)" id="shape27"><path stroke="#323232" stroke-width="1" d="M.0,.0L.0,48.6" fill="none"/><path stroke="#323232" stroke-width="1" stroke-linecap="round" d="M.0,53.0L3.0,47.8C2.1,48.3,1.1,48.6,.0,48.6C-1.1,48.6,-2.1,48.3,-3.0,47.8L.0,53.0" fill="#323232"/></g><g transform="matrix(0.000000,1.000000,-1.000000,0.000000,2230.000000,57.000000)" id="group28"><g id="group29"><path stroke="#323232" stroke-width="1" d="M.0,.0L680.0,.0L680.0,643.0L.0,643.0L.0,.0z" fill-rule="nonzero" fill="#ffe8cd" id="shape30"/><g transform="matrix(0.000000,-1.000000,1.000000,0.000000,-0.000000,643.000000)" id="shape31"><path stroke="#323232" stroke-width="1" d="M.0,.0L643.0,.0L643.0,56.7L.0,56.7L.0,.0z" fill-rule="nonzero" fill="#ffe8cd"/><text xml:space="preserve" style="fill:#191919;font-family:微软雅黑,PingFang SC,Mircrosoft YaHei,Arial;font-size:12.50pt"><tspan style="font-family:Microsoft YaHei UI,PingFang SC,Mircrosoft YaHei,Arial;font-size:9.00pt" x="244.5" y="23.5">atomic_linux_x86.inline.hpp</tspan><tspan style="font-size:10.00pt" x="129.5" y="42.5">hotspot/src/os_cpu/linux_x86/vm/atomic_linux_x86.inline.hpp</tspan></text></g></g></g><g transform="translate(1648.500000,143.000000)" id="shape32"><path stroke="#323232" stroke-width="1" d="M20.0,52.0L502.0,52.0L522.0,26.0L502.0,.0L20.0,.0L.0,26.0L20.0,52.0z" fill-rule="nonzero" fill="#ffffff"/><text xml:space="preserve" style="fill:#191919;font-family:微软雅黑,PingFang SC,Mircrosoft YaHei,Arial;font-size:12.50pt"><tspan style="font-size:10.00pt" x="26.0" y="31.5">Atomic::cmpxchg (jint exchange_value, volatile jint* dest, jint compare_value)</tspan></text></g><g transform="translate(1627.000000,264.000000)" id="shape33"><path stroke="#323232" stroke-width="1" d="M565.0,152.0L565.0,7.0C565.0,3.1,561.9,.0,558.0,.0L7.0,.0C3.1,.0,.0,3.1,.0,7.0L.0,152.0C.0,155.9,3.1,159.0,7.0,159.0L558.0,159.0C561.9,159.0,565.0,155.9,565.0,152.0z" fill-rule="nonzero" fill="#ffffff"/><text xml:space="preserve" style="fill:#191919;font-family:微软雅黑,PingFang SC,Mircrosoft YaHei,Arial;font-size:12.50pt"><tspan style="font-size:10.00pt" x="4.0" y="18.5">inline jint  Atomic::cmpxchg  (jint exchange_value, volatile jint* dest, jint compare_value) {</tspan><tspan style="font-size:10.00pt" x="4.0" y="37.5">  int mp = os::is_MP();</tspan><tspan style="font-size:10.00pt" x="4.0" y="56.5">  __asm__ volatile (LOCK_IF_MP(%4) "cmpxchgl %1,(%3)"</tspan><tspan style="font-size:10.00pt" x="4.0" y="75.5">                    : "=a" (exchange_value)</tspan><tspan style="font-size:10.00pt" x="4.0" y="94.5">                    : "r" (exchange_value), "a" (compare_value), "r" (dest), "r" (mp)</tspan><tspan style="font-size:10.00pt" x="4.0" y="113.5">                    : "cc", "memory");</tspan><tspan style="font-size:10.00pt" x="4.0" y="132.5">  return exchange_value;</tspan><tspan style="font-size:10.00pt" x="4.0" y="151.5">}</tspan></text></g><g transform="translate(1909.500000,195.000000)" id="shape34"><path stroke="#323232" stroke-width="1" d="M.0,.0L.0,64.6" fill="none"/><path stroke="#323232" stroke-width="1" stroke-linecap="round" d="M.0,69.0L3.0,63.8C2.1,64.3,1.1,64.6,.0,64.6C-1.1,64.6,-2.1,64.3,-3.0,63.8L.0,69.0" fill="#323232"/></g><g transform="translate(1461.750000,529.000000)" id="shape35"><path stroke="#323232" stroke-width="1" stroke-dasharray="11,5" d="M.0,.0L144.3,.0L144.3,-360.0L182.4,-360.0" fill="none"/><path stroke="#323232" stroke-width="1" stroke-linecap="round" d="M186.8,-360.0L181.6,-363.0C182.1,-362.1,182.4,-361.1,182.4,-360.0C182.4,-358.9,182.1,-357.9,181.6,-357.0L186.8,-360.0" fill="#323232"/></g><path stroke="#323232" stroke-width="1" d="M2040.0,646.0L2040.0,7.0C2040.0,3.1,2036.9,.0,2033.0,.0L7.0,.0C3.1,.0,.0,3.1,.0,7.0L.0,646.0C.0,649.9,3.1,653.0,7.0,653.0L2033.0,653.0C2036.9,653.0,2040.0,649.9,2040.0,646.0z" fill-rule="nonzero" transform="translate(77.000000,840.000000)" fill="#e9f4ed" id="shape36"/><g transform="translate(105.000000,897.500000)" id="shape37"><path stroke="#323232" stroke-width="1" d="M785.0,538.0L785.0,.0L.0,.0L.0,538.0L785.0,538.0z" fill-rule="nonzero" fill="#cbe3f8"/><text xml:space="preserve" style="fill:#191919;font-family:微软雅黑,PingFang SC,Mircrosoft YaHei,Arial;font-size:12.50pt"><tspan style="font-size:10.00pt" x="4.0" y="19.0">#include &lt;stdio.h></tspan><tspan style="font-size:10.00pt" x="4.0" y="57.0">// cmpxchg %ecx, %ebx；如果EAX与EBX相等，则ECX送EBX且ZF置1；否则EBX送EAX，且ZF清0</tspan><tspan style="font-size:10.00pt" x="4.0" y="76.0">inline int  cmpxchg (int exchange_value, volatile int*  dest, int compare_value) {</tspan><tspan style="font-size:10.00pt" x="4.0" y="114.0">    printf("before exchange_value:%d, dest:%d, compare_value:%d\n", exchange_value, *dest, compare_value);</tspan><tspan style="font-size:10.00pt" x="4.0" y="152.0">    int mp = 1;</tspan><tspan style="font-size:10.00pt" x="4.0" y="171.0">    __asm__ volatile ("lock; cmpxchgl %1,(%3)"</tspan><tspan style="font-size:10.00pt" x="4.0" y="190.0">                    : "=a" (exchange_value)</tspan><tspan style="font-size:10.00pt" x="4.0" y="209.0">                    : "r" (exchange_value), "a" (compare_value), "r" (dest), "r" (mp)</tspan><tspan style="font-size:10.00pt" x="4.0" y="228.0">                    : "cc", "memory");</tspan><tspan style="font-size:10.00pt" x="4.0" y="266.0">    printf("after  exchange_value:%d, dest:%d, compare_value:%d\n", exchange_value, *dest, compare_value);</tspan><tspan style="font-size:10.00pt" x="4.0" y="285.0">    </tspan><tspan style="font-size:10.00pt" x="4.0" y="304.0">    return exchange_value;</tspan><tspan style="font-size:10.00pt" x="4.0" y="323.0">}</tspan><tspan style="font-size:10.00pt" x="4.0" y="361.0">int main(void) {</tspan><tspan style="font-size:10.00pt" x="4.0" y="380.0">    int desc = 11;</tspan><tspan style="font-size:10.00pt" x="4.0" y="399.0">    int result = cmpxchg(20, &amp;desc, 11);</tspan><tspan style="font-size:10.00pt" x="4.0" y="418.0">    desc = 10;</tspan><tspan style="font-size:10.00pt" x="4.0" y="437.0">    result = cmpxchg(20, &amp;desc, 11);</tspan><tspan style="font-size:10.00pt" x="4.0" y="456.0">    return 0;</tspan><tspan style="font-size:10.00pt" x="4.0" y="475.0">}</tspan></text></g><g transform="translate(1177.365000,1006.500000)" id="shape38"><path stroke="#323232" stroke-width="1" d="M124.1,70.5L248.3,35.3L124.1,.0L.0,35.3L124.1,70.5z" fill-rule="nonzero" fill="#fec3b3"/><text xml:space="preserve" style="fill:#191919;font-family:Microsoft YaHei UI,PingFang SC,Mircrosoft YaHei,Arial;font-size:11.25pt"><tspan style="font-size:9.00pt" x="88.1" y="31.3">EAX == EBX</tspan><tspan style="font-size:9.00pt" x="55.1" y="48.3">compare_value == dest</tspan></text></g><g transform="translate(1301.490000,968.000000)" id="shape39"><path stroke="#323232" stroke-width="1" d="M.0,.0L.0,34.1" fill="none"/><path stroke="#323232" stroke-width="1" stroke-linecap="round" d="M.0,38.5L3.0,33.3C2.1,33.8,1.1,34.1,.0,34.1C-1.1,34.1,-2.1,33.8,-3.0,33.3L.0,38.5" fill="#323232"/></g><g transform="translate(976.995000,1115.500000)" id="shape40"><path stroke="#323232" stroke-width="1" d="M248.3,53.0L248.3,7.0C248.3,3.1,245.1,.0,241.3,.0L7.0,.0C3.1,.0,.0,3.1,.0,7.0L.0,53.0C.0,56.9,3.1,60.0,7.0,60.0L241.3,60.0C245.1,60.0,248.3,56.9,248.3,53.0z" fill-rule="nonzero" fill="#fec3b3"/><text xml:space="preserve" style="fill:#191919;font-family:微软雅黑,PingFang SC,Mircrosoft YaHei,Arial;font-size:12.50pt"><tspan style="font-size:10.00pt" x="94.1" y="26.0">ECX送EBX</tspan><tspan style="font-size:10.00pt" x="53.6" y="45.0">dest = exchange_value</tspan></text></g><g transform="translate(1177.370000,1041.750000)" id="shape41"><path stroke="#323232" stroke-width="1" d="M.0,.0L-76.3,.0L-76.3,69.4" fill="none"/><path stroke="#323232" stroke-width="1" stroke-linecap="round" d="M-76.3,73.8L-73.3,68.6C-74.1,69.1,-75.2,69.4,-76.3,69.4C-77.3,69.4,-78.4,69.1,-79.3,68.6L-76.3,73.8" fill="#323232"/><rect width="26.0" height="19.0" x="-88.3" y="32.4" fill="#ffffff"/><text xml:space="preserve" style="fill:#191919;font-family:微软雅黑,PingFang SC,Mircrosoft YaHei,Arial;font-size:12.50pt"><tspan style="font-size:10.00pt" x="-88.3" y="47.4">相等</tspan></text></g><g transform="translate(1405.000000,1115.500000)" id="shape42"><path stroke="#323232" stroke-width="1" d="M220.0,53.0L220.0,7.0C220.0,3.1,216.9,.0,213.0,.0L7.0,.0C3.1,.0,.0,3.1,.0,7.0L.0,53.0C.0,56.9,3.1,60.0,7.0,60.0L213.0,60.0C216.9,60.0,220.0,56.9,220.0,53.0z" fill-rule="nonzero" fill="#fec3b3"/><text xml:space="preserve" style="fill:#191919;font-family:微软雅黑,PingFang SC,Mircrosoft YaHei,Arial;font-size:12.50pt"><tspan style="font-size:10.00pt" x="80.0" y="26.0">EBX送EAX</tspan><tspan style="font-size:10.00pt" x="42.0" y="45.0">compare_value = dest</tspan></text></g><g transform="translate(1425.620000,1041.750000)" id="shape43"><path stroke="#323232" stroke-width="1" d="M.0,.0L89.4,.0L89.4,69.4" fill="none"/><path stroke="#323232" stroke-width="1" stroke-linecap="round" d="M89.4,73.8L92.4,68.6C91.5,69.1,90.5,69.4,89.4,69.4C88.3,69.4,87.3,69.1,86.4,68.6L89.4,73.8" fill="#323232"/><rect width="39.0" height="19.0" x="70.9" y="36.7" fill="#ffffff"/><text xml:space="preserve" style="fill:#191919;font-family:微软雅黑,PingFang SC,Mircrosoft YaHei,Arial;font-size:12.50pt"><tspan style="font-size:10.00pt" x="70.9" y="51.7">不相等</tspan></text></g><g transform="translate(976.995000,1214.000000)" id="shape44"><path stroke="#323232" stroke-width="1" d="M248.3,135.0L248.3,7.0C248.3,3.1,245.1,.0,241.3,.0L7.0,.0C3.1,.0,.0,3.1,.0,7.0L.0,135.0C.0,138.9,3.1,142.0,7.0,142.0L241.3,142.0C245.1,142.0,248.3,138.9,248.3,135.0z" fill-rule="nonzero" fill="#fec3b3"/><text xml:space="preserve" style="fill:#191919;font-family:微软雅黑,PingFang SC,Mircrosoft YaHei,Arial;font-size:12.50pt"><tspan style="font-size:10.00pt" x="4.1" y="19.0">exchange_value 20</tspan><tspan style="font-size:10.00pt" x="4.1" y="38.0">dest = 11</tspan><tspan style="font-size:10.00pt" x="4.1" y="57.0">compare_value = 11</tspan><tspan style="font-size:10.00pt" x="4.1" y="76.0">=====></tspan><tspan style="font-size:10.00pt" x="4.1" y="95.0">exchange_value 20</tspan><tspan style="font-size:10.00pt" x="4.1" y="114.0">dest = 20</tspan><tspan style="font-size:10.00pt" x="4.1" y="133.0">compare_value = 11</tspan></text></g><g transform="translate(1405.000000,1214.000000)" id="shape45"><path stroke="#323232" stroke-width="1" d="M220.0,135.0L220.0,7.0C220.0,3.1,216.9,.0,213.0,.0L7.0,.0C3.1,.0,.0,3.1,.0,7.0L.0,135.0C.0,138.9,3.1,142.0,7.0,142.0L213.0,142.0C216.9,142.0,220.0,138.9,220.0,135.0z" fill-rule="nonzero" fill="#fec3b3"/><text xml:space="preserve" style="fill:#191919;font-family:微软雅黑,PingFang SC,Mircrosoft YaHei,Arial;font-size:12.50pt"><tspan style="font-size:10.00pt" x="4.0" y="19.0">exchange_value 20</tspan><tspan style="font-size:10.00pt" x="4.0" y="38.0">dest = 10</tspan><tspan style="font-size:10.00pt" x="4.0" y="57.0">compare_value = 11</tspan><tspan style="font-size:10.00pt" x="4.0" y="76.0">=====></tspan><tspan style="font-size:10.00pt" x="4.0" y="95.0">exchange_value 20</tspan><tspan style="font-size:10.00pt" x="4.0" y="114.0">dest = 10</tspan><tspan style="font-size:10.00pt" x="4.0" y="133.0">compare_value = 10</tspan></text></g><g transform="translate(447.500000,1247.320000)" id="shape46"><path stroke="#323232" stroke-width="1" d="M374.5,99.0L374.5,7.0C374.5,3.1,371.4,.0,367.5,.0L7.0,.0C3.1,.0,.0,3.1,.0,7.0L.0,99.0C.0,102.9,3.1,106.0,7.0,106.0L367.5,106.0C371.4,106.0,374.5,102.9,374.5,99.0z" fill-rule="nonzero" fill="#ffce80"/><text xml:space="preserve" style="fill:#191919;font-family:微软雅黑,PingFang SC,Mircrosoft YaHei,Arial;font-size:12.50pt"><tspan style="font-size:10.00pt" x="4.3" y="19.0">// 结果</tspan><tspan style="font-size:10.00pt" x="4.3" y="38.0">before exchange_value:20, dest:11, compare_value:11</tspan><tspan style="font-size:10.00pt" x="4.3" y="57.0">after    exchange_value:11, dest:20, compare_value:11</tspan><tspan style="font-size:10.00pt" x="4.3" y="76.0">before exchange_value:20, dest:10, compare_value:11</tspan><tspan style="font-size:10.00pt" x="4.3" y="95.0">after    exchange_value:10, dest:10, compare_value:11</tspan></text></g><g transform="translate(1217.583700,897.500000)" id="shape47"><path stroke="#323232" stroke-width="1" d="M167.8,70.5L167.8,.0L.0,.0L.0,70.5L167.8,70.5z" fill-rule="nonzero" fill="#ffffff"/><text xml:space="preserve" style="fill:#191919;font-family:微软雅黑,PingFang SC,Mircrosoft YaHei,Arial;font-size:12.50pt"><tspan style="font-size:10.00pt" x="4.4" y="19.0">ecx = exchange_value</tspan><tspan style="font-size:10.00pt" x="4.4" y="38.0">ebx = dest</tspan><tspan style="font-size:10.00pt" x="4.4" y="57.0">eax = compare_value</tspan></text></g></g></svg>