<svg xmlns="http://www.w3.org/2000/svg" xmlns:ev="http://www.w3.org/2001/xml-events" viewBox="0 0 1132 804" width="1132" xmlns:xlink="http://www.w3.org/1999/xlink" height="804"><defs/><g transform="translate(5.5,5.5)" id="page4"><rect width="1123" height="794" x="0" y="0" fill="none"/><g transform="translate(82.107000,50.118000)" id="table1"><g><path stroke="#a0a0a4" stroke-width="1" d="M.0,.0L133.2,.0L133.2,40.0L.0,40.0L.0,.0z" fill="#ffffff"/><text xml:space="preserve" style="fill:#191919;font-family:微软雅黑,PingFang SC,Mircrosoft YaHei,Arial;font-size:12.50pt"/></g><g><path stroke="#a0a0a4" stroke-width="1" d="M133.2,.0L350.5,.0L350.5,40.0L133.2,40.0L133.2,.0z" fill="#ffffff"/><text xml:space="preserve" style="fill:#191919;font-family:微软雅黑,PingFang SC,Mircrosoft YaHei,Arial;font-size:12.50pt"/></g><g><path stroke="#a0a0a4" stroke-width="1" d="M350.5,.0L589.2,.0L589.2,40.0L350.5,40.0L350.5,.0z" fill="#ffffff"/><text xml:space="preserve" style="fill:#191919;font-family:微软雅黑,PingFang SC,Mircrosoft YaHei,Arial;font-size:12.50pt"/></g><g><path stroke="#a0a0a4" stroke-width="1" d="M589.2,.0L1007.4,.0L1007.4,40.0L589.2,40.0L589.2,.0z" fill="#ffffff"/><text xml:space="preserve" style="fill:#191919;font-family:微软雅黑,PingFang SC,Mircrosoft YaHei,Arial;font-size:12.50pt"/></g><g><path stroke="#a0a0a4" stroke-width="1" d="M.0,40.0L133.2,40.0L133.2,410.0L.0,410.0L.0,40.0z" fill="#ffffff"/><text xml:space="preserve" style="fill:#191919;font-family:宋体,PingFang SC,Mircrosoft YaHei,Arial;font-size:12.50pt"><tspan style="font-size:10.00pt" x="9.0" y="230.5">CORS</tspan></text></g><g><path stroke="#a0a0a4" stroke-width="1" d="M133.2,40.0L350.5,40.0L350.5,410.0L133.2,410.0L133.2,40.0z" fill="#ffffff"/><text xml:space="preserve" style="fill:#191919;font-family:微软雅黑,PingFang SC,Mircrosoft YaHei,Arial;font-size:12.50pt"><tspan style="font-family:宋体,PingFang SC,Mircrosoft YaHei,Arial;font-size:10.00pt" x="142.2" y="149.0">Cross-Origin Resource </tspan><tspan style="font-family:宋体,PingFang SC,Mircrosoft YaHei,Arial;font-size:10.00pt" x="142.2" y="164.0">Sharing，跨域资源共享</tspan><tspan style="font-size:10.00pt" x="142.2" y="234.0">同源安全策略 默认阻止“跨域”获</tspan><tspan style="font-size:10.00pt" x="142.2" y="253.0">取资源。但是 CORS 给了web服务</tspan><tspan style="font-size:10.00pt" x="142.2" y="272.0">器这样的权限，即服务器可以选</tspan><tspan style="font-size:10.00pt" x="142.2" y="291.0">择，允许跨域请求访问到它们的资</tspan><tspan style="font-size:10.00pt" x="142.2" y="310.0">源</tspan></text></g><g><path stroke="#a0a0a4" stroke-width="1" d="M350.5,40.0L589.2,40.0L589.2,80.0L350.5,80.0L350.5,40.0z" fill="#ffffff"/><text xml:space="preserve" style="fill:#191919;font-family:微软雅黑,PingFang SC,Mircrosoft YaHei,Arial;font-size:12.50pt"><tspan style="font-size:10.00pt" x="359.5" y="65.5">Access-Control-Allow-Origin</tspan></text></g><g><path stroke="#a0a0a4" stroke-width="1" d="M589.2,40.0L1007.4,40.0L1007.4,80.0L589.2,80.0L589.2,40.0z" fill="#ffffff"/><text xml:space="preserve" style="fill:#191919;font-family:微软雅黑,PingFang SC,Mircrosoft YaHei,Arial;font-size:12.50pt"><tspan style="font-size:10.00pt" x="598.2" y="65.5">指示请求的资源能共享给哪些域。</tspan></text></g><g><path stroke="#a0a0a4" stroke-width="1" d="M350.5,80.0L589.2,80.0L589.2,120.0L350.5,120.0L350.5,80.0z" fill="#ffffff"/><text xml:space="preserve" style="fill:#191919;font-family:微软雅黑,PingFang SC,Mircrosoft YaHei,Arial;font-size:12.50pt"><tspan style="font-size:10.00pt" x="359.5" y="105.5">Access-Control-Allow-Credentials</tspan></text></g><g><path stroke="#a0a0a4" stroke-width="1" d="M589.2,80.0L1007.4,80.0L1007.4,120.0L589.2,120.0L589.2,80.0z" fill="#ffffff"/><text xml:space="preserve" style="fill:#191919;font-family:微软雅黑,PingFang SC,Mircrosoft YaHei,Arial;font-size:12.50pt"><tspan style="font-size:10.00pt" x="598.2" y="105.5">指示当请求的凭证标记为 true 时，是否响应该请求。</tspan></text></g><g><path stroke="#a0a0a4" stroke-width="1" d="M350.5,120.0L589.2,120.0L589.2,160.0L350.5,160.0L350.5,120.0z" fill="#ffffff"/><text xml:space="preserve" style="fill:#191919;font-family:微软雅黑,PingFang SC,Mircrosoft YaHei,Arial;font-size:12.50pt"><tspan style="font-size:10.00pt" x="359.5" y="145.5">Access-Control-Allow-Headers</tspan></text></g><g><path stroke="#a0a0a4" stroke-width="1" d="M589.2,120.0L1007.4,120.0L1007.4,160.0L589.2,160.0L589.2,120.0z" fill="#ffffff"/><text xml:space="preserve" style="fill:#191919;font-family:微软雅黑,PingFang SC,Mircrosoft YaHei,Arial;font-size:12.50pt"><tspan style="font-size:10.00pt" x="598.2" y="145.5">用在对预请求的响应中，指示实际的请求中可以使用哪些 HTTP 头。</tspan></text></g><g><path stroke="#a0a0a4" stroke-width="1" d="M350.5,160.0L589.2,160.0L589.2,200.0L350.5,200.0L350.5,160.0z" fill="#ffffff"/><text xml:space="preserve" style="fill:#191919;font-family:微软雅黑,PingFang SC,Mircrosoft YaHei,Arial;font-size:12.50pt"><tspan style="font-size:10.00pt" x="359.5" y="185.5">Access-Control-Allow-Methods</tspan></text></g><g><path stroke="#a0a0a4" stroke-width="1" d="M589.2,160.0L1007.4,160.0L1007.4,200.0L589.2,200.0L589.2,160.0z" fill="#ffffff"/><text xml:space="preserve" style="fill:#191919;font-family:微软雅黑,PingFang SC,Mircrosoft YaHei,Arial;font-size:12.50pt"><tspan style="font-size:10.00pt" x="598.2" y="185.5">指定对预请求的响应中，哪些 HTTP 方法允许访问请求的资源。</tspan></text></g><g><path stroke="#a0a0a4" stroke-width="1" d="M350.5,200.0L589.2,200.0L589.2,240.0L350.5,240.0L350.5,200.0z" fill="#ffffff"/><text xml:space="preserve" style="fill:#191919;font-family:微软雅黑,PingFang SC,Mircrosoft YaHei,Arial;font-size:12.50pt"><tspan style="font-size:10.00pt" x="359.5" y="225.5">Access-Control-Expose-Headers</tspan></text></g><g><path stroke="#a0a0a4" stroke-width="1" d="M589.2,200.0L1007.4,200.0L1007.4,240.0L589.2,240.0L589.2,200.0z" fill="#ffffff"/><text xml:space="preserve" style="fill:#191919;font-family:微软雅黑,PingFang SC,Mircrosoft YaHei,Arial;font-size:12.50pt"><tspan style="font-size:10.00pt" x="598.2" y="225.5">指示哪些 HTTP 头的名称能在响应中列出。</tspan></text></g><g><path stroke="#a0a0a4" stroke-width="1" d="M350.5,240.0L589.2,240.0L589.2,280.0L350.5,280.0L350.5,240.0z" fill="#ffffff"/><text xml:space="preserve" style="fill:#191919;font-family:微软雅黑,PingFang SC,Mircrosoft YaHei,Arial;font-size:12.50pt"><tspan style="font-size:10.00pt" x="359.5" y="265.5">Access-Control-Max-Age</tspan></text></g><g><path stroke="#a0a0a4" stroke-width="1" d="M589.2,240.0L1007.4,240.0L1007.4,280.0L589.2,280.0L589.2,240.0z" fill="#ffffff"/><text xml:space="preserve" style="fill:#191919;font-family:微软雅黑,PingFang SC,Mircrosoft YaHei,Arial;font-size:12.50pt"><tspan style="font-size:10.00pt" x="598.2" y="265.5">指示预请求的结果能被缓存多久。</tspan></text></g><g><path stroke="#a0a0a4" stroke-width="1" d="M350.5,280.0L589.2,280.0L589.2,320.0L350.5,320.0L350.5,280.0z" fill="#ffffff"/><text xml:space="preserve" style="fill:#191919;font-family:微软雅黑,PingFang SC,Mircrosoft YaHei,Arial;font-size:12.50pt"><tspan style="font-size:10.00pt" x="359.5" y="305.5">Access-Control-Request-Headers</tspan></text></g><g><path stroke="#a0a0a4" stroke-width="1" d="M589.2,280.0L1007.4,280.0L1007.4,320.0L589.2,320.0L589.2,280.0z" fill="#ffffff"/><text xml:space="preserve" style="fill:#191919;font-family:微软雅黑,PingFang SC,Mircrosoft YaHei,Arial;font-size:12.50pt"><tspan style="font-size:10.00pt" x="598.2" y="305.5">用于发起一个预请求，告知服务器正式请求会使用那些 HTTP 头。</tspan></text></g><g><path stroke="#a0a0a4" stroke-width="1" d="M350.5,320.0L589.2,320.0L589.2,370.0L350.5,370.0L350.5,320.0z" fill="#ffffff"/><text xml:space="preserve" style="fill:#191919;font-family:微软雅黑,PingFang SC,Mircrosoft YaHei,Arial;font-size:12.50pt"><tspan style="font-size:10.00pt" x="359.5" y="350.5">Access-Control-Request-Method</tspan></text></g><g><path stroke="#a0a0a4" stroke-width="1" d="M589.2,320.0L1007.4,320.0L1007.4,370.0L589.2,370.0L589.2,320.0z" fill="#ffffff"/><text xml:space="preserve" style="fill:#191919;font-family:微软雅黑,PingFang SC,Mircrosoft YaHei,Arial;font-size:12.50pt"><tspan style="font-size:10.00pt" x="598.2" y="341.0">用于发起一个预请求，告知服务器正式请求会使用哪一种 HTTP 请求</tspan><tspan style="font-size:10.00pt" x="598.2" y="360.0">方法。</tspan></text></g><g><path stroke="#a0a0a4" stroke-width="1" d="M350.5,370.0L589.2,370.0L589.2,410.0L350.5,410.0L350.5,370.0z" fill="#ffffff"/><text xml:space="preserve" style="fill:#191919;font-family:微软雅黑,PingFang SC,Mircrosoft YaHei,Arial;font-size:12.50pt"><tspan style="font-size:10.00pt" x="359.5" y="395.5">Origin</tspan></text></g><g><path stroke="#a0a0a4" stroke-width="1" d="M589.2,370.0L1007.4,370.0L1007.4,410.0L589.2,410.0L589.2,370.0z" fill="#ffffff"/><text xml:space="preserve" style="fill:#191919;font-family:微软雅黑,PingFang SC,Mircrosoft YaHei,Arial;font-size:12.50pt"><tspan style="font-size:10.00pt" x="598.2" y="395.5">指示获取资源的请求是从什么域发起的。</tspan></text></g></g></g></svg>