<svg xmlns="http://www.w3.org/2000/svg" xmlns:ev="http://www.w3.org/2001/xml-events" viewBox="0 0 1132 804" width="1132" xmlns:xlink="http://www.w3.org/1999/xlink" height="804"><defs/><g transform="translate(5.5,5.5)" id="page1"><rect width="1123" height="794" x="0" y="0" fill="none"/><path stroke="#454545" stroke-width="3" stroke-linecap="round" d="M-12.9,14.2C7.6,-5.8,22.6,-33.9,56.2,-33.9" transform="translate(231.47,180.00)" fill="none" id="shape1"/><path stroke="#454545" stroke-width="3" stroke-linecap="round" d="M-12.9,-14.2C7.6,5.8,22.6,33.8,56.2,33.8" transform="translate(231.47,247.70)" fill="none" id="shape2"/><path stroke="#454545" stroke-width="1" stroke-linecap="round" d="M-12.5,39.2C4.6,39.2,-11.5,-39.2,12.5,-39.2" transform="translate(422.30,106.95)" fill="none" id="shape3"/><path stroke="#454545" stroke-width="1" stroke-linecap="round" d="M-12.5,19.6C1.8,19.6,-5.1,-19.6,12.5,-19.6" transform="translate(422.30,126.55)" fill="none" id="shape4"/><path stroke="#454545" stroke-width="1" stroke-linecap="round" d="M-12.5,.0C-2.5,.0,5.0,.0,12.5,.0" transform="translate(422.30,146.15)" fill="none" id="shape5"/><path stroke="#454545" stroke-width="1" stroke-linecap="round" d="M-12.5,-19.6C1.8,-19.6,-5.1,19.6,12.5,19.6" transform="translate(422.30,165.75)" fill="none" id="shape6"/><path stroke="#454545" stroke-width="1" stroke-linecap="round" d="M-12.5,-39.2C4.6,-39.2,-11.5,39.2,12.5,39.2" transform="translate(422.30,185.35)" fill="none" id="shape7"/><g transform="translate(125.844700,179.350000)" id="shape8"><path stroke="#5a97fb" stroke-width="3" d="M34.5,.0L64.3,.0C83.4,.0,98.8,15.4,98.8,34.5C98.8,53.6,83.4,69.0,64.3,69.0L34.5,69.0C15.4,69.0,.0,53.6,.0,34.5C.0,15.4,15.4,.0,34.5,.0z" fill-rule="nonzero" fill="#5a97fb"/><text xml:space="preserve" style="fill:#ffffff;font-family:微软雅黑,PingFang SC,Mircrosoft YaHei,Arial;font-size:22.50pt;font-weight:bold"><tspan style="font-size:18.00pt" x="33.7" y="44.0">Git</tspan></text></g><g transform="translate(287.675300,122.150000)" id="shape9"><path stroke="#454545" stroke-width="2" d="M4.0,.0L118.1,.0C120.3,.0,122.1,1.8,122.1,4.0L122.1,44.0C122.1,46.2,120.3,48.0,118.1,48.0L4.0,48.0C1.8,48.0,.0,46.2,.0,44.0L.0,4.0C.0,1.8,1.8,.0,4.0,.0z" fill-rule="nonzero" fill="#ffffff"/><text xml:space="preserve" style="fill:#303030;font-family:微软雅黑,PingFang SC,Mircrosoft YaHei,Arial;font-size:17.50pt;font-weight:bold"><tspan style="font-size:14.00pt" x="22.9" y="31.0">git reset</tspan></text></g><g transform="translate(287.675300,257.550000)" id="shape10"><path stroke="#454545" stroke-width="2" d="M4.0,.0L127.8,.0C130.0,.0,131.8,1.8,131.8,4.0L131.8,44.0C131.8,46.2,130.0,48.0,127.8,48.0L4.0,48.0C1.8,48.0,.0,46.2,.0,44.0L.0,4.0C.0,1.8,1.8,.0,4.0,.0z" fill-rule="nonzero" fill="#ffffff"/><text xml:space="preserve" style="fill:#303030;font-family:微软雅黑,PingFang SC,Mircrosoft YaHei,Arial;font-size:17.50pt;font-weight:bold"><tspan style="font-size:14.00pt" x="22.7" y="31.0">git revert</tspan></text></g><g transform="translate(434.800300,37.250000)" id="shape11"><path d="M.0,.0L446.5,.0L446.5,30.5L.0,30.5L.0,.0z" fill-rule="nonzero" fill="#ffffff"/><path stroke="#454545" stroke-width="1" d="M.0,30.5L446.5,30.5" fill="none"/><text xml:space="preserve" style="fill:#303030;font-family:微软雅黑,PingFang SC,Mircrosoft YaHei,Arial;font-size:12.50pt"><tspan style="font-size:10.00pt" x="8.7" y="20.8">--mixed  不删除工作空间改动代码，撤销commit，并且撤销git add . 操作</tspan></text></g><g transform="translate(434.800300,76.450000)" id="shape12"><path d="M.0,.0L393.5,.0L393.5,30.5L.0,30.5L.0,.0z" fill-rule="nonzero" fill="#ffffff"/><path stroke="#454545" stroke-width="1" d="M.0,30.5L393.5,30.5" fill="none"/><text xml:space="preserve" style="fill:#303030;font-family:微软雅黑,PingFang SC,Mircrosoft YaHei,Arial;font-size:12.50pt"><tspan style="font-size:10.00pt" x="8.3" y="20.8">--soft  不删除工作空间改动代码，撤销commit，不撤销git add . </tspan></text></g><g transform="translate(434.800300,115.650000)" id="shape13"><path d="M.0,.0L369.3,.0L369.3,30.5L.0,30.5L.0,.0z" fill-rule="nonzero" fill="#ffffff"/><path stroke="#454545" stroke-width="1" d="M.0,30.5L369.3,30.5" fill="none"/><text xml:space="preserve" style="fill:#303030;font-family:微软雅黑,PingFang SC,Mircrosoft YaHei,Arial;font-size:12.50pt"><tspan style="font-size:10.00pt" x="9.2" y="20.8">--hard 删除工作空间改动代码，撤销commit，撤销git add . </tspan></text></g><g transform="translate(434.800300,154.850000)" id="shape14"><path d="M.0,.0L62.4,.0L62.4,30.5L.0,30.5L.0,.0z" fill-rule="nonzero" fill="#ffffff"/><path stroke="#454545" stroke-width="1" d="M.0,30.5L62.4,30.5" fill="none"/><text xml:space="preserve" style="fill:#303030;font-family:微软雅黑,PingFang SC,Mircrosoft YaHei,Arial;font-size:12.50pt"><tspan style="font-size:10.00pt" x="11.7" y="20.8">--keep</tspan></text></g><g transform="translate(434.800300,194.050000)" id="shape15"><path d="M.0,.0L72.3,.0L72.3,30.5L.0,30.5L.0,.0z" fill-rule="nonzero" fill="#ffffff"/><path stroke="#454545" stroke-width="1" d="M.0,30.5L72.3,30.5" fill="none"/><text xml:space="preserve" style="fill:#303030;font-family:微软雅黑,PingFang SC,Mircrosoft YaHei,Arial;font-size:12.50pt"><tspan style="font-size:10.00pt" x="11.7" y="20.8">--merge</tspan></text></g><g transform="translate(944.882000,504.441000)" id="shape16"><path stroke="#191919" stroke-width="1" d="M100.0,53.0L100.0,7.0C100.0,3.1,96.9,.0,93.0,.0L7.0,.0C3.1,.0,.0,3.1,.0,7.0L.0,53.0C.0,56.9,3.1,60.0,7.0,60.0L93.0,60.0C96.9,60.0,100.0,56.9,100.0,53.0z" fill-rule="nonzero" fill="#fedad0"/><text xml:space="preserve" style="fill:#191919;font-family:微软雅黑,PingFang SC,Mircrosoft YaHei,Arial;font-size:12.50pt"><tspan style="font-size:10.00pt" x="24.0" y="35.5">远程仓库</tspan></text></g><g transform="translate(649.213000,504.441000)" id="shape17"><path stroke="#191919" stroke-width="1" d="M154.9,53.0L154.9,7.0C154.9,3.1,151.8,.0,147.9,.0L7.0,.0C3.1,.0,.0,3.1,.0,7.0L.0,53.0C.0,56.9,3.1,60.0,7.0,60.0L147.9,60.0C151.8,60.0,154.9,56.9,154.9,53.0z" fill-rule="nonzero" fill="#ffdcac"/><text xml:space="preserve" style="fill:#191919;font-family:微软雅黑,PingFang SC,Mircrosoft YaHei,Arial;font-size:12.50pt"><tspan style="font-size:10.00pt" x="51.5" y="35.5">本地仓库</tspan></text></g><g transform="translate(384.646000,504.441000)" id="shape18"><path stroke="#191919" stroke-width="1" d="M100.0,53.0L100.0,7.0C100.0,3.1,96.9,.0,93.0,.0L7.0,.0C3.1,.0,.0,3.1,.0,7.0L.0,53.0C.0,56.9,3.1,60.0,7.0,60.0L93.0,60.0C96.9,60.0,100.0,56.9,100.0,53.0z" fill-rule="nonzero" fill="#aad3f5"/><text xml:space="preserve" style="fill:#191919;font-family:微软雅黑,PingFang SC,Mircrosoft YaHei,Arial;font-size:12.50pt"><tspan style="font-size:10.00pt" x="30.5" y="35.5">缓存区</tspan></text></g><g transform="translate(44.487900,504.441000)" id="shape19"><path stroke="#191919" stroke-width="1" d="M144.5,53.0L144.5,7.0C144.5,3.1,141.4,.0,137.5,.0L7.0,.0C3.1,.0,.0,3.1,.0,7.0L.0,53.0C.0,56.9,3.1,60.0,7.0,60.0L137.5,60.0C141.4,60.0,144.5,56.9,144.5,53.0z" fill-rule="nonzero" fill="#cfe9d8"/><text xml:space="preserve" style="fill:#191919;font-family:微软雅黑,PingFang SC,Mircrosoft YaHei,Arial;font-size:12.50pt"><tspan style="font-size:10.00pt" x="33.2" y="35.5">本地工作空间</tspan></text></g><g transform="translate(116.732000,504.441000)" id="shape20"><path stroke="#87cfa5" stroke-width="4.3333301544189453" d="M.0,.0L.0,-25.0C.0,-28.9,3.1,-32.0,7.0,-32.0L281.9,-32.0C285.8,-32.0,288.9,-28.9,288.9,-25.0L288.9,-9.3" fill="none"/><path stroke="#87cfa5" stroke-width="1" stroke-linecap="round" d="M298.3,-9.3L288.9,.0L279.6,-9.3L298.3,-9.3" fill="#87cfa5"/><rect width="43.0" height="19.0" x="125.2" y="-41.5" fill="#ffffff"/><text xml:space="preserve" style="fill:#191919;font-family:微软雅黑,PingFang SC,Mircrosoft YaHei,Arial;font-size:12.50pt"><tspan style="font-size:10.00pt" x="125.2" y="-26.5">git add</tspan></text></g><g transform="translate(463.542000,504.441000)" id="shape21"><path stroke="#0099d2" stroke-width="4.3333301544189453" d="M.0,.0L.0,-32.0L222.8,-32.0L222.8,-12.5" fill="none"/><path stroke="#0099d2" stroke-width="1" stroke-linecap="round" d="M229.1,-12.5L222.8,.0L216.6,-12.5L229.1,-12.5" fill="#0099d2"/><rect width="67.0" height="19.0" x="78.9" y="-41.5" fill="#ffffff"/><text xml:space="preserve" style="fill:#191919;font-family:微软雅黑,PingFang SC,Mircrosoft YaHei,Arial;font-size:12.50pt"><tspan style="font-size:10.00pt" x="78.9" y="-26.5">git commit</tspan></text></g><g transform="translate(768.510000,504.441000)" id="shape22"><path stroke="#ffce80" stroke-width="4.3333301544189453" d="M.0,.0L.0,-32.0L226.4,-32.0L226.4,-12.5" fill="none"/><path stroke="#ffce80" stroke-width="1" stroke-linecap="round" d="M232.6,-12.5L226.4,.0L220.1,-12.5L232.6,-12.5" fill="#ffce80"/><rect width="50.0" height="19.0" x="88.7" y="-41.5" fill="#ffffff"/><text xml:space="preserve" style="fill:#191919;font-family:微软雅黑,PingFang SC,Mircrosoft YaHei,Arial;font-size:12.50pt"><tspan style="font-size:10.00pt" x="88.7" y="-26.5">git push</tspan></text></g><g transform="translate(188.976000,534.441000)" id="shape23"><path stroke="#191919" stroke-width="1" d="M.0,.0L189.7,.0" fill="none"/><path stroke="#191919" stroke-width="1" stroke-linecap="round" d="M189.7,-3.0L195.7,.0L189.7,3.0L189.7,-3.0" fill="#191919"/><rect width="37.0" height="19.0" x="83.7" y="-9.5" fill="#ffffff"/><text xml:space="preserve" style="fill:#191919;font-family:微软雅黑,PingFang SC,Mircrosoft YaHei,Arial;font-size:12.50pt"><tspan style="font-size:10.00pt" x="83.7" y="5.5">git rm</tspan></text></g><g transform="translate(680.447000,564.441000)" id="shape24"><path stroke="#ffce80" stroke-width="4.3333301544189453" d="M.0,.0L.0,32.0L-510.9,32.0L-510.9,12.5" fill="none"/><path stroke="#ffce80" stroke-width="1" stroke-linecap="round" d="M-517.1,12.5L-510.9,.0L-504.6,12.5L-517.1,12.5" fill="#ffce80"/><rect width="56.0" height="19.0" x="-269.0" y="22.5" fill="#ffffff"/><text xml:space="preserve" style="fill:#191919;font-family:微软雅黑,PingFang SC,Mircrosoft YaHei,Arial;font-size:12.50pt"><tspan style="font-size:10.00pt" x="-269.0" y="37.5">git revert</tspan></text></g><g transform="translate(708.487000,564.441000)" id="shape25"><path stroke="#ffce80" stroke-width="4.3333301544189453" d="M.0,.0L.0,59.2L-565.3,59.2L-565.3,12.5" fill="none"/><path stroke="#ffce80" stroke-width="1" stroke-linecap="round" d="M-571.5,12.5L-565.3,.0L-559.0,12.5L-571.5,12.5" fill="#ffce80"/><rect width="50.0" height="19.0" x="-297.0" y="49.7" fill="#ffffff"/><text xml:space="preserve" style="fill:#191919;font-family:微软雅黑,PingFang SC,Mircrosoft YaHei,Arial;font-size:12.50pt"><tspan style="font-size:10.00pt" x="-297.0" y="64.7">git reset</tspan></text></g><g transform="translate(726.663000,564.441000)" id="shape26"><path stroke="#ffce80" stroke-width="4.3333301544189453" d="M.0,.0L.0,97.0L-609.9,97.0L-609.9,12.5" fill="none"/><path stroke="#ffce80" stroke-width="1" stroke-linecap="round" d="M-616.2,12.5L-609.9,.0L-603.7,12.5L-616.2,12.5" fill="#ffce80"/><rect width="77.0" height="19.0" x="-335.5" y="87.5" fill="#ffffff"/><text xml:space="preserve" style="fill:#191919;font-family:微软雅黑,PingFang SC,Mircrosoft YaHei,Arial;font-size:12.50pt"><tspan style="font-size:10.00pt" x="-335.5" y="102.5">git checkout</tspan></text></g><g transform="translate(968.222000,564.441000)" id="shape27"><path stroke="#eb8989" stroke-width="4.3333301544189453" d="M.0,.0L.0,32.0L-211.1,32.0L-211.1,12.5" fill="none"/><path stroke="#eb8989" stroke-width="1" stroke-linecap="round" d="M-217.4,12.5L-211.1,.0L-204.9,12.5L-217.4,12.5" fill="#eb8989"/><rect width="91.0" height="19.0" x="-148.7" y="22.5" fill="#ffffff"/><text xml:space="preserve" style="fill:#191919;font-family:微软雅黑,PingFang SC,Mircrosoft YaHei,Arial;font-size:12.50pt"><tspan style="font-size:10.00pt" x="-148.7" y="37.5">git fetch/clone</tspan></text></g><g transform="translate(994.882000,564.441000)" id="shape28"><path stroke="#eb8989" stroke-width="4.3333301544189453" d="M.0,.0L.0,153.7L-922.5,153.7L-922.5,12.5" fill="none"/><path stroke="#eb8989" stroke-width="1" stroke-linecap="round" d="M-928.8,12.5L-922.5,.0L-916.3,12.5L-928.8,12.5" fill="#eb8989"/><rect width="42.0" height="19.0" x="-487.0" y="144.2" fill="#ffffff"/><text xml:space="preserve" style="fill:#191919;font-family:微软雅黑,PingFang SC,Mircrosoft YaHei,Arial;font-size:12.50pt"><tspan style="font-size:10.00pt" x="-487.0" y="159.2">git pull</tspan></text></g><g transform="translate(977.000000,50.200000)" id="shape29"><path stroke="#323232" stroke-width="1" d="M100.0,60.0L100.0,.0L.0,.0L.0,60.0L100.0,60.0z" fill-rule="nonzero" fill="#ffffff"/><text xml:space="preserve" style="fill:#191919;font-family:微软雅黑,PingFang SC,Mircrosoft YaHei,Arial;font-size:12.50pt"><tspan style="font-size:10.00pt" x="7.0" y="35.5">Pro Git 电子书</tspan></text></g></g></svg>