<svg xmlns="http://www.w3.org/2000/svg" xmlns:ev="http://www.w3.org/2001/xml-events" viewBox="0 0 2255 2391" width="2255" xmlns:xlink="http://www.w3.org/1999/xlink" height="2391"><defs><path d="M-96.7,195.1C-126.8,-97.6,48.2,-195.8,96.7,-195.1" id="path1"/></defs><g transform="translate(5.5,5.5)" id="page1"><rect width="2245" height="2381" x="0" y="0" fill="none"/><path stroke="#696969" stroke-width="1" stroke-linecap="round" d="M-40.6,216.9C4.6,113.0,-49.1,-245.0,73.5,-245.0" transform="translate(1384.29,1310.90)" fill="none" id="shape1"/><path stroke="#696969" stroke-width="1" stroke-linecap="round" d="M10.5,-2.7C30.2,-10.3,49.6,-17.2,73.5,-17.2" transform="translate(1384.29,1538.65)" fill="none" id="shape2"/><path stroke="#696969" stroke-width="1" stroke-linecap="round" d="M-6.8,-6.9C16.8,12.5,37.7,35.0,73.5,35.0" transform="translate(1384.29,1590.80)" fill="none" id="shape3"/><path stroke="#696969" stroke-width="1" stroke-linecap="round" d="M-25.7,-42.0C3.4,-1.1,15.3,70.0,73.5,70.0" transform="translate(1384.29,1625.80)" fill="none" id="shape4"/><path stroke="#696969" stroke-width="1" stroke-linecap="round" d="M-32.3,-76.9C.1,-19.8,-2.7,105.0,73.5,105.0" transform="translate(1384.29,1660.80)" fill="none" id="shape5"/><path stroke="#696969" stroke-width="1" stroke-linecap="round" d="M-35.6,-112.0C-0.1,-41.1,-18.2,139.9,73.5,140.0" transform="translate(1384.29,1695.80)" fill="none" id="shape6"/><path stroke="#696969" stroke-width="1" stroke-linecap="round" d="M-37.7,-147.0C1.1,-64.0,-31.3,175.0,73.5,175.0" transform="translate(1384.29,1730.80)" fill="none" id="shape7"/><path stroke="#696969" stroke-width="1" stroke-linecap="round" d="M-39.2,-182.0C2.8,-88.0,-41.7,210.0,73.5,210.0" transform="translate(1384.29,1765.80)" fill="none" id="shape8"/><path stroke="#696969" stroke-width="1" stroke-linecap="round" d="M-40.6,-216.9C4.6,-113.0,-49.1,245.0,73.5,245.0" transform="translate(1384.29,1800.80)" fill="none" id="shape9"/><path stroke="#696969" stroke-width="1" stroke-linecap="round" d="M12.5,.0L-2.7,.0L-12.5,.0" transform="translate(1066.35,1116.45)" fill="none" id="shape10"/><path stroke="#696969" stroke-width="1" stroke-linecap="round" d="M12.5,.0C2.5,.0,-5.0,.0,-12.5,.0" transform="translate(1160.57,1116.45)" fill="none" id="shape11"/><path stroke="#696969" stroke-width="1" stroke-linecap="round" d="M12.5,.0C2.5,.0,-5.0,.0,-12.5,.0" transform="translate(956.80,1116.45)" fill="none" id="shape12"/><path stroke="#696969" stroke-width="1" stroke-linecap="round" d="M-12.5,92.4C5.0,92.4,-12.5,-92.4,12.5,-92.4" transform="translate(1668.12,973.55)" fill="none" id="shape13"/><path stroke="#696969" stroke-width="1" stroke-linecap="round" d="M-10.5,.0C-32.5,.0,-53.0,.0,-73.5,.0" transform="translate(1237.27,1555.85)" fill="none" id="shape14"/><path stroke="#696969" stroke-width="1" stroke-linecap="round" d="M-12.5,26.4C3.0,26.4,-7.9,-26.4,12.5,-26.4" transform="translate(1774.78,1495.05)" fill="none" id="shape15"/><path stroke="#696969" stroke-width="1" stroke-linecap="round" d="M-12.5,.0C-2.5,.0,5.0,.0,12.5,.0" transform="translate(1774.78,1521.45)" fill="none" id="shape16"/><path stroke="#696969" stroke-width="1" stroke-linecap="round" d="M-12.5,-26.4C3.0,-26.4,-7.9,26.4,12.5,26.4" transform="translate(1774.78,1547.85)" fill="none" id="shape17"/><path stroke="#696969" stroke-width="1" stroke-linecap="round" d="M-12.5,8.8C-0.5,8.8,.2,-8.8,12.5,-8.8" transform="translate(1875.59,1512.65)" fill="none" id="shape18"/><path stroke="#696969" stroke-width="1" stroke-linecap="round" d="M-12.5,-8.8C-0.5,-8.8,.2,8.8,12.5,8.8" transform="translate(1875.59,1530.25)" fill="none" id="shape19"/><path stroke="#696969" stroke-width="1" stroke-linecap="round" d="M-12.5,17.6C1.4,17.6,-4.2,-17.6,12.5,-17.6" transform="translate(1776.78,863.55)" fill="none" id="shape20"/><path stroke="#696969" stroke-width="1" stroke-linecap="round" d="M-12.5,.0C-2.5,.0,5.0,.0,12.5,.0" transform="translate(1776.78,881.15)" fill="none" id="shape21"/><path stroke="#696969" stroke-width="1" stroke-linecap="round" d="M-12.5,-17.6C1.4,-17.6,-4.2,17.6,12.5,17.6" transform="translate(1776.78,898.75)" fill="none" id="shape22"/><path stroke="#696969" stroke-width="1" stroke-linecap="round" d="M-12.5,8.8L-0.3,8.8C1.4,8.8,2.7,7.5,2.7,5.8L2.7,-5.8C2.7,-7.5,4.0,-8.8,5.7,-8.8L12.5,-8.8" transform="translate(1762.34,960.35)" fill="none" id="shape23"/><path stroke="#696969" stroke-width="1" stroke-linecap="round" d="M-12.5,-8.8L-0.3,-8.8C1.4,-8.8,2.7,-7.5,2.7,-5.8L2.7,5.8C2.7,7.5,4.0,8.8,5.7,8.8L12.5,8.8" transform="translate(1762.34,977.95)" fill="none" id="shape24"/><path stroke="#696969" stroke-width="1" stroke-linecap="round" d="M-12.5,8.8C-0.5,8.8,.2,-8.8,12.5,-8.8" transform="translate(1777.67,1030.75)" fill="none" id="shape25"/><path stroke="#696969" stroke-width="1" stroke-linecap="round" d="M-12.5,-8.8C-0.5,-8.8,.2,8.8,12.5,8.8" transform="translate(1777.67,1048.35)" fill="none" id="shape26"/><path stroke="#696969" stroke-width="1" stroke-linecap="round" d="M-12.5,79.2L-0.3,79.2C1.4,79.2,2.7,77.9,2.7,76.2L2.7,-76.2C2.7,-77.9,4.0,-79.2,5.7,-79.2L12.5,-79.2" transform="translate(1788.98,1171.55)" fill="none" id="shape27"/><path stroke="#696969" stroke-width="1" stroke-linecap="round" d="M-12.5,61.6L-0.3,61.6C1.4,61.6,2.7,60.3,2.7,58.6L2.7,-58.6C2.7,-60.3,4.0,-61.6,5.7,-61.6L12.5,-61.6" transform="translate(1788.98,1189.15)" fill="none" id="shape28"/><path stroke="#696969" stroke-width="1" stroke-linecap="round" d="M-12.5,44.0L-0.3,44.0C1.4,44.0,2.7,42.7,2.7,41.0L2.7,-41.0C2.7,-42.7,4.0,-44.0,5.7,-44.0L12.5,-44.0" transform="translate(1788.98,1206.75)" fill="none" id="shape29"/><path stroke="#696969" stroke-width="1" stroke-linecap="round" d="M-12.5,26.4L-0.3,26.4C1.4,26.4,2.7,25.1,2.7,23.4L2.7,-23.4C2.7,-25.1,4.0,-26.4,5.7,-26.4L12.5,-26.4" transform="translate(1788.98,1224.35)" fill="none" id="shape30"/><path stroke="#696969" stroke-width="1" stroke-linecap="round" d="M-12.5,8.8L-0.3,8.8C1.4,8.8,2.7,7.5,2.7,5.8L2.7,-5.8C2.7,-7.5,4.0,-8.8,5.7,-8.8L12.5,-8.8" transform="translate(1788.98,1241.95)" fill="none" id="shape31"/><path stroke="#696969" stroke-width="1" stroke-linecap="round" d="M-12.5,-8.8L-0.3,-8.8C1.4,-8.8,2.7,-7.5,2.7,-5.8L2.7,5.8C2.7,7.5,4.0,8.8,5.7,8.8L12.5,8.8" transform="translate(1788.98,1259.55)" fill="none" id="shape32"/><path stroke="#696969" stroke-width="1" stroke-linecap="round" d="M-12.5,-26.4L-0.3,-26.4C1.4,-26.4,2.7,-25.1,2.7,-23.4L2.7,23.4C2.7,25.1,4.0,26.4,5.7,26.4L12.5,26.4" transform="translate(1788.98,1277.15)" fill="none" id="shape33"/><path stroke="#696969" stroke-width="1" stroke-linecap="round" d="M-12.5,-44.0L-0.3,-44.0C1.4,-44.0,2.7,-42.7,2.7,-41.0L2.7,41.0C2.7,42.7,4.0,44.0,5.7,44.0L12.5,44.0" transform="translate(1788.98,1294.75)" fill="none" id="shape34"/><path stroke="#696969" stroke-width="1" stroke-linecap="round" d="M-12.5,-61.6L-0.3,-61.6C1.4,-61.6,2.7,-60.3,2.7,-58.6L2.7,58.6C2.7,60.3,4.0,61.6,5.7,61.6L12.5,61.6" transform="translate(1788.98,1312.35)" fill="none" id="shape35"/><path stroke="#696969" stroke-width="1" stroke-linecap="round" d="M-12.5,-79.2L-0.3,-79.2C1.4,-79.2,2.7,-77.9,2.7,-76.2L2.7,76.2C2.7,77.9,4.0,79.2,5.7,79.2L12.5,79.2" transform="translate(1788.98,1329.95)" fill="none" id="shape36"/><g transform="translate(1704.81,1307.80)" id="shape37"><path/><path stroke="#eb7a88" stroke-width="2" stroke-linecap="round" d="M-96.7,195.1C-125.3,-82.8,31.1,-185.4,88.4,-194.5" fill="none"/><path stroke="#eb7a88" stroke-width="1" stroke-linecap="round" d="M96.7,-195.1L86.5,-200.0C87.5,-198.4,88.3,-196.5,88.4,-194.5C88.6,-192.4,88.2,-190.5,87.4,-188.7L96.7,-195.1" fill="#eb7a88"/><text xml:space="preserve" style="font-family:Arial,PingFang SC,Mircrosoft YaHei,Arial;font-size:9.38pt"><textPath xlink:href="#path1"><tspan dy="10" x="223.1 233.1 243.1 ">关系线</tspan></textPath></text></g><g transform="matrix(0.000000,1.000000,-1.000000,0.000000,2203.000000,71.000000)" id="group38"><g id="group39"><path stroke="#323232" stroke-width="1" d="M.0,.0L680.0,.0L680.0,206.0L.0,206.0L.0,.0z" fill="none" id="shape40"/><path stroke="#323232" stroke-width="1" d="M.0,.0L206.0,.0L206.0,56.7L.0,56.7L.0,.0z" fill-rule="nonzero" transform="matrix(0.000000,-1.000000,1.000000,0.000000,-0.000000,206.000000)" fill="#ffffff" id="shape41"/></g><g transform="translate(0.000000,206.000000)" id="group42"><path stroke="#323232" stroke-width="1" d="M.0,.0L680.0,.0L680.0,206.0L.0,206.0L.0,.0z" fill="none" id="shape43"/><g transform="matrix(0.000000,-1.000000,1.000000,0.000000,-0.000000,206.000000)" id="shape44"><path stroke="#323232" stroke-width="1" d="M.0,.0L206.0,.0L206.0,56.7L.0,56.7L.0,.0z" fill-rule="nonzero" fill="#ffffff"/><text xml:space="preserve" style="fill:#191919;font-family:微软雅黑,PingFang SC,Mircrosoft YaHei,Arial;font-size:9.38pt"><tspan style="font-size:7.50pt" x="51.0" y="32.5">HttpRequestExecutor</tspan></text></g></g><g transform="translate(0.000000,412.000000)" id="group45"><path stroke="#323232" stroke-width="1" d="M.0,.0L680.0,.0L680.0,206.0L.0,206.0L.0,.0z" fill="none" id="shape46"/><g transform="matrix(0.000000,-1.000000,1.000000,0.000000,-0.000000,206.000000)" id="shape47"><path stroke="#323232" stroke-width="1" d="M.0,.0L206.0,.0L206.0,56.7L.0,56.7L.0,.0z" fill-rule="nonzero" fill="#ffffff"/><text xml:space="preserve" style="fill:#191919;font-family:微软雅黑,PingFang SC,Mircrosoft YaHei,Arial;font-size:9.38pt"><tspan style="font-size:7.50pt" x="55.5" y="32.5">ConnectionRequest</tspan></text></g></g><g transform="translate(0.000000,618.000000)" id="group48"><path stroke="#323232" stroke-width="1" d="M.0,.0L680.0,.0L680.0,206.0L.0,206.0L.0,.0z" fill="none" id="shape49"/><g transform="matrix(0.000000,-1.000000,1.000000,0.000000,-0.000000,206.000000)" id="shape50"><path stroke="#323232" stroke-width="1" d="M.0,.0L206.0,.0L206.0,56.7L.0,56.7L.0,.0z" fill-rule="nonzero" fill="#ffffff"/><text xml:space="preserve" style="fill:#191919;font-family:微软雅黑,PingFang SC,Mircrosoft YaHei,Arial;font-size:9.38pt"><tspan style="font-size:7.50pt" x="28.0" y="32.5">HttpClientConnectionManager</tspan></text></g></g><g transform="translate(0.000000,824.000000)" id="group51"><path stroke="#323232" stroke-width="1" d="M.0,.0L680.0,.0L680.0,206.0L.0,206.0L.0,.0z" fill="none" id="shape52"/><g transform="matrix(0.000000,-1.000000,1.000000,0.000000,-0.000000,206.000000)" id="shape53"><path stroke="#323232" stroke-width="1" d="M.0,.0L206.0,.0L206.0,56.7L.0,56.7L.0,.0z" fill-rule="nonzero" fill="#ffffff"/><text xml:space="preserve" style="fill:#191919;font-family:微软雅黑,PingFang SC,Mircrosoft YaHei,Arial;font-size:9.38pt"><tspan style="font-size:7.50pt" x="65.0" y="32.5">MainClientExec</tspan></text></g></g><g transform="translate(0.000000,1030.000000)" id="group54"><path stroke="#323232" stroke-width="1" d="M.0,.0L680.0,.0L680.0,206.0L.0,206.0L.0,.0z" fill="none" id="shape55"/><g transform="matrix(0.000000,-1.000000,1.000000,0.000000,-0.000000,206.000000)" id="shape56"><path stroke="#323232" stroke-width="1" d="M.0,.0L206.0,.0L206.0,56.7L.0,56.7L.0,.0z" fill-rule="nonzero" fill="#ffffff"/><text xml:space="preserve" style="fill:#191919;font-family:微软雅黑,PingFang SC,Mircrosoft YaHei,Arial;font-size:9.38pt"><tspan style="font-size:7.50pt" x="72.0" y="32.5">ProtocolExec</tspan></text></g></g><g transform="translate(0.000000,1236.000000)" id="group57"><path stroke="#323232" stroke-width="1" d="M.0,.0L680.0,.0L680.0,206.0L.0,206.0L.0,.0z" fill="none" id="shape58"/><g transform="matrix(0.000000,-1.000000,1.000000,0.000000,-0.000000,206.000000)" id="shape59"><path stroke="#323232" stroke-width="1" d="M.0,.0L206.0,.0L206.0,56.7L.0,56.7L.0,.0z" fill-rule="nonzero" fill="#ffffff"/><text xml:space="preserve" style="fill:#191919;font-family:微软雅黑,PingFang SC,Mircrosoft YaHei,Arial;font-size:9.38pt"><tspan style="font-size:7.50pt" x="71.5" y="32.5">RedirectExec</tspan></text></g></g><g transform="translate(0.000000,1442.000000)" id="group60"><path stroke="#323232" stroke-width="1" d="M.0,.0L680.0,.0L680.0,206.0L.0,206.0L.0,.0z" fill="none" id="shape61"/><g transform="matrix(0.000000,-1.000000,1.000000,0.000000,-0.000000,206.000000)" id="shape62"><path stroke="#323232" stroke-width="1" d="M.0,.0L206.0,.0L206.0,56.7L.0,56.7L.0,.0z" fill-rule="nonzero" fill="#ffffff"/><text xml:space="preserve" style="fill:#191919;font-family:微软雅黑,PingFang SC,Mircrosoft YaHei,Arial;font-size:9.38pt"><tspan style="font-size:7.50pt" x="59.0" y="32.5">HttpRoutePlanner</tspan></text></g></g><g transform="translate(0.000000,1648.000000)" id="group63"><path stroke="#323232" stroke-width="1" d="M.0,.0L680.0,.0L680.0,206.0L.0,206.0L.0,.0z" fill="none" id="shape64"/><g transform="matrix(0.000000,-1.000000,1.000000,0.000000,-0.000000,206.000000)" id="shape65"><path stroke="#323232" stroke-width="1" d="M.0,.0L206.0,.0L206.0,56.7L.0,56.7L.0,.0z" fill-rule="nonzero" fill="#ffffff"/><text xml:space="preserve" style="fill:#191919;font-family:微软雅黑,PingFang SC,Mircrosoft YaHei,Arial;font-size:9.38pt"><tspan style="font-size:7.50pt" x="58.5" y="32.5">InternalHttpClient</tspan></text></g></g><g transform="translate(0.000000,1854.000000)" id="group66"><path stroke="#323232" stroke-width="1" d="M.0,.0L680.0,.0L680.0,206.0L.0,206.0L.0,.0z" fill="none" id="shape67"/><g transform="matrix(0.000000,-1.000000,1.000000,0.000000,-0.000000,206.000000)" id="shape68"><path stroke="#323232" stroke-width="1" d="M.0,.0L206.0,.0L206.0,56.7L.0,56.7L.0,.0z" fill-rule="nonzero" fill="#ffffff"/><text xml:space="preserve" style="fill:#191919;font-family:微软雅黑,PingFang SC,Mircrosoft YaHei,Arial;font-size:9.38pt"><tspan style="font-size:7.50pt" x="88.5" y="32.5">Client</tspan></text></g></g></g><g transform="translate(1226.764500,1527.850000)" id="shape69"><path stroke="#3f5cb8" stroke-width="3" d="M4.0,.0L164.0,.0C166.2,.0,168.0,1.8,168.0,4.0L168.0,52.0C168.0,54.2,166.2,56.0,164.0,56.0L4.0,56.0C1.8,56.0,.0,54.2,.0,52.0L.0,4.0C.0,1.8,1.8,.0,4.0,.0z" fill-rule="nonzero" fill="#3f5cb8"/><text xml:space="preserve" style="fill:#ffffff;font-family:微软雅黑,PingFang SC,Mircrosoft YaHei,Arial;font-size:13.12pt"><tspan style="font-size:10.50pt" x="25.3" y="34.0">InternalHttpClient</tspan></text></g><g transform="translate(1457.795400,1047.450000)" id="shape70"><path stroke="#eaebf1" stroke-width="1" d="M4.0,.0L193.8,.0C196.0,.0,197.8,1.8,197.8,4.0L197.8,33.0C197.8,35.2,196.0,37.0,193.8,37.0L4.0,37.0C1.8,37.0,.0,35.2,.0,33.0L.0,4.0C.0,1.8,1.8,.0,4.0,.0z" fill-rule="nonzero" fill="#e65b4e"/><text xml:space="preserve" style="fill:#303030;font-family:微软雅黑,PingFang SC,Mircrosoft YaHei,Arial;font-size:11.25pt"><tspan style="font-size:9.00pt" x="23.2" y="23.0">ClientExecChain execChain;</tspan></text></g><g transform="translate(1457.795400,1502.950000)" id="shape71"><path stroke="#eaebf1" stroke-width="1" d="M4.0,.0L300.5,.0C302.7,.0,304.5,1.8,304.5,4.0L304.5,33.0C304.5,35.2,302.7,37.0,300.5,37.0L4.0,37.0C1.8,37.0,.0,35.2,.0,33.0L.0,4.0C.0,1.8,1.8,.0,4.0,.0z" fill-rule="nonzero" fill="#c275a7"/><text xml:space="preserve" style="fill:#303030;font-family:微软雅黑,PingFang SC,Mircrosoft YaHei,Arial;font-size:11.25pt"><tspan style="font-size:9.00pt" x="22.5" y="23.0">HttpClientConnectionManager connManager;</tspan></text></g><g transform="translate(1457.795400,1607.250000)" id="shape72"><path stroke="#eaebf1" stroke-width="1" d="M4.0,.0L221.9,.0C224.1,.0,225.9,1.8,225.9,4.0L225.9,33.0C225.9,35.2,224.1,37.0,221.9,37.0L4.0,37.0C1.8,37.0,.0,35.2,.0,33.0L.0,4.0C.0,1.8,1.8,.0,4.0,.0z" fill-rule="nonzero" fill="#eaebf1"/><text xml:space="preserve" style="fill:#303030;font-family:微软雅黑,PingFang SC,Mircrosoft YaHei,Arial;font-size:11.25pt"><tspan style="font-size:9.00pt" x="23.2" y="23.0">HttpRoutePlanner routePlanner;</tspan></text></g><g transform="translate(1457.795400,1677.250000)" id="shape73"><path stroke="#eaebf1" stroke-width="1" d="M4.0,.0L332.0,.0C334.2,.0,336.0,1.8,336.0,4.0L336.0,33.0C336.0,35.2,334.2,37.0,332.0,37.0L4.0,37.0C1.8,37.0,.0,35.2,.0,33.0L.0,4.0C.0,1.8,1.8,.0,4.0,.0z" fill-rule="nonzero" fill="#eaebf1"/><text xml:space="preserve" style="fill:#303030;font-family:微软雅黑,PingFang SC,Mircrosoft YaHei,Arial;font-size:11.25pt"><tspan style="font-size:9.00pt" x="19.3" y="23.0">Lookup&lt;CookieSpecProvider> cookieSpecRegistry;</tspan></text></g><g transform="translate(1457.795400,1747.250000)" id="shape74"><path stroke="#eaebf1" stroke-width="1" d="M4.0,.0L343.5,.0C345.7,.0,347.5,1.8,347.5,4.0L347.5,33.0C347.5,35.2,345.7,37.0,343.5,37.0L4.0,37.0C1.8,37.0,.0,35.2,.0,33.0L.0,4.0C.0,1.8,1.8,.0,4.0,.0z" fill-rule="nonzero" fill="#eaebf1"/><text xml:space="preserve" style="fill:#303030;font-family:微软雅黑,PingFang SC,Mircrosoft YaHei,Arial;font-size:11.25pt"><tspan style="font-size:9.00pt" x="22.5" y="23.0">Lookup&lt;AuthSchemeProvider> authSchemeRegistry;</tspan></text></g><g transform="translate(1457.795400,1817.250000)" id="shape75"><path stroke="#eaebf1" stroke-width="1" d="M4.0,.0L182.8,.0C185.0,.0,186.8,1.8,186.8,4.0L186.8,33.0C186.8,35.2,185.0,37.0,182.8,37.0L4.0,37.0C1.8,37.0,.0,35.2,.0,33.0L.0,4.0C.0,1.8,1.8,.0,4.0,.0z" fill-rule="nonzero" fill="#eaebf1"/><text xml:space="preserve" style="fill:#303030;font-family:微软雅黑,PingFang SC,Mircrosoft YaHei,Arial;font-size:11.25pt"><tspan style="font-size:9.00pt" x="20.7" y="23.0">CookieStore cookieStore;</tspan></text></g><g transform="translate(1457.795400,1887.250000)" id="shape76"><path stroke="#eaebf1" stroke-width="1" d="M4.0,.0L267.1,.0C269.3,.0,271.1,1.8,271.1,4.0L271.1,33.0C271.1,35.2,269.3,37.0,267.1,37.0L4.0,37.0C1.8,37.0,.0,35.2,.0,33.0L.0,4.0C.0,1.8,1.8,.0,4.0,.0z" fill-rule="nonzero" fill="#eaebf1"/><text xml:space="preserve" style="fill:#303030;font-family:微软雅黑,PingFang SC,Mircrosoft YaHei,Arial;font-size:11.25pt"><tspan style="font-size:9.00pt" x="20.8" y="23.0">CredentialsProvider credentialsProvider;</tspan></text></g><g transform="translate(1457.795400,1957.250000)" id="shape77"><path stroke="#eaebf1" stroke-width="1" d="M4.0,.0L207.3,.0C209.5,.0,211.3,1.8,211.3,4.0L211.3,33.0C211.3,35.2,209.5,37.0,207.3,37.0L4.0,37.0C1.8,37.0,.0,35.2,.0,33.0L.0,4.0C.0,1.8,1.8,.0,4.0,.0z" fill-rule="nonzero" fill="#eaebf1"/><text xml:space="preserve" style="fill:#303030;font-family:微软雅黑,PingFang SC,Mircrosoft YaHei,Arial;font-size:11.25pt"><tspan style="font-size:9.00pt" x="22.5" y="23.0">RequestConfig defaultConfig;</tspan></text></g><g transform="translate(1457.795400,2027.250000)" id="shape78"><path stroke="#eaebf1" stroke-width="1" d="M4.0,.0L196.0,.0C198.2,.0,200.0,1.8,200.0,4.0L200.0,33.0C200.0,35.2,198.2,37.0,196.0,37.0L4.0,37.0C1.8,37.0,.0,35.2,.0,33.0L.0,4.0C.0,1.8,1.8,.0,4.0,.0z" fill-rule="nonzero" fill="#eaebf1"/><text xml:space="preserve" style="fill:#303030;font-family:微软雅黑,PingFang SC,Mircrosoft YaHei,Arial;font-size:11.25pt"><tspan style="font-size:9.00pt" x="20.8" y="23.0">List&lt;Closeable> closeables;</tspan></text></g><g transform="translate(848.439950,1089.950000)" id="shape79"><path stroke="#696969" stroke-width="1" d="M.0,26.5L95.9,26.5" fill="none"/><text xml:space="preserve" style="fill:#454545;font-family:微软雅黑,PingFang SC,Mircrosoft YaHei,Arial;font-size:9.38pt"><tspan style="font-size:7.50pt" x="10.9" y="17.3">MainClientExec</tspan></text></g><g transform="translate(969.299300,1089.950000)" id="shape80"><path stroke="#696969" stroke-width="1" d="M.0,26.5L84.5,26.5" fill="none"/><text xml:space="preserve" style="fill:#454545;font-family:微软雅黑,PingFang SC,Mircrosoft YaHei,Arial;font-size:9.38pt"><tspan style="font-size:7.50pt" x="12.3" y="17.3">ProtocolExec</tspan></text></g><g transform="translate(1078.846200,1089.950000)" id="shape81"><path stroke="#696969" stroke-width="1" d="M.0,26.5L69.2,26.5" fill="none"/><text xml:space="preserve" style="fill:#454545;font-family:微软雅黑,PingFang SC,Mircrosoft YaHei,Arial;font-size:9.38pt"><tspan style="font-size:7.50pt" x="11.6" y="17.3">RetryExec</tspan></text></g><g transform="translate(1173.065000,1098.450000)" id="shape82"><path stroke="#eb7a88" stroke-width="1" d="M4.0,.0L104.8,.0C107.0,.0,108.8,1.8,108.8,4.0L108.8,32.0C108.8,34.2,107.0,36.0,104.8,36.0L4.0,36.0C1.8,36.0,.0,34.2,.0,32.0L.0,4.0C.0,1.8,1.8,.0,4.0,.0z" fill-rule="nonzero" fill="#eb7a88"/><text xml:space="preserve" style="fill:#ffffff;font-family:微软雅黑,PingFang SC,Mircrosoft YaHei,Arial;font-size:10.00pt"><tspan style="font-size:8.00pt" x="22.7" y="22.0">RedirectExec</tspan></text></g><path stroke="#696969" stroke-width="1" stroke-linecap="round" d="M-12.5,13.2C.5,13.2,-2.1,-13.2,12.5,-13.2" transform="translate(1668.12,1052.75)" fill="none" id="shape83"/><path stroke="#696969" stroke-width="1" stroke-linecap="round" d="M-12.5,48.4C5.0,48.4,-12.5,-48.4,12.5,-48.4" transform="translate(1668.12,1017.55)" fill="none" id="shape84"/><path stroke="#696969" stroke-width="1" stroke-linecap="round" d="M-12.5,-92.4C5.0,-92.4,-12.5,92.4,12.5,92.4" transform="translate(1668.12,1158.35)" fill="none" id="shape85"/><g transform="translate(1680.623300,1224.250000)" id="shape86"><path d="M.0,.0L95.9,.0L95.9,26.5L.0,26.5L.0,.0z" fill-rule="nonzero" fill="#cde1d0"/><path stroke="#cde1d0" stroke-width="1" d="M.0,26.5L95.9,26.5" fill="none"/><text xml:space="preserve" style="fill:#454545;font-family:微软雅黑,PingFang SC,Mircrosoft YaHei,Arial;font-size:9.38pt"><tspan style="font-size:7.50pt" x="10.9" y="17.3">MainClientExec</tspan></text></g><g transform="translate(1680.623300,1013.050000)" id="shape87"><path d="M.0,.0L84.5,.0L84.5,26.5L.0,26.5L.0,.0z" fill-rule="nonzero" fill="#fcf0e8"/><path stroke="#696969" stroke-width="1" d="M.0,26.5L84.5,26.5" fill="none"/><text xml:space="preserve" style="fill:#454545;font-family:微软雅黑,PingFang SC,Mircrosoft YaHei,Arial;font-size:9.38pt"><tspan style="font-size:7.50pt" x="12.3" y="17.3">ProtocolExec</tspan></text></g><g transform="translate(1680.623300,942.650000)" id="shape88"><path d="M.0,.0L69.2,.0L69.2,26.5L.0,26.5L.0,.0z" fill-rule="nonzero" fill="#eaecfe"/><path stroke="#696969" stroke-width="1" d="M.0,26.5L69.2,26.5" fill="none"/><text xml:space="preserve" style="fill:#454545;font-family:微软雅黑,PingFang SC,Mircrosoft YaHei,Arial;font-size:9.38pt"><tspan style="font-size:7.50pt" x="11.6" y="17.3">RetryExec</tspan></text></g><g transform="translate(1680.623300,854.650000)" id="shape89"><path stroke="#696969" stroke-width="1" d="M.0,26.5L83.7,26.5" fill="none"/><text xml:space="preserve" style="fill:#454545;font-family:微软雅黑,PingFang SC,Mircrosoft YaHei,Arial;font-size:9.38pt"><tspan style="font-size:7.50pt" x="11.3" y="17.3">RedirectExec</tspan></text></g><g transform="translate(1007.405400,1537.350000)" id="shape90"><path stroke="#eaebf1" stroke-width="1" d="M4.0,.0L152.4,.0C154.6,.0,156.4,1.8,156.4,4.0L156.4,33.0C156.4,35.2,154.6,37.0,152.4,37.0L4.0,37.0C1.8,37.0,.0,35.2,.0,33.0L.0,4.0C.0,1.8,1.8,.0,4.0,.0z" fill-rule="nonzero" fill="#249246"/><text xml:space="preserve" style="fill:#303030;font-family:微软雅黑,PingFang SC,Mircrosoft YaHei,Arial;font-size:11.25pt"><tspan style="font-size:9.00pt" x="23.0" y="23.0">CloseableHttpClient</tspan></text></g><g transform="translate(1787.279400,1442.150000)" id="shape91"><path stroke="#696969" stroke-width="1" d="M.0,26.5L132.4,26.5" fill="none"/><text xml:space="preserve" style="fill:#454545;font-family:微软雅黑,PingFang SC,Mircrosoft YaHei,Arial;font-size:9.38pt"><tspan style="font-size:7.50pt" x="11.7" y="17.3">ConfigData configData</tspan></text></g><g transform="translate(1787.279400,1494.950000)" id="shape92"><path stroke="#696969" stroke-width="1" d="M.0,26.5L75.8,26.5" fill="none"/><text xml:space="preserve" style="fill:#454545;font-family:微软雅黑,PingFang SC,Mircrosoft YaHei,Arial;font-size:9.38pt"><tspan style="font-size:7.50pt" x="12.9" y="17.3">CPool pool</tspan></text></g><g transform="translate(1787.279400,1547.750000)" id="shape93"><path stroke="#696969" stroke-width="1" d="M.0,26.5L269.9,26.5" fill="none"/><text xml:space="preserve" style="fill:#454545;font-family:微软雅黑,PingFang SC,Mircrosoft YaHei,Arial;font-size:9.38pt"><tspan style="font-size:7.50pt" x="11.0" y="17.3">HttpClientConnectionOperator connectionOperator</tspan></text></g><g transform="translate(1888.091850,1477.350000)" id="shape94"><path stroke="#696969" stroke-width="1" d="M.0,26.5L109.6,26.5" fill="none"/><text xml:space="preserve" style="fill:#454545;font-family:微软雅黑,PingFang SC,Mircrosoft YaHei,Arial;font-size:9.38pt"><tspan style="font-size:7.50pt" x="12.3" y="17.3">AbstractConnPool</tspan></text></g><g transform="translate(1888.091850,1512.550000)" id="shape95"><path stroke="#696969" stroke-width="1" d="M.0,26.5L51.1,26.5" fill="none"/><text xml:space="preserve" style="fill:#454545;font-family:微软雅黑,PingFang SC,Mircrosoft YaHei,Arial;font-size:9.38pt"><tspan style="font-size:7.50pt" x="12.6" y="17.3">CPool</tspan></text></g><g transform="translate(1789.279650,819.450000)" id="shape96"><path d="M.0,.0L149.5,.0L149.5,26.5L.0,26.5L.0,.0z" fill-rule="nonzero" fill="#eaecfe"/><path stroke="#696969" stroke-width="1" d="M.0,26.5L149.5,26.5" fill="none"/><text xml:space="preserve" style="fill:#454545;font-family:微软雅黑,PingFang SC,Mircrosoft YaHei,Arial;font-size:9.38pt"><tspan style="font-size:7.50pt" x="10.7" y="17.3">RetryExec requestExecutor</tspan></text></g><g transform="translate(1789.279650,854.650000)" id="shape97"><path stroke="#696969" stroke-width="1" d="M.0,26.5L181.9,26.5" fill="none"/><text xml:space="preserve" style="fill:#454545;font-family:微软雅黑,PingFang SC,Mircrosoft YaHei,Arial;font-size:9.38pt"><tspan style="font-size:7.50pt" x="9.9" y="17.3">RedirectStrategy redirectStrategy</tspan></text></g><g transform="translate(1789.279650,889.850000)" id="shape98"><path stroke="#696969" stroke-width="1" d="M.0,26.5L173.8,26.5" fill="none"/><text xml:space="preserve" style="fill:#454545;font-family:微软雅黑,PingFang SC,Mircrosoft YaHei,Arial;font-size:9.38pt"><tspan style="font-size:7.50pt" x="10.9" y="17.3">HttpRoutePlanner routePlanner</tspan></text></g><g transform="translate(1774.842100,925.050000)" id="shape99"><path d="M.0,.0L164.8,.0L164.8,26.5L.0,26.5L.0,.0z" fill-rule="nonzero" fill="#faeae9"/><path stroke="#696969" stroke-width="1" d="M.0,26.5L164.8,26.5" fill="none"/><text xml:space="preserve" style="fill:#454545;font-family:微软雅黑,PingFang SC,Mircrosoft YaHei,Arial;font-size:9.38pt"><tspan style="font-size:7.50pt" x="11.4" y="17.3">ProtocolExec requestExecutor</tspan></text></g><g transform="translate(1774.842100,960.250000)" id="shape100"><path stroke="#696969" stroke-width="1" d="M.0,26.5L209.4,26.5" fill="none"/><text xml:space="preserve" style="fill:#454545;font-family:微软雅黑,PingFang SC,Mircrosoft YaHei,Arial;font-size:9.38pt"><tspan style="font-size:7.50pt" x="9.7" y="17.3">HttpRequestRetryHandler retryHandler</tspan></text></g><g transform="translate(1790.170250,995.450000)" id="shape101"><path d="M.0,.0L176.1,.0L176.1,26.5L.0,26.5L.0,.0z" fill-rule="nonzero" fill="#cde1d0"/><path stroke="#e8f1e9" stroke-width="1" d="M.0,26.5L176.1,26.5" fill="none"/><text xml:space="preserve" style="fill:#454545;font-family:微软雅黑,PingFang SC,Mircrosoft YaHei,Arial;font-size:9.38pt"><tspan style="font-size:7.50pt" x="10.1" y="17.3">MainClientExec requestExecutor</tspan></text></g><g transform="translate(1790.170250,1030.650000)" id="shape102"><path stroke="#696969" stroke-width="1" d="M.0,26.5L160.2,26.5" fill="none"/><text xml:space="preserve" style="fill:#454545;font-family:微软雅黑,PingFang SC,Mircrosoft YaHei,Arial;font-size:9.38pt"><tspan style="font-size:7.50pt" x="11.6" y="17.3">HttpProcessor httpProcessor</tspan></text></g><g transform="translate(1801.482700,1065.850000)" id="shape103"><path stroke="#696969" stroke-width="1" d="M.0,26.5L207.2,26.5" fill="none"/><text xml:space="preserve" style="fill:#454545;font-family:微软雅黑,PingFang SC,Mircrosoft YaHei,Arial;font-size:9.38pt"><tspan style="font-size:7.50pt" x="10.6" y="17.3">HttpRequestExecutor requestExecutor;</tspan></text></g><g transform="translate(1801.482700,1101.050000)" id="shape104"><path stroke="#696969" stroke-width="1" d="M.0,26.5L241.7,26.5" fill="none"/><text xml:space="preserve" style="fill:#454545;font-family:微软雅黑,PingFang SC,Mircrosoft YaHei,Arial;font-size:9.38pt"><tspan style="font-size:7.50pt" x="10.8" y="17.3">HttpClientConnectionManager connManager;</tspan></text></g><g transform="translate(1801.482700,1136.250000)" id="shape105"><path stroke="#696969" stroke-width="1" d="M.0,26.5L217.6,26.5" fill="none"/><text xml:space="preserve" style="fill:#454545;font-family:微软雅黑,PingFang SC,Mircrosoft YaHei,Arial;font-size:9.38pt"><tspan style="font-size:7.50pt" x="10.3" y="17.3">ConnectionReuseStrategy reuseStrategy;</tspan></text></g><g transform="translate(1801.482700,1171.450000)" id="shape106"><path stroke="#696969" stroke-width="1" d="M.0,26.5L256.7,26.5" fill="none"/><text xml:space="preserve" style="fill:#454545;font-family:微软雅黑,PingFang SC,Mircrosoft YaHei,Arial;font-size:9.38pt"><tspan style="font-size:7.50pt" x="10.9" y="17.3">ConnectionKeepAliveStrategy keepAliveStrategy;</tspan></text></g><g transform="translate(1801.482700,1206.650000)" id="shape107"><path stroke="#696969" stroke-width="1" d="M.0,26.5L191.0,26.5" fill="none"/><text xml:space="preserve" style="fill:#454545;font-family:微软雅黑,PingFang SC,Mircrosoft YaHei,Arial;font-size:9.38pt"><tspan style="font-size:7.50pt" x="12.0" y="17.3">HttpProcessor proxyHttpProcessor;</tspan></text></g><g transform="translate(1801.482700,1241.850000)" id="shape108"><path stroke="#696969" stroke-width="1" d="M.0,26.5L230.7,26.5" fill="none"/><text xml:space="preserve" style="fill:#454545;font-family:微软雅黑,PingFang SC,Mircrosoft YaHei,Arial;font-size:9.38pt"><tspan style="font-size:7.50pt" x="10.3" y="17.3">AuthenticationStrategy targetAuthStrategy;</tspan></text></g><g transform="translate(1801.482700,1277.050000)" id="shape109"><path stroke="#696969" stroke-width="1" d="M.0,26.5L228.7,26.5" fill="none"/><text xml:space="preserve" style="fill:#454545;font-family:微软雅黑,PingFang SC,Mircrosoft YaHei,Arial;font-size:9.38pt"><tspan style="font-size:7.50pt" x="11.4" y="17.3">AuthenticationStrategy proxyAuthStrategy;</tspan></text></g><g transform="translate(1801.482700,1312.250000)" id="shape110"><path stroke="#696969" stroke-width="1" d="M.0,26.5L179.7,26.5" fill="none"/><text xml:space="preserve" style="fill:#454545;font-family:微软雅黑,PingFang SC,Mircrosoft YaHei,Arial;font-size:9.38pt"><tspan style="font-size:7.50pt" x="10.9" y="17.3">HttpAuthenticator authenticator;</tspan></text></g><g transform="translate(1801.482700,1347.450000)" id="shape111"><path stroke="#696969" stroke-width="1" d="M.0,26.5L204.7,26.5" fill="none"/><text xml:space="preserve" style="fill:#454545;font-family:微软雅黑,PingFang SC,Mircrosoft YaHei,Arial;font-size:9.38pt"><tspan style="font-size:7.50pt" x="11.4" y="17.3">UserTokenHandler userTokenHandler;</tspan></text></g><g transform="translate(1801.482700,1382.650000)" id="shape112"><path stroke="#696969" stroke-width="1" d="M.0,26.5L181.3,26.5" fill="none"/><text xml:space="preserve" style="fill:#454545;font-family:微软雅黑,PingFang SC,Mircrosoft YaHei,Arial;font-size:9.38pt"><tspan style="font-size:7.50pt" x="10.6" y="17.3">HttpRouteDirector routeDirector;</tspan></text></g><path stroke="#323232" stroke-width="1" d="M22.0,44.0L78.0,44.0L78.0,44.0C90.2,44.0,100.0,34.2,100.0,22.0C100.0,9.8,90.2,.0,78.0,.0L22.0,.0L22.0,.0C9.8,.0,.0,9.8,.0,22.0C.0,34.2,9.8,44.0,22.0,44.0z" fill-rule="nonzero" transform="translate(196.000000,178.000000)" fill="#ffffff" id="shape113"/><g transform="translate(397.000000,170.000000)" id="shape114"><path stroke="#323232" stroke-width="1" d="M100.0,53.0L100.0,7.0C100.0,3.1,96.9,.0,93.0,.0L7.0,.0C3.1,.0,.0,3.1,.0,7.0L.0,53.0C.0,56.9,3.1,60.0,7.0,60.0L93.0,60.0C96.9,60.0,100.0,56.9,100.0,53.0z" fill-rule="nonzero" fill="#ffffff"/><text xml:space="preserve" style="fill:#191919;font-family:微软雅黑,PingFang SC,Mircrosoft YaHei,Arial;font-size:9.38pt"><tspan style="font-size:7.50pt" x="22.0" y="34.0">doExecute()</tspan></text></g><g transform="translate(608.000000,164.000000)" id="shape115"><path stroke="#323232" stroke-width="1" d="M100.0,65.0L100.0,7.0C100.0,3.1,96.9,.0,93.0,.0L7.0,.0C3.1,.0,.0,3.1,.0,7.0L.0,65.0C.0,68.9,3.1,72.0,7.0,72.0L93.0,72.0C96.9,72.0,100.0,68.9,100.0,65.0z" fill-rule="nonzero" fill="#ffffff"/><text xml:space="preserve" style="fill:#191919;font-family:微软雅黑,PingFang SC,Mircrosoft YaHei,Arial;font-size:9.38pt"><tspan style="font-size:7.50pt" x="9.0" y="16.0">determineRoute(</tspan><tspan style="font-size:7.50pt" x="25.0" y="32.0">HttpHost, </tspan><tspan style="font-size:7.50pt" x="18.0" y="48.0">HttpRequest, </tspan><tspan style="font-size:7.50pt" x="18.5" y="64.0">HttpContext)</tspan></text></g><g transform="translate(497.000000,200.000000)" id="shape116"><path stroke="#323232" stroke-width="1" d="M.0,.0L106.6,.0" fill="none"/><path stroke="#323232" stroke-width="1" stroke-linecap="round" d="M111.0,.0L105.8,-3.0C106.3,-2.1,106.6,-1.1,106.6,.0C106.6,1.1,106.3,2.1,105.8,3.0L111.0,.0" fill="#323232"/><rect width="71.0" height="16.0" x="15.0" y="-8.0" fill="#ffffff"/><text xml:space="preserve" style="fill:#191919;font-family:微软雅黑,PingFang SC,Mircrosoft YaHei,Arial;font-size:9.38pt"><tspan style="font-size:7.50pt" x="15.0" y="4.0">获取HttpRoute</tspan></text></g><g transform="translate(812.000000,245.000000)" id="shape117"><path stroke="#323232" stroke-width="1" d="M114.0,107.0L114.0,7.0C114.0,3.1,110.9,.0,107.0,.0L7.0,.0C3.1,.0,.0,3.1,.0,7.0L.0,107.0C.0,110.9,3.1,114.0,7.0,114.0L107.0,114.0C110.9,114.0,114.0,110.9,114.0,107.0z" fill-rule="nonzero" fill="#ffffff"/><text xml:space="preserve" style="fill:#191919;font-family:微软雅黑,PingFang SC,Mircrosoft YaHei,Arial;font-size:9.38pt"><tspan style="font-size:7.50pt" x="36.5" y="29.0">execute(</tspan><tspan style="font-size:7.50pt" x="30.5" y="45.0">HttpRoute, </tspan><tspan style="font-size:7.50pt" x="4.0" y="61.0">HttpRequestWrapper, </tspan><tspan style="font-size:7.50pt" x="11.5" y="77.0">HttpClientContext, </tspan><tspan style="font-size:7.50pt" x="5.5" y="93.0">HttpExecutionAware)</tspan></text></g><g transform="translate(447.000000,230.000000)" id="shape118"><path stroke="#323232" stroke-width="1" d="M.0,.0L.0,72.0L360.6,72.0" fill="none"/><path stroke="#323232" stroke-width="1" stroke-linecap="round" d="M365.0,72.0L359.8,69.0C360.3,69.9,360.6,70.9,360.6,72.0C360.6,73.1,360.3,74.1,359.8,75.0L365.0,72.0" fill="#323232"/></g><g transform="translate(1020.000000,245.000000)" id="shape119"><path stroke="#323232" stroke-width="1" d="M114.0,107.0L114.0,7.0C114.0,3.1,110.9,.0,107.0,.0L7.0,.0C3.1,.0,.0,3.1,.0,7.0L.0,107.0C.0,110.9,3.1,114.0,7.0,114.0L107.0,114.0C110.9,114.0,114.0,110.9,114.0,107.0z" fill-rule="nonzero" fill="#ffffff"/><text xml:space="preserve" style="fill:#191919;font-family:微软雅黑,PingFang SC,Mircrosoft YaHei,Arial;font-size:9.38pt"><tspan style="font-size:7.50pt" x="36.5" y="29.0">execute(</tspan><tspan style="font-size:7.50pt" x="30.5" y="45.0">HttpRoute, </tspan><tspan style="font-size:7.50pt" x="4.0" y="61.0">HttpRequestWrapper, </tspan><tspan style="font-size:7.50pt" x="11.5" y="77.0">HttpClientContext, </tspan><tspan style="font-size:7.50pt" x="5.5" y="93.0">HttpExecutionAware)</tspan></text></g><g transform="translate(926.000000,302.000000)" id="shape120"><path stroke="#323232" stroke-width="1" d="M.0,.0L89.6,.0" fill="none"/><path stroke="#323232" stroke-width="1" stroke-linecap="round" d="M94.0,.0L88.8,-3.0C89.3,-2.1,89.6,-1.1,89.6,.0C89.6,1.1,89.3,2.1,88.8,3.0L94.0,.0" fill="#323232"/></g><g transform="translate(1228.000000,245.000000)" id="shape121"><path stroke="#323232" stroke-width="1" d="M114.0,107.0L114.0,7.0C114.0,3.1,110.9,.0,107.0,.0L7.0,.0C3.1,.0,.0,3.1,.0,7.0L.0,107.0C.0,110.9,3.1,114.0,7.0,114.0L107.0,114.0C110.9,114.0,114.0,110.9,114.0,107.0z" fill-rule="nonzero" fill="#ffffff"/><text xml:space="preserve" style="fill:#191919;font-family:微软雅黑,PingFang SC,Mircrosoft YaHei,Arial;font-size:9.38pt"><tspan style="font-size:7.50pt" x="36.5" y="29.0">execute(</tspan><tspan style="font-size:7.50pt" x="30.5" y="45.0">HttpRoute, </tspan><tspan style="font-size:7.50pt" x="4.0" y="61.0">HttpRequestWrapper, </tspan><tspan style="font-size:7.50pt" x="11.5" y="77.0">HttpClientContext, </tspan><tspan style="font-size:7.50pt" x="5.5" y="93.0">HttpExecutionAware)</tspan></text></g><g transform="translate(1134.000000,302.000000)" id="shape122"><path stroke="#323232" stroke-width="1" d="M.0,.0L89.6,.0" fill="none"/><path stroke="#323232" stroke-width="1" stroke-linecap="round" d="M94.0,.0L88.8,-3.0C89.3,-2.1,89.6,-1.1,89.6,.0C89.6,1.1,89.3,2.1,88.8,3.0L94.0,.0" fill="#323232"/></g><g transform="translate(1342.000000,302.000000)" id="shape123"><path stroke="#323232" stroke-width="1" d="M.0,.0L132.0,.0L132.0,74.6" fill="none"/><path stroke="#323232" stroke-width="1" stroke-linecap="round" d="M132.0,79.0L135.0,73.8C134.1,74.3,133.1,74.6,132.0,74.6C130.9,74.6,129.9,74.3,129.0,73.8L132.0,79.0" fill="#323232"/><rect width="115.0" height="16.0" x="59.0" y="-8.0" fill="#ffffff"/><text xml:space="preserve" style="fill:#191919;font-family:微软雅黑,PingFang SC,Mircrosoft YaHei,Arial;font-size:9.38pt"><tspan style="font-size:7.50pt" x="59.0" y="4.0">获取ConnectionRequest</tspan></text></g><g transform="translate(1424.000000,381.000000)" id="shape124"><path stroke="#323232" stroke-width="1" d="M100.0,53.0L100.0,7.0C100.0,3.1,96.9,.0,93.0,.0L7.0,.0C3.1,.0,.0,3.1,.0,7.0L.0,53.0C.0,56.9,3.1,60.0,7.0,60.0L93.0,60.0C96.9,60.0,100.0,56.9,100.0,53.0z" fill-rule="nonzero" fill="#ffffff"/><text xml:space="preserve" style="fill:#191919;font-family:微软雅黑,PingFang SC,Mircrosoft YaHei,Arial;font-size:9.38pt"><tspan style="font-size:7.50pt" x="4.0" y="18.0">requestConnection</tspan><tspan style="font-size:7.50pt" x="20.5" y="34.0">(HttpRoute , </tspan><tspan style="font-size:7.50pt" x="31.0" y="50.0">Object )</tspan></text></g><g transform="translate(1639.000000,469.000000)" id="shape125"><path stroke="#323232" stroke-width="1" d="M100.0,53.0L100.0,7.0C100.0,3.1,96.9,.0,93.0,.0L7.0,.0C3.1,.0,.0,3.1,.0,7.0L.0,53.0C.0,56.9,3.1,60.0,7.0,60.0L93.0,60.0C96.9,60.0,100.0,56.9,100.0,53.0z" fill-rule="nonzero" fill="#ffffff"/><text xml:space="preserve" style="fill:#191919;font-family:微软雅黑,PingFang SC,Mircrosoft YaHei,Arial;font-size:9.38pt"><tspan style="font-size:7.50pt" x="8.5" y="26.0">get(long timeout, </tspan><tspan style="font-size:7.50pt" x="26.5" y="42.0">TimeUnit)</tspan></text></g><g transform="translate(1285.000000,359.000000)" id="shape126"><path stroke="#323232" stroke-width="1" d="M.0,.0L.0,140.0L349.6,140.0" fill="none"/><path stroke="#323232" stroke-width="1" stroke-linecap="round" d="M354.0,140.0L348.8,137.0C349.3,137.9,349.6,138.9,349.6,140.0C349.6,141.1,349.3,142.1,348.8,143.0L354.0,140.0" fill="#323232"/><rect width="126.0" height="16.0" x="113.5" y="132.0" fill="#ffffff"/><text xml:space="preserve" style="fill:#191919;font-family:微软雅黑,PingFang SC,Mircrosoft YaHei,Arial;font-size:9.38pt"><tspan style="font-size:7.50pt" x="113.5" y="144.0">获取HttpClientConnection</tspan></text></g><g transform="translate(1838.744100,543.000000)" id="shape127"><path stroke="#323232" stroke-width="1" d="M122.3,79.0L122.3,7.0C122.3,3.1,119.1,.0,115.3,.0L7.0,.0C3.1,.0,.0,3.1,.0,7.0L.0,79.0C.0,82.9,3.1,86.0,7.0,86.0L115.3,86.0C119.1,86.0,122.3,82.9,122.3,79.0z" fill-rule="nonzero" fill="#ffffff"/><text xml:space="preserve" style="fill:#191919;font-family:微软雅黑,PingFang SC,Mircrosoft YaHei,Arial;font-size:9.38pt"><tspan style="font-size:7.50pt" x="40.6" y="23.0">execute(</tspan><tspan style="font-size:7.50pt" x="29.1" y="39.0">HttpRequest,</tspan><tspan style="font-size:7.50pt" x="7.1" y="55.0">HttpClientConnection,</tspan><tspan style="font-size:7.50pt" x="29.6" y="71.0">HttpContext)</tspan></text></g><g transform="translate(1257.500000,359.000000)" id="shape128"><path stroke="#323232" stroke-width="1" d="M.0,.0L.0,227.0L576.8,227.0" fill="none"/><path stroke="#323232" stroke-width="1" stroke-linecap="round" d="M581.2,227.0L576.0,224.0C576.5,224.9,576.8,225.9,576.8,227.0C576.8,228.1,576.5,229.1,576.0,230.0L581.2,227.0" fill="#323232"/><rect width="60.0" height="16.0" x="231.0" y="219.0" fill="#ffffff"/><text xml:space="preserve" style="fill:#191919;font-family:微软雅黑,PingFang SC,Mircrosoft YaHei,Arial;font-size:9.38pt"><tspan style="font-size:7.50pt" x="231.0" y="231.0">开始发送请求</tspan></text></g><g transform="translate(296.000000,200.000000)" id="shape129"><path stroke="#323232" stroke-width="1" d="M.0,.0L96.6,.0" fill="none"/><path stroke="#323232" stroke-width="1" stroke-linecap="round" d="M101.0,.0L95.8,-3.0C96.3,-2.1,96.6,-1.1,96.6,.0C96.6,1.1,96.3,2.1,95.8,3.0L101.0,.0" fill="#323232"/><rect width="40.0" height="16.0" x="21.5" y="-8.0" fill="#ffffff"/><text xml:space="preserve" style="fill:#191919;font-family:微软雅黑,PingFang SC,Mircrosoft YaHei,Arial;font-size:9.38pt"><tspan style="font-size:7.50pt" x="21.5" y="4.0">发送请求</tspan></text></g></g></svg>