<svg xmlns="http://www.w3.org/2000/svg" xmlns:ev="http://www.w3.org/2001/xml-events" viewBox="0 0 1132 1597" width="1132" xmlns:xlink="http://www.w3.org/1999/xlink" height="1597"><defs/><g transform="translate(5.5,5.5)" id="page1"><rect width="1123" height="1587" x="0" y="0" fill="none"/><g transform="matrix(0.000000,1.000000,-1.000000,0.000000,983.000000,57.000000)" id="group1"><g id="group2"><path stroke="#323232" stroke-width="1" d="M.0,.0L1058.0,.0L1058.0,490.8L.0,490.8L.0,.0z" fill="none" id="shape3"/><g transform="matrix(0.000000,-1.000000,1.000000,0.000000,-0.000000,490.808000)" id="shape4"><path stroke="#323232" stroke-width="1" d="M.0,.0L490.8,.0L490.8,56.7L.0,56.7L.0,.0z" fill-rule="nonzero" fill="#ffffff"/><text xml:space="preserve" style="fill:#191919;font-family:微软雅黑,PingFang SC,Mircrosoft YaHei,Arial;font-size:9.38pt"><tspan style="font-size:7.50pt" x="215.9" y="32.5">ClassLoader</tspan></text></g></g><g transform="translate(0.000000,490.808000)" id="group5"><path stroke="#323232" stroke-width="1" d="M.0,.0L1058.0,.0L1058.0,435.2L.0,435.2L.0,.0z" fill="none" id="shape6"/><g transform="matrix(0.000000,-1.000000,1.000000,0.000000,-0.000000,435.192000)" id="shape7"><path stroke="#323232" stroke-width="1" d="M.0,.0L435.2,.0L435.2,56.7L.0,56.7L.0,.0z" fill-rule="nonzero" fill="#ffffff"/><text xml:space="preserve" style="fill:#191919;font-family:微软雅黑,PingFang SC,Mircrosoft YaHei,Arial;font-size:9.38pt"><tspan style="font-size:7.50pt" x="164.6" y="24.5">ByteArrayClassLoader</tspan><tspan style="font-size:7.50pt" x="202.6" y="40.5">自定义</tspan></text></g></g></g><g transform="translate(113.000000,151.500000)" id="shape8"><path stroke="#323232" stroke-width="1" d="M22.5,45.0L172.5,45.0L172.5,45.0C184.9,45.0,195.0,34.9,195.0,22.5C195.0,10.1,184.9,.0,172.5,.0L22.5,.0L22.5,.0C10.1,.0,.0,10.1,.0,22.5C.0,34.9,10.1,45.0,22.5,45.0z" fill-rule="nonzero" fill="#ffffff"/><text xml:space="preserve" style="fill:#191919;font-family:微软雅黑,PingFang SC,Mircrosoft YaHei,Arial;font-size:9.38pt"><tspan style="font-size:7.50pt" x="19.5" y="26.5">loadClass( String name, byte[] b)</tspan></text></g><g transform="translate(568.500000,144.000000)" id="shape9"><path stroke="#323232" stroke-width="1" d="M129.0,53.0L129.0,7.0C129.0,3.1,125.9,.0,122.0,.0L7.0,.0C3.1,.0,.0,3.1,.0,7.0L.0,53.0C.0,56.9,3.1,60.0,7.0,60.0L122.0,60.0C125.9,60.0,129.0,56.9,129.0,53.0z" fill-rule="nonzero" fill="#ffffff"/><text xml:space="preserve" style="fill:#191919;font-family:微软雅黑,PingFang SC,Mircrosoft YaHei,Arial;font-size:9.38pt"><tspan style="font-size:7.50pt" x="8.5" y="34.0">loadClass(String name)</tspan></text></g><g transform="translate(308.000000,174.000000)" id="shape10"><path stroke="#323232" stroke-width="1" d="M.0,.0L256.1,.0" fill="none"/><path stroke="#323232" stroke-width="1" stroke-linecap="round" d="M260.5,.0L255.3,-3.0C255.8,-2.1,256.1,-1.1,256.1,.0C256.1,1.1,255.8,2.1,255.3,3.0L260.5,.0" fill="#323232"/><rect width="129.0" height="16.0" x="39.8" y="-8.0" fill="#ffffff"/><text xml:space="preserve" style="fill:#191919;font-family:微软雅黑,PingFang SC,Mircrosoft YaHei,Arial;font-size:9.38pt"><tspan style="font-size:7.50pt" x="39.8" y="4.0">调用super.loadClass(name)</tspan></text></g><g transform="translate(784.000000,144.000000)" id="shape11"><path stroke="#323232" stroke-width="1" d="M133.0,53.0L133.0,7.0C133.0,3.1,129.9,.0,126.0,.0L7.0,.0C3.1,.0,.0,3.1,.0,7.0L.0,53.0C.0,56.9,3.1,60.0,7.0,60.0L126.0,60.0C129.9,60.0,133.0,56.9,133.0,53.0z" fill-rule="nonzero" fill="#ffffff"/><text xml:space="preserve" style="fill:#191919;font-family:微软雅黑,PingFang SC,Mircrosoft YaHei,Arial;font-size:9.38pt"><tspan style="font-size:7.50pt" x="11.0" y="26.0">loadClass(String name, </tspan><tspan style="font-size:7.50pt" x="26.5" y="42.0">boolean resolve)</tspan></text></g><g transform="translate(697.500000,174.000000)" id="shape12"><path stroke="#323232" stroke-width="1" d="M.0,.0L82.1,.0" fill="none"/><path stroke="#323232" stroke-width="1" stroke-linecap="round" d="M86.5,.0L81.3,-3.0C81.8,-2.1,82.1,-1.1,82.1,.0C82.1,1.1,81.8,2.1,81.3,3.0L86.5,.0" fill="#323232"/></g><g transform="translate(784.000000,265.150000)" id="shape13"><path stroke="#323232" stroke-width="1" d="M133.0,53.0L133.0,7.0C133.0,3.1,129.9,.0,126.0,.0L7.0,.0C3.1,.0,.0,3.1,.0,7.0L.0,53.0C.0,56.9,3.1,60.0,7.0,60.0L126.0,60.0C129.9,60.0,133.0,56.9,133.0,53.0z" fill-rule="nonzero" fill="#ffffff"/><text xml:space="preserve" style="fill:#191919;font-family:微软雅黑,PingFang SC,Mircrosoft YaHei,Arial;font-size:9.38pt"><tspan style="font-size:7.50pt" x="10.5" y="34.0">findLoadedClass(name)</tspan></text></g><g transform="translate(784.000000,366.812500)" id="shape14"><path stroke="#323232" stroke-width="1" d="M66.5,60.4L133.0,30.2L66.5,.0L.0,30.2L66.5,60.4z" fill-rule="nonzero" fill="#ffffff"/><text xml:space="preserve" style="fill:#191919;font-family:微软雅黑,PingFang SC,Mircrosoft YaHei,Arial;font-size:9.38pt"><tspan style="font-size:7.50pt" x="33.0" y="34.2"> 是否找到class</tspan></text></g><g transform="translate(791.000000,468.850000)" id="shape15"><path stroke="#323232" stroke-width="1" d="M59.5,60.3L119.0,30.1L59.5,.0L.0,30.1L59.5,60.3z" fill-rule="nonzero" fill="#ffffff"/><text xml:space="preserve" style="fill:#191919;font-family:微软雅黑,PingFang SC,Mircrosoft YaHei,Arial;font-size:9.38pt"><tspan style="font-size:7.50pt" x="23.5" y="34.1">parent是否为空</tspan></text></g><g transform="translate(850.500000,427.188000)" id="shape16"><path stroke="#323232" stroke-width="1" d="M.0,.0L.0,37.3" fill="none"/><path stroke="#323232" stroke-width="1" stroke-linecap="round" d="M.0,41.7L3.0,36.5C2.1,37.0,1.1,37.3,.0,37.3C-1.1,37.3,-2.1,37.0,-3.0,36.5L.0,41.7" fill="#323232"/><rect width="30.0" height="16.0" x="-14.0" y="13.6" fill="#ffffff"/><text xml:space="preserve" style="fill:#191919;font-family:微软雅黑,PingFang SC,Mircrosoft YaHei,Arial;font-size:9.38pt"><tspan style="font-size:7.50pt" x="-14.0" y="25.6">没找到</tspan></text></g><g transform="translate(850.500000,204.000000)" id="shape17"><path stroke="#323232" stroke-width="1" d="M.0,.0L.0,56.8" fill="none"/><path stroke="#323232" stroke-width="1" stroke-linecap="round" d="M.0,61.1L3.0,56.0C2.1,56.5,1.1,56.8,.0,56.8C-1.1,56.8,-2.1,56.5,-3.0,56.0L.0,61.1" fill="#323232"/></g><g transform="translate(850.500000,325.150000)" id="shape18"><path stroke="#323232" stroke-width="1" d="M.0,.0L.0,37.3" fill="none"/><path stroke="#323232" stroke-width="1" stroke-linecap="round" d="M.0,41.7L3.0,36.5C2.1,37.0,1.1,37.3,.0,37.3C-1.1,37.3,-2.1,37.0,-3.0,36.5L.0,41.7" fill="#323232"/></g><g transform="translate(583.000000,468.850000)" id="shape19"><path stroke="#323232" stroke-width="1" d="M129.0,53.0L129.0,7.0C129.0,3.1,125.9,.0,122.0,.0L7.0,.0C3.1,.0,.0,3.1,.0,7.0L.0,53.0C.0,56.9,3.1,60.0,7.0,60.0L122.0,60.0C125.9,60.0,129.0,56.9,129.0,53.0z" fill-rule="nonzero" fill="#ffffff"/><text xml:space="preserve" style="fill:#191919;font-family:微软雅黑,PingFang SC,Mircrosoft YaHei,Arial;font-size:9.38pt"><tspan style="font-size:7.50pt" x="8.0" y="26.0">parent.loadClass(name, </tspan><tspan style="font-size:7.50pt" x="50.5" y="42.0">false);</tspan></text></g><g transform="translate(791.000000,498.975000)" id="shape20"><path stroke="#323232" stroke-width="1" d="M.0,.0L-47.0,.0L-47.0,-0.1L-74.6,-0.1" fill="none"/><path stroke="#323232" stroke-width="1" stroke-linecap="round" d="M-79.0,-0.1L-73.8,2.9C-74.3,2.0,-74.6,1.0,-74.6,-0.1C-74.6,-1.2,-74.3,-2.2,-73.8,-3.1L-79.0,-0.1" fill="#323232"/><rect width="30.0" height="16.0" x="-51.0" y="-8.0" fill="#ffffff"/><text xml:space="preserve" style="fill:#191919;font-family:微软雅黑,PingFang SC,Mircrosoft YaHei,Arial;font-size:9.38pt"><tspan style="font-size:7.50pt" x="-51.0" y="4.0">不为空</tspan></text></g><g transform="translate(784.000000,570.826000)" id="shape21"><path stroke="#323232" stroke-width="1" d="M135.0,53.0L135.0,7.0C135.0,3.1,131.9,.0,128.0,.0L7.0,.0C3.1,.0,.0,3.1,.0,7.0L.0,53.0C.0,56.9,3.1,60.0,7.0,60.0L128.0,60.0C131.9,60.0,135.0,56.9,135.0,53.0z" fill-rule="nonzero" fill="#ffffff"/><text xml:space="preserve" style="fill:#191919;font-family:微软雅黑,PingFang SC,Mircrosoft YaHei,Arial;font-size:9.38pt"><tspan style="font-size:7.50pt" x="4.5" y="26.0">findBootstrapClassOrNull(</tspan><tspan style="font-size:7.50pt" x="52.5" y="42.0">name)</tspan></text></g><g transform="translate(850.500000,529.100000)" id="shape22"><path stroke="#323232" stroke-width="1" d="M.0,.0L.0,25.7L1.0,25.7L1.0,37.3" fill="none"/><path stroke="#323232" stroke-width="1" stroke-linecap="round" d="M1.0,41.7L4.0,36.5C3.1,37.0,2.1,37.3,1.0,37.3C-0.1,37.3,-1.1,37.0,-2.0,36.5L1.0,41.7" fill="#323232"/><rect width="20.0" height="16.0" x="-9.0" y="14.2" fill="#ffffff"/><text xml:space="preserve" style="fill:#191919;font-family:微软雅黑,PingFang SC,Mircrosoft YaHei,Arial;font-size:9.38pt"><tspan style="font-size:7.50pt" x="-9.0" y="26.2">为空</tspan></text></g><g transform="translate(581.000000,570.826000)" id="shape23"><path stroke="#323232" stroke-width="1" d="M66.5,60.3L133.0,30.1L66.5,.0L.0,30.1L66.5,60.3z" fill-rule="nonzero" fill="#ffffff"/><text xml:space="preserve" style="fill:#191919;font-family:微软雅黑,PingFang SC,Mircrosoft YaHei,Arial;font-size:9.38pt"><tspan style="font-size:7.50pt" x="33.0" y="34.1"> 是否找到class</tspan></text></g><g transform="translate(784.000000,600.826000)" id="shape24"><path stroke="#323232" stroke-width="1" d="M.0,.0L-38.0,.0L-38.0,.1L-65.6,.1" fill="none"/><path stroke="#323232" stroke-width="1" stroke-linecap="round" d="M-70.0,.1L-64.8,3.1C-65.3,2.2,-65.6,1.2,-65.6,.1C-65.6,-1.0,-65.3,-2.0,-64.8,-2.9L-70.0,.1" fill="#323232"/></g><g transform="translate(647.500000,528.850000)" id="shape25"><path stroke="#323232" stroke-width="1" d="M.0,.0L.0,37.6" fill="none"/><path stroke="#323232" stroke-width="1" stroke-linecap="round" d="M.0,42.0L3.0,36.8C2.1,37.3,1.1,37.6,.0,37.6C-1.1,37.6,-2.1,37.3,-3.0,36.8L.0,42.0" fill="#323232"/></g><g transform="translate(227.000000,570.826000)" id="shape26"><path stroke="#323232" stroke-width="1" d="M133.0,53.0L133.0,7.0C133.0,3.1,129.9,.0,126.0,.0L7.0,.0C3.1,.0,.0,3.1,.0,7.0L.0,53.0C.0,56.9,3.1,60.0,7.0,60.0L126.0,60.0C129.9,60.0,133.0,56.9,133.0,53.0z" fill-rule="nonzero" fill="#ffffff"/><text xml:space="preserve" style="fill:#191919;font-family:微软雅黑,PingFang SC,Mircrosoft YaHei,Arial;font-size:9.38pt"><tspan style="font-size:7.50pt" x="12.0" y="34.0">findClass(String name)</tspan></text></g><g transform="translate(581.000000,600.951000)" id="shape27"><path stroke="#323232" stroke-width="1" d="M.0,.0L-189.0,.0L-189.0,-0.1L-216.6,-0.1" fill="none"/><path stroke="#323232" stroke-width="1" stroke-linecap="round" d="M-221.0,-0.1L-215.8,2.9C-216.3,2.0,-216.6,1.0,-216.6,-0.1C-216.6,-1.2,-216.3,-2.2,-215.8,-3.1L-221.0,-0.1" fill="#323232"/><rect width="10.0" height="16.0" x="-122.7" y="-8.0" fill="#ffffff"/><text xml:space="preserve" style="fill:#191919;font-family:微软雅黑,PingFang SC,Mircrosoft YaHei,Arial;font-size:9.38pt"><tspan style="font-size:7.50pt" x="-122.7" y="4.0">否</tspan></text></g><g transform="translate(581.000000,695.625500)" id="shape28"><path stroke="#323232" stroke-width="1" d="M66.5,60.4L133.0,30.2L66.5,.0L.0,30.2L66.5,60.4z" fill-rule="nonzero" fill="#ffffff"/><text xml:space="preserve" style="fill:#191919;font-family:微软雅黑,PingFang SC,Mircrosoft YaHei,Arial;font-size:9.38pt"><tspan style="font-size:7.50pt" x="37.5" y="34.2"> 是否resolve</tspan></text></g><g transform="translate(293.500000,630.826000)" id="shape29"><path stroke="#323232" stroke-width="1" d="M.0,.0L.0,95.0L283.1,95.0" fill="none"/><path stroke="#323232" stroke-width="1" stroke-linecap="round" d="M287.5,95.0L282.3,92.0C282.8,92.9,283.1,93.9,283.1,95.0C283.1,96.1,282.8,97.1,282.3,98.0L287.5,95.0" fill="#323232"/></g><g transform="translate(647.500000,631.076000)" id="shape30"><path stroke="#323232" stroke-width="1" d="M.0,.0L.0,60.2" fill="none"/><path stroke="#323232" stroke-width="1" stroke-linecap="round" d="M.0,64.5L3.0,59.4C2.1,59.9,1.1,60.2,.0,60.2C-1.1,60.2,-2.1,59.9,-3.0,59.4L.0,64.5" fill="#323232"/></g><g transform="translate(784.000000,696.000000)" id="shape31"><path stroke="#323232" stroke-width="1" d="M135.0,53.0L135.0,7.0C135.0,3.1,131.9,.0,128.0,.0L7.0,.0C3.1,.0,.0,3.1,.0,7.0L.0,53.0C.0,56.9,3.1,60.0,7.0,60.0L128.0,60.0C131.9,60.0,135.0,56.9,135.0,53.0z" fill-rule="nonzero" fill="#ffffff"/><text xml:space="preserve" style="fill:#191919;font-family:微软雅黑,PingFang SC,Mircrosoft YaHei,Arial;font-size:9.38pt"><tspan style="font-size:7.50pt" x="6.0" y="34.0">resolveClass(Class&lt;?> c) </tspan></text></g><g transform="translate(714.000000,725.813000)" id="shape32"><path stroke="#323232" stroke-width="1" d="M.0,.0L38.0,.0L38.0,.2L65.6,.2" fill="none"/><path stroke="#323232" stroke-width="1" stroke-linecap="round" d="M70.0,.2L64.8,-2.8C65.3,-1.9,65.6,-0.9,65.6,.2C65.6,1.3,65.3,2.3,64.8,3.2L70.0,.2" fill="#323232"/><rect width="10.0" height="16.0" x="34.0" y="-8.0" fill="#ffffff"/><text xml:space="preserve" style="fill:#191919;font-family:微软雅黑,PingFang SC,Mircrosoft YaHei,Arial;font-size:9.38pt"><tspan style="font-size:7.50pt" x="34.0" y="4.0">是</tspan></text></g><g transform="translate(597.500000,820.549000)" id="shape33"><path stroke="#323232" stroke-width="1" d="M22.0,44.0L78.0,44.0L78.0,44.0C90.2,44.0,100.0,34.2,100.0,22.0C100.0,9.8,90.2,.0,78.0,.0L22.0,.0L22.0,.0C9.8,.0,.0,9.8,.0,22.0C.0,34.2,9.8,44.0,22.0,44.0z" fill-rule="nonzero" fill="#ffffff"/><text xml:space="preserve" style="fill:#191919;font-family:微软雅黑,PingFang SC,Mircrosoft YaHei,Arial;font-size:9.38pt"><tspan style="font-size:7.50pt" x="28.0" y="26.0">返回class</tspan></text></g><g transform="translate(851.500000,756.000000)" id="shape34"><path stroke="#323232" stroke-width="1" d="M.0,.0L.0,86.5L-149.6,86.5" fill="none"/><path stroke="#323232" stroke-width="1" stroke-linecap="round" d="M-154.0,86.5L-148.8,89.5C-149.3,88.7,-149.6,87.6,-149.6,86.5C-149.6,85.5,-149.3,84.4,-148.8,83.5L-154.0,86.5" fill="#323232"/></g><g transform="translate(647.500000,756.000000)" id="shape35"><path stroke="#323232" stroke-width="1" d="M.0,.0L.0,60.2" fill="none"/><path stroke="#323232" stroke-width="1" stroke-linecap="round" d="M.0,64.5L3.0,59.4C2.1,59.9,1.1,60.2,.0,60.2C-1.1,60.2,-2.1,59.9,-3.0,59.4L.0,64.5" fill="#323232"/><rect width="10.0" height="16.0" x="-4.0" y="22.1" fill="#ffffff"/><text xml:space="preserve" style="fill:#191919;font-family:微软雅黑,PingFang SC,Mircrosoft YaHei,Arial;font-size:9.38pt"><tspan style="font-size:7.50pt" x="-4.0" y="34.1">否</tspan></text></g><g transform="translate(227.000000,812.424000)" id="shape36"><path stroke="#323232" stroke-width="1" d="M66.5,60.3L133.0,30.1L66.5,.0L.0,30.1L66.5,60.3z" fill-rule="nonzero" fill="#ffffff"/><text xml:space="preserve" style="fill:#191919;font-family:微软雅黑,PingFang SC,Mircrosoft YaHei,Arial;font-size:9.38pt"><tspan style="font-size:7.50pt" x="34.5" y="34.1">class是否为空</tspan></text></g><g transform="translate(597.500000,842.549000)" id="shape37"><path stroke="#323232" stroke-width="1" d="M.0,.0L-233.1,.0" fill="none"/><path stroke="#323232" stroke-width="1" stroke-linecap="round" d="M-237.5,.0L-232.3,3.0C-232.8,2.1,-233.1,1.1,-233.1,.0C-233.1,-1.1,-232.8,-2.1,-232.3,-3.0L-237.5,.0" fill="#323232"/></g><g transform="translate(569.500000,945.000000)" id="shape38"><path stroke="#323232" stroke-width="1" d="M243.5,53.0L243.5,7.0C243.5,3.1,240.4,.0,236.5,.0L7.0,.0C3.1,.0,.0,3.1,.0,7.0L.0,53.0C.0,56.9,3.1,60.0,7.0,60.0L236.5,60.0C240.4,60.0,243.5,56.9,243.5,53.0z" fill-rule="nonzero" fill="#ffffff"/><text xml:space="preserve" style="fill:#191919;font-family:微软雅黑,PingFang SC,Mircrosoft YaHei,Arial;font-size:9.38pt"><tspan style="font-size:7.50pt" x="6.3" y="34.0">defineClass(String name, byte[] b, int off, int len)</tspan></text></g><g transform="translate(293.500000,872.674000)" id="shape39"><path stroke="#323232" stroke-width="1" d="M.0,.0L.0,102.3L271.6,102.3" fill="none"/><path stroke="#323232" stroke-width="1" stroke-linecap="round" d="M276.0,102.3L270.8,99.3C271.3,100.2,271.6,101.2,271.6,102.3C271.6,103.4,271.3,104.4,270.8,105.3L276.0,102.3" fill="#323232"/><rect width="10.0" height="16.0" x="-4.0" y="59.0" fill="#ffffff"/><text xml:space="preserve" style="fill:#191919;font-family:微软雅黑,PingFang SC,Mircrosoft YaHei,Arial;font-size:9.38pt"><tspan style="font-size:7.50pt" x="-4.0" y="71.0">是</tspan></text></g><g transform="translate(243.500000,1033.000000)" id="shape40"><path stroke="#323232" stroke-width="1" d="M22.0,44.0L78.0,44.0L78.0,44.0C90.2,44.0,100.0,34.2,100.0,22.0C100.0,9.8,90.2,.0,78.0,.0L22.0,.0L22.0,.0C9.8,.0,.0,9.8,.0,22.0C.0,34.2,9.8,44.0,22.0,44.0z" fill-rule="nonzero" fill="#ffffff"/><text xml:space="preserve" style="fill:#191919;font-family:微软雅黑,PingFang SC,Mircrosoft YaHei,Arial;font-size:9.38pt"><tspan style="font-size:7.50pt" x="40.0" y="26.0">结束</tspan></text></g><g transform="translate(227.000000,842.549000)" id="shape41"><path stroke="#323232" stroke-width="1" d="M.0,.0L-32.0,.0L-32.0,212.5L12.1,212.5" fill="none"/><path stroke="#323232" stroke-width="1" stroke-linecap="round" d="M16.5,212.5L11.3,209.5C11.8,210.3,12.1,211.4,12.1,212.5C12.1,213.5,11.8,214.6,11.3,215.5L16.5,212.5" fill="#323232"/></g><g transform="translate(691.250000,1005.000000)" id="shape42"><path stroke="#323232" stroke-width="1" d="M.0,.0L.0,50.0L-343.4,50.0" fill="none"/><path stroke="#323232" stroke-width="1" stroke-linecap="round" d="M-347.8,50.0L-342.6,53.0C-343.1,52.1,-343.4,51.1,-343.4,50.0C-343.4,48.9,-343.1,47.9,-342.6,47.0L-347.8,50.0" fill="#323232"/></g></g></svg>