<svg xmlns="http://www.w3.org/2000/svg" xmlns:ev="http://www.w3.org/2001/xml-events" viewBox="0 0 1132 804" width="1132" xmlns:xlink="http://www.w3.org/1999/xlink" height="804"><defs/><g transform="translate(5.5,5.5)" id="page5"><rect width="1123" height="794" x="0" y="0" fill="none"/><g transform="translate(396.850000,56.693000)" id="shape1"><path d="M.0,.0L200.0,.0L200.0,116.4L.0,116.4L.0,.0zM.0,56.0L200.0,56.0L.0,56.0z" fill-rule="nonzero" fill="#ffffff"/><path stroke="#191919" stroke-width="1" d="M.0,.0L200.0,.0L200.0,116.4L.0,116.4L.0,.0zM.0,56.0L200.0,56.0L.0,56.0z" fill="none"/><text xml:space="preserve" style="fill:#191919;font-family:微软雅黑,PingFang SC,Mircrosoft YaHei,Arial;font-size:12.50pt"><tspan style="font-size:10.00pt" x="53.0" y="24.0">&lt;&lt;interface>></tspan><tspan style="font-size:10.00pt" x="62.0" y="43.0">BeanFactory</tspan></text><text xml:space="preserve" style="fill:#191919;font-family:微软雅黑,PingFang SC,Mircrosoft YaHei,Arial;font-size:12.50pt"><tspan style="font-size:10.00pt" x="4.0" y="91.7">+    Operation A(int): void</tspan></text></g><g transform="translate(113.386000,245.669000)" id="shape2"><path d="M.0,.0L200.0,.0L200.0,116.4L.0,116.4L.0,.0zM.0,56.0L200.0,56.0L.0,56.0z" fill-rule="nonzero" fill="#ffffff"/><path stroke="#191919" stroke-width="1" d="M.0,.0L200.0,.0L200.0,116.4L.0,116.4L.0,.0zM.0,56.0L200.0,56.0L.0,56.0z" fill="none"/><text xml:space="preserve" style="fill:#191919;font-family:微软雅黑,PingFang SC,Mircrosoft YaHei,Arial;font-size:12.50pt"><tspan style="font-size:10.00pt" x="53.0" y="24.0">&lt;&lt;interface>></tspan><tspan style="font-size:10.00pt" x="39.0" y="43.0">ListableBeanFactory</tspan></text><text xml:space="preserve" style="fill:#191919;font-family:微软雅黑,PingFang SC,Mircrosoft YaHei,Arial;font-size:12.50pt"><tspan style="font-size:10.00pt" x="4.0" y="91.7">+    Operation A(int): void</tspan></text></g><g transform="translate(731.496000,245.669000)" id="shape3"><path d="M.0,.0L200.0,.0L200.0,116.4L.0,116.4L.0,.0zM.0,56.0L200.0,56.0L.0,56.0z" fill-rule="nonzero" fill="#ffffff"/><path stroke="#191919" stroke-width="1" d="M.0,.0L200.0,.0L200.0,116.4L.0,116.4L.0,.0zM.0,56.0L200.0,56.0L.0,56.0z" fill="none"/><text xml:space="preserve" style="fill:#191919;font-family:微软雅黑,PingFang SC,Mircrosoft YaHei,Arial;font-size:12.50pt"><tspan style="font-size:10.00pt" x="53.0" y="24.0">&lt;&lt;interface>></tspan><tspan style="font-size:10.00pt" x="39.0" y="43.0">ListableBeanFactory</tspan></text><text xml:space="preserve" style="fill:#191919;font-family:微软雅黑,PingFang SC,Mircrosoft YaHei,Arial;font-size:12.50pt"><tspan style="font-size:10.00pt" x="4.0" y="91.7">+    Operation A(int): void</tspan></text></g></g></svg>