<svg xmlns="http://www.w3.org/2000/svg" xmlns:ev="http://www.w3.org/2001/xml-events" viewBox="0 0 1132 1597" width="1132" xmlns:xlink="http://www.w3.org/1999/xlink" height="1597"><defs/><g transform="translate(5.5,5.5)" id="page1"><rect width="1123" height="1587" x="0" y="0" fill="none"/><g transform="translate(82.000000,60.400000)" id="shape1"><path stroke="#323232" stroke-width="1" d="M702.0,329.6L702.0,7.0C702.0,3.1,698.9,.0,695.0,.0L7.0,.0C3.1,.0,.0,3.1,.0,7.0L.0,329.6C.0,333.5,3.1,336.6,7.0,336.6L695.0,336.6C698.9,336.6,702.0,333.5,702.0,329.6z" fill-rule="nonzero" fill="#e9f4ed"/><text xml:space="preserve" style="fill:#191919;font-family:微软雅黑,PingFang SC,Mircrosoft YaHei,Arial;font-size:17.50pt"><tspan style="font-size:14.00pt" x="4.0" y="24.0">客户端A</tspan></text></g><g transform="translate(113.000000,160.470000)" id="shape2"><path stroke="#323232" stroke-width="1" d="M232.0,113.0L232.0,.0L.0,.0L.0,113.0L232.0,113.0z" fill-rule="nonzero" fill="#87cfa5"/><text xml:space="preserve" style="fill:#191919;font-family:微软雅黑,PingFang SC,Mircrosoft YaHei,Arial;font-size:12.50pt"><tspan style="font-size:10.00pt" x="4.0" y="24.0">ssh-keygen </tspan><tspan style="font-size:10.00pt" x="4.0" y="43.0">    -t rsa </tspan><tspan style="font-size:10.00pt" x="4.0" y="62.0">    -C "wangming.co@hotmail.com" </tspan><tspan style="font-size:10.00pt" x="4.0" y="81.0">    -f ~/.ssh/id_rsa </tspan><tspan style="font-size:10.00pt" x="4.0" y="100.0">    -N 111111 </tspan></text></g><g transform="translate(491.000000,116.820000)" id="shape3"><path stroke="#323232" stroke-width="1" d="M183.0,60.0L183.0,.0L.0,.0L.0,60.0L183.0,60.0z" fill-rule="nonzero" fill="#e54648"/><text xml:space="preserve" style="fill:#191919;font-family:微软雅黑,PingFang SC,Mircrosoft YaHei,Arial;font-size:12.50pt"><tspan style="font-size:10.00pt" x="51.5" y="35.5">~/.ssh/id_rsa</tspan></text></g><g transform="translate(491.000000,260.820000)" id="shape4"><path stroke="#323232" stroke-width="1" d="M183.0,60.0L183.0,.0L.0,.0L.0,60.0L183.0,60.0z" fill-rule="nonzero" fill="#f0b0b1"/><text xml:space="preserve" style="fill:#191919;font-family:微软雅黑,PingFang SC,Mircrosoft YaHei,Arial;font-size:12.50pt"><tspan style="font-size:10.00pt" x="38.0" y="35.5">~/.ssh/id_rsa.pub</tspan></text></g><g transform="matrix(-1.000000,0.000000,0.000000,1.000000,472.000000,116.820000)" id="shape5"><path stroke="#999999" stroke-width="1" d="M.0,.0L9.0,.0C11.5,-0.4,14.0,.5,15.8,2.2C17.5,4.0,18.4,6.5,18.0,9.0L18.0,93.0C17.6,95.5,18.5,98.0,20.2,99.8C22.0,101.5,24.5,102.4,27.0,102.0C24.5,101.6,22.0,102.5,20.2,104.2C18.5,106.0,17.6,108.5,18.0,111.0L18.0,195.0C18.4,197.5,17.5,200.0,15.8,201.8C14.0,203.5,11.5,204.4,9.0,204.0L.0,204.0" fill="none"/><text xml:space="preserve" style="fill:#191919;font-family:微软雅黑,PingFang SC,Mircrosoft YaHei,Arial;font-size:12.50pt" transform="matrix(-1.00,0.00,0.00,1.00,158.0,0.0)"><tspan style="font-size:10.00pt" x="41.0" y="107.5">产生俩个文件</tspan></text></g><g transform="translate(82.000000,555.700000)" id="shape6"><path stroke="#323232" stroke-width="1" d="M702.0,317.6L702.0,7.0C702.0,3.1,698.9,.0,695.0,.0L7.0,.0C3.1,.0,.0,3.1,.0,7.0L.0,317.6C.0,321.5,3.1,324.6,7.0,324.6L695.0,324.6C698.9,324.6,702.0,321.5,702.0,317.6z" fill-rule="nonzero" fill="#e7f2fc"/><text xml:space="preserve" style="fill:#191919;font-family:微软雅黑,PingFang SC,Mircrosoft YaHei,Arial;font-size:17.50pt"><tspan style="font-size:14.00pt" x="4.0" y="24.0">服务器</tspan></text></g><g transform="translate(582.500000,320.820000)" id="shape7"><path stroke="#191919" stroke-width="3.3333299160003662" d="M.0,.0L.0,310.0" fill="none"/><path stroke="#191919" stroke-width="1" stroke-linecap="round" d="M5.5,310.0L.0,321.0L-5.5,310.0L5.5,310.0" fill="#191919"/><rect width="52.0" height="19.0" x="-25.0" y="130.8" fill="#ffffff"/><text xml:space="preserve" style="fill:#191919;font-family:微软雅黑,PingFang SC,Mircrosoft YaHei,Arial;font-size:12.50pt"><tspan style="font-size:10.00pt" x="-25.0" y="145.8">复制文件</tspan></text></g><g transform="translate(162.000000,710.300000)" id="shape8"><path stroke="#323232" stroke-width="1" d="M183.0,60.0L183.0,.0L.0,.0L.0,60.0L183.0,60.0z" fill-rule="nonzero" fill="#00aeee"/><text xml:space="preserve" style="fill:#191919;font-family:微软雅黑,PingFang SC,Mircrosoft YaHei,Arial;font-size:12.50pt"><tspan style="font-size:10.00pt" x="20.0" y="35.5">~/.ssh/authorized_keys</tspan></text></g><g transform="translate(491.000000,671.000000)" id="shape9"><path stroke="#191919" stroke-width="3.3333299160003662" d="M.0,.0L-238.0,.0L-238.0,28.0" fill="none"/><path stroke="#191919" stroke-width="1" stroke-linecap="round" d="M-232.5,28.0L-238.0,39.0L-243.5,28.0L-232.5,28.0" fill="#191919"/><rect width="78.0" height="19.0" x="-142.0" y="-9.5" fill="#ffffff"/><text xml:space="preserve" style="fill:#191919;font-family:微软雅黑,PingFang SC,Mircrosoft YaHei,Arial;font-size:12.50pt"><tspan style="font-size:10.00pt" x="-142.0" y="5.5">将内容追加到</tspan></text></g><g transform="translate(491.000000,641.000000)" id="shape10"><path stroke="#323232" stroke-width="1" d="M183.0,60.0L183.0,.0L.0,.0L.0,60.0L183.0,60.0z" fill-rule="nonzero" fill="#f0b0b1"/><text xml:space="preserve" style="fill:#191919;font-family:微软雅黑,PingFang SC,Mircrosoft YaHei,Arial;font-size:12.50pt"><tspan style="font-size:10.00pt" x="38.0" y="35.5">~/.ssh/id_rsa.pub</tspan></text></g><g transform="translate(283.016000,397.000000)" id="shape11"><path stroke="#191919" stroke-width="3.3333299160003662" d="M.0,.0L.0,146.0" fill="none"/><path stroke="#191919" stroke-width="1" stroke-linecap="round" d="M5.5,146.0L.0,157.0L-5.5,146.0L5.5,146.0" fill="#191919"/><rect width="34.0" height="19.0" x="-16.0" y="48.3" fill="#ffffff"/><rect width="160.0" height="19.0" x="-79.0" y="67.3" fill="#ffffff"/><rect width="134.0" height="19.0" x="-66.0" y="86.3" fill="#ffffff"/><text xml:space="preserve" style="fill:#191919;font-family:微软雅黑,PingFang SC,Mircrosoft YaHei,Arial;font-size:12.50pt"><tspan style="font-size:10.00pt" x="-16.0" y="63.3">login </tspan><tspan style="font-size:10.00pt" x="-79.0" y="82.3">ssh root@112.126.215.81</tspan><tspan style="font-size:10.00pt" x="-66.0" y="101.3">然后输入密码 111111 </tspan></text></g><g transform="translate(82.000000,1096.000000)" id="shape12"><path stroke="#323232" stroke-width="1" d="M702.0,329.6L702.0,7.0C702.0,3.1,698.9,.0,695.0,.0L7.0,.0C3.1,.0,.0,3.1,.0,7.0L.0,329.6C.0,333.5,3.1,336.6,7.0,336.6L695.0,336.6C698.9,336.6,702.0,333.5,702.0,329.6z" fill-rule="nonzero" fill="#e9f4ed"/><text xml:space="preserve" style="fill:#191919;font-family:微软雅黑,PingFang SC,Mircrosoft YaHei,Arial;font-size:17.50pt"><tspan style="font-size:14.00pt" x="4.0" y="24.0">客户端C</tspan></text></g><g transform="translate(113.000000,1196.070000)" id="shape13"><path stroke="#323232" stroke-width="1" d="M232.0,113.0L232.0,.0L.0,.0L.0,113.0L232.0,113.0z" fill-rule="nonzero" fill="#87cfa5"/><text xml:space="preserve" style="fill:#191919;font-family:微软雅黑,PingFang SC,Mircrosoft YaHei,Arial;font-size:12.50pt"><tspan style="font-size:10.00pt" x="4.0" y="24.0">ssh-keygen </tspan><tspan style="font-size:10.00pt" x="4.0" y="43.0">    -t rsa </tspan><tspan style="font-size:10.00pt" x="4.0" y="62.0">    -C "wangming.co@hotmail.com" </tspan><tspan style="font-size:10.00pt" x="4.0" y="81.0">    -f ~/.ssh/id_rsa </tspan><tspan style="font-size:10.00pt" x="4.0" y="100.0">    -N 111111 </tspan></text></g><g transform="translate(494.500000,1296.420000)" id="shape14"><path stroke="#323232" stroke-width="1" d="M183.0,60.0L183.0,.0L.0,.0L.0,60.0L183.0,60.0z" fill-rule="nonzero" fill="#ffe8cd"/><text xml:space="preserve" style="fill:#191919;font-family:微软雅黑,PingFang SC,Mircrosoft YaHei,Arial;font-size:12.50pt"><tspan style="font-size:10.00pt" x="51.5" y="35.5">~/.ssh/id_rsa</tspan></text></g><g transform="translate(494.500000,1164.600000)" id="shape15"><path stroke="#323232" stroke-width="1" d="M183.0,60.0L183.0,.0L.0,.0L.0,60.0L183.0,60.0z" fill-rule="nonzero" fill="#ffbf28"/><text xml:space="preserve" style="fill:#191919;font-family:微软雅黑,PingFang SC,Mircrosoft YaHei,Arial;font-size:12.50pt"><tspan style="font-size:10.00pt" x="38.0" y="35.5">~/.ssh/id_rsa.pub</tspan></text></g><g transform="matrix(-1.000000,0.000000,0.000000,1.000000,472.000000,1152.420000)" id="shape16"><path stroke="#999999" stroke-width="1" d="M.0,.0L9.0,.0C11.5,-0.4,14.0,.5,15.8,2.2C17.5,4.0,18.4,6.5,18.0,9.0L18.0,93.0C17.6,95.5,18.5,98.0,20.2,99.8C22.0,101.5,24.5,102.4,27.0,102.0C24.5,101.6,22.0,102.5,20.2,104.2C18.5,106.0,17.6,108.5,18.0,111.0L18.0,195.0C18.4,197.5,17.5,200.0,15.8,201.8C14.0,203.5,11.5,204.4,9.0,204.0L.0,204.0" fill="none"/><text xml:space="preserve" style="fill:#191919;font-family:微软雅黑,PingFang SC,Mircrosoft YaHei,Arial;font-size:12.50pt" transform="matrix(-1.00,0.00,0.00,1.00,158.0,0.0)"><tspan style="font-size:10.00pt" x="41.0" y="107.5">产生俩个文件</tspan></text></g><g transform="translate(278.888000,1096.000000)" id="shape17"><path stroke="#191919" stroke-width="3.3333299160003662" d="M.0,.0L.0,-204.0" fill="none"/><path stroke="#191919" stroke-width="1" stroke-linecap="round" d="M-5.5,-204.0L.0,-215.0L5.5,-204.0L-5.5,-204.0" fill="#191919"/><rect width="34.0" height="19.0" x="-16.0" y="-145.2" fill="#ffffff"/><rect width="160.0" height="19.0" x="-79.0" y="-126.2" fill="#ffffff"/><rect width="134.0" height="19.0" x="-66.0" y="-107.2" fill="#ffffff"/><text xml:space="preserve" style="fill:#191919;font-family:微软雅黑,PingFang SC,Mircrosoft YaHei,Arial;font-size:12.50pt"><tspan style="font-size:10.00pt" x="-16.0" y="-130.2">login </tspan><tspan style="font-size:10.00pt" x="-79.0" y="-111.2">ssh root@112.126.215.81</tspan><tspan style="font-size:10.00pt" x="-66.0" y="-92.2">然后输入密码 111111 </tspan></text></g><g transform="translate(494.500000,767.300000)" id="shape18"><path stroke="#323232" stroke-width="1" d="M183.0,60.0L183.0,.0L.0,.0L.0,60.0L183.0,60.0z" fill-rule="nonzero" fill="#ffbf28"/><text xml:space="preserve" style="fill:#191919;font-family:微软雅黑,PingFang SC,Mircrosoft YaHei,Arial;font-size:12.50pt"><tspan style="font-size:10.00pt" x="38.0" y="35.5">~/.ssh/id_rsa.pub</tspan></text></g><g transform="translate(494.500000,797.300000)" id="shape19"><path stroke="#191919" stroke-width="3.3333299160003662" d="M.0,.0L-241.0,.0L-241.0,-16.0" fill="none"/><path stroke="#191919" stroke-width="1" stroke-linecap="round" d="M-246.5,-16.0L-241.0,-27.0L-235.5,-16.0L-246.5,-16.0" fill="#191919"/><rect width="78.0" height="19.0" x="-146.7" y="-9.5" fill="#ffffff"/><text xml:space="preserve" style="fill:#191919;font-family:微软雅黑,PingFang SC,Mircrosoft YaHei,Arial;font-size:12.50pt"><tspan style="font-size:10.00pt" x="-146.7" y="5.5">将内容追加到</tspan></text></g><g transform="translate(586.000000,1164.600000)" id="shape20"><path stroke="#191919" stroke-width="3.3333299160003662" d="M.0,.0L.0,-326.0" fill="none"/><path stroke="#191919" stroke-width="1" stroke-linecap="round" d="M-5.5,-326.0L.0,-337.0L5.5,-326.0L-5.5,-326.0" fill="#191919"/><rect width="52.0" height="19.0" x="-25.0" y="-178.1" fill="#ffffff"/><text xml:space="preserve" style="fill:#191919;font-family:微软雅黑,PingFang SC,Mircrosoft YaHei,Arial;font-size:12.50pt"><tspan style="font-size:10.00pt" x="-25.0" y="-163.1">复制文件</tspan></text></g></g></svg>